<?xml version="1.0" encoding="UTF-8"?>
<svg width="165px" height="149px" viewBox="0 0 165 149" version="1.1" xmlns="http://www.w3.org/2000/svg" xmlns:xlink="http://www.w3.org/1999/xlink">
    <title>2onder1kap</title>
    <defs>
        <polygon id="path-1" points="11 112.4253 154 112.4253 154 13.0003 11 13.0003"></polygon>
    </defs>
    <g id="Page-1" stroke="none" stroke-width="1" fill="none" fill-rule="evenodd">
        <g id="Homepage---woningkeuren.nl" transform="translate(-1065.000000, -477.000000)">
            <g id="Group-3-Copy" transform="translate(239.000000, 397.000000)">
                <g id="twee-onder-een-kap" transform="translate(736.000000, 36.000000)">
                    <g id="2onder1kap" transform="translate(90.000000, 44.000000)">
                        <path d="M117.330177,10.7780192 C130.710729,18.4805479 143.810324,28.5288468 153.257485,43.1286399 C162.669527,57.7284329 168.464254,76.9147318 162.704646,91.6895823 C156.945039,106.464433 139.666216,116.792824 123.405861,127.96149 C107.145505,139.165168 91.9387367,151.209122 78.5933047,148.653283 C65.2478726,146.097444 53.7637771,128.976824 38.7326063,117.388019 C23.7014354,105.799214 5.12318917,99.7772375 0.943961762,88.6785938 C-3.20014609,77.5799501 7.01964531,61.4046398 17.5906323,50.4110306 C28.1616193,39.4174215 39.0135627,33.5705019 48.9172781,24.7476054 C58.856113,15.9247089 67.7764808,4.16084681 79.0849785,0.939789344 C90.3583566,-2.24625663 103.984745,3.07549049 117.330177,10.7780192 Z" id="Blob" fill="#0D3A97" fill-rule="nonzero" opacity="0.049999997"></path>
                        <path d="M100.1982,96.8496 C100.4872,96.1516 101.2872,95.8206 101.9852,96.1096 C102.6832,96.3986 103.0142,97.1986 102.7252,97.8966 C102.4362,98.5946 101.6362,98.9256 100.9382,98.6366 C100.2402,98.3476 99.9092,97.5476 100.1982,96.8496" id="Fill-1" fill="#222222"></path>
                        <path d="M118.7524,71.3555 L98.7524,71.3555 L98.7524,69.3555 L99.7524,69.3555 L117.7524,69.3555 L118.7524,69.3555 L118.7524,71.3555 Z M100.7524,67.3555 L116.7524,67.3555 L116.7524,51.3555 L100.7524,51.3555 L100.7524,67.3555 Z M119.7524,67.3555 L118.7524,67.3555 L118.7524,50.3555 C118.7524,49.8035 118.3044,49.3555 117.7524,49.3555 L99.7524,49.3555 C99.2004,49.3555 98.7524,49.8035 98.7524,50.3555 L98.7524,67.3555 L97.7524,67.3555 C97.2004,67.3555 96.7524,67.8035 96.7524,68.3555 L96.7524,72.3555 C96.7524,72.9075 97.2004,73.3555 97.7524,73.3555 L119.7524,73.3555 C120.3044,73.3555 120.7524,72.9075 120.7524,72.3555 L120.7524,68.3555 C120.7524,67.8035 120.3044,67.3555 119.7524,67.3555 L119.7524,67.3555 Z" id="Fill-3" fill="#222222"></path>
                        <path d="M66,71.4253 L46,71.4253 L46,69.4253 L47,69.4253 L65,69.4253 L66,69.4253 L66,71.4253 Z M48,67.4253 L64,67.4253 L64,51.4253 L48,51.4253 L48,67.4253 Z M67,67.4253 L66,67.4253 L66,50.4253 C66,49.8733 65.552,49.4253 65,49.4253 L47,49.4253 C46.448,49.4253 46,49.8733 46,50.4253 L46,67.4253 L45,67.4253 C44.448,67.4253 44,67.8733 44,68.4253 L44,72.4253 C44,72.9773 44.448,73.4253 45,73.4253 L67,73.4253 C67.552,73.4253 68,72.9773 68,72.4253 L68,68.4253 C68,67.8733 67.552,67.4253 67,67.4253 L67,67.4253 Z" id="Fill-5" fill="#222222"></path>
                        <mask id="mask-2" fill="white">
                            <use xlink:href="#path-1"></use>
                        </mask>
                        <g id="Clip-8"></g>
                        <path d="M98.752,110.3553 L117.752,110.3553 L117.752,85.3553 L98.752,85.3553 L98.752,110.3553 Z M46,110.4253 L65,110.4253 L65,85.4253 L46,85.4253 L46,110.4253 Z M23.16,48.3233 L56,15.4843 L80.927,40.4113 L78.099,43.2393 L56.707,21.8483 C56.316,21.4573 55.684,21.4573 55.293,21.8483 L29.053,48.0883 L23.16,48.3233 Z M28,108.6103 L24.834,108.6103 C23.324,108.6083 22.101,107.3843 22.099,105.8753 C22.1,104.3813 23.299,103.1643 24.793,103.1393 L24.796,103.1393 C24.866,103.1493 24.936,103.1573 25.007,103.1623 C25.761,103.2103 26.411,102.6373 26.458,101.8833 C26.47,101.6963 26.443,101.5083 26.379,101.3303 C26.266,101.0343 26.206,100.7213 26.201,100.4043 C26.203,99.2263 26.954,98.2333 28,97.8493 L28,108.6103 Z M108.752,15.4143 L141.592,48.2543 L135.7,48.0183 L109.459,21.7783 C109.069,21.3873 108.436,21.3873 108.045,21.7783 L86.584,43.2393 L83.755,40.4113 L108.752,15.4143 Z M153,110.4253 L138.413,110.6173 L138.413,111.6563 L136.413,111.6563 L136.413,110.6433 L135.413,110.6563 L135.451,103.9323 C134.75,103.7753 134.082,103.5353 133.453,103.2263 L133.413,110.4253 L119.752,110.4253 L119.752,84.3553 C119.752,83.8033 119.305,83.3553 118.752,83.3553 L97.752,83.3553 C97.2,83.3553 96.752,83.8033 96.752,84.3553 L96.752,110.4253 L83,110.4253 L83,49.4253 C83,48.8733 82.552,48.4253 82,48.4253 C81.448,48.4253 81,48.8733 81,49.4253 L81,110.4253 L67,110.4253 L67,84.4253 C67,83.8733 66.552,83.4253 66,83.4253 L45,83.4253 C44.448,83.4253 44,83.8733 44,84.4253 L44,110.4253 L30,110.4253 L30,49.9083 C30.065,49.8683 30.135,49.8343 30.19,49.7793 L56,23.9693 L77.392,45.3613 C77.782,45.7513 78.415,45.7513 78.806,45.3613 L82.341,41.8253 L85.877,45.3613 C86.268,45.7513 86.9,45.7513 87.291,45.3613 L108.752,23.8993 L133.829,48.9763 C133.781,49.0933 133.752,49.2203 133.752,49.3553 L133.616,73.8923 C134.217,73.4573 134.894,73.1223 135.625,72.9133 L135.752,50.0223 L144.068,50.3543 C144.082,50.3553 144.095,50.3553 144.108,50.3553 C144.504,50.3553 144.864,50.1213 145.024,49.7563 C145.189,49.3793 145.106,48.9393 144.815,48.6483 L109.459,13.2933 C109.069,12.9023 108.436,12.9023 108.045,13.2933 L82.341,38.9973 L56.707,13.3623 C56.316,12.9723 55.684,12.9723 55.293,13.3623 L19.938,48.7183 C19.646,49.0093 19.563,49.4493 19.729,49.8263 C19.888,50.1913 20.249,50.4253 20.645,50.4253 C20.658,50.4253 20.671,50.4253 20.685,50.4243 L28,50.1323 L28,95.0213 C25.427,95.4683 23.469,97.7053 23.466,100.4043 C23.466,100.4613 23.467,100.5193 23.469,100.5773 C20.543,101.3293 18.781,104.3113 19.534,107.2373 C19.881,108.5883 20.725,109.6963 21.828,110.4253 L12,110.4253 C11.448,110.4253 11,110.8733 11,111.4253 C11,111.9773 11.448,112.4253 12,112.4253 L29,112.4253 L45,112.4253 L66,112.4253 L82,112.4253 L153,112.4253 C153.552,112.4253 154,111.9773 154,111.4253 C154,110.8733 153.552,110.4253 153,110.4253 L153,110.4253 Z" id="Fill-7" fill="#222222" mask="url(#mask-2)"></path>
                        <path d="M130.4131,95.1567 C130.4131,93.3777 131.0851,91.7577 132.1821,90.5207 C132.5771,90.0757 133.0351,89.6927 133.5301,89.3597 L133.5321,89.0157 C133.1241,88.6057 132.7671,88.1447 132.5041,87.6237 C132.1291,86.8807 131.9131,86.0437 131.9131,85.1567 C131.9131,84.4487 132.0521,83.7737 132.2971,83.1517 C132.5691,82.4597 132.9751,81.8347 133.4871,81.3117 C133.1351,80.6727 132.9171,79.9497 132.9141,79.1697 C132.9141,79.1657 132.9131,79.1607 132.9131,79.1567 C132.9131,78.2877 133.1721,77.4827 133.6001,76.7947 L133.6161,73.8917 C131.9821,75.0737 130.9131,76.9907 130.9131,79.1567 C130.9131,79.7937 131.0091,80.4077 131.1811,80.9907 C130.3811,82.1827 129.9131,83.6157 129.9131,85.1567 C129.9131,86.5297 130.2901,87.8137 130.9371,88.9227 C129.3781,90.5417 128.4131,92.7367 128.4131,95.1567 C128.4131,98.6977 130.4731,101.7587 133.4531,103.2257 L133.4661,100.9327 C131.6241,99.6707 130.4131,97.5527 130.4131,95.1567" id="Fill-9" fill="#222222" mask="url(#mask-2)"></path>
                        <path d="M137.4131,74.6567 C139.8941,74.6567 141.9131,76.6757 141.9131,79.1567 C141.9131,79.1607 141.9121,79.1657 141.9121,79.1697 C141.9091,79.9497 141.6911,80.6727 141.3391,81.3117 C141.8511,81.8347 142.2571,82.4597 142.5291,83.1517 C142.7741,83.7737 142.9131,84.4487 142.9131,85.1567 C142.9131,86.0437 142.6971,86.8807 142.3221,87.6237 C142.0171,88.2287 141.6031,88.7687 141.1051,89.2207 C141.6801,89.5797 142.1971,90.0167 142.6441,90.5207 C143.7411,91.7577 144.4131,93.3777 144.4131,95.1567 C144.4131,99.0167 141.2731,102.1567 137.4131,102.1567 C136.7351,102.1567 136.0821,102.0547 135.4621,101.8747 L135.4511,103.9317 C135.7661,104.0027 136.0861,104.0617 136.4131,104.0977 L136.4131,110.6437 L138.4131,110.6167 L138.4131,104.0977 C142.9061,103.5977 146.4131,99.7807 146.4131,95.1567 C146.4131,92.7367 145.4481,90.5417 143.8891,88.9227 C144.5361,87.8137 144.9131,86.5297 144.9131,85.1567 C144.9131,83.6157 144.4451,82.1827 143.6451,80.9907 C143.8171,80.4077 143.9131,79.7937 143.9131,79.1567 C143.9131,75.5727 140.9971,72.6567 137.4131,72.6567 C136.7921,72.6567 136.1931,72.7497 135.6241,72.9127 L135.6121,75.0387 C136.1651,74.7957 136.7721,74.6567 137.4131,74.6567" id="Fill-10" fill="#222222" mask="url(#mask-2)"></path>
                        <path d="M133.6001,76.7944 C134.0791,76.0244 134.7751,75.4064 135.6121,75.0384 L135.6241,72.9134 C134.8931,73.1224 134.2171,73.4574 133.6161,73.8924 L133.6001,76.7944 Z" id="Fill-11" fill="#222222" mask="url(#mask-2)"></path>
                        <polygon id="Fill-12" fill="#222222" mask="url(#mask-2)" points="136.4131 111.6567 138.4131 111.6567 138.4131 110.6167 136.4131 110.6437"></polygon>
                        <path d="M133.5322,89.0156 L133.5302,89.3596 C133.5952,89.3156 133.6532,89.2626 133.7202,89.2216 C133.6512,89.1586 133.5972,89.0816 133.5322,89.0156" id="Fill-13" fill="#222222" mask="url(#mask-2)"></path>
                        <path d="M133.4658,100.9326 L133.4528,103.2256 C134.0818,103.5356 134.7508,103.7756 135.4508,103.9326 L135.4628,101.8746 C134.7428,101.6656 134.0698,101.3466 133.4658,100.9326" id="Fill-14" fill="#222222" mask="url(#mask-2)"></path>
                    </g>
                </g>
            </g>
        </g>
    </g>
</svg>