        <svg
          version="1.1"
          xmlns="http://www.w3.org/2000/svg"
          width="160px"
          height="160px"
          viewBox="0 0 160 160"
          preserveAspectRatio="xMidYMid meet"
        >
          <g fill="#000">
            <path d="M33.10 127.15 c0.15 -1.40 1.55 -5.45 3.25 -9.65 5.70 -13.50 9.70 -23.25 12.95 -31.25 1.75 -4.40 3.45 -8.45 3.70 -9 0.25 -0.55 1.35 -3.15 2.40 -5.75 1.10 -2.60 3 -7.20 4.25 -10.25 3.10 -7.45 6.50 -15.75 11.55 -28.25 1.30 -3.15 2.55 -6.20 2.80 -6.75 0.30 -0.55 1.85 -4.25 3.45 -8.25 l2.95 -7.25 1.80 -0.15 c1 -0.10 1.80 -0.10 1.80 0.05 0 0.20 11.40 28.05 18.25 44.60 3.25 7.75 6.75 16.30 15.20 37 2.25 5.50 4.40 10.70 4.80 11.50 0.35 0.85 1.55 3.75 2.65 6.50 1.15 2.75 3.05 7.45 4.30 10.50 1.25 3 2.30 6.20 2.30 7.10 l0 1.65 -3.60 0 c-13.05 0 -26.30 -8.40 -32.30 -20.50 -1 -2.10 -4 -9.30 -10.75 -25.90 l-2.70 -6.65 -1.05 2.65 c-1.70 4.35 -7.55 18.50 -8.35 20.25 -0.40 0.85 -0.75 1.80 -0.75 2.10 0 0.35 2.25 0.55 7 0.55 l7 0 0.55 1.40 c0.30 0.75 0.65 3.05 0.80 5.10 0.60 8.65 -3.25 15.90 -10.25 19.35 l-2.85 1.40 -20.65 0.15 -20.70 0.15 0.20 -2.40z" />
          </g>
          <g fill="#fff">
            <path d="M0 80 l0 -80 80 0 80 0 0 80 0 80 -80 0 -80 0 0 -80z m75.60 46.35 c7.30 -3.60 11.70 -12.45 9.85 -19.85 l-0.70 -2.75 -7.85 -0.15 c-7.05 -0.10 -8.90 -0.45 -7.45 -1.30 0.25 -0.15 0.60 -0.90 0.80 -1.65 0.15 -0.80 0.65 -2.05 1.05 -2.90 0.90 -2 6.90 -16.50 8.85 -21.50 0.85 -2.20 1.60 -4.10 1.70 -4.25 0.35 -0.40 1.05 1.10 3.95 8.25 6.80 16.80 10.30 25.15 11.30 27.25 4.75 9.55 14.10 17 24.45 19.50 3.55 0.85 8.45 1.35 8.45 0.85 0 -0.05 -1.05 -2.60 -2.30 -5.60 -1.25 -3.05 -3.15 -7.75 -4.30 -10.50 -1.10 -2.75 -2.30 -5.65 -2.65 -6.50 -0.40 -0.80 -2.55 -6 -4.80 -11.50 -8.45 -20.70 -11.95 -29.25 -15.20 -37 -3.45 -8.30 -6.65 -16.10 -13.95 -33.95 -2.35 -5.75 -4.40 -10.55 -4.55 -10.70 -0.10 -0.15 -0.45 0.30 -0.70 0.95 -1.40 3.55 -5.25 12.90 -5.80 14.20 -0.60 1.30 -1.55 3.65 -6.50 15.75 -2.65 6.55 -6 14.65 -8.10 19.75 -1.25 3.05 -3.15 7.65 -4.25 10.25 -1.05 2.60 -2.15 5.20 -2.40 5.75 -0.25 0.55 -1.95 4.60 -3.70 9 -1.80 4.40 -4.75 11.60 -6.55 16 -7.55 18.10 -9.35 22.55 -9.60 23.40 -0.25 0.85 0.65 0.90 18.90 0.75 l19.20 -0.15 2.85 -1.40z" />
          </g>
        </svg>