<svg width="48" height="48" viewBox="0 0 48 48" fill="none" xmlns="http://www.w3.org/2000/svg" class="hm-product-carousel-product-items__image"><circle cx="24" cy="24" r="24" fill="url(#app_svg__paint0_linear_4859_87241)"></circle><mask id="app_svg__mask0_4859_87241" style="mask-type:alpha" maskUnits="userSpaceOnUse" x="0" y="0" width="48" height="48"><circle cx="24" cy="24" r="24" fill="#195AFE"></circle></mask><g mask="url(#app_svg__mask0_4859_87241)"><path d="M12.594 17.42h-1.649v-6.213c0-.195-.167-.352-.374-.352-.208 0-.375.157-.375.352v6.212H8.547c-.372 0-.674.284-.674.633v16.786c0 .349.302.633.674.633h1.649v4.571c0 .195.167.352.375.352.207 0 .374-.157.374-.352v-4.571h1.649c.372 0 .674-.284.674-.633V18.052c0-.349-.302-.633-.674-.633Z" fill="url(#app_svg__paint1_linear_4859_87241)"></path><path d="M3.096 25.39H1.358v-1.992c0-.195-.168-.352-.375-.352s-.375.157-.375.352v1.992h-1.623c-.355 0-.642.27-.642.603v11.92c0 .333.287.603.642.603H.608v7.15c0 .195.168.352.375.352s.375-.157.375-.352v-7.148h1.738c.355 0 .642-.27.642-.602V25.993c0-.333-.287-.603-.642-.603Z" fill="url(#app_svg__paint2_linear_4859_87241)"></path><path d="M40.363 12.72H38.62V9.555c0-.194-.168-.351-.375-.351s-.374.157-.374.351v3.165h-1.632c-.352 0-.636.267-.636.598v5.603c0 .33.284.598.636.598h1.632v5.978c0 .194.167.351.374.351s.375-.157.375-.351v-5.978h1.743c.352 0 .637-.268.637-.598v-5.603c0-.33-.285-.598-.637-.598Z" fill="url(#app_svg__paint3_linear_4859_87241)"></path><path d="M22.127 26.654h-1.649v-4.22c0-.194-.167-.351-.374-.351s-.375.157-.375.352v4.22h-1.648c-.372 0-.675.283-.675.632v9.284c0 .349.303.633.675.633h1.648v8.674c0 .194.168.351.375.351s.374-.157.374-.351v-8.674h1.649c.372 0 .674-.284.674-.633v-9.284c0-.35-.302-.633-.674-.633Z" fill="url(#app_svg__paint4_linear_4859_87241)"></path><path d="M31.7 21.405h-1.747v-9.026c0-.194-.167-.351-.374-.351-.208 0-.375.157-.375.351v9.026H27.57c-.35 0-.631.265-.631.593v12.877c0 .328.282.593.631.593h1.634v1.524c0 .195.167.352.375.352.207 0 .374-.157.374-.352v-1.521H31.7c.35 0 .632-.265.632-.593v-12.88c.002-.328-.282-.593-.632-.593Z" fill="url(#app_svg__paint5_linear_4859_87241)"></path><circle cx="24" cy="24" r="24" fill="url(#app_svg__paint6_linear_4859_87241)"></circle><mask id="app_svg__mask1_4859_87241" style="mask-type:alpha" maskUnits="userSpaceOnUse" x="0" y="0" width="48" height="48"><circle cx="24" cy="24" r="24" fill="#195AFE"></circle></mask><g mask="url(#app_svg__mask1_4859_87241)"><rect opacity="0.9" x="-10.222" y="11.122" width="47.171" height="57.143" rx="4.364" fill="url(#app_svg__paint7_radial_4859_87241)"></rect><g opacity="0.49"><path d="M23.72 31.064c-3.15-.093-5.447.27-6.36-.715-1.012-.888-.64-3.124-.735-6.188.096-3.064-.277-5.3.735-6.189.912-.984 3.21-.62 6.36-.714 3.15.093 5.447-.27 6.36.715 1.012.887.639 3.124.735 6.188-.096 3.064.277 5.3-.735 6.188-.912.985-3.21.622-6.36.715Z" fill="url(#app_svg__paint8_linear_4859_87241)"></path><path opacity="0.8" d="M23.764 50.003c-3.13-.096-5.413.275-6.32-.73-1.006-.907-.635-3.19-.73-6.32.095-3.13-.276-5.413.73-6.32.907-1.006 3.19-.635 6.32-.73 3.13.095 5.413-.276 6.32.73 1.006.907.635 3.19.73 6.32-.095 3.13.276 5.413-.73 6.32-.907 1.006-3.19.635-6.32.73Z" fill="url(#app_svg__paint9_linear_4859_87241)"></path><path d="M4.927 31.064c-3.15-.093-5.447.27-6.36-.715-1.012-.888-.64-3.124-.735-6.188.096-3.064-.277-5.3.734-6.189.913-.984 3.211-.62 6.36-.714 3.15.093 5.448-.27 6.361.715 1.012.887.639 3.124.735 6.188-.096 3.064.277 5.3-.735 6.188-.912.985-3.21.622-6.36.715Z" fill="url(#app_svg__paint10_linear_4859_87241)"></path><path opacity="0.9" d="M4.964 50.003c-3.13-.096-5.413.275-6.32-.73-1.006-.907-.635-3.19-.73-6.32.095-3.13-.276-5.413.73-6.32.907-1.006 3.19-.635 6.32-.73 3.13.095 5.413-.276 6.32.73 1.006.907.635 3.19.73 6.32-.095 3.13.276 5.413-.73 6.32-.907 1.006-3.19.635-6.32.73Z" fill="url(#app_svg__paint11_linear_4859_87241)"></path></g><path fill="url(#app_svg__paint12_linear_4859_87241)" d="M26.02 22.889h2.554v8.175H26.02z"></path><path fill="url(#app_svg__paint13_linear_4859_87241)" d="M22.33 19.559h2.838v11.505H22.33z"></path><path fill="url(#app_svg__paint14_linear_4859_87241)" d="M18.925 25.614h2.554v5.45h-2.554z"></path></g><circle cx="24" cy="24" r="24" fill="url(#app_svg__paint15_linear_4859_87241)"></circle><mask id="app_svg__mask2_4859_87241" style="mask-type:alpha" maskUnits="userSpaceOnUse" x="0" y="0" width="48" height="48"><circle cx="24" cy="24" r="24" fill="#195AFE"></circle></mask><g mask="url(#app_svg__mask2_4859_87241)"><rect x="-10.222" y="11.122" width="47.171" height="57.143" rx="3.818" fill="url(#app_svg__paint16_radial_4859_87241)"></rect><rect x="11.637" y="14.287" width="7.554" height="1.971" rx="0.985" fill="#fff" fill-opacity="0.8"></rect><rect x="19.848" y="14.287" width="1.971" height="1.971" rx="0.985" fill="#fff" fill-opacity="0.8"></rect><g opacity="0.79"><path d="M24.948 34.26c-3.253-.096-5.627.279-6.57-.738-1.045-.917-.66-3.227-.759-6.392.1-3.165-.286-5.475.759-6.392.942-1.017 3.317-.642 6.57-.738 3.253.096 5.626-.28 6.57.738 1.045.917.66 3.227.758 6.392-.099 3.165.287 5.475-.759 6.392-.942 1.017-3.316.642-6.57.739Z" fill="url(#app_svg__paint17_linear_4859_87241)"></path><path opacity="0.8" d="M24.994 52.285c-3.232-.098-5.591.285-6.528-.754-1.039-.936-.656-3.295-.754-6.528.098-3.232-.285-5.591.754-6.528.936-1.038 3.296-.655 6.528-.754 3.233.099 5.591-.284 6.528.754 1.039.937.656 3.296.754 6.528-.098 3.233.285 5.592-.754 6.529-.936 1.038-3.295.655-6.528.754Z" fill="url(#app_svg__paint18_linear_4859_87241)"></path><path d="M6.04 34.221c-3.326-.096-5.754.278-6.718-.736-1.07-.915-.675-3.218-.776-6.374.101-3.157-.293-5.46.776-6.375.964-1.014 3.392-.64 6.719-.736 3.327.096 5.754-.278 6.719.736 1.069.915.674 3.218.776 6.375-.102 3.156.293 5.46-.776 6.374-.964 1.014-3.392.64-6.72.736Z" fill="url(#app_svg__paint19_linear_4859_87241)"></path><path opacity="0.9" d="M6.344 52.285c-3.233-.098-5.592.285-6.529-.754-1.038-.936-.655-3.295-.753-6.528.098-3.232-.285-5.591.753-6.528.937-1.038 3.296-.655 6.529-.754 3.232.099 5.59-.284 6.528.754 1.039.937.655 3.296.754 6.528-.099 3.233.285 5.592-.754 6.529-.937 1.038-3.296.655-6.528.754Z" fill="url(#app_svg__paint20_linear_4859_87241)"></path></g></g></g><defs><linearGradient id="app_svg__paint0_linear_4859_87241" x1="14.546" y1="1.818" x2="36.727" y2="51.636" gradientUnits="userSpaceOnUse"><stop stop-color="#FF7A1A"></stop><stop offset="1" stop-color="#FF326F"></stop></linearGradient><linearGradient id="app_svg__paint1_linear_4859_87241" x1="10.545" y1="16.545" x2="10.545" y2="45.455" gradientUnits="userSpaceOnUse"><stop stop-color="#fff"></stop><stop offset="1" stop-color="#fff" stop-opacity="0"></stop></linearGradient><linearGradient id="app_svg__paint2_linear_4859_87241" x1="1.04" y1="23.046" x2="1.04" y2="46.018" gradientUnits="userSpaceOnUse"><stop stop-color="#fff"></stop><stop offset="1" stop-color="#fff" stop-opacity="0"></stop></linearGradient><linearGradient id="app_svg__paint3_linear_4859_87241" x1="38.301" y1="9.204" x2="38.182" y2="51.455" gradientUnits="userSpaceOnUse"><stop stop-color="#fff"></stop><stop offset="1" stop-color="#fff" stop-opacity="0"></stop></linearGradient><linearGradient id="app_svg__paint4_linear_4859_87241" x1="20.104" y1="22.083" x2="20" y2="58.727" gradientUnits="userSpaceOnUse"><stop stop-color="#fff"></stop><stop offset="1" stop-color="#fff" stop-opacity="0"></stop></linearGradient><linearGradient id="app_svg__paint5_linear_4859_87241" x1="29.456" y1="17.818" x2="29.456" y2="53.455" gradientUnits="userSpaceOnUse"><stop stop-color="#fff"></stop><stop offset="1" stop-color="#fff" stop-opacity="0"></stop></linearGradient><linearGradient id="app_svg__paint6_linear_4859_87241" x1="14.546" y1="1.818" x2="36.727" y2="51.636" gradientUnits="userSpaceOnUse"><stop stop-color="#FF7A1A"></stop><stop offset="1" stop-color="#FF326F"></stop></linearGradient><linearGradient id="app_svg__paint8_linear_4859_87241" x1="29.74" y1="17.716" x2="28.731" y2="42.052" gradientUnits="userSpaceOnUse"><stop stop-color="#fff"></stop><stop offset="1" stop-color="#fff" stop-opacity="0"></stop></linearGradient><linearGradient id="app_svg__paint9_linear_4859_87241" x1="29.745" y1="36.371" x2="28.634" y2="53.773" gradientUnits="userSpaceOnUse"><stop stop-color="#fff"></stop><stop offset="1" stop-color="#fff" stop-opacity="0"></stop></linearGradient><linearGradient id="app_svg__paint10_linear_4859_87241" x1="10.947" y1="17.716" x2="9.888" y2="34.759" gradientUnits="userSpaceOnUse"><stop stop-color="#fff"></stop><stop offset="1" stop-color="#fff" stop-opacity="0"></stop></linearGradient><linearGradient id="app_svg__paint11_linear_4859_87241" x1="10.946" y1="36.371" x2="9.835" y2="53.773" gradientUnits="userSpaceOnUse"><stop stop-color="#fff"></stop><stop offset="1" stop-color="#fff" stop-opacity="0"></stop></linearGradient><linearGradient id="app_svg__paint12_linear_4859_87241" x1="27.362" y1="23.969" x2="27.315" y2="34.707" gradientUnits="userSpaceOnUse"><stop stop-color="#fff"></stop><stop offset="1" stop-color="#fff" stop-opacity="0"></stop></linearGradient><linearGradient id="app_svg__paint13_linear_4859_87241" x1="23.91" y1="23.394" x2="23.828" y2="37.2" gradientUnits="userSpaceOnUse"><stop stop-color="#fff"></stop><stop offset="1" stop-color="#fff" stop-opacity="0"></stop></linearGradient><linearGradient id="app_svg__paint14_linear_4859_87241" x1="20.202" y1="25.614" x2="20.176" y2="33.062" gradientUnits="userSpaceOnUse"><stop stop-color="#fff"></stop><stop offset="1" stop-color="#fff" stop-opacity="0"></stop></linearGradient><linearGradient id="app_svg__paint15_linear_4859_87241" x1="14.546" y1="1.818" x2="36.727" y2="51.636" gradientUnits="userSpaceOnUse"><stop stop-color="#FF7A1A"></stop><stop offset="1" stop-color="#FF326F"></stop></linearGradient><linearGradient id="app_svg__paint17_linear_4859_87241" x1="30.546" y1="20.909" x2="29.506" y2="45.464" gradientUnits="userSpaceOnUse"><stop stop-color="#fff"></stop><stop offset="1" stop-color="#fff" stop-opacity="0"></stop></linearGradient><linearGradient id="app_svg__paint18_linear_4859_87241" x1="31.173" y1="38.205" x2="30.025" y2="56.18" gradientUnits="userSpaceOnUse"><stop stop-color="#fff"></stop><stop offset="1" stop-color="#fff" stop-opacity="0"></stop></linearGradient><linearGradient id="app_svg__paint19_linear_4859_87241" x1="12.4" y1="20.472" x2="11.336" y2="38.031" gradientUnits="userSpaceOnUse"><stop stop-color="#fff"></stop><stop offset="1" stop-color="#fff" stop-opacity="0"></stop></linearGradient><linearGradient id="app_svg__paint20_linear_4859_87241" x1="12.522" y1="38.205" x2="11.375" y2="56.18" gradientUnits="userSpaceOnUse"><stop stop-color="#fff"></stop><stop offset="1" stop-color="#fff" stop-opacity="0"></stop></linearGradient><radialGradient id="app_svg__paint7_radial_4859_87241" cx="0" cy="0" r="1" gradientUnits="userSpaceOnUse" gradientTransform="matrix(-29.91331 36.7965 -33.68938 -27.3874 26.979 2.897)"><stop stop-color="#fff" stop-opacity="0.88"></stop><stop offset="1" stop-color="#fff" stop-opacity="0.1"></stop></radialGradient><radialGradient id="app_svg__paint16_radial_4859_87241" cx="0" cy="0" r="1" gradientUnits="userSpaceOnUse" gradientTransform="matrix(-36.1818 36.1818 -33.1266 -33.1266 40.182 -2.545)"><stop stop-color="#fff" stop-opacity="0.88"></stop><stop offset="1" stop-color="#fff" stop-opacity="0.1"></stop></radialGradient></defs></svg>