<svg fill="currentColor" height="32" viewBox="0 0 24 24" width="32" xmlns="http://www.w3.org/2000/svg"><path d="M13.0982 18H19.7895C20.0021 18 20.2108 17.94 20.3949 17.8259C20.579 17.7117 20.7318 17.5476 20.838 17.35C20.9442 17.1523 21.0001 16.9281 21 16.6999C20.9999 16.4717 20.9439 16.2476 20.8375 16.05L16.3437 7.69293C16.2375 7.49533 16.0847 7.33122 15.9007 7.21713C15.7167 7.10305 15.508 7.04297 15.2955 7.04297C15.083 7.04297 14.8742 7.10305 14.6902 7.21713C14.5062 7.33122 14.3534 7.49533 14.2472 7.69293L13.0982 9.83121L10.8516 5.64985C10.7453 5.45227 10.5925 5.28819 10.4084 5.17411C10.2243 5.06006 10.0155 5 9.80302 5C9.5905 5 9.38172 5.06006 9.19766 5.17411C9.01358 5.28819 8.86072 5.45227 8.75442 5.64985L3.16253 16.05C3.05615 16.2476 3.00009 16.4717 3 16.6999C2.99991 16.9281 3.05578 17.1523 3.162 17.35C3.26822 17.5476 3.42105 17.7117 3.6051 17.8259C3.78915 17.94 3.99795 18 4.21048 18H8.41076C10.075 18 11.3022 17.2151 12.1467 15.6839L14.197 11.8715L15.2951 9.83121L18.5909 15.9597H14.197L13.0982 18ZM8.34228 15.9576L5.41102 15.9569L9.80498 7.78603L11.9974 11.8715L10.5295 14.6021C9.96866 15.5956 9.33154 15.9576 8.34228 15.9576Z"></path></svg>