<svg xmlns="http://www.w3.org/2000/svg" fill="none" viewBox="0 0 40 40" width="24" height="24" class="size-8 shrink-0 tablet:size-10"><circle cx="31.5" cy="25.5" r="1.5" fill="#1E2F2C"></circle><circle cx="8.5" cy="25.5" r="1.5" fill="#1E2F2C"></circle><path fill="#1E2F2C" d="M31.333 23.667a2 2 0 1 0 0 4 2 2 0 0 0 0-4m0 2.666a.666.666 0 1 1 0-1.332.666.666 0 0 1 0 1.332M8 23.667a2 2 0 1 0 0 4 2 2 0 0 0 0-4m0 2.666a.666.666 0 1 1 0-1.332.666.666 0 0 1 0 1.332"></path><path fill="#757575" d="m36.467 16.658-8.192-.963L22.28 10.7A7.35 7.35 0 0 0 17.587 9h-8.24a6.8 6.8 0 0 0-3.763 1.125A10.03 10.03 0 0 0 1.4 16 5.26 5.26 0 0 0 0 19.553v6.114a2 2 0 0 0 2 2h1.79a4.656 4.656 0 0 0 8.42 0h14.913a4.657 4.657 0 0 0 8.42 0H38a2 2 0 0 0 2-2v-5.034a4.007 4.007 0 0 0-3.533-3.975m2.018 3.009h-1.818A.666.666 0 0 1 36 19v-1.054l.308.037a2.68 2.68 0 0 1 2.177 1.684m-17.058-7.941 4.731 3.94H12v-5.333h5.587a6 6 0 0 1 3.84 1.393M4.245 13.157a8.9 8.9 0 0 1 2.076-1.921 5.46 5.46 0 0 1 3.026-.903h1.32v5.334H2.898a8.8 8.8 0 0 1 1.347-2.51M8 29a3.334 3.334 0 1 1 0-6.668A3.334 3.334 0 0 1 8 29m23.333 0a3.334 3.334 0 1 1 0-6.668 3.334 3.334 0 0 1 0 6.668M38 26.333h-2.053a4.667 4.667 0 1 0-9.227 0H12.613a4.667 4.667 0 1 0-9.226 0H2a.667.667 0 0 1-.667-.666v-6.114A3.9 3.9 0 0 1 2.295 17H27.96l6.706.79V19a2 2 0 0 0 2 2h2v4.667a.667.667 0 0 1-.667.666"></path><path stroke="#1E2F2C" stroke-linecap="round" stroke-width="1.3" d="M.65 30.85h37.7"></path></svg>