<svg width="140" height="140" viewBox="0 0 140 140" fill="none" xmlns="http://www.w3.org/2000/svg">
    <g clip-path="url(#clip0_19361_34155)">
        <path d="M140 70.0481C140 108.729 108.632 140.096 69.9519 140.096C31.2715 140.096 0 108.632 0 70.0481C0 31.4639 31.3677 0 70.0481 0C108.729 0 140.096 31.3677 140.096 70.0481" fill="#F4F3F3"/>
        <path d="M50.9961 49.4568L52.5356 45.608C52.5356 45.4155 52.6319 45.2231 52.6319 45.0306C52.6319 44.8382 52.6319 44.742 52.4394 44.6458C52.247 44.6458 52.0545 44.5495 51.6697 44.4533V43.7798H54.6525V44.4533C54.3638 44.4533 54.1714 44.6458 54.0752 44.742C53.9789 44.742 53.8827 44.9344 53.7865 45.1269L50.4188 53.2093H49.3604L47.3398 47.821L44.9343 53.2093H43.8758L40.2195 45.1269C40.2195 44.9344 40.0271 44.742 39.9308 44.742C39.8346 44.742 39.6422 44.5495 39.3535 44.4533V43.7798H44.5494V44.4533C43.9721 44.4533 43.7796 44.742 43.7796 45.0306C43.7796 45.3193 43.7796 45.3193 43.8758 45.608L45.5116 49.6492L46.8587 46.7626L46.2813 45.2231C46.1851 44.8382 45.8965 44.6458 45.5116 44.5495V43.876H50.6112V44.5495C50.2264 44.5495 49.9377 44.6458 49.7453 44.742C49.5528 44.742 49.5528 44.9344 49.5528 45.1269C49.5528 45.3193 49.5528 45.4155 49.649 45.608L51.0923 49.4568H50.9961Z" fill="#1D1D1B"/>
        <path d="M58.599 43.5877C59.8499 43.5877 60.7159 43.9726 61.3894 44.6461C62.0629 45.3196 62.3516 46.2818 62.3516 47.4365V47.8214H56.8671C56.8671 48.8798 57.0595 49.6495 57.6368 50.2269C58.1179 50.8042 58.7915 51.0928 59.5612 51.0928C60.331 51.0928 61.4856 50.7079 62.1592 49.842L62.4478 50.0344C62.1592 50.9966 61.7743 51.7664 61.1007 52.3437C60.4272 52.921 59.5612 53.2097 58.5028 53.2097C57.4444 53.2097 56.0973 52.8248 55.2313 51.9588C54.3654 51.0928 53.9805 50.0344 53.9805 48.5911C53.9805 47.1478 54.4616 45.897 55.3275 44.9348C56.1935 43.9726 57.3482 43.4915 58.599 43.4915M58.4066 44.3574C57.5406 44.3574 56.9633 45.2234 56.8671 47.0516H59.6574C59.6574 45.2234 59.2726 44.3574 58.4066 44.3574Z" fill="#1D1D1B"/>
        <path d="M63.1204 41.3743L62.1582 40.8932V40.4121L65.8146 39.6423H66.3919V45.4155C66.6805 44.9344 67.0654 44.5495 67.5465 44.2609C68.0276 43.9722 68.6049 43.7798 69.2785 43.7798C70.3369 43.7798 71.2029 44.1647 71.7802 44.8382C72.4537 45.608 72.7424 46.6664 72.7424 48.0135C72.7424 49.3605 72.2613 51.0925 71.2991 52.0547C70.3369 53.0169 69.086 53.498 67.5465 53.498C66.007 53.498 64.0826 53.1131 63.1204 52.3434V41.5667V41.3743ZM67.5465 52.5358C68.1238 52.5358 68.6049 52.1509 68.9898 51.4774C69.3747 50.8038 69.4709 49.9379 69.4709 48.8794C69.4709 47.821 69.2785 46.955 68.8936 46.3777C68.5087 45.8004 68.0276 45.5117 67.3541 45.5117C66.6805 45.5117 66.5843 45.608 66.2957 45.8004V50.7076C66.2957 51.8623 66.6805 52.5358 67.5465 52.5358Z" fill="#1D1D1B"/>
        <path d="M76.5909 53.3056C75.2438 53.3056 74.0891 53.017 73.3194 52.4396V50.1304C73.2232 50.1304 73.9929 50.1304 73.9929 50.1304C74.1854 50.9001 74.474 51.4774 74.9551 51.9585C75.4362 52.4396 75.9173 52.6321 76.5909 52.6321C77.2644 52.6321 77.3606 52.5359 77.6493 52.3434C77.9379 52.151 78.0342 51.8623 78.0342 51.4774C78.0342 51.0926 77.9379 50.8039 77.6493 50.5152C77.3606 50.3228 76.8795 50.1304 76.206 49.8417C75.1476 49.553 74.3778 49.0719 73.8967 48.5908C73.4156 48.1097 73.127 47.4362 73.127 46.5702C73.127 45.7042 73.4156 44.8383 74.0892 44.3572C74.7627 43.7798 75.6287 43.5874 76.6871 43.5874C77.7455 43.5874 78.8039 43.8761 79.6699 44.3572V46.474H78.9001C78.8039 45.8967 78.5153 45.3194 78.1304 44.9345C77.7455 44.5496 77.2644 44.3572 76.6871 44.3572C76.1098 44.3572 76.0136 44.4534 75.8211 44.6458C75.6287 44.8383 75.4362 45.1269 75.4362 45.4156C75.4362 45.7042 75.5325 45.9929 75.8211 46.1853C76.1098 46.3778 76.4946 46.5702 77.072 46.7627C78.2266 47.1475 78.9964 47.5324 79.4775 48.0135C79.9586 48.4946 80.2472 49.1682 80.2472 50.0341C80.2472 50.9001 79.8624 51.8623 79.1888 52.3434C78.5153 52.9207 77.5531 53.2094 76.3984 53.2094" fill="#1D1D1B"/>
        <path d="M84.9597 43.5873V51.766C84.9597 52.0547 84.9597 52.2471 85.1522 52.2471C85.2484 52.2471 85.537 52.3434 85.9219 52.4396V53.1131H80.8223V52.4396C81.2071 52.4396 81.4958 52.4396 81.592 52.2471C81.6882 52.2471 81.7845 51.9585 81.7845 51.766V45.7042L80.8223 45.1269V44.6458L84.3824 43.6836H84.9597V43.5873ZM83.4202 42.9138C82.9391 42.9138 82.458 42.7214 82.1693 42.4327C81.8807 42.144 81.6882 41.7592 81.6882 41.2781C81.6882 40.797 81.8807 40.4121 82.1693 40.1234C82.458 39.8348 82.8429 39.6423 83.4202 39.6423C83.9975 39.6423 84.3824 39.8348 84.6711 40.1234C84.9597 40.4121 85.1522 40.797 85.1522 41.2781C85.1522 41.7592 84.9597 42.144 84.6711 42.4327C84.3824 42.7214 83.9013 42.9138 83.4202 42.9138Z" fill="#1D1D1B"/>
        <path d="M89.9675 41.4707V43.78H91.9882V44.7422H89.9675V50.5154C89.9675 51.2851 90.2562 51.67 90.9297 51.67C91.6033 51.67 91.6995 51.5738 92.1806 51.1889L92.4693 51.5738C91.7957 52.7284 90.7373 53.3058 89.4864 53.3058C88.2356 53.3058 87.9469 53.1133 87.4658 52.6322C86.9847 52.1511 86.7923 51.4776 86.7923 50.5154V44.7422H85.8301V44.1649C87.1772 43.6838 88.428 42.7216 89.3902 41.4707H90.0638H89.9675Z" fill="#1D1D1B"/>
        <path d="M96.7963 43.5877C98.0471 43.5877 98.9131 43.9726 99.5867 44.6461C100.26 45.3196 100.549 46.2818 100.549 47.4365V47.8214H95.0643C95.0643 48.8798 95.2568 49.6495 95.8341 50.2269C96.3152 50.8042 96.9887 51.0928 97.7585 51.0928C98.5282 51.0928 99.6829 50.7079 100.356 49.842L100.645 50.0344C100.356 50.9966 99.9715 51.7664 99.298 52.3437C98.6245 52.921 97.7585 53.2097 96.7001 53.2097C95.6416 53.2097 94.2946 52.8248 93.4286 51.9588C92.5626 51.0928 92.1777 50.0344 92.1777 48.5911C92.1777 47.1478 92.6588 45.897 93.5248 44.9348C94.3908 43.9726 95.5454 43.4915 96.7963 43.4915M96.6038 44.3574C95.7379 44.3574 95.1606 45.2234 95.0643 47.0516H97.8547C97.8547 45.2234 97.4698 44.3574 96.6038 44.3574Z" fill="#1D1D1B"/>
        <path d="M51.1895 60.1372V60.8108C50.9009 60.8108 50.7084 61.0032 50.6122 61.0994C50.516 61.0994 50.4198 61.2919 50.3236 61.4843L46.7634 69.5668H45.8012L41.8562 61.4843C41.76 61.2919 41.6638 61.0994 41.5676 61.0032C41.4713 61.0032 41.2789 60.8108 40.9902 60.7146V60.041H46.571V60.7146C46.0899 60.7146 45.8012 60.8108 45.6088 60.907C45.4164 60.907 45.4164 61.0994 45.4164 61.2919C45.4164 61.4843 45.4164 61.5805 45.5126 61.773L47.3408 65.8142L48.9765 61.773C48.9765 61.5805 49.0727 61.3881 49.0727 61.2919C49.0727 61.0994 49.0727 61.0032 48.8803 60.907C48.6878 60.907 48.3992 60.7146 47.9181 60.7146V60.041H51.0933L51.1895 60.1372Z" fill="#1D1D1B"/>
        <path d="M58.5981 62.9276V67.5462C58.5981 68.0273 58.7905 68.3159 59.0792 68.3159C59.3679 68.3159 59.4641 68.3159 59.6565 68.2197V68.7008C59.1754 69.2781 58.4057 69.663 57.5397 69.663C56.6737 69.663 56.5775 69.5668 56.2888 69.2781C56.0002 68.9895 55.7115 68.7008 55.6153 68.2197C54.9417 69.1819 54.0758 69.663 53.0173 69.663C51.9589 69.663 51.6703 69.4706 51.1892 69.0857C50.7081 68.7008 50.5156 68.1235 50.5156 67.3537C50.5156 66.584 50.7081 66.1029 51.0929 65.718C51.4778 65.3331 52.0551 65.0445 52.7287 64.7558L55.5191 63.7936V62.0616C55.5191 61.1957 55.2304 60.7146 54.6531 60.7146C54.0758 60.7146 53.6909 61.1957 53.6909 62.0616C53.6909 62.9276 53.6909 62.7352 53.8833 63.3125L51.9589 63.6011C51.3816 63.4087 51.0929 63.0238 51.0929 62.3503C51.0929 61.6768 51.4778 61.0032 52.1514 60.6183C52.8249 60.2335 53.6909 60.041 54.8455 60.041C56.0002 60.041 57.0586 60.2335 57.7321 60.7146C58.4057 61.1957 58.6943 61.9654 58.6943 63.0238M54.7493 67.931C54.9417 67.931 55.2304 67.931 55.5191 67.6424V64.4671L54.5569 64.852C54.2682 64.9482 53.9795 65.1407 53.7871 65.3331C53.5947 65.5256 53.4984 65.9104 53.4984 66.3915C53.4984 67.4499 53.8833 67.931 54.6531 67.931" fill="#1D1D1B"/>
        <path d="M66.3936 68.1235V63.0238C66.3936 62.639 66.3936 62.3503 66.1049 62.1579C65.9125 61.9654 65.6238 61.8692 65.239 61.8692C64.8541 61.8692 64.2768 61.9654 63.7957 62.2541V68.1235C63.7957 68.4122 63.7957 68.6046 63.9881 68.6046C64.0843 68.6046 64.373 68.7008 64.7579 68.797V69.4706H59.6582V68.797C60.0431 68.797 60.3317 68.797 60.428 68.6046C60.5242 68.6046 60.6204 68.3159 60.6204 68.1235V62.0616L59.6582 61.4843V61.0032L63.3146 60.041H63.8919V61.773C64.7579 60.6183 65.8163 60.041 67.0671 60.041C68.318 60.041 68.6067 60.2335 68.9915 60.7146C69.4726 61.1957 69.6651 61.8692 69.6651 62.8314V68.1235C69.6651 68.4122 69.6651 68.6046 69.8575 68.6046C69.9537 68.6046 70.2424 68.7008 70.6273 68.797V69.4706H65.5276V68.797C65.9125 68.797 66.1049 68.797 66.2974 68.6046C66.3936 68.6046 66.4898 68.3159 66.4898 68.1235" fill="#1D1D1B"/>
        <path d="M73.9934 68.1237V57.732L73.0312 57.2509V56.7698L76.6876 56H77.2649V61.7732C78.1309 60.6186 79.2855 60.0412 80.4402 60.0412C81.5948 60.0412 81.8835 60.3299 82.3646 60.7148C82.8457 61.1959 83.0381 61.8694 83.0381 62.8316V68.1237C83.0381 68.4124 83.0381 68.6048 83.2306 68.6048C83.3268 68.6048 83.6154 68.701 84.0003 68.7972V69.4708H78.9007V68.7972C79.2855 68.7972 79.478 68.7973 79.6704 68.6048C79.7666 68.6048 79.8629 68.3162 79.8629 68.1237V63.0241C79.8629 62.6392 79.8629 62.3505 79.5742 62.1581C79.3818 61.9656 79.0931 61.8694 78.7082 61.8694C78.3233 61.8694 77.746 61.9656 77.2649 62.2543V68.1237C77.2649 68.4124 77.2649 68.6048 77.4574 68.6048C77.5536 68.6048 77.8422 68.701 78.2271 68.7972V69.4708H73.1275V68.7972C73.5123 68.7972 73.801 68.7973 73.8972 68.6048C73.9935 68.6048 74.0897 68.3162 74.0897 68.1237" fill="#1D1D1B"/>
        <path d="M88.6186 59.9449C89.8694 59.9449 90.7354 60.3297 91.4089 61.0033C92.0825 61.6768 92.3711 62.639 92.3711 63.7937V64.1785H86.8866C86.8866 65.2369 87.079 66.0067 87.6564 66.584C88.1375 67.1613 88.811 67.45 89.5808 67.45C90.3505 67.45 91.5052 67.0651 92.1787 66.1991L92.4673 66.3916C92.1787 67.3538 91.7938 68.1235 91.1203 68.7009C90.4467 69.2782 89.5808 69.5668 88.5223 69.5668C87.4639 69.5668 86.1168 69.182 85.2509 68.316C84.3849 67.45 84 66.3916 84 64.9483C84 63.505 84.4811 62.2541 85.3471 61.2919C86.2131 60.3297 87.3677 59.8486 88.6186 59.8486M88.4261 60.7146C87.5601 60.7146 86.9828 61.5806 86.8866 63.4088H89.677C89.677 61.5806 89.2921 60.7146 88.4261 60.7146Z" fill="#1D1D1B"/>
        <path d="M96.6043 57.7317V60.041H98.6249V61.0032H96.6043V66.7764C96.6043 67.5461 96.8929 67.931 97.5665 67.931C98.24 67.931 98.3362 67.8348 98.8173 67.4499L99.106 67.8348C98.4324 68.9894 97.374 69.5667 96.1232 69.5667C94.8723 69.5667 94.5836 69.3743 94.1025 68.8932C93.6214 68.4121 93.429 67.7386 93.429 66.7764V61.0032H92.4668V60.4258C93.8139 59.9447 95.0647 58.9825 96.0269 57.7317H96.7005H96.6043Z" fill="#1D1D1B"/>
        <path d="M55.9012 78.3228L54.939 77.7455V77.2644L58.5954 76.3022H59.1727V83.9998C59.1727 84.962 59.1727 85.6356 58.8841 86.2129C58.6916 86.694 58.403 87.1751 57.9219 87.6562C57.4408 88.1373 57.0559 88.4259 56.5748 88.7146C56.1899 89.0033 55.6126 89.2919 54.939 89.5806L54.6504 89.1957L55.3239 88.0411C55.6126 87.6562 55.7088 87.1751 55.805 86.694C55.9013 86.2129 55.805 85.5393 55.805 84.6734V78.3228H55.9012ZM58.6916 75.0514C58.403 75.34 57.9219 75.5325 57.4408 75.5325C56.9597 75.5325 56.4786 75.34 56.1899 75.0514C55.9013 74.7627 55.7088 74.3778 55.7088 73.8967C55.7088 73.4156 55.9013 73.0307 56.1899 72.7421C56.4786 72.4534 56.9597 72.261 57.4408 72.261C57.9219 72.261 58.403 72.4534 58.6916 72.7421C58.9803 73.0307 59.1727 73.4156 59.1727 73.8967C59.1727 74.3778 58.9803 74.7627 58.6916 75.0514Z" fill="#1D1D1B"/>
        <path d="M67.9321 79.285V83.9036C67.9321 84.3847 68.1245 84.6733 68.4132 84.6733C68.7018 84.6733 68.7981 84.6733 68.9905 84.5771V85.0582C68.5094 85.6355 67.7396 86.0204 66.8737 86.0204C66.0077 86.0204 65.9115 85.9242 65.6228 85.6355C65.2379 85.3469 65.0455 85.0582 64.9493 84.5771C64.2757 85.5393 63.4097 86.0204 62.3513 86.0204C61.2929 86.0204 61.0042 85.828 60.5231 85.4431C60.042 85.0582 59.8496 84.4809 59.8496 83.7111C59.8496 82.9414 60.042 82.4603 60.4269 82.0754C60.8118 81.6905 61.3891 81.4019 62.0627 81.1132L64.853 80.151V78.4191C64.853 77.5531 64.5644 77.072 63.9871 77.072C63.4097 77.072 63.0249 77.5531 63.0249 78.4191C63.0249 79.285 63.0249 79.0926 63.2173 79.6699L61.2929 79.9586C60.7156 79.7661 60.4269 79.3813 60.4269 78.7077C60.4269 78.0342 60.8118 77.3606 61.4853 76.9758C62.1589 76.5909 63.0249 76.3984 64.1795 76.3984C65.3341 76.3984 66.3926 76.5909 67.0661 77.072C67.7396 77.5531 68.0283 78.3228 68.0283 79.3813M63.9871 84.2885C64.1795 84.2885 64.4682 84.2885 64.7568 83.9998V80.8246L63.7946 81.2094C63.506 81.3057 63.2173 81.4981 63.0249 81.6905C62.8324 81.883 62.7362 82.2679 62.7362 82.749C62.7362 83.8074 63.1211 84.2885 63.8908 84.2885" fill="#1D1D1B"/>
        <path d="M76.9751 79.285V83.9036C76.9751 84.3847 77.1675 84.6733 77.4562 84.6733C77.7448 84.6733 77.841 84.6733 78.0335 84.5771V85.0582C77.5524 85.6355 76.7826 86.0204 75.9166 86.0204C75.0507 86.0204 74.9544 85.9242 74.6658 85.6355C74.2809 85.3469 74.0885 85.0582 73.9922 84.5771C73.3187 85.5393 72.4527 86.0204 71.3943 86.0204C70.3359 86.0204 70.0472 85.828 69.5661 85.4431C69.085 85.0582 68.8926 84.4809 68.8926 83.7111C68.8926 82.9414 69.085 82.4603 69.4699 82.0754C69.8548 81.6905 70.4321 81.4019 71.1056 81.1132L73.896 80.151V78.4191C73.896 77.5531 73.6074 77.072 73.03 77.072C72.4527 77.072 72.0678 77.5531 72.0678 78.4191C72.0678 79.285 72.0678 79.0926 72.2603 79.6699L70.3359 79.9586C69.7586 79.7661 69.4699 79.3813 69.4699 78.7077C69.4699 78.0342 69.8548 77.3606 70.5283 76.9758C71.2019 76.5909 72.0678 76.3984 73.2225 76.3984C74.3771 76.3984 75.4355 76.5909 76.1091 77.072C76.7826 77.5531 77.0713 78.3228 77.0713 79.3813M73.1263 84.2885C73.3187 84.2885 73.6074 84.2885 73.896 83.9998V80.8246L72.9338 81.2094C72.6452 81.3057 72.3565 81.4981 72.1641 81.6905C71.9716 81.883 71.8754 82.2679 71.8754 82.749C71.8754 83.8074 72.2603 84.2885 73.03 84.2885" fill="#1D1D1B"/>
        <path d="M82.1726 79.5737V84.1923C82.1726 84.5771 82.1726 84.7696 82.4613 84.8658C82.6537 84.962 83.0386 85.0582 83.6159 85.1544V85.828H78.0352V85.1544C78.42 85.1544 78.7087 85.1545 78.8049 84.962C78.9011 84.962 78.9974 84.6734 78.9974 84.4809V78.4191L78.0352 77.8417V77.3606L81.6915 76.3984H82.2688V79.0926C82.5575 78.1304 82.9424 77.3606 83.231 76.9758C83.6159 76.5909 84.0008 76.3984 84.5781 76.3984C85.1554 76.3984 85.2517 76.4947 85.4441 76.6871V79.0926H85.0592C84.3857 79.0926 83.8084 79.0926 83.4235 79.1888C82.9424 79.1888 82.5575 79.4775 82.2688 79.6699" fill="#1D1D1B"/>
        <path d="M64.9473 124.412L70.0469 132.11L75.0504 124.412L70.0469 116.715L64.9473 124.412Z" fill="#F9AF00"/>
        <path d="M33.0035 40.0275L27.4228 29.4434C26.3644 30.598 25.3059 31.6564 24.3438 32.9073L30.1169 43.9726C30.9829 42.6255 31.9451 41.2784 32.9073 40.0275" fill="#F9AF00"/>
        <path d="M23.7665 59.6561L13.8558 52.6321C13.3747 54.0754 12.9898 55.6149 12.7012 57.1544L23.0929 64.4671C23.2854 62.8314 23.4778 61.1957 23.8627 59.6561" fill="#F9AF00"/>
        <path d="M28.9618 45.9928L21.8416 36.3708C20.9756 37.6217 20.1096 38.9688 19.3398 40.2196L26.845 50.3227C27.5185 48.8794 28.1921 47.4361 29.0581 45.9928" fill="#F9AF00"/>
        <path d="M25.7868 52.6324L17.127 44.165C16.4535 45.5121 15.8761 46.9554 15.2988 48.3987L24.3435 57.2509C24.7284 55.7114 25.3057 54.1719 25.7868 52.6324Z" fill="#F9AF00"/>
        <path d="M22.9952 74.3783L11.1602 70.8181C11.1602 72.3576 11.2564 73.9934 11.3526 75.5329L23.6687 79.2855C23.3801 77.746 23.0914 76.1102 22.899 74.4745" fill="#F9AF00"/>
        <path d="M22.7099 69.3746C22.7099 68.6049 22.7099 67.7389 22.7099 66.9691L11.7409 61.5808C11.5484 63.1203 11.356 64.6599 11.2598 66.1994L22.7099 71.8763C22.7099 71.0104 22.7099 70.2406 22.7099 69.3746Z" fill="#F9AF00"/>
        <path d="M115.658 57.2509L124.703 48.3987C124.126 46.9554 123.548 45.5121 122.875 44.165L114.215 52.6324C114.792 54.1719 115.273 55.7114 115.658 57.2509Z" fill="#F9AF00"/>
        <path d="M117.004 64.4671L127.395 57.1544C127.01 55.6149 126.626 54.0754 126.241 52.6321L116.33 59.6561C116.619 61.1957 116.907 62.8314 117.1 64.4671" fill="#F9AF00"/>
        <path d="M26.8465 88.5225L14.3379 88.9073C14.819 90.3506 15.3963 91.8902 15.9736 93.2372L28.9633 92.8524C28.1936 91.4091 27.4238 89.9658 26.7503 88.5225" fill="#F9AF00"/>
        <path d="M117.293 69.3746C117.293 70.2406 117.293 71.0104 117.293 71.8763L128.743 66.1994C128.647 64.6599 128.454 63.1203 128.262 61.5808L117.293 66.9691C117.293 67.7389 117.293 68.6049 117.293 69.3746Z" fill="#F9AF00"/>
        <path d="M109.883 43.9726L115.656 32.9073C114.694 31.7526 113.635 30.598 112.577 29.4434L106.996 40.0275C107.958 41.2784 108.92 42.6255 109.786 43.9726" fill="#F9AF00"/>
        <path d="M105.553 38.1994L109.594 26.4606C108.439 25.4022 107.285 24.44 106.13 23.4778L102.281 34.7355C103.436 35.7939 104.591 36.9486 105.649 38.1994" fill="#F9AF00"/>
        <path d="M37.8147 34.7355L33.9659 23.4778C32.715 24.44 31.5604 25.4022 30.502 26.4606L34.5432 38.1994C35.6016 37.0448 36.7562 35.8902 37.9109 34.7355" fill="#F9AF00"/>
        <path d="M113.252 50.3227L120.757 40.2196C119.987 38.8726 119.121 37.6217 118.255 36.3708L111.135 45.9928C111.905 47.4361 112.674 48.7832 113.348 50.3227" fill="#F9AF00"/>
        <path d="M24.3435 81.5945L12.0273 79.9587C12.316 81.4983 12.6047 83.0378 12.9895 84.5773L25.883 86.3093C25.3057 84.7697 24.8246 83.2302 24.3435 81.6907" fill="#F9AF00"/>
        <path d="M94.0045 110.076C92.7537 110.845 91.5028 111.519 90.252 112.096L100.547 120.371C101.895 119.601 103.145 118.735 104.3 117.869L94.3894 109.883L94.0045 110.076Z" fill="#F9AF00"/>
        <path d="M106.901 98.914L119.698 101.416C120.564 100.069 121.334 98.7216 122.007 97.3745L109.691 94.969C108.825 96.3161 107.863 97.6632 106.805 98.914" fill="#F9AF00"/>
        <path d="M100.067 105.842C99.1043 106.612 98.0459 107.381 97.0837 108.151L96.4102 108.728L107.764 115.175C108.919 114.213 110.073 113.155 111.132 112.096L100.163 105.842H100.067Z" fill="#F9AF00"/>
        <path d="M101.992 104.11L114.308 108.729C115.367 107.574 116.329 106.323 117.195 105.169L105.36 100.742C104.301 101.897 103.243 103.052 102.088 104.11" fill="#F9AF00"/>
        <path d="M117.004 74.3778C116.812 76.0135 116.619 77.6493 116.234 79.1888L128.551 75.4362C128.647 73.8967 128.743 72.3572 128.743 70.7214L116.908 74.2816L117.004 74.3778Z" fill="#F9AF00"/>
        <path d="M114.115 86.3093L127.009 84.5773C127.394 83.0378 127.682 81.4983 127.971 79.9587L115.655 81.5945C115.27 83.134 114.693 84.7697 114.115 86.213" fill="#F9AF00"/>
        <path d="M110.94 92.9483L123.93 93.3332C124.507 91.8899 125.084 90.4466 125.565 89.0033L113.057 88.6184C112.383 90.1579 111.614 91.6012 110.844 92.9483" fill="#F9AF00"/>
        <path d="M58.5963 115.271L51.5723 125.952C53.0156 126.433 54.4589 126.818 55.9022 127.203L63.1187 116.137C61.5791 115.945 60.0396 115.656 58.5963 115.271Z" fill="#F9AF00"/>
        <path d="M42.9148 108.055C41.8564 107.285 40.8942 106.612 39.932 105.746L28.9629 112C30.0213 113.058 31.1759 114.117 32.3306 115.079L43.6845 108.632L43.011 108.055H42.9148Z" fill="#F9AF00"/>
        <path d="M38.0069 104.11C36.8523 103.052 35.7939 101.897 34.7354 100.742L22.9004 105.169C23.8626 106.419 24.8248 107.574 25.787 108.729L38.1031 104.11H38.0069Z" fill="#F9AF00"/>
        <path d="M45.9928 110.076L45.6079 109.883L35.6973 117.869C36.9481 118.735 38.199 119.601 39.4498 120.371L49.7454 112.096C48.3983 111.519 47.1474 110.845 45.9928 110.076Z" fill="#F9AF00"/>
        <path d="M83.6152 114.598L92.4675 124.412C93.9108 123.835 95.2578 123.161 96.6049 122.488L88.0413 113.058C86.5981 113.636 85.1548 114.213 83.6152 114.598Z" fill="#F9AF00"/>
        <path d="M76.8789 116.137L84.0954 127.203C85.5387 126.818 86.982 126.433 88.4253 125.952L81.4012 115.271C79.8617 115.656 78.4184 115.945 76.8789 116.137Z" fill="#F9AF00"/>
        <path d="M51.9601 113.058L43.3965 122.488C44.7436 123.161 46.0906 123.835 47.5339 124.412L56.3862 114.598C54.8467 114.117 53.4034 113.636 51.9601 113.058Z" fill="#F9AF00"/>
        <path d="M30.3083 94.969L17.9922 97.3745C18.7619 98.7216 19.5317 100.069 20.3015 101.416L33.0987 98.914C32.0403 97.6632 31.1743 96.3161 30.2121 94.969" fill="#F9AF00"/>
        <path d="M51.0928 99.9723C51.8626 99.9723 52.3437 99.6836 52.7286 99.1063H52.921C52.5361 100.55 51.6701 101.127 50.4193 101.127C49.1684 101.127 47.6289 99.9723 47.6289 98.0479C47.6289 96.1235 48.8798 94.584 50.7079 94.584C52.5361 94.584 52.7286 95.0651 52.7286 95.9311C52.7286 96.797 52.5361 96.6046 52.2475 96.7008H51.3815C51.3815 96.5084 51.3815 96.3159 51.3815 96.1235C51.3815 95.45 51.189 94.9689 50.5155 94.9689C49.842 94.9689 49.0722 96.0273 49.0722 97.2781C49.0722 98.529 49.7457 99.8761 50.9966 99.8761L51.0928 99.9723Z" fill="#1D1D1B"/>
        <path d="M58.7887 97.0859V97.3746H54.9399C54.9399 99.0103 55.7097 100.069 56.9605 100.069C58.2114 100.069 58.3076 99.6839 58.6925 99.1065H58.8849C58.5963 100.357 57.7303 101.223 56.287 101.223C54.8437 101.223 53.4004 99.9725 53.4004 98.1443C53.4004 96.3162 54.7475 94.6804 56.3832 94.6804C58.0189 94.6804 58.7887 95.7388 58.7887 97.1821V97.0859ZM54.9399 96.8935H57.3454C57.3454 95.7388 57.0567 94.9691 56.287 94.9691C55.5172 94.9691 55.0361 95.7388 54.9399 96.8935Z" fill="#1D1D1B"/>
        <path d="M61.6745 99.9723C61.6745 100.453 61.9632 100.55 62.7329 100.55V100.934H59.3652V100.55C59.9426 100.55 60.135 100.453 60.135 100.069V95.8348L59.4615 95.45V95.2575L61.5783 94.584H61.867V96.3159C62.3481 94.9689 62.7329 94.584 63.4065 94.584C64.08 94.584 63.7914 94.584 63.8876 94.7764V96.0273H63.6951C62.9254 96.0273 62.348 96.0273 61.7707 96.7008V99.9723H61.6745Z" fill="#1D1D1B"/>
        <path d="M66.4861 94.6804H68.0256V95.2577H66.4861V99.2027C66.4861 99.9725 66.7748 100.261 67.3521 100.261C67.9294 100.261 67.9294 100.165 68.2181 99.9725V100.165C68.0256 100.742 67.3521 101.223 66.4861 101.223C65.6201 101.223 64.7541 100.742 64.7541 99.3951V95.3539H63.9844V95.0652C64.8504 94.6804 65.5239 94.0068 66.005 93.2371H66.3899V94.7766L66.4861 94.6804Z" fill="#1D1D1B"/>
        <path d="M71.011 100.069C71.011 100.453 71.2034 100.55 71.7807 100.55V100.935H68.6055V100.55C69.1828 100.55 69.3752 100.453 69.3752 100.069V95.8349L68.7017 95.45V95.2576L70.8185 94.584H71.1072V100.069H71.011ZM69.1828 92.9483C69.1828 92.4672 69.5677 91.9861 70.145 91.9861C70.7223 91.9861 71.1072 92.371 71.1072 92.9483C71.1072 93.5256 70.7223 93.9105 70.145 93.9105C69.5677 93.9105 69.1828 93.4294 69.1828 92.9483Z" fill="#1D1D1B"/>
        <path d="M78.4173 100.069C78.4173 100.454 78.6098 100.55 79.1871 100.55V100.935H76.108V100.55C76.6854 100.55 76.8778 100.454 76.8778 100.069V95.2576H74.761V100.069C74.761 100.454 74.9534 100.55 75.5307 100.55V100.935H72.4517V100.55C73.029 100.55 73.2214 100.454 73.2214 100.069V95.2576H72.3555V94.969L73.2214 94.6803V94.3917C73.2214 92.5635 74.4723 91.6975 76.0118 91.6975C77.5513 91.6975 77.9362 92.0824 77.9362 92.7559C77.9362 93.4295 77.7438 93.3332 77.5513 93.4295H76.5891C76.5891 93.3332 76.5891 93.1408 76.5891 92.9484C76.5891 92.4673 76.3967 92.0824 75.9156 92.0824C75.4345 92.0824 74.9534 92.6597 74.9534 93.7181V94.6803H78.4173C78.4173 94.5841 78.8022 94.5841 78.8022 94.5841V100.069H78.4173Z" fill="#1D1D1B"/>
        <path d="M84.9606 97.0859V97.3746H81.1118C81.1118 99.0103 81.8815 100.069 83.1324 100.069C84.3833 100.069 84.4795 99.6839 84.8644 99.1065H85.0568C84.7681 100.357 83.9022 101.223 82.4589 101.223C81.0156 101.223 79.5723 99.9725 79.5723 98.1443C79.5723 96.3162 80.9194 94.6804 82.5551 94.6804C84.1908 94.6804 84.9606 95.7388 84.9606 97.1821V97.0859ZM81.1118 96.8935H83.5173C83.5173 95.7388 83.2286 94.9691 82.4589 94.9691C81.6891 94.9691 81.208 95.7388 81.1118 96.8935Z" fill="#1D1D1B"/>
        <path d="M89.1969 92.4673V92.1786L91.3137 91.6013H91.6024V99.6838C91.6024 100.069 91.6024 100.261 92.0835 100.261H92.3721V100.646L90.1591 101.031H89.8704V99.8762C89.4855 100.55 88.812 101.031 88.0422 101.031C86.5989 101.031 85.6367 99.8762 85.6367 98.0481C85.6367 96.2199 86.9838 94.4879 88.7158 94.4879C90.4477 94.4879 89.678 94.6804 89.9666 94.8728V92.756L89.2931 92.3711L89.1969 92.4673ZM87.2725 97.567C87.2725 99.0103 87.8498 100.069 88.9082 100.069C89.9666 100.069 89.678 99.9725 89.9666 99.6838V96.5085C89.9666 95.5463 89.5817 95.0652 88.812 95.0652C88.0422 95.0652 87.2725 96.0274 87.2725 97.567Z" fill="#1D1D1B"/>
        <path d="M57.1537 28.0964C58.3083 28.0964 58.6932 28.0964 59.5592 26.3644H60.1365L59.7516 30.7905H51.0918V30.2132L54.4595 26.9417C55.9028 25.5946 56.4801 24.3438 56.4801 22.8043C56.4801 21.2647 55.8066 20.6874 54.4595 20.6874C53.1124 20.6874 52.7275 21.1685 52.1502 21.8421L51.6691 21.4572C52.5351 19.8214 53.786 18.4744 56.1915 18.4744C58.597 18.4744 59.8478 19.7252 59.8478 21.7458C59.8478 23.7665 56.865 26.2682 54.2671 28.0964H57.3461H57.1537Z" fill="#F9AF00"/>
        <path d="M60.5215 24.7287C60.5215 20.6874 62.8308 18.4744 65.9098 18.4744C68.9888 18.4744 71.2981 20.7836 71.2981 24.7287C71.2981 28.6737 68.9888 30.983 65.9098 30.983C62.8308 30.983 60.5215 28.6737 60.5215 24.7287ZM67.738 24.7287C67.738 21.6496 67.4493 19.1479 65.9098 19.1479C64.3703 19.1479 64.0816 21.6496 64.0816 24.7287C64.0816 27.8077 64.3703 30.3094 65.9098 30.3094C67.4493 30.3094 67.738 27.8077 67.738 24.7287Z" fill="#F9AF00"/>
        <path d="M76.974 28.0964C78.1286 28.0964 78.5135 28.0964 79.3795 26.3644H79.9568L79.5719 30.7905H70.9121V30.2132L74.2798 26.9417C75.7231 25.5946 76.3004 24.3438 76.3004 22.8043C76.3004 21.2647 75.6269 20.6874 74.2798 20.6874C72.9327 20.6874 72.5479 21.1685 71.9705 21.8421L71.4894 21.4572C72.3554 19.8214 73.6063 18.4744 76.0118 18.4744C78.4173 18.4744 79.6681 19.7252 79.6681 21.7458C79.6681 23.7665 76.6853 26.2682 74.0874 28.0964H77.1664H76.974Z" fill="#F9AF00"/>
        <path d="M82.4602 21.4571L82.1715 22.8041C86.5014 22.8041 88.9069 24.055 88.9069 27.0378C88.9069 30.0206 86.8863 31.079 84.2884 31.079C81.6904 31.079 80.0547 30.0206 80.0547 28.6735C80.0547 27.3265 80.4396 27.4227 80.9207 27.134H82.8451C82.8451 27.4227 82.6526 27.7113 82.6526 28.1924C82.6526 29.4433 83.1337 30.4055 84.3846 30.4055C85.6354 30.4055 86.1165 29.6357 86.1165 28.4811C86.1165 26.7491 84.4808 25.7869 80.8244 25.7869L81.8829 18.8591H86.6939C87.2712 18.8591 87.4636 18.8591 87.7523 18.0894H88.4258L87.9447 21.5533H82.364L82.4602 21.4571Z" fill="#F9AF00"/>
    </g>
    <defs>
        <clipPath id="clip0_19361_34155">
            <rect width="140" height="140" fill="white"/>
        </clipPath>
    </defs>
</svg>
