<svg xmlns="http://www.w3.org/2000/svg" width="23" height="23" viewBox="0 0 23 23" fill="none">
    <g clip-path="url(#clip0_1410_73137)">
        <path d="M20.8438 12.5781H3.59375V4.49219C3.59292 4.18768 3.65249 3.88603 3.76903 3.6047C3.88556 3.32337 4.05674 3.06795 4.27265 2.85322L4.29062 2.83525C4.629 2.49737 5.06345 2.27219 5.5346 2.19049C6.00576 2.10878 6.49066 2.17453 6.92305 2.37875C6.51469 3.0577 6.34496 3.85364 6.44082 4.64011C6.53669 5.42658 6.89265 6.15844 7.45214 6.71942L7.94407 7.21136L7.03858 8.11689L8.05499 9.13329L8.96048 8.2278L13.9778 3.21062L14.8832 2.30513L13.8668 1.28868L12.9613 2.19417L12.4693 1.70223C11.8803 1.11489 11.1039 0.752832 10.2754 0.679148C9.4469 0.605465 8.6188 0.824828 7.9354 1.29901C7.21478 0.843913 6.36079 0.647444 5.51373 0.741879C4.66668 0.836314 3.87693 1.21604 3.27422 1.81867L3.25625 1.83664C2.90642 2.18455 2.62907 2.5984 2.44025 3.05423C2.25144 3.51006 2.15491 3.99881 2.15625 4.49219V12.5781H0.71875V14.0156H2.15625V15.3947C2.15622 15.5106 2.17491 15.6257 2.21159 15.7356L3.54883 19.7472C3.62019 19.9619 3.75741 20.1488 3.941 20.2811C4.12459 20.4134 4.34521 20.4846 4.57152 20.4844H5.15101L4.62695 22.2813H6.12433L6.64844 20.4844H15.9967L16.5357 22.2813H18.0361L17.4971 20.4844H18.4283C18.6546 20.4846 18.8753 20.4135 19.0589 20.2811C19.2426 20.1488 19.3798 19.962 19.4512 19.7472L20.7883 15.7356C20.825 15.6257 20.8437 15.5106 20.8438 15.3947V14.0156H22.2812V12.5781H20.8438ZM8.46867 2.71868C8.8647 2.32351 9.40131 2.10158 9.96077 2.10158C10.5202 2.10158 11.0568 2.32351 11.4529 2.71868L11.9447 3.21062L8.96061 6.19473L8.46867 5.70288C8.07353 5.30684 7.85161 4.77023 7.85161 4.21078C7.85161 3.65133 8.07353 3.11472 8.46867 2.71868V2.71868ZM19.4062 15.3363L18.1695 19.0469H4.83054L3.59375 15.3363V14.0156H19.4062V15.3363Z" fill="#80A1C9"/>
        <path d="M2.92317 15.3181L3.14645 13.9785C3.22681 13.4963 3.644 13.1429 4.13284 13.1429H19.125C19.6773 13.1429 20.125 13.5906 20.125 14.1429V15.0202C20.125 15.1368 20.1046 15.2525 20.0648 15.362L18.7215 19.056C18.5778 19.4512 18.2022 19.7143 17.7817 19.7143H5.23862C4.80819 19.7143 4.42605 19.4389 4.28993 19.0305L4.10714 18.4821L2.99042 15.8764C2.91506 15.7006 2.89172 15.5068 2.92317 15.3181Z" fill="#80A1C9"/>
        <path d="M8.62514 1.23215L7.80371 3.69643V6.16072L9.03585 6.57143L11.0894 4.51786L12.7323 2.875L11.5001 1.64286L8.62514 1.23215Z" fill="#80A1C9"/>
    </g>
    <defs>
        <clipPath id="clip0_1410_73137">
            <rect width="23" height="23" fill="white"/>
        </clipPath>
    </defs>
</svg>