<svg xmlns="http://www.w3.org/2000/svg" version="1.1" viewBox="0 0 1042.4 434.7"><g><g id="Layer_1"><g id="Laag_2"><g id="Laag_1-2"><path d="M146.4,249.9c3.3-4.1,5-9.6,5-16.1s-1.7-12-5-16c-3-3.9-7.8-6.1-12.7-5.9l-48,.9v46.2c18.6-1,28.4-1.5,48-2.4,5-.2,9.7-2.6,12.7-6.6Z"></path><path d="M653.1,165.7c3.6-3.6,5.6-8.5,5.4-13.6,0-5.4-1.8-9.8-5.4-12.8s-8.3-4.3-13.9-3.8c-21.3,2.1-52,5.1-52,5.1v34.4l51.8-3.5c5.2-.2,10.2-2.3,14-5.9Z"></path><path d="M641.6,191.8l-54.3,2.8v35.3l54.2-1.1c5.7-.1,10.3-1.9,13.8-5.4s5.2-8.1,5.2-13.7-1.8-10.3-5.2-13.5-8.1-4.7-13.8-4.4Z"></path><path d="M135.8,281c-20.5,1.4-30.8,2-50.2,3.4v47.4c20-2,30.1-3.1,50.1-5,5.1-.5,9.7-3.2,12.6-7.4,3.2-4.4,4.9-10.1,4.9-16.8s-1.6-12.3-4.8-16.2c-3-3.8-7.7-5.8-12.5-5.3Z"></path><path d="M228,281.2c21-1.4,32-2.2,53.2-3.6-8.9-28.3-17.8-57.2-26.6-85.9-9,29.6-18,59.7-26.6,89.5Z"></path><path d="M500.5,62.8v57.8H0v314.1l606.4-70.9v-49.7h436V0L500.5,62.8ZM172.5,327c-3.1,7-7.9,13.1-14,17.7-5.9,4.5-12.9,7.4-20.3,8.2l-73.8,8.8v-176.3h71.9c7.1,0,14.2,1.8,20.3,5.5,6,3.7,10.9,9,14,15.4,3.4,6.9,5.1,14.6,5,22.3.1,7.7-1.5,15.4-4.8,22.4-2.9,6.1-7.2,11.5-12.5,15.6,5.9,3.2,10.7,8,13.9,13.9,3.6,6.8,5.5,14.5,5.3,22.2.1,8.3-1.6,16.6-5,24.2ZM299.7,334.8l-10.6-32.9-68.7,5.9-10.7,37-24,2.7,48.3-162.2h42.7l49.2,146.7-26.2,2.9ZM519.1,310l-28.1-118.4-27.7,125-45.1,5.1s-18.6-83.4-28.7-129.7c-8.9,39.3-18.3,81.4-30.2,135.8v.5c-.1,0-24.9,2.7-24.9,2.7l.2-.9c10.9-48.6,33.2-144.9,33.2-144.9h44.4l29.1,127.3,28.7-127.3h42.5l29.7,122-23.1,2.8ZM681.5,231.5c-3.7,6-9,10.9-15.3,14.1-6.9,3.4-14.4,5.1-22.1,5l-79.2.2V122.6l77.2-9.1c8.2-.9,15.6-.2,22,2.2,6.2,2.2,11.6,6.2,15.3,11.7,3.7,5.6,5.7,12.2,5.5,19,0,6.9-1.7,13.7-5.3,19.7-3.3,5.5-7.9,10.2-13.5,13.5,12.8,4.9,21.2,17.5,20.8,31.2.1,7.3-1.8,14.5-5.5,20.8ZM834.1,185.9c0,12.8-2.7,24.5-8.1,34.6-5.1,9.9-12.9,18.1-22.5,23.7-9.8,5.6-20.9,8.5-32.2,8.3h0c-11.1.1-22.1-2.6-31.9-7.9-9.4-5.1-17.2-12.6-22.6-21.8-5.6-9.5-8.4-20.3-8.2-31.2v-85.4l25.3-2.8v88.3c-.1,6.5,1.6,12.9,4.9,18.4,3.2,5.3,7.9,9.6,13.4,12.4,12.1,5.9,26.4,5.6,38.2-.8,5.6-3.2,10.3-7.9,13.5-13.6,3.3-6.1,5-12.9,4.9-19.8v-93l25.3-2.7v93.3ZM985.8,185.9c0,12.8-2.7,24.5-8.1,34.6-5.1,9.9-12.9,18.1-22.5,23.7-9.8,5.6-20.9,8.5-32.2,8.3h0c-11.1.1-22.1-2.6-31.9-7.9-9.4-5.1-17.2-12.6-22.6-21.8-5.6-9.5-8.4-20.3-8.2-31.2v-102.4l25.3-2.8v105.3c-.1,6.5,1.6,12.9,4.9,18.4,3.2,5.3,7.9,9.6,13.4,12.4,12.1,5.9,26.4,5.6,38.3-.8,5.6-3.2,10.3-7.9,13.5-13.6,3.3-6.1,5-12.9,4.9-19.8v-110.7l25.3-2.8v111Z"></path></g></g></g></g></svg>
