<svg xmlns="http://www.w3.org/2000/svg" width="50" height="50" viewBox="0 0 50 50" fill="none">
    <path d="M30.4149 35.3582C30.6849 35.5604 31.0608 35.5418 31.3095 35.3141L39.7225 27.6144C40.0079 27.353 40.027 26.9102 39.7653 26.6253C39.5035 26.3404 39.06 26.3213 38.7746 26.5826L30.7907 33.8882L28.4519 32.1383C28.1421 31.9063 27.7027 31.969 27.4703 32.2783C27.238 32.5876 27.3008 33.0263 27.6106 33.2583L30.4149 35.3582Z" fill="white"/>
    <path d="M21.2082 45.9923C17.2694 45.8538 13.5599 44.1079 10.9464 41.1625C8.17323 38.0867 6.7631 34.0223 7.03646 29.8928L21.2082 45.9923ZM21.2082 45.9923C21.3729 45.9979 21.537 46 21.6989 46M21.2082 45.9923L21.6989 46M10.7601 41.3291C7.94213 38.2033 6.5092 34.0729 6.787 29.8763L6.78704 29.8757C7.06919 25.7588 8.57515 21.2889 11.2306 16.5869C10.9565 16.2572 10.6434 15.9615 10.298 15.7064C9.53559 15.1507 8.63259 14.8193 7.69127 14.7496C7.17089 14.7443 6.75 14.3214 6.75 13.7997C6.75 13.2746 7.17619 12.8497 7.70108 12.8497C7.79146 12.8497 9.12995 12.8144 10.4411 11.792C11.7398 10.7792 13.0598 8.75995 13.0598 4.69998C13.0598 4.17495 13.486 3.75 14.0108 3.75C14.5357 3.75 14.9619 4.17495 14.9619 4.69998V4.70912L14.9618 4.70912C14.9003 6.38854 15.2211 8.0582 15.8978 9.59312C17.3392 7.72251 18.8882 5.93695 20.537 4.24548C20.8412 3.93202 21.2585 3.75358 21.6955 3.75001L21.6975 3.74999L21.7065 3.75L21.7067 3.75C22.148 3.7497 22.5712 3.92577 22.8818 4.23907L22.8836 4.24087L22.8836 4.24088C27.1642 8.64704 30.7508 13.6754 33.5214 19.1545C33.5615 19.1519 33.6061 19.1495 33.6524 19.1495M10.7601 41.3291L33.6524 19.3995M10.7601 41.3291C13.419 44.3253 17.1926 46.1012 21.1994 46.2421L21.1997 46.2422C21.3679 46.2479 21.5349 46.25 21.6989 46.25H21.6992C25.6165 46.2462 29.3738 44.7056 32.1624 41.9633M10.7601 41.3291L21.6989 46M33.6524 19.1495V19.3995M33.6524 19.1495C33.6523 19.1495 33.6521 19.1495 33.652 19.1495L33.6524 19.3995M33.6524 19.1495C37.7729 19.1423 41.5801 21.3452 43.6224 24.9187C45.6326 28.4359 45.6283 32.7474 43.6229 36.2562M33.6524 19.3995C37.6834 19.3923 41.4076 21.5472 43.4054 25.0427C45.4032 28.5382 45.3667 32.8357 43.3099 36.2969M43.6229 36.2562L43.4865 36.12L43.3099 36.2969M43.6229 36.2562L48.4173 41.0437L48.4229 41.0493L48.4228 41.0493C49.5514 42.2502 49.5215 44.1288 48.3553 45.2933C47.1892 46.4575 45.3082 46.4873 44.1057 45.3607L44.1 45.3552L44.1 45.3552L39.3057 40.569M43.6229 36.2562C43.5907 36.3126 43.558 36.3687 43.5248 36.4246L43.3099 36.2969M43.3099 36.2969L39.3057 40.569M39.3057 40.569C39.3621 40.5363 39.4183 40.5031 39.4743 40.4694L39.3452 40.2553M39.3057 40.569L48.2406 41.2206C49.2767 42.3229 49.2493 44.0474 48.1786 45.1163C47.108 46.1853 45.3808 46.2127 44.2767 45.1782L39.3452 40.2553M39.3057 40.569L39.1686 40.4322L39.3452 40.2553M39.3057 40.569C37.1484 41.8181 34.6332 42.3095 32.1624 41.9633M39.3452 40.2553C37.165 41.5693 34.5928 42.0797 32.075 41.6979M21.6989 46C25.5921 45.9962 29.3244 44.4487 32.075 41.6979M32.075 41.6979L32.2518 41.8747C32.2221 41.9044 32.1923 41.9339 32.1624 41.9633M32.075 41.6979L32.0375 41.9451C32.0791 41.9514 32.1208 41.9575 32.1624 41.9633M8.68455 30.0056C8.92603 26.4817 10.1563 22.6276 12.3356 18.5315C12.8546 19.9237 13.1011 21.4042 13.0599 22.8925L13.0598 22.8925V22.8994C13.0598 23.4244 13.486 23.8493 14.0108 23.8493C14.5357 23.8493 14.9619 23.4244 14.9619 22.8994C14.9619 18.8346 16.285 16.8154 17.5851 15.8039C18.8978 14.7827 20.2362 14.7497 20.3206 14.7497C20.8455 14.7497 21.2717 14.3247 21.2717 13.7997C21.2717 13.2779 20.8508 12.855 20.3304 12.8497C19.3893 12.7801 18.4865 12.4488 17.7242 11.8933C17.4692 11.7034 17.2322 11.491 17.0157 11.2588C18.4675 9.3338 20.0349 7.49849 21.7092 5.76296C25.6037 9.80993 28.9009 14.3899 31.5016 19.3649C26.3867 20.332 22.5475 24.632 22.1969 29.8474C21.8488 35.0253 25.0296 39.7679 29.9093 41.4414C27.4773 43.4164 24.407 44.4504 21.2637 44.3425C17.7745 44.2185 14.4891 42.671 12.1746 40.0614L12.1732 40.0599C9.69887 37.3158 8.44074 33.6896 8.68455 30.0056ZM13.0866 15.8859C12.4842 15.0331 11.7057 14.3216 10.8057 13.798C12.2546 12.9465 13.3826 11.6445 14.0188 10.0947C14.2734 10.6865 14.5927 11.2492 14.9713 11.7723C14.9848 11.7946 14.9994 11.8161 15.0151 11.8368C15.6064 12.6371 16.3556 13.3056 17.2146 13.8021C15.7655 14.6542 14.6375 15.957 14.0017 17.5075C13.7779 16.9912 13.5051 16.497 13.1869 16.0316C13.1583 15.9798 13.1248 15.9311 13.0866 15.8859ZM42.5303 37.8493L47.0708 42.3826C47.4856 42.8364 47.47 43.5359 47.0345 43.9707C46.5989 44.4057 45.8976 44.4213 45.4429 44.007L40.9029 39.4742C41.4983 38.9881 42.0435 38.4438 42.5303 37.8493ZM43.2281 30.6106C43.228 34.4773 40.895 37.9636 37.3164 39.4434C33.7377 40.9234 29.6186 40.1051 26.8798 37.3705C24.1411 34.6359 23.3221 30.5237 24.8044 26.9512C26.2868 23.3787 29.7787 21.0493 33.6522 21.0494C38.939 21.0555 43.2225 25.3331 43.2281 30.6106Z" fill="transparent" stroke="white" stroke-width="0.5"/>
    <path d="M19.746 41.1096C12.6671 39.8244 11.9338 32.2612 11.9086 31.9399C11.8762 31.5533 11.5361 31.2661 11.1489 31.2984C10.7617 31.3307 10.4741 31.6702 10.5064 32.0568C10.5141 32.1457 11.3477 41.0081 19.4929 42.4865C19.535 42.4943 19.5777 42.4982 19.6205 42.4984C19.9834 42.4983 20.2862 42.2218 20.3186 41.8609C20.3511 41.5001 20.1023 41.1741 19.7453 41.1096H19.746Z" fill="white"/>
</svg>