<svg width="40" height="40" viewBox="0 0 40 40" fill="none" xmlns="http://www.w3.org/2000/svg">
                <path d="M12.2978 33.7578L19.7312 37.0292C19.8159 37.0664 19.9074 37.0857 19.9999 37.0857C20.0924 37.0857 20.1839 37.0664 20.2685 37.0292L27.6979 33.7578C30.3988 32.589 32.607 30.5139 33.9413 27.8908C35.2757 25.2676 35.6524 22.261 35.0066 19.3897L32.7019 9.48834C32.6733 9.36517 32.6102 9.2527 32.52 9.16405C32.4298 9.0754 32.3162 9.01423 32.1926 8.98767C27.9193 8.06083 23.8962 6.22301 20.3979 3.59964C20.2825 3.51309 20.1421 3.46631 19.9979 3.46631C19.8536 3.46631 19.7133 3.51309 19.5979 3.59964C16.0997 6.2232 12.0769 8.06145 7.8038 8.98901C7.68016 9.01556 7.56662 9.07673 7.47643 9.16538C7.38625 9.25403 7.32313 9.36651 7.29446 9.48968L4.98978 19.3897C4.34379 22.2609 4.7204 25.2676 6.05461 27.8907C7.38883 30.5139 9.59694 32.5889 12.2978 33.7578ZM6.28846 19.6911L8.4978 10.1997C12.6432 9.24007 16.5537 7.4582 19.9979 4.95965C23.442 7.4582 27.3526 9.24007 31.4979 10.1997L33.7073 19.6917C34.2831 22.2602 33.9443 24.9491 32.7492 27.2944C31.5541 29.6397 29.5777 31.4942 27.1612 32.5378L19.9979 35.6905L12.8345 32.5378C10.418 31.4942 8.44166 29.6397 7.24656 27.2944C6.05146 24.9491 5.7126 22.2595 6.28846 19.6911Z" fill="#FFF"></path>
                <path d="M14.6168 22.3847L13.7988 27.2174C13.7569 27.4632 13.7849 27.7158 13.8794 27.9465C13.9739 28.1772 14.1312 28.3768 14.3335 28.5226C14.5357 28.6684 14.7748 28.7545 15.0236 28.7713C15.2723 28.7881 15.5208 28.7347 15.7408 28.6174L19.9988 26.3474L24.2561 28.6174C24.4758 28.7356 24.7244 28.7893 24.9732 28.7724C25.2221 28.7556 25.4611 28.6688 25.6628 28.5221C25.8655 28.3768 26.0231 28.1774 26.1174 27.9466C26.2118 27.7158 26.2391 27.463 26.1962 27.2174L25.3788 22.3847L28.8455 18.9554C29.0215 18.7812 29.1455 18.5614 29.2037 18.3207C29.2618 18.08 29.2518 17.8278 29.1747 17.5925C29.0976 17.3572 28.9565 17.148 28.7671 16.9883C28.5778 16.8287 28.3478 16.7249 28.1028 16.6887L23.3228 15.9847L21.1988 11.6066C21.0896 11.3812 20.9191 11.1911 20.7069 11.0581C20.4947 10.925 20.2493 10.8545 19.9988 10.8545C19.7483 10.8545 19.5029 10.925 19.2907 11.0581C19.0784 11.1911 18.908 11.3812 18.7988 11.6066L16.6654 15.984L11.8867 16.688C11.6417 16.7242 11.4116 16.8278 11.2222 16.9874C11.0328 17.147 10.8916 17.3562 10.8144 17.5916C10.7373 17.8269 10.7272 18.0791 10.7853 18.3199C10.8434 18.5606 10.9674 18.7804 11.1434 18.9547L14.6168 22.3847ZM16.8654 17.3027C17.08 17.2714 17.2837 17.1883 17.4589 17.0605C17.6341 16.9327 17.7755 16.7641 17.8708 16.5693L19.9988 12.1853V12.19L22.1321 16.5673C22.2274 16.762 22.3687 16.9306 22.5437 17.0583C22.7188 17.1861 22.9224 17.2693 23.1368 17.3007L27.9162 18.0053L24.4495 21.434C24.2971 21.5846 24.1833 21.7697 24.1176 21.9736C24.0519 22.1775 24.0363 22.3942 24.0721 22.6054L24.8895 27.4381L20.6328 25.1714C20.4397 25.0684 20.2243 25.0146 20.0055 25.0146C19.7866 25.0146 19.5712 25.0684 19.3781 25.1714L15.1201 27.4381L15.9321 22.608C15.9679 22.3968 15.9523 22.1801 15.8866 21.9762C15.821 21.7723 15.7071 21.5873 15.5548 21.4367L12.0881 18.0073L16.8654 17.3027Z" fill="#FFF"></path>
                <path d="M0.0541893 34.9714C0.122524 35.2034 0.252676 35.4125 0.43071 35.5762C0.608743 35.7399 0.827952 35.8521 1.06486 35.9008L3.56088 36.4054L4.04088 38.9061C4.08684 39.1425 4.19595 39.362 4.35665 39.5414C4.51734 39.7208 4.72361 39.8532 4.95355 39.9248C5.18554 39.9975 5.43296 40.0057 5.66926 39.9485C5.90556 39.8913 6.12183 39.7709 6.29489 39.6001L10.2216 35.7041C10.5489 35.8774 10.8796 36.0474 11.2216 36.1988L19.7316 39.9435C19.8163 39.9807 19.9078 40 20.0003 40C20.0928 40 20.1843 39.9807 20.269 39.9435L28.773 36.2001C29.117 36.0488 29.4477 35.8788 29.773 35.7054L33.7064 39.6041C33.9554 39.849 34.2905 39.9864 34.6397 39.9868C34.7753 39.9868 34.9102 39.9663 35.0397 39.9261C35.2697 39.8545 35.4761 39.7219 35.6368 39.5425C35.7975 39.363 35.9065 39.1433 35.9524 38.9068L36.4284 36.4021L38.9317 35.9001C39.1678 35.8511 39.3862 35.739 39.5636 35.5757C39.741 35.4124 39.8708 35.2041 39.9392 34.9729C40.0076 34.7417 40.0121 34.4963 39.952 34.2627C39.892 34.0292 39.7698 33.8163 39.5984 33.6468L35.8477 29.9267C37.8497 26.5792 38.4783 22.5867 37.6017 18.786L34.9031 7.18195C34.8728 7.05203 34.8043 6.93417 34.7064 6.84361C34.6084 6.75305 34.4856 6.69395 34.3537 6.67394C29.2024 5.87547 24.385 3.62666 20.465 0.190573C20.3404 0.0684206 20.1728 0 19.9983 0C19.8238 0 19.6563 0.0684206 19.5316 0.190573C15.6116 3.62666 10.7942 5.87547 5.64289 6.67394C5.51101 6.69395 5.38816 6.75305 5.29023 6.84361C5.1923 6.93417 5.12379 7.05203 5.09355 7.18195L2.39287 18.786C1.5157 22.5866 2.14407 26.5793 4.14621 29.9267L0.398191 33.6448C0.226138 33.8141 0.103266 34.0269 0.0426827 34.2605C-0.017901 34.4942 -0.013924 34.7399 0.0541893 34.9714ZM38.6651 34.5934L36.1651 35.0934C35.9053 35.1464 35.6673 35.2756 35.4813 35.4646C35.2953 35.6535 35.1699 35.8936 35.1211 36.1541L34.6384 38.6535L30.9637 35.0068C32.5773 33.9625 33.9814 32.6257 35.1037 31.0654L38.6651 34.5934ZM3.69154 19.088L6.29156 7.92128C11.345 7.06374 16.0774 4.87067 19.9983 1.56925C23.9196 4.87089 28.6524 7.06397 33.7064 7.92128L36.3064 19.088C37.0228 22.2616 36.6089 25.5858 35.1363 28.4869C33.6636 31.3879 31.2244 33.684 28.2397 34.9788L19.9983 38.6048L11.7609 34.9788C8.77562 33.6845 6.3358 31.3887 4.86259 28.4876C3.38937 25.5864 2.97519 22.262 3.69154 19.088ZM4.89022 31.0667C6.01275 32.6267 7.41685 33.9632 9.03024 35.0074L5.35289 38.6541L4.87488 36.1648C4.82781 35.902 4.70295 35.6594 4.51646 35.4684C4.32997 35.2774 4.09044 35.1468 3.82888 35.0934L1.33153 34.5934L4.89022 31.0667Z" fill="#FFF"></path>
                </svg>