<svg xmlns="http://www.w3.org/2000/svg" version="1.1" viewBox="0 0 198.4 23.1"><defs><style> .cls-1 { fill: #231f20; } </style></defs><g><g id="Layer_1"><g id="_Group_"><g id="_Group_2"><g id="_Group_3"><g id="_Group_4"><g id="_Group_5"><path id="_Compound_Path_" class="cls-1" d="M13.5,10.8c1.8-.8,2.9-2.7,2.9-4.7,0-1.7-.7-3.3-2.1-4.4-1.4-.9-3-1.3-4.6-1.1H0v3.5h2.4v15H0v3.5h10.2c1.8.2,3.6-.4,5.1-1.5,1.3-1.2,2.1-2.9,2.1-4.7,0-2.5-1.5-4.8-3.8-5.7ZM6.6,4.1h2.2c.9-.1,1.8,0,2.7.4,1.2.9,1.5,2.5.6,3.7-.1.2-.3.4-.5.5-.8.5-1.8.7-2.8.6h-2.1s0-5.3,0-5.3ZM11.9,18.4c-.9.5-2,.7-3,.6h-2.4v-6.1h2.3c1-.1,2.1.1,3,.7.8.6,1.2,1.5,1.2,2.5,0,.9-.4,1.8-1.2,2.4Z"></path><polygon id="_Path_" class="cls-1" points="24.3 4.1 26.6 4.1 26.6 .6 17.7 .6 17.7 4.1 20.1 4.1 20.1 19.1 17.7 19.1 17.7 22.6 26.6 22.6 26.6 19.1 24.3 19.1 24.3 4.1"></polygon><path id="_Path_2" class="cls-1" d="M48.6,19.1v-8.1h-11.3l-1.5,3.5h8.1c-1,2.7-3.6,4.4-6.5,4.3-4,0-7.2-3.3-7.2-7.3,0,0,0,0,0,0,0-4,3.1-7.2,7-7.3,0,0,.1,0,.2,0,1.1,0,2.2.2,3.2.7,1,.5,1.9,1.2,2.5,2.1h4.6V.6h-3.4v2C42.5.9,40,0,37.4,0c-3.1,0-6.1,1.3-8.3,3.6-4.4,4.7-4.1,12,.5,16.3,2.1,2,4.9,3.1,7.8,3.1,3,0,5.9-1.4,7.6-3.8v3.4h2l1.5-3.5h0Z"></path><path id="_Compound_Path_2" class="cls-1" d="M74.8,4.1h2.4V.6h-9v3.5h2.4v15h-1.8L61,.6h-7.4v3.5h2.4l-7.9,18.5h8.1v-3.1h-2.4l1.3-3.3h7.7l1.3,3.3h-2.4v3.1h15.4v-3.5h-2.4V4.1h0ZM56.3,13l2.8-7.5h0l2.8,7.5h-5.6Z"></path><path id="_Compound_Path_3" class="cls-1" d="M126.5.6h-7.4v3.5h2.4l-6.4,15h-1.3c.4-.8.6-1.7.6-2.6,0-2.5-1.5-4.8-3.8-5.7,1.8-.8,2.9-2.7,2.9-4.7,0-1.7-.7-3.3-2.1-4.4-1.4-.9-3-1.3-4.6-1.1h-9.8v3.5h2.4v15h-3.5l2.8,3.5h8.6c1.8.2,3.6-.4,5.1-1.5.1-.1.3-.3.4-.4v1.9h9v-3.1h-2.4l1.3-3.3h7.7l1.3,3.3h-2.5v3.1h9.9v-3.5h-3L126.5.6ZM103.7,4.1h2.2c.9-.1,1.8,0,2.6.4,1.2.9,1.5,2.5.6,3.7-.1.2-.3.4-.5.5-.9.5-1.9.7-2.8.6h-2.1v-5.3ZM109,18.4c-.9.5-2,.7-3,.6h-2.3v-6.1h2.3c1-.1,2.1.1,3,.7.8.6,1.2,1.5,1.2,2.5,0,1-.5,1.8-1.2,2.4ZM121.7,13l2.8-7.5h0l2.8,7.5h-5.6Z"></path><path id="_Compound_Path_4" class="cls-1" d="M94.7,19.1l-3.4-4.4c3.3-.3,5.4-3.5,5.4-6.6,0-2.2-.9-4.3-2.6-5.8-1.7-1.5-3.6-1.7-5.8-1.7h-9.8v3.5h2.4v15h-2.4v3.5h8.4v-3.5h-1.9v-6.4l7,9.9h5.4l-2.8-3.5h0ZM87.4,12.3h-2.3v-7.9h2.9c1.1-.1,2.2.1,3.1.8,1.7,1.5,1.9,4,.5,5.7-.2.2-.3.4-.5.5-1.1.7-2.4,1-3.7.9h0Z"></path><path id="_Path_3" class="cls-1" d="M145.1,11l-1.5,3.5h8.1c-1,2.7-3.6,4.4-6.5,4.3-4,0-7.2-3.3-7.2-7.3,0,0,0,0,0,0,0-4,3.1-7.2,7-7.3,0,0,.1,0,.2,0,1.1,0,2.2.2,3.2.7,1,.5,1.9,1.2,2.5,2.1h4.6V.6h-3.4v2c-1.9-1.7-4.4-2.6-6.9-2.6-3.1,0-6.1,1.3-8.3,3.6-4.4,4.7-4.1,12,.5,16.3,2.1,2,4.9,3.1,7.8,3.1,3,0,5.9-1.4,7.6-3.8v3.4h3.5v-11.6h-11.3Z"></path></g></g></g></g></g><path class="cls-1" d="M181.5,11.2h0c-.4-1.8-.6-3.5-.8-4.9v-.2h-.2c-1.1.6-2,1.3-2.7,2.3-.2.4-.2.8,0,1.1.2.4.5.6.9.7.6.1,1.2,0,1.7-.2,0,1.1-.4,2.1-1.1,3-1.6,2.2-4.8,1.9-5.5,1.9-.3,0-.6,0-.9-.2-.8-.2-1.5-.6-2-1.3-.5-.6-.7-1.5-.5-2.2.4-1.9,2.3-3.4,3.6-4.4,1.6-1.1,3.3-2,5.1-2.6l.7-.3h.2c.2,0,.4-.2.6-.3,0-.1.1-.3.1-.5,0,0,0-.1,0-.2,0-.2.1-.3.2-.5.3-.7.6-1.4,1.1-2h-12.5v22h2.9c3.8-1.3,9.6-4.2,9-11.3Z"></path><path class="cls-1" d="M183.9,2.5v.2c0,0,.2,0,.2,0,1.6-.5,3.3-.7,5-.6.6,0,1.1.2,1.6.4.5.2,1,.5,1.4.8.4.3.7.8.7,1.3,0,1-.7,1.8-1.7,2.5h0l-.4.3c1-.3,2-.4,3-.3.9,0,1.8.4,2.6.9,1,.6,1.8,1.6,2.2,2.7V.6h-13.2c-.7.5-1.1,1.1-1.3,1.9Z"></path><path class="cls-1" d="M196.5,16.4c-1.4.9-3,1.3-4.6,1.2h-.1c-1.6-.1-3-1.1-3.6-2.6-.4-.8-.3-1.7,0-2.5.4.4,1,.7,1.6.7.4,0,.8-.1,1.2-.4.1,0,.2-.2.3-.3.1-.2.2-.3.2-.5,0-.5-.1-1-.4-1.3-.4-.5-1-.7-1.7-.8-1,0-2.1.2-3,.6h-.1c-.2,0-.4.1-.5.2,0,.2,0,.5.1.6h0c0,.1.2.8.2.8v.2c.3.9.6,1.8.8,2.7.5,1.7.6,3.4.2,5.1-.3.9-.8,1.8-1.3,2.7h12.4v-8.7c-.4,1-1.1,1.9-1.9,2.5Z"></path><path class="cls-1" d="M185.9,8.3h.1s.3-.2.3-.2c.2-.1.4-.3.5-.5.3-.3.5-.7.5-1.2,0-.9-.9-1.7-1.8-1.7h0c-.4,0-.8,0-1.1,0h0c-.1,0-.3,0-.4.1,0,.1,0,.2,0,.4h0c0,.3,0,.5,0,.8.2.9.5,1.9,1,2.7h0c0,0,.1,0,.1,0,.3-.1.5-.2.8-.4h.1s0-.1,0-.1Z"></path><path class="cls-1" d="M166.1,22.6v.4h-.9v-.4h.9Z"></path><path class="cls-1" d="M161.1,17.4c-.7.5-1.1,1.4-1.1,2.3,0,1.5,1.2,2.8,2.7,2.8,0,0,0,0,0,0,1.5,0,2.8-1.2,2.9-2.7,0-1-.4-1.9-1.2-2.4v-.7c1.1.6,1.9,1.7,1.9,3,0,.9-.4,1.8-1,2.4-.7.7-1.6,1-2.5,1-.9,0-1.8-.4-2.5-1-.6-.6-1-1.5-1-2.4,0-.9.4-1.7,1-2.3h-.8v-.6h1.6v.6h0Z"></path><path class="cls-1" d="M162.7,16.3c-1.9,0-3.5-1.5-3.5-3.4s1.5-3.5,3.4-3.5c1.9,0,3.5,1.5,3.5,3.4,0,1.9-1.5,3.5-3.4,3.5,0,0,0,0,0,0ZM162.7,10c-1.6,0-2.8,1.2-2.8,2.8s1.2,2.8,2.8,2.8,2.8-1.2,2.8-2.8c0,0,0,0,0,0h0c0-1.5-1.3-2.8-2.8-2.8Z"></path><path class="cls-1" d="M165.5,7.4v-.9h.6v2.4h-.6v-.8h-5.4v.8h-.6v-1.9l5.6-2.4-5.6-2.6V.2h.6v.9h5.4V.2h.6v2.4h-.6v-.9h-5.1l5.8,2.7v.5l-5.7,2.5s5.1,0,5.1,0Z"></path></g></g></svg>