<svg xmlns="http://www.w3.org/2000/svg" fill="none" viewBox="0 0 40 40" width="24" height="24" class="size-8 shrink-0 tablet:size-10"><path fill="#757575" fill-rule="evenodd" d="M33 6H7a2 2 0 0 0-2 2v28a2 2 0 0 0 2 2h26a2 2 0 0 0 2-2V8a2 2 0 0 0-2-2M7 5a3 3 0 0 0-3 3v28a3 3 0 0 0 3 3h26a3 3 0 0 0 3-3V8a3 3 0 0 0-3-3z" clip-rule="evenodd"></path><path fill="#757575" fill-rule="evenodd" d="m8.573 31.28 3.018 3.112a2 2 0 0 0 1.436.608H33a2 2 0 0 0 2-2V8a2 2 0 0 0-2-2H7a2 2 0 0 0-2 2v19.166a2 2 0 0 0 .66 1.485zM7.88 32l2.995 3.088a3 3 0 0 0 2.153.912H33a3 3 0 0 0 3-3V8a3 3 0 0 0-3-3H7a3 3 0 0 0-3 3v19.166a3 3 0 0 0 .99 2.227z" clip-rule="evenodd"></path><path fill="#757575" fill-rule="evenodd" d="M9 29.5H5.5v-1H9a3.5 3.5 0 0 1 3.5 3.5v3h-1v-3A2.5 2.5 0 0 0 9 29.5M11 16H8v3h3zm-3-1a1 1 0 0 0-1 1v3a1 1 0 0 0 1 1h3a1 1 0 0 0 1-1v-3a1 1 0 0 0-1-1zM11 23H8v3h3zm-3-1a1 1 0 0 0-1 1v3a1 1 0 0 0 1 1h3a1 1 0 0 0 1-1v-3a1 1 0 0 0-1-1zM18 16h-3v3h3zm-3-1a1 1 0 0 0-1 1v3a1 1 0 0 0 1 1h3a1 1 0 0 0 1-1v-3a1 1 0 0 0-1-1zM18 23h-3v3h3zm-3-1a1 1 0 0 0-1 1v3a1 1 0 0 0 1 1h3a1 1 0 0 0 1-1v-3a1 1 0 0 0-1-1zM18 30h-3v3h3zm-3-1a1 1 0 0 0-1 1v3a1 1 0 0 0 1 1h3a1 1 0 0 0 1-1v-3a1 1 0 0 0-1-1zM4 13a.5.5 0 0 1 .5-.5h21.281a.5.5 0 1 1 0 1H4.5A.5.5 0 0 1 4 13m24.703 0a.5.5 0 0 1 .5-.5H35.5a.5.5 0 0 1 0 1h-6.297a.5.5 0 0 1-.5-.5M25 16h-3v3h3zm-3-1a1 1 0 0 0-1 1v3a1 1 0 0 0 1 1h3a1 1 0 0 0 1-1v-3a1 1 0 0 0-1-1z" clip-rule="evenodd"></path><path fill="#1E2F2C" d="M21 23a1 1 0 0 1 1-1h3a1 1 0 0 1 1 1v3a1 1 0 0 1-1 1h-3a1 1 0 0 1-1-1z"></path><path fill="#1E2F2C" fill-rule="evenodd" d="M25 23h-3v3h3zm-3-1a1 1 0 0 0-1 1v3a1 1 0 0 0 1 1h3a1 1 0 0 0 1-1v-3a1 1 0 0 0-1-1z" clip-rule="evenodd"></path><path fill="#1E2F2C" fill-rule="evenodd" d="M25 30h-3v3h3zm-3-1a1 1 0 0 0-1 1v3a1 1 0 0 0 1 1h3a1 1 0 0 0 1-1v-3a1 1 0 0 0-1-1zM32 16h-3v3h3zm-3-1a1 1 0 0 0-1 1v3a1 1 0 0 0 1 1h3a1 1 0 0 0 1-1v-3a1 1 0 0 0-1-1zM32 23h-3v3h3zm-3-1a1 1 0 0 0-1 1v3a1 1 0 0 0 1 1h3a1 1 0 0 0 1-1v-3a1 1 0 0 0-1-1zM32 30h-3v3h3zm-3-1a1 1 0 0 0-1 1v3a1 1 0 0 0 1 1h3a1 1 0 0 0 1-1v-3a1 1 0 0 0-1-1zM10.75 3a.75.75 0 0 0-.75.75V5.5a.5.5 0 0 1-1 0V3.75a1.75 1.75 0 1 1 3.5 0V7a2 2 0 0 1-2 2V8a1 1 0 0 0 1-1V3.75a.75.75 0 0 0-.75-.75M29.75 3a.75.75 0 0 0-.75.75V5.5a.5.5 0 0 1-1 0V3.75a1.75 1.75 0 1 1 3.5 0V7a2 2 0 0 1-2 2V8a1 1 0 0 0 1-1V3.75a.75.75 0 0 0-.75-.75" clip-rule="evenodd"></path><path fill="#1E2F2C" fill-rule="evenodd" d="M14 9a1 1 0 0 1 1-1h10a1 1 0 1 1 0 2H15a1 1 0 0 1-1-1" clip-rule="evenodd"></path></svg>