<svg xmlns="http://www.w3.org/2000/svg" version="1.1" viewBox="0 0 182 80"><g><g id="Layer_1"><g><path d="M64.3,36.3c.6,0,1,.5,1,1v5.2c0,.6-.3,1.3-.8,1.7l-5.7,5.2c-.4.4-.7.2-.7-.3v-4.5c0-.6-.5-1-1-1h-5.2c-.6,0-1,.5-1,1v5.2c0,.6.5,1,1,1h12.4c.6,0,1,.5,1,1v5.2c0,.6-.5,1-1,1h-19.7c-.6,0-1-.5-1-1v-19.7c0-.6.5-1,1-1h19.7ZM80.9,37.4c0-.6.5-1,1-1h11.4c.6,0,1,.5,1,1v19.7c0,.6-.5,1-1,1h-5.2c-.6,0-1-.5-1-1v-12.4c0-.6-.5-1-1-1h-4.2c-.6,0-1-.5-1-1v-5.2s0,0,0,0ZM72.6,37.4c0-.6.5-1,1-1h5.2c.6,0,1,.5,1,1v19.7c0,.6-.5,1-1,1h-5.2c-.6,0-1-.5-1-1v-19.7ZM107.8,50.9h7.3c.6,0,1-.5,1-1v-4.5c0-.6.3-.7.7-.3l5.7,5.2c.4.4.7,1.2.7,1.7v5.2c0,.6-.5,1-1,1h-19.7c-.6,0-1-.5-1-1v-5.2c0-.6.5-1,1-1h5.2ZM122.3,36.3c.6,0,1,.5,1,1v5.2c0,.6-.5,1-1,1h-12.4c-.6,0-1,.5-1,1v4.5c0,.6-.3.7-.7.3l-5.7-5.2c-.4-.4-.7-1.2-.7-1.7v-5.2c0-.6.5-1,1-1,0,0,19.7,0,19.7,0ZM9.4,36.3c-.6,0-1,.5-1,1v5.2c0,.6.5,1,1,1h4.2c.6,0,1,.5,1,1v12.4c0,.6.5,1,1,1h5.2c.6,0,1-.5,1-1v-19.7c0-.6-.5-1-1-1h-11.4ZM23.9,36.3c-.6,0-1,.5-1,1v5.2c0,.6.5,1,1,1h4.2c.6,0,1,.5,1,1v12.4c0,.6.5,1,1,1h5.2c.6,0,1-.5,1-1v-19.7c0-.6-.5-1-1-1h-11.4ZM1.1,36.3c-.6,0-1,.5-1,1v19.7c0,.6.5,1,1,1h5.2c.6,0,1-.5,1-1v-19.7c0-.6-.5-1-1-1H1.1Z"></path><path d="M35.3,7.4c.6,0,1,.5,1,1v19.7c0,.6-.5,1-1,1H15.6c-.6,0-1-.5-1-1V1.1c0-.6.5-1,1-1h5.2c.6,0,1,.5,1,1v19.7c0,.6.5,1,1,1h5.2c.6,0,1-.5,1-1v-5.2c0-.6-.5-1-1-1h-4.2c-.6,0-1-.5-1-1v-5.2c0-.6.5-1,1-1h11.5s0,0,0,0ZM87.1,8.4c0-.6.5-1,1-1h5.2c.6,0,1,.5,1,1v19.7c0,.6-.5,1-1,1h-5.2c-.6,0-1-.5-1-1V8.4ZM78.8,7.4c.6,0,1,.5,1,1v12.4c0,.6.5,1,1,1h4.2c.6,0,1,.5,1,1v5.2c0,.6-.5,1-1,1h-11.4c-.6,0-1-.5-1-1V8.4c0-.6.5-1,1-1h5.2ZM115.1,28.1c0,.6-.5,1-1,1h-11.4c-.6,0-1-.5-1-1V8.4c0-.6.5-1,1-1h5.2c.6,0,1,.5,1,1v12.4c0,.6.5,1,1,1h4.2c.6,0,1,.5,1,1v5.2h0ZM124.1,28.4c-.4.4-1.2.7-1.7.7h-5.2c-.6,0-1-.5-1-1V8.4c0-.6.5-1,1-1h5.2c.6,0,1,.5,1,1v12.4c0,.6.5,1,1,1h5.1c.6,0,.7.3.3.7l-5.7,5.8h0ZM137.9,13.4c0,.6-.3,1.4-.7,1.7l-5.8,5.8c-.4.4-.7.3-.7-.3v-12.3c0-.6.5-1,1-1h5.2c.6,0,1,.5,1,1v5.1h0ZM64.3,7.4c.6,0,1,.5,1,1v19.7c0,.6-.5,1-1,1h-19.7c-.6,0-1-.5-1-1V8.4c0-.6.5-1,1-1h5.2c.6,0,1,.5,1,1v12.4c0,.6.5,1,1,1h5.2c.6,0,1-.5,1-1v-5.2c0-.6-.5-1-1-1h-4.2c-.6,0-1-.5-1-1v-5.2c0-.6.5-1,1-1h11.5Z"></path><path d="M151.3,36.3c.6,0,1,.5,1,1v5.2c0,.6-.3,1.3-.8,1.7l-5.7,5.2c-.4.4-.7.2-.7-.3v-4.5c0-.6-.5-1-1-1h-5.2c-.6,0-1,.5-1,1v5.2c0,.6.5,1,1,1h12.4c.6,0,1,.5,1,1v5.2c0,.6-.5,1-1,1h-19.7c-.6,0-1-.5-1-1v-19.7c0-.6.5-1,1-1h19.7s0,0,0,0ZM167.9,37.4c0-.6.5-1,1-1h11.4c.6,0,1,.5,1,1v19.7c0,.6-.5,1-1,1h-5.2c-.6,0-1-.5-1-1v-12.4c0-.6-.5-1-1-1h-4.2c-.6,0-1-.5-1-1v-5.2s0,0,0,0ZM159.6,37.4c0-.6.5-1,1-1h5.2c.6,0,1,.5,1,1v19.7c0,.6-.5,1-1,1h-5.2c-.6,0-1-.5-1-1v-19.7ZM58.1,78.8c0,.6-.5,1-1,1h-5.2c-.6,0-1-.5-1-1v-5.2c0-.6.5-1,1-1h5.2c.6,0,1,.5,1,1v5.2h0Z"></path></g></g></g></svg>