<svg xmlns="http://www.w3.org/2000/svg" xmlns:xlink="http://www.w3.org/1999/xlink" version="1.1" x="0px" y="0px" viewBox="0 0 189.4 71.6" style="enable-background:new 0 0 189.4 71.6;" xml:space="preserve">
<style type="text/css">
	.st0{fill:#FFFFFF;}
	.st1{fill:#FECB00;}
	.st2{fill:#E2001A;}
</style>
<g id="Layer_2">
	<rect class="st0" width="189.4" height="71.6"/>
</g>
<g id="Layer_1">
	<g>
		<path d="M37.3,42.7c-0.7,0.2-1.5,0.4-2.3,0.4c-4.1,0-7.4-3.4-7.4-7.5S30.9,28,35,28s7.4,3.4,7.4,7.5c0,0.7-0.1,1.3-0.2,1.9    l12.1,11.3c2.5-3.8,4-8.3,4-13.2c0-13-10.4-23.6-23.3-23.6S11.7,22.5,11.7,35.5S22.2,59.2,35,59.2c5.5,0,10.5-1.9,14.5-5.1    L37.3,42.7z"/>
	</g>
	<g>
		<rect x="64.7" y="5.4" class="st1" width="118.6" height="60.2"/>
	</g>
	<g>
		<path d="M70,11.2h10.2c5.7,0,8.4,3.6,8.4,8.8v7.8c-0.1,4.3-2.5,5.6-6.6,6.5v0.1c4.5,0.9,6.9,2.1,6.9,7.6v7.8    c0,5.9-2.6,10.3-8.7,10.3H70V11.2z M77.1,31.5h1.7c1.8,0,2.6-0.8,2.6-3.6v-7.4c0-2.8-0.7-3.6-2.6-3.6h-1.7V31.5z M77.1,54.4h1.4    c2,0,3-0.8,3-3.8v-9.3c0-3-0.9-3.8-3-3.8h-1.4V54.4z"/>
	</g>
	<g>
		<path d="M92.5,18.5c0-6.4,5-8.3,9.3-8.3c4.5,0,9.4,1.9,9.4,8.3V53c0,6.4-5,8.3-9.4,8.3c-4.4,0-9.3-1.9-9.3-8.3    C92.5,53,92.5,18.5,92.5,18.5z M99.7,52.3c0,2.5,0.7,3,2.2,3c1.4,0,2.1-0.5,2.1-3V19.1c0-2.5-0.7-3-2.1-3c-1.5,0-2.2,0.5-2.2,3    V52.3z"/>
	</g>
	<g>
		<path d="M120.6,11.2l2.2,20.4c0.5,4.8,1.1,14.4,1.6,19.2h0.1c0.4-5.9,0.9-11.8,1.4-17.6l2.1-22.1h7.2l-5.7,49h-10.8l-5.4-49H120.6    z"/>
	</g>
	<g>
		<path d="M140.7,11.2h10.8l5.5,49h-7.2L148.3,47h-5.1l-1.6,13.3h-6.5L140.7,11.2z M147.6,40.5l-1.5-20.4h-0.5l-1.8,20.4H147.6z"/>
	</g>
	<g>
		<path d="M178,29.1V18.5c0-6.4-5-8.3-9.4-8.3c-4.4,0-9.3,1.9-9.3,8.3V53c0,6.4,5,8.3,9.3,8.3c4.5,0,9.4-1.9,9.4-8.3V35.9h-0.1l0,0    h-9.2v5.9h2.1v10.7c0,2.5-0.7,3-2.1,3c-1.5,0-2.2-0.5-2.2-3V19.2c0-2.5,0.7-3,2.2-3c1.4,0,2.1,0.5,2.1,3v10L178,29.1L178,29.1z"/>
	</g>
	<g>
		<path d="M44.6,5.4c9.5,3.1,17,10.7,20,20.3V5.4H44.6z M5.3,25.8c3.1-9.6,10.5-17.2,20-20.3h-20V25.8z M5.3,45.3v20.3h20    C15.9,62.5,8.4,54.9,5.3,45.3 M44.6,65.7h20V45.3C61.6,54.9,54.1,62.5,44.6,65.7"/>
	</g>
	<g>
		<path class="st2" d="M37.3,42.7c-0.7,0.2-1.5,0.4-2.3,0.4c-4.1,0-7.4-3.4-7.4-7.5S30.9,28,35,28s7.4,3.4,7.4,7.5    c0,0.7-0.1,1.3-0.2,1.9l7.8,7.2c1.6-2.7,2.5-5.8,2.5-9.2c0-9.8-7.8-17.7-17.4-17.7s-17.4,7.9-17.4,17.7S25.4,53.3,35,53.3    c3.8,0,7.3-1.2,10.1-3.3L37.3,42.7z"/>
	</g>
	<g>
		<path d="M31.2,35.5c0-2.1,1.7-3.9,3.8-3.9c2.1,0,3.8,1.7,3.8,3.9c0,2.1-1.7,3.9-3.8,3.9C32.9,39.4,31.2,37.7,31.2,35.5 M32.8,35.5    c0,1.2,1,2.3,2.2,2.3c1.2,0,2.2-1,2.2-2.3c0-1.2-1-2.3-2.2-2.3C33.8,33.3,32.8,34.3,32.8,35.5"/>
	</g>
</g>
<script xmlns=""/></svg>