<svg xmlns="http://www.w3.org/2000/svg" xmlns:xlink="http://www.w3.org/1999/xlink" id="Layer_1" x="0px" y="0px" viewBox="0 0 837.8 837.8" style="enable-background:new 0 0 837.8 837.8;" xml:space="preserve">
<style type="text/css">
	.st0{fill:#282828;}
</style>
<path class="st0" d="M500.5,34.8l-0.4-27.1l3.5,0.8v13.7c0,3.4-0.1,6.7-0.2,9.3h0.1c1-2.4,2.5-5.3,4.2-8.4l6.5-12.1l3.5,0.8v13.7  c0,3.2,0,6.4-0.3,9.2h0.1c1.2-2.7,2.6-5.4,4.1-8.4l6.4-12.1l3.4,0.8L518,38.9l-3.5-0.8L514.5,24c-0.1-2.9,0-5.8,0.3-8.8h-0.1  c-1.2,2.7-2.5,5.3-3.9,7.9L504,35.6L500.5,34.8z"></path>
<path class="st0" d="M544.5,33.9l-9.8-3L532,40l10.9,3.4l-0.8,2.7l-14.1-4.4l7.7-25.1l13.6,4.2l-0.8,2.7L538,20.3l-2.4,7.9l9.8,3  L544.5,33.9z"></path>
<path class="st0" d="M554.8,23c2,0.3,4.1,0.9,6,1.6c3.2,1.2,5,2.4,6.1,4.3c1,1.5,1.2,3.4,0.5,5.1c-1,2.5-3.5,4.1-6.2,3.9v0.1  c2.7,1.7,3.9,5,2.8,8c-0.6,1.9-2.1,3.4-3.9,4.2c-2.3,1-5.3,0.7-9.4-0.8c-1.7-0.6-3.3-1.3-4.8-2.1L554.8,23z M550,46.1  c0.8,0.4,1.7,0.8,2.6,1.1c3.3,1.2,6.8,1.1,8.1-2.5c1.2-3.4-1.2-5.8-4.6-7.1l-2.6-1L550,46.1z M554.3,34.3l2.9,1.1  c3.4,1.2,6,0.2,6.8-2.2c1.1-2.9-0.7-4.8-4-6c-0.9-0.4-1.9-0.6-2.9-0.8L554.3,34.3z"></path>
<path class="st0" d="M566.6,50.6c1.3,1.8,3,3.1,4.9,4c3.2,1.4,5.8,0.4,6.8-2c1-2.3,0.2-4.1-2.5-6.7c-3.4-3.1-4.9-6.2-3.5-9.6  c1.6-3.8,5.9-5.2,10.6-3.3c1.9,0.7,3.6,1.9,4.9,3.4l-1.9,2.2c-1.1-1.4-2.5-2.4-4.1-3.1c-3.3-1.4-5.4,0.1-6.1,1.7c-1,2.3,0,4,2.8,6.7  c3.4,3.3,4.7,6.2,3.2,9.7c-1.6,3.7-5.7,5.8-11.4,3.4c-2.2-0.9-4.1-2.3-5.5-4.1L566.6,50.6z"></path>
<path class="st0" d="M597,39.8l-11.1,23.8l-3.1-1.4l11.1-23.8L597,39.8z"></path>
<path class="st0" d="M606.1,47.5l-7.1-3.6l1.3-2.6l17.3,8.9l-1.3,2.6l-7.2-3.6l-10.6,20.8l-3.1-1.6L606.1,47.5z"></path>
<path class="st0" d="M625.9,70.9l-8.9-5.1l-4.7,8.2l9.9,5.7l-1.4,2.5l-12.8-7.4L621,52l12.3,7.1l-1.4,2.5l-9.4-5.4l-4.1,7.2l8.9,5.1  L625.9,70.9z"></path>
<path class="st0" d="M626.1,80.6c1,1.9,2.4,3.6,4.2,4.7c2.9,1.9,5.6,1.4,7-0.8c1.3-2.1,0.9-4-1.4-7.1c-2.8-3.6-3.8-6.9-1.8-10  c2.2-3.4,6.7-4.2,11-1.4c1.7,1,3.2,2.5,4.2,4.2L647,72c-0.9-1.5-2.1-2.8-3.5-3.7c-3-1.9-5.3-0.9-6.3,0.7c-1.3,2.1-0.6,3.9,1.7,7.1  c2.8,3.8,3.6,6.9,1.5,10.1c-2.2,3.4-6.6,4.8-11.8,1.4c-2-1.2-3.6-2.9-4.8-5L626.1,80.6z"></path>
<path class="st0" d="M651.5,90.2c1.3-1.8,3.9-2.3,5.7-1c1.8,1.3,2.3,3.9,1,5.7c-1.3,1.8-3.9,2.3-5.7,1c0,0,0,0,0,0  c-1.8-1.3-2.3-3.7-1-5.6C651.5,90.3,651.5,90.3,651.5,90.2z"></path>
<path class="st0" d="M686.3,116c2.2-2.9,4.9-6.4,7-8.9l-0.1-0.1c-2.7,1.8-5.6,3.6-9,5.5l-11.8,6.8l-2-1.7l4.8-12.3  c1.4-3.6,2.8-6.9,4.3-9.8h-0.1c-2.2,2.5-5.2,5.7-7.9,8.6l-7.8,8.2l-2.5-2.1l18.3-18.9L683,94l-4.7,12.6c-1.2,3.2-2.4,6-3.7,8.5  l0.1,0.1c2.2-1.6,4.8-3.2,7.8-5l11.8-6.7l3.3,2.8l-15.7,21.1l-2.5-2.1L686.3,116z"></path>
<path class="st0" d="M693.9,127.4l-7.7,4l-2.5-2.4l24.7-12.7l2.9,2.9l-11.8,25.1l-2.6-2.5l3.7-7.9L693.9,127.4z M701.9,131.5  l3.4-7.2c0.8-1.6,1.6-3,2.3-4.4l-0.1-0.1c-1.4,0.9-2.8,1.7-4.3,2.5l-7.1,3.7L701.9,131.5z"></path>
<path class="st0" d="M720.9,129.2c1.7,1.3,3.4,2.8,4.8,4.4c2.5,2.7,3.6,4.8,3.6,7c0,1.9-0.9,3.7-2.3,4.9c-2.2,2.1-5.6,2.5-8.3,0.9  l-0.1,0.1c0.9,2,0.3,4.1-1.3,6.4c-1.5,2-2.8,4.1-3.9,6.4l-2.4-2.6c1-2,2.1-3.8,3.4-5.6c2.1-3,2.2-5,0.2-7.3l-2.2-2.4l-8.4,7.7  l-2.3-2.5L720.9,129.2z M714.4,139.9l2.3,2.5c2.5,2.7,5.5,3,7.7,1c2.5-2.3,1.9-5.1-0.5-7.8c-0.7-0.8-1.6-1.6-2.5-2.2L714.4,139.9z"></path>
<path class="st0" d="M736,145.3l2.2,2.6l-9.7,8.1l0.1,0.1c1.2-0.1,2.4-0.2,3.5-0.2l12.7-0.1l2.7,3.2l-14.7-0.2l-5.1,17.6l-2.6-3.1  l4.4-14.9l-3.8-0.1l-7.7,6.4l-2.2-2.6L736,145.3z"></path>
<path class="st0" d="M747,181.7l-6.2-8.1l-7.6,5.7l6.8,9.1l-2.3,1.7l-8.9-11.8l21-15.8l8.5,11.4l-2.3,1.7l-6.5-8.6l-6.6,5l6.1,8.2  L747,181.7z"></path>
<path class="st0" d="M762.7,184.9l-4.5-6.6l2.4-1.6l10.9,16.1l-2.4,1.6l-4.5-6.6l-19.4,13.1l-1.9-2.9L762.7,184.9z"></path>
<path class="st0" d="M775.2,198.8l-22.3,13.9l-1.8-2.9l22.3-13.9L775.2,198.8z"></path>
<path class="st0" d="M755.9,217.5l22.9-12.9l1.8,3.2l-7.4,13.9c-1.5,2.9-3.2,5.6-5.1,8.3l0.1,0c2.9-2,5.7-3.6,9.2-5.6l9.6-5.4  l1.6,2.8l-22.9,12.9l-1.7-3l7.5-13.8c1.6-3,3.3-5.8,5.2-8.6l-0.1-0.1c-2.8,1.8-5.5,3.4-9.3,5.6l-9.8,5.5L755.9,217.5z"></path>
<path class="st0" d="M777.9,257.1c-2-1.9-3.6-4.2-4.8-6.6c-1.7-3.6-2.2-7-1.2-10.4c1.3-3.4,3.9-6.1,7.2-7.6c7.1-3.4,14.6-1,18.4,6.9  c1,2,1.6,4.2,1.8,6.4l-2.8,0.5c-0.1-2-0.6-4-1.5-5.7c-2.8-5.8-8.2-7.8-14.1-4.9s-7.8,8.2-5.1,13.8c0.6,1.4,1.5,2.7,2.6,3.8l7.1-3.4  l-2.3-4.8l2.5-1.2l3.8,7.8L777.9,257.1z"></path>
<path class="st0" d="M790.8,264.3c2.1-0.9,4.5,0.1,5.3,2.2c0.9,2.1-0.1,4.5-2.2,5.3c-2.1,0.9-4.5-0.1-5.3-2.2c0,0,0,0,0,0  c-0.9-2,0.1-4.4,2.1-5.3C790.7,264.3,790.7,264.3,790.8,264.3z"></path>
<path class="st0" d="M813.3,278.9c1,1.8,1.8,3.7,2.5,5.7c1.1,3.2,1.2,5.5,0.5,7.4c-0.6,1.7-2,3-3.7,3.5c-2.6,0.8-5.3-0.2-6.9-2.4  h-0.1c0.4,3.2-1.5,6.2-4.5,7.2c-1.9,0.7-3.9,0.5-5.7-0.4c-2.2-1.2-3.8-3.8-5.2-7.8c-0.6-1.7-1-3.4-1.4-5.1L813.3,278.9z   M792.2,289.6c0.2,0.9,0.4,1.9,0.8,2.8c1.1,3.3,3.4,6,7,4.8c3.4-1.1,3.8-4.5,2.7-8l-0.9-2.7L792.2,289.6z M804.2,285.6l1,2.9  c1.1,3.4,3.6,4.8,6,4c2.9-1,3.3-3.6,2.2-6.8c-0.3-1-0.7-1.9-1.2-2.8L804.2,285.6z"></path>
<path class="st0" d="M820.2,300c0.9,2,1.7,4,2.3,6.1c1,3.5,1,5.9,0,7.9c-0.9,1.7-2.4,2.9-4.3,3.3c-3,0.9-6.2-0.4-7.8-3h-0.1  c-0.1,2.1-1.6,3.8-4.1,5.1c-2.2,1.1-4.4,2.4-6.4,3.9l-0.9-3.4c1.8-1.3,3.6-2.4,5.6-3.4c3.3-1.7,4.2-3.4,3.5-6.4l-0.8-3.1l-11,3  l-0.9-3.3L820.2,300z M809.5,306.5l0.9,3.4c1,3.5,3.5,5.2,6.4,4.4c3.3-0.9,4-3.7,3.1-7.1c-0.3-1.1-0.7-2.2-1.2-3.1L809.5,306.5z"></path>
<path class="st0" d="M809.6,329.4l-8.7-0.9l-0.7-3.4l27.6,3.2l0.9,4l-23.8,14.3l-0.8-3.5l7.5-4.5L809.6,329.4z M814,337.3l6.8-4.1  c1.6-0.9,3-1.6,4.4-2.4v-0.1c-1.6,0-3.3-0.1-4.9-0.3l-8-0.9L814,337.3z"></path>
<path class="st0" d="M805.4,350l26-3.9l0.5,3.7L820.1,360c-2.4,2.2-5,4.1-7.7,5.9l0,0.1c3.4-0.8,6.6-1.4,10.6-2l10.9-1.6l0.5,3.2  l-26,3.9l-0.5-3.4l11.9-10.2c2.5-2.2,5.2-4.3,8-6.2l-0.1-0.1c-3.2,0.7-6.4,1.2-10.7,1.9l-11.1,1.7L805.4,350z"></path>
<path class="st0" d="M834.9,372.7c0.6,2.4,0.9,4.7,1.2,7.1c0.4,4.9-0.4,8.4-2.4,10.9c-1.9,2.5-4.8,4.1-9.1,4.5s-7.9-0.7-10.5-2.9  s-4.3-6.2-4.8-11.2c-0.2-2.1-0.3-4.1-0.2-6.2L834.9,372.7z M812,378.1c-0.1,1.1,0,2.3,0.1,3.4c0.6,7.2,5,10.8,12.1,10.2  c6.2-0.5,9.8-4.3,9.2-11.5c-0.1-1.3-0.3-2.6-0.7-3.9L812,378.1z"></path>
<path class="st0" d="M837.3,402.9L811,404l-0.1-3.4l26.3-1.1L837.3,402.9z"></path>
<path class="st0" d="M811.5,409.5l26.3,0.4v3.7l-13.4,8.2c-2.8,1.7-5.6,3.2-8.6,4.6v0.1c3.5-0.2,6.7-0.3,10.8-0.2l11,0.2v3.2  l-26.3-0.4l0.1-3.4l13.5-8.1c2.9-1.8,5.8-3.4,8.8-4.8v-0.1c-3.3,0.1-6.5,0.2-10.8,0.1l-11.2-0.2L811.5,409.5z"></path>
<path class="st0" d="M811,454.9c-0.8-2.6-1.1-5.4-0.9-8.2c0.2-4,1.5-7.2,4.1-9.6c2.8-2.3,6.4-3.4,10-3c7.8,0.5,13.2,6.3,12.6,15.1  c-0.1,2.2-0.6,4.4-1.6,6.5l-2.7-1c0.9-1.8,1.4-3.7,1.5-5.7c0.4-6.4-3.3-10.8-9.9-11.2s-10.8,3.3-11.2,9.4c-0.2,1.5,0,3.1,0.4,4.6  l7.8,0.5l0.3-5.3l2.7,0.2l-0.6,8.6L811,454.9z"></path>
<path class="st0" d="M817.5,475.8c2.2,0.3,3.8,2.4,3.5,4.6c-0.3,2.2-2.4,3.8-4.6,3.5s-3.8-2.4-3.5-4.6c0,0,0,0,0,0  c0.3-2.2,2.3-3.7,4.5-3.5C817.4,475.8,817.5,475.8,817.5,475.8z"></path>
<path class="st0" d="M801.9,505.1L829,505l-0.9,3.5l-13.7-0.2c-3.4,0-6.7-0.2-9.3-0.3v0.1c2.4,1,5.3,2.6,8.3,4.3l12,6.6l-0.9,3.4  l-13.7-0.1c-3.2,0-6.4-0.1-9.2-0.4v0.1c2.7,1.2,5.3,2.7,8.3,4.2l12,6.6l-0.8,3.4l-23.7-13.6l0.9-3.4l14.1,0.1c2.9,0,5.8,0.1,8.7,0.4  v-0.1c-2.7-1.2-5.3-2.6-7.8-4l-12.4-6.9L801.9,505.1z"></path>
<path class="st0" d="M802.3,549.2l3.1-9.7l-9-2.9l-3.5,10.8l-2.7-0.9l4.5-14.1l25,8l-4.3,13.5l-2.7-0.9l3.3-10.3l-7.9-2.5L805,550  L802.3,549.2z"></path>
<path class="st0" d="M813.1,559.6c-0.4,2-0.9,4.1-1.7,6c-1.2,3.2-2.5,5-4.3,6.1c-1.5,1-3.4,1.1-5.1,0.4c-2.5-1-4-3.5-3.8-6.2h-0.1  c-1.7,2.7-5.1,3.8-8.1,2.7c-1.9-0.7-3.4-2.1-4.1-3.9c-0.9-2.3-0.6-5.3,0.9-9.4c0.6-1.6,1.3-3.3,2.2-4.8L813.1,559.6z M790,554.4  c-0.5,0.8-0.8,1.7-1.2,2.6c-1.2,3.3-1.2,6.8,2.4,8.1c3.4,1.3,5.8-1.1,7.1-4.6l1-2.6L790,554.4z M801.8,558.9l-1.1,2.9  c-1.3,3.3-0.3,6,2.1,6.9c2.9,1.1,4.8-0.7,6-3.9c0.4-0.9,0.7-1.9,0.8-2.9L801.8,558.9z"></path>
<path class="st0" d="M785.3,571c-1.7,1.2-3.1,2.9-4,4.9c-1.4,3.2-0.5,5.8,1.9,6.8c2.2,1,4.1,0.3,6.8-2.5c3.1-3.3,6.2-4.9,9.6-3.4  c3.8,1.6,5.2,6,3.1,10.7c-0.7,1.9-1.9,3.5-3.5,4.8l-2.2-2c1.4-1.1,2.4-2.5,3.1-4.1c1.4-3.3,0-5.4-1.6-6.1c-2.2-1-4,0-6.7,2.8  c-3.3,3.4-6.2,4.6-9.8,3.1c-3.7-1.6-5.7-5.8-3.2-11.5c0.9-2.1,2.3-4,4.2-5.5L785.3,571z"></path>
<path class="st0" d="M795.8,601.6l-23.7-11.4l1.5-3.1l23.7,11.4L795.8,601.6z"></path>
<path class="st0" d="M788,610.6l3.7-7.1l2.5,1.3l-9,17.2l-2.6-1.3l3.7-7.1l-20.7-10.9l1.6-3L788,610.6z"></path>
<path class="st0" d="M764.3,630.1l5.2-8.8l-8.2-4.8l-5.8,9.8l-2.5-1.5l7.5-12.7l22.7,13.3l-7.2,12.2l-2.5-1.5l5.5-9.3l-7.2-4.2  l-5.2,8.8L764.3,630.1z"></path>
<path class="st0" d="M754.7,630.2c-1.9,0.9-3.6,2.4-4.8,4.1c-1.9,2.9-1.5,5.6,0.7,7.1c2,1.3,4,0.9,7.1-1.3c3.6-2.8,6.9-3.8,10-1.7  c3.4,2.2,4.1,6.8,1.3,11c-1,1.7-2.5,3.2-4.3,4.2l-1.8-2.3c1.5-0.8,2.8-2,3.8-3.5c2-3,0.9-5.3-0.6-6.3c-2-1.3-3.9-0.7-7.1,1.6  c-3.9,2.8-6.9,3.5-10.1,1.4c-3.4-2.2-4.7-6.7-1.3-11.8c1.3-2,3-3.6,5.1-4.7L754.7,630.2z"></path>
<path class="st0" d="M744.7,655.5c1.8,1.3,2.2,3.9,0.9,5.7c-1.3,1.8-3.9,2.2-5.7,0.9c-1.8-1.3-2.2-3.9-0.9-5.7c0,0,0,0,0,0  c1.3-1.8,3.8-2.2,5.6-1C744.7,655.4,744.7,655.4,744.7,655.5z"></path>
<path class="st0" d="M718.6,690c2.9,2.2,6.4,5,8.8,7.1l0.1-0.1c-1.7-2.7-3.5-5.7-5.4-9l-6.6-11.8l1.7-2l12.2,5  c3.6,1.5,6.9,2.9,9.7,4.4l0-0.1c-2.4-2.2-5.6-5.2-8.5-8l-8.1-7.9l2.1-2.5l18.7,18.6l-2.8,3.3l-12.6-4.9c-3.2-1.3-5.9-2.5-8.4-3.8  l-0.1,0.1c1.6,2.2,3.2,4.8,4.9,7.9l6.5,11.9l-2.8,3.3l-21-15.9l2.2-2.5L718.6,690z"></path>
<path class="st0" d="M707,697.4l-4-7.8l2.5-2.5l12.4,24.8l-2.9,2.9l-25-12.1l2.5-2.6l7.8,3.8L707,697.4z M702.8,705.4l7.2,3.5  c1.6,0.8,3,1.6,4.4,2.4l0.1-0.1c-0.8-1.4-1.7-2.8-2.5-4.3l-3.6-7.2L702.8,705.4z"></path>
<path class="st0" d="M704.9,724.4c-1.3,1.7-2.8,3.3-4.5,4.8c-2.7,2.4-4.9,3.5-7.1,3.5c-1.9,0-3.7-0.9-4.9-2.3  c-2.1-2.3-2.4-5.7-0.8-8.3l-0.1-0.1c-2,0.8-4.1,0.3-6.4-1.3c-2-1.5-4.1-2.9-6.3-4l2.6-2.3c1.9,1,3.8,2.1,5.5,3.5  c3,2.2,5,2.2,7.3,0.3l2.4-2.1l-7.6-8.4l2.5-2.3L704.9,724.4z M694.3,717.8l-2.6,2.3c-2.7,2.4-3.1,5.5-1,7.7c2.3,2.5,5.1,2,7.8-0.4  c0.9-0.7,1.6-1.6,2.3-2.5L694.3,717.8z"></path>
<path class="st0" d="M688.7,739.3l-2.7,2.1l-8-9.8l-0.1,0.1c0.1,1.2,0.1,2.4,0.2,3.5v12.7l-3.3,2.7l0.3-14.7l-17.5-5.3l3.1-2.5  l14.9,4.5l0.1-3.8l-6.3-7.8l2.6-2.1L688.7,739.3z"></path>
<path class="st0" d="M652.1,749.8l8.2-6l-5.6-7.6l-9.2,6.7l-1.7-2.3l11.9-8.7l15.5,21.2l-11.5,8.4l-1.7-2.3l8.7-6.4l-4.9-6.7l-8.2,6  L652.1,749.8z"></path>
<path class="st0" d="M648.7,765.6l6.7-4.4l1.6,2.4l-16.2,10.7l-1.6-2.4l6.7-4.4L633,747.9l2.9-1.9L648.7,765.6z"></path>
<path class="st0" d="M634.7,777.8L621,755.4l2.9-1.8l13.7,22.5L634.7,777.8z"></path>
<path class="st0" d="M616.2,758.4l12.7,23l-3.2,1.8l-13.8-7.6c-2.9-1.6-5.6-3.3-8.2-5.2l0,0.1c2,2.9,3.6,5.7,5.5,9.3l5.3,9.6  l-2.8,1.5l-12.7-23l3-1.7l13.7,7.7c2.9,1.6,5.8,3.4,8.5,5.3l0.1-0.1c-1.8-2.8-3.3-5.5-5.5-9.4l-5.4-9.8L616.2,758.4z"></path>
<path class="st0" d="M576.4,779.9c2-1.9,4.2-3.5,6.7-4.7c3.6-1.7,7-2.2,10.4-1c3.4,1.3,6.1,4,7.5,7.3c3.3,7.1,0.9,14.6-7.1,18.3  c-2,1-4.2,1.6-6.5,1.7l-0.4-2.9c2-0.1,4-0.5,5.7-1.4c5.8-2.7,7.9-8.1,5.1-14.1s-8.2-7.9-13.7-5.3c-1.4,0.6-2.7,1.5-3.8,2.6l3.3,7.1  l4.8-2.3l1.2,2.5l-7.8,3.7L576.4,779.9z"></path>
<path class="st0" d="M569,792.7c0.8,2.1-0.2,4.5-2.3,5.3c-2.1,0.8-4.5-0.2-5.3-2.3s0.2-4.5,2.3-5.3c0,0,0,0,0,0  C565.8,789.5,568.2,790.5,569,792.7C569,792.6,569,792.7,569,792.7z"></path>
<path class="st0" d="M545.9,817.8c-1.8,0.9-3.8,1.7-5.8,2.3c-3.2,1-5.5,1-7.5,0.2c-1.7-0.6-3-2.1-3.4-3.8c-0.7-2.6,0.4-5.3,2.6-6.8  v-0.1c-3.2,0.3-6.1-1.7-7.1-4.8c-0.6-1.9-0.4-4,0.6-5.7c1.3-2.1,3.9-3.7,8-5c1.7-0.5,3.4-0.9,5.1-1.2L545.9,817.8z M535.9,796.4  c-0.9,0.2-1.9,0.4-2.8,0.7c-3.4,1-6.1,3.2-5,6.8c1,3.4,4.4,4,8,2.9l2.7-0.8L535.9,796.4z M539.5,808.4l-3,0.9  c-3.4,1-4.9,3.4-4.2,5.8c0.9,3,3.5,3.4,6.8,2.5c1-0.2,2-0.6,2.9-1L539.5,808.4z"></path>
<path class="st0" d="M524.6,823.9c-2,0.9-4.1,1.6-6.2,2.1c-3.5,0.8-6,0.8-7.9-0.3c-1.6-0.9-2.8-2.5-3.2-4.4c-0.8-3,0.6-6.1,3.2-7.7  v-0.1c-2.1-0.2-3.8-1.8-5-4.2c-1-2.3-2.2-4.5-3.7-6.5l3.4-0.8c1.2,1.8,2.3,3.7,3.2,5.7c1.6,3.3,3.3,4.3,6.3,3.7l3.1-0.8l-2.7-11.1  l3.3-0.8L524.6,823.9z M518.5,813.1l-3.4,0.8c-3.5,0.8-5.3,3.3-4.6,6.2c0.8,3.3,3.5,4.2,7,3.4c1.1-0.2,2.2-0.6,3.2-1.1L518.5,813.1z  "></path>
<path class="st0" d="M495.5,812.4l1.2-8.6l3.5-0.6l-4.1,27.5l-4,0.7L478.6,807l3.6-0.7l4.2,7.6L495.5,812.4z M487.5,816.5l3.9,7  c0.9,1.6,1.5,3,2.2,4.5h0.1c0.1-1.6,0.2-3.3,0.5-4.9l1.2-7.9L487.5,816.5z"></path>
<path class="st0" d="M475.2,807.6l3.1,26.1l-3.7,0.4l-9.9-12.2c-2.1-2.5-4-5.2-5.7-7.9h-0.1c0.7,3.4,1.2,6.6,1.7,10.7l1.3,10.9  l-3.2,0.4l-3.1-26.1l3.4-0.4l9.8,12.3c2.1,2.6,4.1,5.3,5.9,8.1h0.1c-0.6-3.3-1-6.4-1.5-10.7l-1.3-11.2L475.2,807.6z"></path>
<path class="st0" d="M451.4,836.2c-2.4,0.5-4.8,0.8-7.2,0.9c-4.9,0.3-8.4-0.7-10.8-2.7s-4-5-4.2-9.2s0.9-7.9,3.2-10.4  s6.3-4.1,11.4-4.4c2.1-0.1,4.1-0.1,6.2,0L451.4,836.2z M446.8,813.2c-1.1-0.1-2.3-0.1-3.4,0c-7.2,0.4-11,4.7-10.6,11.7  c0.3,6.2,4,9.9,11.2,9.6c1.3,0,2.7-0.2,4-0.6L446.8,813.2z"></path>
<path class="st0" d="M421.4,837.7l-0.4-26.3l3.4,0l0.4,26.3L421.4,837.7z"></path>
<path class="st0" d="M415.4,811.5l-0.9,26.3l-3.7-0.1l-8-13.6c-1.7-2.8-3.1-5.7-4.4-8.7h-0.1c0.2,3.5,0.2,6.7,0,10.8l-0.4,11  l-3.2-0.1l0.9-26.3l3.4,0.1l8,13.6c1.7,2.9,3.3,5.9,4.6,8.9h0.1c-0.1-3.3-0.1-6.5,0.1-10.8l0.4-11.2L415.4,811.5z"></path>
<path class="st0" d="M370.1,809.7c2.7-0.7,5.4-0.9,8.2-0.7c4,0.4,7.1,1.7,9.5,4.4c2.2,2.9,3.2,6.5,2.7,10.1  c-0.8,7.8-6.7,13-15.5,12.1c-2.2-0.2-4.4-0.8-6.4-1.8l1.1-2.7c1.7,1,3.7,1.6,5.7,1.7c6.4,0.6,10.9-3,11.5-9.5s-3-10.9-9.1-11.5  c-1.5-0.2-3.1-0.1-4.6,0.3l-0.8,7.8l5.3,0.5l-0.3,2.7l-8.6-0.8L370.1,809.7z"></path>
<path class="st0" d="M349,815.6c-0.4,2.2-2.5,3.7-4.7,3.3c-2.2-0.4-3.7-2.5-3.3-4.7c0.4-2.2,2.5-3.7,4.7-3.3c0,0,0,0,0,0  C347.9,811.2,349.4,813.3,349,815.6C349,815.5,349,815.6,349,815.6z"></path>
<path class="st0" d="M320.2,799l-0.8,27.1l-3.5-1l0.6-13.7c0.1-3.4,0.4-6.7,0.6-9.3h-0.1c-1.1,2.4-2.8,5.2-4.6,8.2l-7,11.8l-3.4-1  l0.6-13.7c0.1-3.2,0.3-6.4,0.7-9.2h-0.1c-1.3,2.6-2.8,5.2-4.5,8.2l-7,11.8l-3.3-1l14.4-23.2l3.4,1l-0.5,14.1  c-0.1,2.9-0.3,5.8-0.7,8.7h0.1c1.3-2.6,2.7-5.2,4.3-7.7l7.4-12.1L320.2,799z"></path>
<path class="st0" d="M276.2,797.9l9.6,3.4l3.2-8.9l-10.7-3.9l1-2.7l13.9,5l-8.8,24.8l-13.4-4.8l1-2.7l10.1,3.6l2.8-7.8l-9.6-3.4  L276.2,797.9z"></path>
<path class="st0" d="M265.4,808.4c-2-0.4-4-1.1-5.9-1.9c-3.1-1.3-4.9-2.7-5.9-4.5c-0.9-1.6-1-3.5-0.2-5.1c1.1-2.4,3.7-3.9,6.3-3.6  v-0.1c-2.7-1.8-3.7-5.2-2.5-8.2c0.7-1.8,2.2-3.3,4.1-4c2.3-0.8,5.4-0.4,9.3,1.2c1.6,0.7,3.2,1.4,4.7,2.3L265.4,808.4z M266.4,797.2  l-2.8-1.2c-3.3-1.4-6-0.5-7,1.9c-1.2,2.8,0.5,4.9,3.7,6.2c0.9,0.4,1.9,0.7,2.9,0.9L266.4,797.2z M271.2,785.6  c-0.8-0.5-1.7-0.9-2.6-1.2c-3.2-1.3-6.7-1.4-8.2,2.1c-1.4,3.3,0.9,5.9,4.3,7.3l2.6,1.1L271.2,785.6z"></path>
<path class="st0" d="M254.9,780.2c-1.2-1.8-2.8-3.2-4.8-4.2c-3.1-1.5-5.8-0.7-6.9,1.7c-1,2.2-0.4,4.1,2.2,6.8  c3.2,3.2,4.6,6.4,3.1,9.7c-1.8,3.7-6.1,5-10.7,2.8c-1.9-0.8-3.5-2.1-4.7-3.7l2-2.1c1,1.4,2.4,2.5,4,3.3c3.2,1.5,5.4,0.2,6.2-1.4  c1.1-2.2,0.1-4-2.5-6.8c-3.3-3.5-4.4-6.4-2.7-9.8c1.8-3.7,6-5.5,11.6-2.9c2.1,1,4,2.5,5.3,4.4L254.9,780.2z"></path>
<path class="st0" d="M224,789.7l12.1-23.3l3,1.6L227,791.3L224,789.7z"></path>
<path class="st0" d="M215.2,781.7l7,3.9l-1.4,2.5l-16.9-9.6l1.4-2.5l7,4l11.5-20.4l3,1.7L215.2,781.7z"></path>
<path class="st0" d="M196.5,757.4l8.6,5.5l5.1-8l-9.6-6.1l1.5-2.4l12.5,7.9l-14.1,22.2l-12-7.6l1.5-2.4l9.1,5.8l4.4-7l-8.6-5.5  L196.5,757.4z"></path>
<path class="st0" d="M196.8,747.7c-0.9-2-2.3-3.7-4-4.9c-2.8-2-5.5-1.7-7.1,0.5c-1.4,2-1.1,4,1,7.1c2.6,3.7,3.5,7.1,1.4,10.1  c-2.4,3.3-6.9,3.9-11.1,1c-1.7-1.1-3.1-2.6-4-4.4l2.4-1.7c0.8,1.6,1.9,2.9,3.4,3.9c2.9,2.1,5.3,1.1,6.3-0.4c1.4-2,0.8-3.9-1.4-7.2  c-2.6-4-3.3-7-1-10.2c2.3-3.3,6.8-4.5,11.9-0.9c1.9,1.3,3.5,3.1,4.5,5.2L196.8,747.7z"></path>
<path class="st0" d="M171.8,737c-1.4,1.8-4,2.1-5.8,0.7s-2.1-4-0.7-5.8c1.4-1.8,4-2.1,5.8-0.7c0,0,0,0,0,0  C172.9,732.6,173.2,735.1,171.8,737C171.8,736.9,171.8,736.9,171.8,737z"></path>
<path class="st0" d="M138.1,709.7c-2.3,2.8-5.1,6.2-7.4,8.6l0.1,0.1c2.7-1.7,5.8-3.3,9.2-5.1l12-6.2l1.9,1.8l-5.4,12.1  c-1.6,3.6-3.1,6.8-4.7,9.6l0.1,0.1c2.3-2.4,5.4-5.5,8.2-8.2l8.1-7.8l2.4,2.2l-19.2,18.1l-3.2-2.9l5.3-12.4c1.4-3.1,2.7-5.8,4-8.3  l-0.1-0.1c-2.3,1.5-4.9,3-8,4.6l-12,6.2l-3.2-2.9l16.5-20.4l2.4,2.2L138.1,709.7z"></path>
<path class="st0" d="M131.1,697.9l7.9-3.7l2.4,2.5l-25.2,11.6l-2.8-3l12.9-24.6l2.5,2.6l-4.1,7.7L131.1,697.9z M123.2,693.5  l-3.7,7.1c-0.9,1.6-1.7,3-2.5,4.3l0,0.1c1.4-0.8,2.9-1.6,4.4-2.3l7.3-3.4L123.2,693.5z"></path>
<path class="st0" d="M104.2,694.9c-1.7-1.4-3.2-2.9-4.6-4.6c-2.3-2.8-3.4-5-3.3-7.2c0.1-1.9,1-3.6,2.5-4.8c2.3-2,5.7-2.3,8.3-0.5  l0.1-0.1c-0.8-2-0.1-4.1,1.5-6.4c1.6-1.9,3-4,4.2-6.2l2.3,2.7c-1,1.9-2.3,3.7-3.7,5.4c-2.3,2.9-2.4,4.9-0.5,7.3l2.1,2.5l8.7-7.4  l2.2,2.6L104.2,694.9z M111.2,684.6l-2.2-2.7c-2.3-2.8-5.4-3.2-7.6-1.3c-2.6,2.2-2.1,5,0.2,7.8c0.7,0.9,1.5,1.7,2.4,2.4L111.2,684.6  z"></path>
<path class="st0" d="M89.8,678.2l-2-2.7l10.1-7.7l-0.1-0.1c-1.2,0.1-2.4,0.1-3.5,0l-12.7-0.4L79,664l14.6,0.8l5.8-17.3l2.4,3.2  l-5,14.7l3.8,0.2l8-6.1l2,2.7L89.8,678.2z"></path>
<path class="st0" d="M80.4,641.3l5.8,8.4l7.8-5.3l-6.4-9.4l2.4-1.6l8.3,12.2l-21.7,14.8l-8-11.7l2.4-1.6L77,656l6.9-4.7l-5.8-8.4  L80.4,641.3z"></path>
<path class="st0" d="M64.9,637.4l4.2,6.8l-2.5,1.5l-10.2-16.6l2.5-1.5l4.2,6.8l20-12.2l1.8,2.9L64.9,637.4z"></path>
<path class="st0" d="M53,623l22.9-12.9l1.7,3L54.7,626L53,623z"></path>
<path class="st0" d="M73.1,605.2l-23.4,11.9l-1.7-3.3l8-13.5c1.6-2.8,3.5-5.5,5.5-8.1l-0.1-0.1c-3,1.9-5.8,3.4-9.5,5.2l-9.8,5  l-1.4-2.8l23.5-11.9l1.6,3.1l-8.1,13.5c-1.7,2.9-3.6,5.7-5.6,8.3l0.1,0.1c2.9-1.7,5.6-3.2,9.6-5.2l10-5.1L73.1,605.2z"></path>
<path class="st0" d="M52.9,564.7c1.9,2,3.4,4.3,4.5,6.8c1.6,3.7,1.9,7.1,0.7,10.4c-1.4,3.3-4.2,5.9-7.5,7.2  c-7.2,3.1-14.6,0.4-18.1-7.7c-0.9-2-1.4-4.2-1.5-6.5l2.9-0.3c0,2,0.4,4,1.3,5.8c2.5,5.9,7.8,8.1,13.9,5.5s8.2-7.9,5.7-13.5  c-0.5-1.4-1.4-2.8-2.4-3.9l-7.2,3.1l2.1,4.9l-2.5,1.1l-3.4-8L52.9,564.7z"></path>
<path class="st0" d="M40.4,556.9c-2.1,0.8-4.5-0.3-5.2-2.4c-0.8-2.1,0.3-4.5,2.4-5.2c2.1-0.8,4.5,0.3,5.2,2.4c0,0,0,0,0,0  C43.6,553.7,42.5,556.1,40.4,556.9C40.4,556.8,40.4,556.8,40.4,556.9z"></path>
<path class="st0" d="M18.5,541.2c-0.9-1.9-1.7-3.8-2.2-5.8c-0.9-3.3-1-5.5-0.1-7.5c0.7-1.7,2.1-3,3.9-3.4c2.6-0.7,5.3,0.4,6.8,2.7  h0.1c-0.2-3.2,1.8-6.1,4.9-7c1.9-0.6,4-0.3,5.7,0.7c2.1,1.3,3.7,3.9,4.9,8.1c0.5,1.7,0.9,3.4,1.1,5.1L18.5,541.2z M27.9,535l-0.9-3  c-1-3.5-3.4-5-5.8-4.3c-3,0.8-3.5,3.4-2.5,6.7c0.3,1,0.6,1.9,1.1,2.8L27.9,535z M40,531.6c-0.1-0.9-0.3-1.9-0.6-2.8  c-1-3.4-3.1-6.1-6.8-5.1c-3.4,1-4,4.3-3,7.9l0.8,2.7L40,531.6z"></path>
<path class="st0" d="M12.6,519.9c-0.9-2-1.5-4.1-2-6.2c-0.8-3.5-0.7-6,0.4-7.9c0.9-1.6,2.6-2.8,4.4-3.1c3-0.7,6.1,0.6,7.6,3.3h0.1  c0.2-2.1,1.8-3.7,4.3-5c2.3-1,4.5-2.2,6.6-3.6l0.8,3.4c-1.8,1.2-3.7,2.3-5.7,3.1c-3.4,1.6-4.4,3.2-3.8,6.3l0.7,3.1l11.1-2.5l0.8,3.3  L12.6,519.9z M23.5,513.9l-0.8-3.4c-0.8-3.5-3.3-5.3-6.2-4.7c-3.3,0.8-4.2,3.5-3.4,7c0.2,1.1,0.5,2.2,1,3.2L23.5,513.9z"></path>
<path class="st0" d="M24.5,491l8.6,1.3l0.6,3.5l-27.4-4.4l-0.7-4L30,474.1l0.6,3.6l-7.7,4.2L24.5,491z M20.4,483l-7,3.8  c-1.6,0.9-3.1,1.5-4.5,2.2v0.1c1.6,0.1,3.2,0.3,4.9,0.5l7.9,1.3L20.4,483z"></path>
<path class="st0" d="M29.6,470.6l-26.1,2.8L3,469.7l12.3-9.8c2.5-2,5.2-3.9,8-5.6l-0.1-0.1c-3.5,0.7-6.6,1.1-10.7,1.5L1.7,457  l-0.3-3.2l26.1-2.8l0.4,3.4l-12.4,9.7c-2.6,2.1-5.4,4-8.2,5.8l0.1,0.1c3.3-0.5,6.4-1,10.8-1.4l11.2-1.2L29.6,470.6z"></path>
<path class="st0" d="M1.2,446.6c-0.5-2.4-0.7-4.8-0.8-7.2c-0.2-4.9,0.8-8.4,2.8-10.8s5-3.9,9.3-4.1s7.9,1,10.4,3.4s4.1,6.3,4.3,11.5  c0.1,2.1,0.1,4.1-0.1,6.2L1.2,446.6z M24.2,442.2c0.1-1.1,0.1-2.3,0-3.4c-0.3-7.2-4.5-11-11.6-10.7c-6.2,0.2-10,3.9-9.7,11.1  c0,1.3,0.2,2.7,0.5,4L24.2,442.2z"></path>
<path class="st0" d="M0.1,416l26.3,0.4l-0.1,3.4L0,419.4L0.1,416z"></path>
<path class="st0" d="M26.3,410.8L0,409.6l0.2-3.7l13.7-7.8c2.8-1.6,5.7-3.1,8.7-4.3v-0.1c-3.5,0.2-6.7,0.1-10.8-0.1l-11-0.5l0.1-3.2  l26.3,1.2l-0.2,3.4l-13.7,7.7c-2.9,1.7-5.9,3.2-9,4.5v0.1c3.3,0,6.5,0,10.8,0.2l11.2,0.5L26.3,410.8z"></path>
<path class="st0" d="M28.6,365.6c0.6,2.7,0.8,5.4,0.6,8.2c-0.4,4-1.8,7.1-4.5,9.4c-2.9,2.2-6.5,3.1-10.1,2.6  c-7.8-0.9-12.9-6.9-11.9-15.6c0.2-2.2,0.8-4.4,1.9-6.4l2.7,1.1c-1,1.7-1.6,3.7-1.8,5.6c-0.7,6.4,2.8,10.9,9.4,11.6s11-2.9,11.6-8.9  c0.2-1.5,0.2-3.1-0.2-4.6l-7.8-0.8l-0.6,5.3l-2.7-0.3l0.9-8.6L28.6,365.6z"></path>
<path class="st0" d="M21.5,352.6c-2.2-0.4-3.7-2.5-3.4-4.7c0.4-2.2,2.5-3.7,4.7-3.4c2.2,0.4,3.7,2.5,3.4,4.7c0,0,0,0,0,0  c-0.3,2.2-2.4,3.7-4.6,3.3C21.6,352.6,21.6,352.6,21.5,352.6z"></path>
<path class="st0" d="M36,331.6H8.9l0.9-3.5l13.7,0.2c3.4,0,6.7,0.2,9.3,0.3v-0.1c-2.4-1-5.3-2.6-8.3-4.3l-12-6.6l0.9-3.4l13.7,0.2  c3.2,0,6.4,0.1,9.2,0.4v-0.1c-2.7-1.2-5.3-2.7-8.3-4.3l-12-6.6l0.9-3.4l23.7,13.6l-0.9,3.4l-14.1-0.1c-2.9,0-5.8-0.1-8.7-0.4v0.1  c2.7,1.2,5.3,2.6,7.8,4.1l12.4,7L36,331.6z"></path>
<path class="st0" d="M35.7,287.5l-3.1,9.7l9,2.9l3.5-10.8l2.7,0.9l-4.6,14.1l-25-8.1l4.4-13.5l2.7,0.9L22,293.8l7.9,2.6l3.1-9.7  L35.7,287.5z"></path>
<path class="st0" d="M24.9,277.1c0.4-2,1-4.1,1.7-6c1.2-3.2,2.5-5,4.4-6.1c1.5-1,3.4-1.1,5.1-0.4c2.5,1,4,3.5,3.8,6.2H40  c1.7-2.7,5.1-3.8,8.1-2.7c1.9,0.7,3.4,2.1,4.1,4c0.9,2.3,0.6,5.4-0.9,9.4c-0.6,1.7-1.3,3.3-2.2,4.8L24.9,277.1z M36.2,277.8l1.1-2.9  c1.3-3.4,0.3-6-2.1-6.9c-2.9-1.1-4.8,0.7-6.1,3.9c-0.4,0.9-0.7,1.9-0.9,2.9L36.2,277.8z M48,282.3c0.5-0.8,0.8-1.7,1.2-2.6  c1.2-3.3,1.2-6.8-2.4-8.1c-3.4-1.3-5.8,1.1-7.1,4.5l-1,2.6L48,282.3z"></path>
<path class="st0" d="M52.8,265.7c1.7-1.2,3.1-2.9,4-4.9c1.4-3.2,0.5-5.8-1.9-6.8c-2.2-1-4.1-0.3-6.8,2.4c-3.1,3.3-6.2,4.8-9.6,3.4  c-3.7-1.6-5.2-6-3.1-10.7c0.8-1.9,2-3.5,3.5-4.8l2.2,2c-1.4,1.1-2.5,2.5-3.2,4.1c-1.4,3.3,0,5.4,1.6,6.1c2.2,1,4,0,6.8-2.7  c3.4-3.4,6.2-4.6,9.8-3c3.7,1.6,5.7,5.8,3.2,11.5c-0.9,2.2-2.4,4-4.2,5.5L52.8,265.7z"></path>
<path class="st0" d="M42.4,235.2L66,246.6l-1.5,3l-23.6-11.4L42.4,235.2z"></path>
<path class="st0" d="M50.2,226.1l-3.7,7.1l-2.6-1.4l9.1-17.2l2.6,1.4l-3.8,7.1l20.7,11l-1.6,3L50.2,226.1z"></path>
<path class="st0" d="M73.9,206.7l-5.2,8.8l8.1,4.8l5.8-9.8l2.4,1.5l-7.5,12.7L55,211.3l7.2-12.2l2.4,1.5l-5.5,9.3l7.1,4.2l5.2-8.8  L73.9,206.7z"></path>
<path class="st0" d="M83.6,206.6c1.9-0.9,3.6-2.4,4.8-4.1c1.9-2.9,1.5-5.6-0.7-7.1c-2.1-1.4-4-1-7.1,1.3c-3.6,2.7-7,3.7-10,1.7  c-3.4-2.3-4.1-6.8-1.3-11c1.1-1.7,2.5-3.1,4.3-4.1l1.8,2.3c-1.5,0.8-2.8,2-3.8,3.5c-2,3-0.9,5.3,0.6,6.3c2,1.4,3.9,0.7,7.1-1.6  c3.9-2.8,6.9-3.5,10.1-1.3s4.7,6.7,1.2,11.9c-1.3,2-3,3.6-5.1,4.7L83.6,206.6z"></path>
<path class="st0" d="M93.6,181.4c-1.8-1.3-2.2-3.9-0.9-5.7c1.3-1.8,3.9-2.2,5.7-0.9c1.8,1.3,2.2,3.9,0.9,5.7c0,0,0,0,0,0  C98,182.3,95.4,182.7,93.6,181.4C93.6,181.4,93.6,181.4,93.6,181.4z"></path>
<path class="st0" d="M119.8,147c-2.9-2.3-6.4-5-8.8-7.1l-0.1,0.1c1.7,2.7,3.5,5.7,5.4,9l6.6,11.9l-1.7,1.9l-12.2-5  c-3.6-1.5-6.9-2.9-9.7-4.4l0,0.1c2.4,2.2,5.6,5.2,8.4,8l8,7.9l-2.1,2.5l-18.6-18.6l2.8-3.3l12.5,5c3.2,1.3,5.9,2.5,8.4,3.8l0.1-0.1  c-1.6-2.2-3.1-4.8-4.9-7.9l-6.5-11.9l2.8-3.3l20.9,16L129,154L119.8,147z"></path>
<path class="st0" d="M131.4,139.6l3.9,7.8l-2.5,2.5l-12.3-24.9l2.9-2.9l25,12.2l-2.6,2.6l-7.9-3.9L131.4,139.6z M135.6,131.6  l-7.2-3.5c-1.6-0.8-3-1.6-4.4-2.4l-0.1,0.1c0.8,1.4,1.7,2.8,2.4,4.3l3.6,7.2L135.6,131.6z"></path>
<path class="st0" d="M133.7,112.6c1.3-1.7,2.8-3.3,4.5-4.8c2.7-2.4,4.9-3.5,7.1-3.5c1.9,0,3.7,0.9,4.9,2.3c2.1,2.3,2.4,5.7,0.8,8.3  l0.1,0.1c2-0.8,4.1-0.2,6.4,1.4c2,1.5,4.1,2.9,6.3,4l-2.6,2.3c-1.9-1-3.8-2.2-5.5-3.5c-3-2.2-5-2.3-7.3-0.3l-2.4,2.1l7.6,8.5  l-2.5,2.3L133.7,112.6z M144.2,119.2l2.6-2.3c2.7-2.4,3.1-5.4,1.1-7.7c-2.3-2.5-5.1-2-7.8,0.4c-0.9,0.7-1.6,1.6-2.3,2.5L144.2,119.2  z"></path>
<path class="st0" d="M149.9,97.8l2.6-2.1l8,9.9l0.1-0.1c-0.1-1.2-0.1-2.4-0.2-3.5l0-12.7l3.3-2.6l-0.4,14.6l17.5,5.4l-3.1,2.5  l-14.8-4.6l-0.1,3.8l6.3,7.8l-2.6,2.1L149.9,97.8z"></path>
<path class="st0" d="M186.5,87.3l-8.3,6l5.6,7.7l9.2-6.7l1.7,2.3l-11.9,8.7L167.3,84l11.5-8.4l1.7,2.3l-8.7,6.4l4.9,6.7l8.2-6  L186.5,87.3z"></path>
<path class="st0" d="M189.9,71.6l-6.7,4.4l-1.6-2.4l16.3-10.6l1.6,2.4l-6.7,4.4l12.8,19.6l-2.9,1.9L189.9,71.6z"></path>
<path class="st0" d="M204,59.3l13.6,22.5l-2.9,1.7l-13.6-22.5L204,59.3z"></path>
<path class="st0" d="M222.4,78.9l-12.6-23.1l3.3-1.8l13.8,7.6c2.9,1.6,5.6,3.3,8.2,5.2l0-0.1c-2-2.9-3.5-5.7-5.5-9.3l-5.3-9.6  l2.8-1.5l12.6,23.1l-3,1.6L223,63.3c-2.9-1.6-5.8-3.4-8.5-5.4l-0.1,0.1c1.8,2.8,3.3,5.6,5.4,9.4l5.4,9.9L222.4,78.9z"></path>
<path class="st0" d="M262.3,57.4c-2,1.9-4.2,3.5-6.7,4.7c-3.6,1.7-7,2.1-10.4,1c-3.4-1.3-6-4-7.5-7.3c-3.3-7.1-0.8-14.6,7.2-18.3  c2-1,4.2-1.6,6.5-1.7l0.4,2.9c-2,0.1-4,0.5-5.8,1.4c-5.8,2.7-7.9,8.1-5.1,14s8.1,7.9,13.7,5.3c1.4-0.6,2.7-1.4,3.8-2.6l-3.3-7.1  l-4.8,2.3l-1.2-2.5l7.9-3.7L262.3,57.4z"></path>
<path class="st0" d="M269.7,44.7c-0.8-2.1,0.2-4.5,2.3-5.3c2.1-0.8,4.5,0.2,5.3,2.3c0.8,2.1-0.2,4.5-2.3,5.3c0,0,0,0,0,0  C272.9,47.8,270.6,46.8,269.7,44.7C269.7,44.7,269.7,44.7,269.7,44.7z"></path>
<path class="st0" d="M284.7,22.4c1.8-1,3.8-1.8,5.7-2.4c3.2-1,5.5-1.1,7.5-0.4c1.7,0.6,3,2,3.5,3.8c0.7,2.6-0.3,5.3-2.5,6.8v0.1  c3.2-0.3,6.2,1.6,7.2,4.6c0.6,1.9,0.4,4-0.5,5.7c-1.2,2.1-3.8,3.8-7.9,5.1c-1.7,0.5-3.4,1-5.1,1.3L284.7,22.4z M291.2,31.6l2.9-0.9  c3.4-1.1,4.9-3.5,4.1-5.9c-0.9-2.9-3.5-3.4-6.8-2.3c-1,0.3-1.9,0.7-2.8,1.1L291.2,31.6z M295,43.6c0.9-0.2,1.9-0.4,2.8-0.7  c3.3-1.1,6-3.3,4.9-6.9c-1.1-3.4-4.5-3.9-8-2.8L292,34L295,43.6z"></path>
<path class="st0" d="M305.9,15.8c2-0.9,4-1.6,6.2-2.2c3.5-0.9,5.9-0.9,7.9,0.2c1.7,0.9,2.8,2.5,3.3,4.3c0.8,3-0.5,6.1-3.1,7.7V26  c2.1,0.2,3.8,1.7,5.1,4.2c1.1,2.3,2.4,4.4,3.8,6.4l-3.4,0.9c-1.3-1.8-2.4-3.7-3.3-5.6c-1.7-3.3-3.4-4.3-6.4-3.6l-3.1,0.8l2.9,11  l-3.3,0.9L305.9,15.8z M312.2,26.5l3.4-0.9c3.5-0.9,5.2-3.4,4.5-6.3c-0.8-3.3-3.6-4.1-7.1-3.2c-1.1,0.2-2.2,0.6-3.2,1.1L312.2,26.5z  "></path>
<path class="st0" d="M335.1,26.9l-1,8.6l-3.4,0.7l3.6-27.5l4-0.8l14,24l-3.5,0.7l-4.4-7.6L335.1,26.9z M343,22.6l-4-6.9  c-0.9-1.6-1.6-3-2.3-4.4h-0.1c-0.1,1.6-0.2,3.3-0.4,4.9l-1,8L343,22.6z"></path>
<path class="st0" d="M355.6,31.3l-3.5-26.1l3.7-0.5l10.1,12c2.1,2.5,4.1,5.1,5.8,7.8l0.1-0.1c-0.8-3.4-1.3-6.6-1.8-10.6L368.4,3  l3.2-0.4l3.5,26l-3.4,0.5L361.7,17c-2.2-2.5-4.2-5.2-6.1-8l-0.1,0.1c0.6,3.3,1.2,6.4,1.7,10.7l1.5,11.1L355.6,31.3z"></path>
<path class="st0" d="M378.8,2.2c2.4-0.5,4.8-0.8,7.2-1c4.9-0.3,8.4,0.5,10.8,2.5s4.1,4.9,4.4,9.2s-0.8,7.9-3,10.5s-6.2,4.2-11.3,4.6  c-2.1,0.2-4.1,0.2-6.2,0.1L378.8,2.2z M383.8,25.2c1.1,0.1,2.3,0.1,3.4-0.1c7.2-0.5,10.9-4.8,10.4-11.9c-0.4-6.2-4.2-9.9-11.3-9.4  c-1.3,0.1-2.7,0.3-3.9,0.6L383.8,25.2z"></path>
<path class="st0" d="M409,0.2l0.7,26.3l-3.4,0.1l-0.7-26.3L409,0.2z"></path>
<path class="st0" d="M415.3,26.3L415.7,0l3.7,0.1l8.2,13.4c1.7,2.8,3.2,5.6,4.6,8.6h0.1c-0.3-3.5-0.3-6.7-0.2-10.8l0.2-11h3.2  L435,26.6l-3.4-0.1L423.4,13c-1.8-2.9-3.4-5.8-4.8-8.8h-0.1c0.1,3.3,0.2,6.5,0.1,10.8l-0.2,11.2L415.3,26.3z"></path>
<path class="st0" d="M460.6,27.3c-2.7,0.7-5.4,1-8.2,0.8c-4-0.3-7.2-1.6-9.5-4.2c-2.3-2.8-3.3-6.4-2.9-10  c0.7-7.8,6.5-13.1,15.3-12.4c2.2,0.1,4.4,0.7,6.4,1.7l-1,2.7c-1.8-0.9-3.7-1.5-5.7-1.6c-6.4-0.5-10.8,3.1-11.4,9.7  s3.2,10.9,9.3,11.4c1.5,0.2,3.1,0.1,4.6-0.3l0.6-7.8l-5.3-0.4L453,14l8.6,0.7L460.6,27.3z"></path>
<path class="st0" d="M473.3,19.9c0.3-2.2,2.4-3.8,4.6-3.5c2.2,0.3,3.8,2.4,3.5,4.6s-2.4,3.8-4.6,3.5c0,0,0,0,0,0  C474.6,24.2,473,22.1,473.3,19.9C473.3,19.9,473.3,19.9,473.3,19.9z"></path>
</svg>