<svg xmlns="http://www.w3.org/2000/svg" xmlns:xlink="http://www.w3.org/1999/xlink" version="1.1" viewBox="0 0 163 80"><defs><style> .cls-1 { fill: none; } .cls-2 { fill: #231f20; } .cls-3 { clip-path: url(#clippath); } </style><clipPath id="clippath"><rect class="cls-1" x=".7" y="0" width="162.2" height="80"></rect></clipPath></defs><g><g id="Layer_1"><g class="cls-3"><path class="cls-2" d="M.7.3h13.9c7.3,0,11.4,4.1,11.4,10.4s-1.1,5.6-3.3,7.3c2.5,1.9,4.1,4.7,4.1,7.9,0,6.4-4,10.6-11.5,10.6H.7V.3ZM14.7,7.2h-7.1v7.6h7.1c2.6,0,4.3-1.3,4.3-3.8s-1.7-3.8-4.3-3.8ZM15.6,29.6c2.8,0,4.3-1.4,4.3-4s-1.7-4-4.3-4H7.6v8h8,0ZM96.2,36.5v-6.9h7.5V7.2h-7.5V.3h22v6.9h-7.5v22.4h7.5v6.9s-22,0-22,0ZM152.4,36.5h-6.9l-13.4-23.3v23.3h-6.9V.3h6.9l13.4,23.3V.3h6.9v36.2ZM2.2,68.1h7.3c.4,3,2.8,5.1,6.4,5.1s5.3-1.1,5.3-3.6-1.2-3.2-3.8-3.8l-6.2-1.7c-5.6-1.5-8.4-5.4-8.4-10.7,0-7.2,5.8-10.5,12.3-10.5s12,4.2,12.8,10.4h-7.9c-.7-2.3-2.9-3.5-5.3-3.5s-4.8,1.1-4.8,3.7,1.7,3,3.7,3.6l6,1.6c5.7,1.5,8.8,4.9,8.8,11s-4.3,10.5-12.3,10.5c-8,0-13.3-4.8-13.6-11.9ZM40,21.6v14.9h-6.9V.3h15.2c7.3,0,11.4,4.1,11.4,10.6s-2.7,9.1-7.8,10.3l9,15.2h-7.9l-8.7-14.9h-4.2ZM48.5,7.2h-8.5v7.7h8.5c2.6,0,4.3-1.3,4.3-3.8s-1.7-3.9-4.3-3.9M74.2,14.8h11.5v6.9h-11.5v8h15.1v6.9h-22V.3h22v6.9h-15.1s0,7.6,0,7.6ZM50.3,50.2v29.3h-7.1v-29.3h-10.1v-6.9h27.3v6.9h-10.1ZM74.2,57.8h11.5v6.9h-11.5v8h15.1v6.9h-22v-36.2h22v6.9h-15.1s0,7.6,0,7.6ZM96.2,79.5v-6.9h7.5v-22.4h-7.5v-6.9h22v6.9h-7.5v22.4h7.5v6.9h-22ZM152.4,79.5h-6.9l-13.4-23.3v23.3h-6.9v-36.2h6.9l13.4,23.3v-23.3h6.9v36.2ZM158.3,4.1v1.9h-.9V1.5h1.9c.9,0,1.4.5,1.4,1.3,0,.6-.4,1.2-1,1.3l1.1,1.9h-1l-1.1-1.9h-.5,0ZM159.4,2.3h-1.1v.9h1.1c.3,0,.5-.2.5-.5s-.2-.5-.5-.5h0ZM.7,2102.7"></path></g></g></g></svg>