<svg xmlns="http://www.w3.org/2000/svg" width="17" height="16" viewBox="0 0 17 16" fill="none">
    <path fill-rule="evenodd" clip-rule="evenodd" d="M7.67483 1.49267C6.26085 5.09619 4.93838 6.4443 1.4301 7.8584C0.771336 8.12376 0.401082 8.3376 0.52308 8.38215C0.636423 8.42341 1.19284 8.62045 1.75955 8.81995C3.97957 9.60126 5.59179 10.6688 6.65089 12.0586C7.20304 12.7831 7.9621 14.2166 8.61688 15.7713C8.78628 16.1735 8.79232 16.1648 9.32895 14.7503C10.6202 11.3467 12.2373 9.6756 15.5834 8.2865C16.1416 8.05475 16.5517 7.82574 16.4947 7.77751C16.4377 7.72927 15.8038 7.46091 15.086 7.1812C12.0948 6.01524 10.5041 4.56547 9.11504 1.7389L8.2605 0L7.67483 1.49267ZM10.8227 7.57405L11.3695 7.95104L10.369 8.88034C9.81859 9.39152 9.19445 10.0594 8.98178 10.3645L8.59531 10.9193L8.31422 10.5463C7.78762 9.84736 7.18725 9.25542 6.44976 8.70776L5.71337 8.16092L6.59635 7.3684C7.08201 6.93238 7.68774 6.275 7.94259 5.90743L8.40586 5.23925L9.34076 6.21815C9.855 6.75666 10.5219 7.36676 10.8227 7.57405Z" fill="#80A1C9"/>
</svg>