<svg xmlns="http://www.w3.org/2000/svg" width="34" height="36" viewBox="0 0 34 36" fill="none">
    <path fill-rule="evenodd" clip-rule="evenodd" d="M7.32924 0.725343C7.11821 0.936451 7.11587 0.947766 7.11587 1.77745V2.61619L5.23619 2.64568C3.5509 2.67218 3.30745 2.6916 2.88202 2.83336C1.70903 3.22426 0.749844 4.24856 0.438875 5.44236C0.340986 5.81815 0.327116 7.1878 0.327116 16.4619C0.327116 28.1398 0.300034 27.4381 0.785612 28.3536C1.08592 28.9197 1.70268 29.5363 2.26928 29.8368C3.1516 30.3048 2.92524 30.2926 10.7292 30.2942L17.81 30.2956L18.168 30.9992C20.6471 35.8713 27.0544 37.0169 31.0639 33.3047C32.2407 32.2152 33.0762 30.7612 33.4643 29.1274C34.184 26.098 33.0046 22.7846 30.5245 20.8679C29.7226 20.2482 28.4906 19.6283 27.6099 19.4015L26.9712 19.237V12.5157C26.9712 5.10307 26.9934 5.48587 26.508 4.56413C26.2075 3.99358 25.5477 3.3488 24.9785 3.06929C24.2392 2.70627 23.7061 2.6316 21.8431 2.63014L20.1824 2.6289V1.79505C20.1824 1.00441 20.1726 0.949518 19.9934 0.736584C19.8357 0.549054 19.7519 0.511972 19.4865 0.511972C19.2558 0.511972 19.1124 0.560296 18.9638 0.687968C18.7634 0.860169 18.7584 0.883236 18.7346 1.74643L18.7103 2.6289H13.643H8.57582V1.7838C8.57582 0.947109 8.5737 0.936597 8.36245 0.725343C8.06199 0.424886 7.6297 0.424886 7.32924 0.725343ZM7.11587 5.00693C7.11587 5.84363 7.11799 5.85414 7.32924 6.06539C7.6297 6.36585 8.06199 6.36585 8.36245 6.06539C8.5737 5.85414 8.57582 5.84363 8.57582 5.00693V4.16184H13.6491H18.7225V4.93196C18.7225 5.99437 18.883 6.27876 19.4829 6.27876C19.6659 6.27876 19.8119 6.21635 19.9798 6.06642L20.2174 5.85407L20.2444 5.00343L20.2715 4.15286L22.1066 4.17556C23.8484 4.19717 23.9575 4.20673 24.25 4.36302C24.7333 4.62136 25.0502 4.93992 25.271 5.38951C25.4643 5.78297 25.476 5.86516 25.4992 6.99049L25.5238 8.1767H13.6478H1.77173L1.79925 7.02699C1.82444 5.974 1.84276 5.84297 2.01649 5.4693C2.25461 4.95722 2.73026 4.49471 3.20759 4.31105C3.53411 4.18542 3.77478 4.16899 5.34569 4.16564L7.11587 4.16184V5.00693ZM25.5112 14.3815V19.1263L25.1645 19.1266C24.2909 19.1273 22.7362 19.5238 21.844 19.9735C20.7149 20.5426 19.4868 21.6005 18.7973 22.5978C18.1101 23.592 17.621 24.7591 17.4059 25.9183C17.3012 26.4831 17.2764 27.7456 17.3576 28.3808L17.4162 28.8392L10.4943 28.8188L3.57229 28.7985L3.08569 28.5589C2.5366 28.2885 2.28658 28.0296 2.01263 27.448L1.82356 27.0465L1.80385 18.4346C1.79298 13.698 1.8002 9.78074 1.81984 9.72964C1.84853 9.65482 4.1716 9.63664 13.6834 9.63664H25.5112V14.3815ZM6.89688 16.1113C6.67935 16.1921 6.46021 16.4535 6.41707 16.6837C6.36641 16.9538 6.52861 17.3285 6.74687 17.4452C6.94126 17.5493 18.8971 17.5493 19.0915 17.4452C19.483 17.2357 19.5365 16.5984 19.1899 16.2728L19.0027 16.0969L13.0046 16.0838C9.70553 16.0765 6.9571 16.089 6.89688 16.1113ZM26.3161 20.6626C27.7173 20.8355 29.1175 21.514 30.1508 22.5207C31.4886 23.824 32.1698 25.4402 32.1656 27.3007C32.1634 28.2593 32.0399 28.9325 31.7089 29.7908C31.2816 30.899 30.2841 32.1525 29.2799 32.8434C28.7707 33.1938 27.8069 33.6323 27.1537 33.811C26.3122 34.0412 24.6358 34.041 23.7958 33.8106C21.2026 33.0995 19.287 30.9843 18.8646 28.3658C18.7412 27.6008 18.8127 26.25 19.0136 25.5501C19.7529 22.9751 21.8568 21.095 24.4503 20.6919C25.2054 20.5745 25.5574 20.5689 26.3161 20.6626ZM6.91236 20.9593C6.39707 21.1107 6.24618 21.7936 6.64073 22.1883L6.82709 22.3747L10.4571 22.3956C12.4536 22.4071 14.1638 22.3975 14.2576 22.3744C14.7785 22.2457 14.9478 21.5787 14.5677 21.1531L14.3547 20.9147L10.7535 20.9017C8.60874 20.894 7.05528 20.9173 6.91236 20.9593ZM28.6629 24.9113C28.3958 25.1623 27.4542 26.0559 26.5705 26.8971C25.6868 27.7384 24.8567 28.5252 24.7259 28.6457L24.488 28.8648L23.2146 27.5988L21.9411 26.3329L21.6276 26.3749C21.2126 26.4306 20.9854 26.6877 20.9854 27.1016C20.9854 27.3979 21.0168 27.4355 22.5705 28.995C24.2491 30.68 24.4022 30.7884 24.8029 30.5752C24.9042 30.5214 25.9657 29.5412 27.162 28.397C30.4918 25.2119 30.183 25.54 30.183 25.1871C30.183 24.7578 29.8809 24.4551 29.4523 24.4551C29.18 24.4551 29.098 24.5025 28.6629 24.9113Z" fill="#fff"/>
</svg>