<svg height="32" viewBox="0 0 32 32" fill="none" xmlns="http://www.w3.org/2000/svg"><path d="M11.359 8.8c-5.29-.017-9.632 3.222-9.73 7.889a8.525 8.525 0 0 0 3.892 7.3l-.222 3.688 3.61-2.502c.737.174 1.509.273 2.305.29 3.959.084 7.621-1.646 9.328-4.444" stroke="#fff"></path><path d="M20.67 20.869c-6.124.128-10.192-3.452-10.292-8.184-.1-4.732 3.015-8.47 9.917-8.473 5.457-.114 9.976 3.148 10.075 7.88.061 2.902-1.428 5.696-3.94 7.3l.224 3.687-3.652-2.5c-.746.173-1.527.273-2.333.29z" stroke="#fff"></path></svg>