<svg width="24" height="24" viewBox="0 0 24 24" xmlns="http://www.w3.org/2000/svg"><path d="M18.574 13.712a.894.894 0 0 1-.898-.898c0-.5.4-.899.898-.899.5 0 .898.4.898.899s-.399.898-.898.898Zm-4.426 0a.895.895 0 0 1-.898-.898c0-.5.4-.899.899-.899s.898.4.898.899-.4.898-.899.898Zm6.568 5.04C22.116 17.744 23 16.245 23 14.6c0-3.048-2.947-5.505-6.607-5.505S9.786 11.552 9.786 14.6c0 3.047 2.948 5.505 6.607 5.505a7.79 7.79 0 0 0 2.162-.295c.049-.025.122-.025.196-.025a.8.8 0 0 1 .344.099l1.45.835c.048.025.073.05.122.05a.22.22 0 0 0 .22-.22v-.002c0-.05-.024-.098-.024-.172 0-.025-.196-.688-.295-1.106-.024-.049-.024-.098-.024-.148a.347.347 0 0 1 .172-.368"></path><path d="M11.52 8.516a1.019 1.019 0 0 1-1.027-1.026c0-.573.453-1.027 1.026-1.027s1.027.454 1.027 1.027-.454 1.026-1.027 1.026Zm-5.26 0A1.019 1.019 0 0 1 5.233 7.49c0-.573.454-1.027 1.027-1.027s1.026.454 1.026 1.027-.453 1.026-1.026 1.026ZM8.95 3C4.57 3 1 5.944 1 9.599c0 1.987 1.058 3.778 2.757 4.98a.556.556 0 0 1 .222.441c0 .05-.025.123-.025.172-.123.49-.345 1.3-.37 1.325-.024.073-.048.122-.048.196 0 .147.122.27.27.27.05 0 .099-.025.148-.05l1.748-1.005a.83.83 0 0 1 .418-.123c.074 0 .148 0 .222.025a9.99 9.99 0 0 0 2.584.368h.443a5.079 5.079 0 0 1-.27-1.62c0-3.311 3.25-6.01 7.237-6.01h.443C16.213 5.404 12.914 3 8.95 3Z"></path></svg>