<svg xmlns="http://www.w3.org/2000/svg" width="40" height="36" viewBox="0 0 40 36" fill="none">
    <path fill-rule="evenodd" clip-rule="evenodd" d="M16.7519 0.574474C13.1723 0.92217 9.72043 2.4037 6.97798 4.76943C5.6669 5.90035 4.82098 6.86075 3.84021 8.33191C0.610505 13.1763 0.00817645 19.2137 2.21345 24.6383C4.3909 29.9943 9.19639 33.9767 14.9156 35.1648C16.4536 35.4843 18.6983 35.5902 20.2835 35.418C27.817 34.5999 34.0552 28.9216 35.5528 21.5192C35.8346 20.1263 35.9201 19.089 35.8818 17.529C35.8445 16.0157 35.7965 15.8125 35.4032 15.5031C34.8828 15.0937 34.2247 15.1517 33.7777 15.6464C33.468 15.9893 33.4848 15.8656 33.5037 17.6605C33.5198 19.1997 33.4002 20.3359 33.0873 21.6131C31.7569 27.0438 27.4612 31.3408 22.0151 32.6884C16.1916 34.1294 9.97335 31.912 6.34617 27.101C1.85561 21.1449 2.38421 12.7481 7.58172 7.47271C12.5386 2.44146 20.0396 1.44905 26.1326 5.01847C26.4473 5.20272 26.8148 5.38512 26.9494 5.42377C27.7286 5.64721 28.5756 4.78473 28.3565 3.99105C28.2439 3.5835 28.0403 3.37462 27.3474 2.9561C24.3001 1.11546 20.3419 0.225734 16.7519 0.574474ZM37.5049 2.1722C37.2723 2.25698 35.4368 4.05292 28.7921 10.6975L20.3741 19.1153L17.1089 15.854C15.3131 14.0603 13.7493 12.5575 13.6337 12.5145C13.3178 12.3972 13.0122 12.4198 12.689 12.5848C12.1782 12.8454 11.9441 13.3807 12.0929 13.9477C12.1665 14.228 12.6067 14.6967 15.8832 17.983C17.9221 20.0279 19.7149 21.7658 19.8671 21.845C20.1764 22.0058 20.484 22.0275 20.7981 21.911C21.0806 21.806 38.8643 4.03993 39.0011 3.72597C39.4042 2.80035 38.4631 1.82294 37.5049 2.1722Z" fill="#fff"/>
</svg>