<?xml version="1.0" encoding="UTF-8"?>
<svg width="192px" height="180px" viewBox="0 0 192 180" version="1.1" xmlns="http://www.w3.org/2000/svg" xmlns:xlink="http://www.w3.org/1999/xlink">
    <title>Condo</title>
    <defs>
        <polygon id="path-1" points="27 108 170 108 170 0 27 0"></polygon>
    </defs>
    <g id="Page-1" stroke="none" stroke-width="1" fill="none" fill-rule="evenodd">
        <g id="Homepage---woningkeuren.nl" transform="translate(-311.000000, -429.000000)">
            <g id="Group-3-Copy" transform="translate(240.000000, 379.000000)">
                <g id="Appartement">
                    <g id="Condo" transform="translate(71.000000, 50.000000)">
                        <path d="M137.259109,47.6549792 C147.962125,54.1529056 155.495401,66.1334575 163.440332,80.3476716 C171.385262,94.5212737 179.741848,110.928538 177.683575,126.117441 C175.666469,141.346956 163.234504,155.317498 148.373779,159.216254 C133.471888,163.11501 116.141236,156.901368 98.8929154,156.779531 C81.6445943,156.698307 64.4374387,162.668277 53.7344233,157.469936 C43.0314078,152.230983 38.8325325,135.742495 31.093429,118.847886 C23.395491,101.953277 12.1573248,84.6525479 14.2567624,69.5448689 C16.3973655,54.4778019 31.834407,41.6037851 48.1359229,36.8521764 C64.4374387,32.1411798 81.6445943,35.5932032 97.1639668,37.8268654 C112.683339,40.0605276 126.556094,41.1164407 137.259109,47.6549792 Z" id="Blob" fill="#0D3A97" fill-rule="nonzero" opacity="0.049999997" transform="translate(96.000000, 97.500000) rotate(-15.000000) translate(-96.000000, -97.500000) "></path>
                        <path d="M169,108 L28,108 C27.448,108 27,107.552 27,107 C27,106.448 27.448,106 28,106 L169,106 C169.552,106 170,106.448 170,107 C170,107.552 169.552,108 169,108" id="Fill-1" fill="#222222"></path>
                        <path d="M91.0327,93.2627 C91.3217,92.5647 92.1217,92.2337 92.8197,92.5227 C93.5177,92.8117 93.8487,93.6117 93.5597,94.3097 C93.2707,95.0077 92.4707,95.3387 91.7727,95.0497 C91.0747,94.7607 90.7437,93.9607 91.0327,93.2627" id="Fill-3" fill="#222222"></path>
                        <mask id="mask-2" fill="white">
                            <use xlink:href="#path-1"></use>
                        </mask>
                        <g id="Clip-6"></g>
                        <path d="M69,6 L128,6 L128,2 L69,2 L69,6 Z M125.038,106.038 L109.958,106.038 L109.958,81 C109.958,80.471 109.529,80.042 109,80.042 L88,80.042 C87.471,80.042 87.042,80.471 87.042,81 L87.042,106.038 L71.962,106.038 L71.962,8 L125.038,8 L125.038,106.038 Z M88.959,106.038 L108.042,106.038 L108.042,81.959 L88.959,81.959 L88.959,106.038 Z M129,0 L68,0 C67.448,0 67,0.448 67,1 L67,7 C67,7.552 67.448,8 68,8 L70.038,8 L70.038,107 C70.038,107.531 70.469,107.962 71,107.962 L126,107.962 C126.531,107.962 126.962,107.531 126.962,107 L126.962,8 L129,8 C129.552,8 130,7.552 130,7 L130,1 C130,0.448 129.552,0 129,0 L129,0 Z" id="Fill-5" fill="#222222" mask="url(#mask-2)"></path>
                        <path d="M78,18.4985 C78,16.5695 79.569,14.9995 81.499,14.9995 C83.429,14.9995 85,16.5705 85,18.5015 L85,25.9995 L78,25.9995 L78,18.4985 Z M77,27.9995 L86,27.9995 C86.552,27.9995 87,27.5525 87,26.9995 L87,18.5015 C87,15.4675 84.532,12.9995 81.499,12.9995 C78.467,12.9995 76,15.4665 76,18.4985 L76,26.9995 C76,27.5525 76.448,27.9995 77,27.9995 L77,27.9995 Z" id="Fill-7" fill="#222222" mask="url(#mask-2)"></path>
                        <path d="M95,18.4985 C95,16.5695 96.569,14.9995 98.499,14.9995 C100.429,14.9995 102,16.5705 102,18.5015 L102,25.9995 L95,25.9995 L95,18.4985 Z M94,27.9995 L103,27.9995 C103.552,27.9995 104,27.5525 104,26.9995 L104,18.5015 C104,15.4675 101.532,12.9995 98.499,12.9995 C95.467,12.9995 93,15.4665 93,18.4985 L93,26.9995 C93,27.5525 93.448,27.9995 94,27.9995 L94,27.9995 Z" id="Fill-8" fill="#222222" mask="url(#mask-2)"></path>
                        <path d="M112,18.4985 C112,16.5695 113.569,14.9995 115.499,14.9995 C117.429,14.9995 119,16.5705 119,18.5015 L119,25.9995 L112,25.9995 L112,18.4985 Z M111,27.9995 L120,27.9995 C120.552,27.9995 121,27.5525 121,26.9995 L121,18.5015 C121,15.4675 118.532,12.9995 115.499,12.9995 C112.467,12.9995 110,15.4665 110,18.4985 L110,26.9995 C110,27.5525 110.448,27.9995 111,27.9995 L111,27.9995 Z" id="Fill-9" fill="#222222" mask="url(#mask-2)"></path>
                        <path d="M78,38.4985 C78,36.5695 79.569,34.9995 81.499,34.9995 C83.429,34.9995 85,36.5705 85,38.5015 L85,45.9995 L78,45.9995 L78,38.4985 Z M77,47.9995 L86,47.9995 C86.552,47.9995 87,47.5525 87,46.9995 L87,38.5015 C87,35.4675 84.532,32.9995 81.499,32.9995 C78.467,32.9995 76,35.4665 76,38.4985 L76,46.9995 C76,47.5525 76.448,47.9995 77,47.9995 L77,47.9995 Z" id="Fill-10" fill="#222222" mask="url(#mask-2)"></path>
                        <path d="M95,38.4985 C95,36.5695 96.569,34.9995 98.499,34.9995 C100.429,34.9995 102,36.5705 102,38.5015 L102,45.9995 L95,45.9995 L95,38.4985 Z M94,47.9995 L103,47.9995 C103.552,47.9995 104,47.5525 104,46.9995 L104,38.5015 C104,35.4675 101.532,32.9995 98.499,32.9995 C95.467,32.9995 93,35.4665 93,38.4985 L93,46.9995 C93,47.5525 93.448,47.9995 94,47.9995 L94,47.9995 Z" id="Fill-11" fill="#222222" mask="url(#mask-2)"></path>
                        <path d="M112,38.4985 C112,36.5695 113.569,34.9995 115.499,34.9995 C117.429,34.9995 119,36.5705 119,38.5015 L119,45.9995 L112,45.9995 L112,38.4985 Z M111,47.9995 L120,47.9995 C120.552,47.9995 121,47.5525 121,46.9995 L121,38.5015 C121,35.4675 118.532,32.9995 115.499,32.9995 C112.467,32.9995 110,35.4665 110,38.4985 L110,46.9995 C110,47.5525 110.448,47.9995 111,47.9995 L111,47.9995 Z" id="Fill-12" fill="#222222" mask="url(#mask-2)"></path>
                        <path d="M78,58.4985 C78,56.5695 79.569,54.9995 81.499,54.9995 C83.429,54.9995 85,56.5705 85,58.5015 L85,65.9995 L78,65.9995 L78,58.4985 Z M77,67.9995 L86,67.9995 C86.552,67.9995 87,67.5525 87,66.9995 L87,58.5015 C87,55.4675 84.532,52.9995 81.499,52.9995 C78.467,52.9995 76,55.4665 76,58.4985 L76,66.9995 C76,67.5525 76.448,67.9995 77,67.9995 L77,67.9995 Z" id="Fill-13" fill="#222222" mask="url(#mask-2)"></path>
                        <path d="M95,58.4985 C95,56.5695 96.569,54.9995 98.499,54.9995 C100.429,54.9995 102,56.5705 102,58.5015 L102,65.9995 L95,65.9995 L95,58.4985 Z M94,67.9995 L103,67.9995 C103.552,67.9995 104,67.5525 104,66.9995 L104,58.5015 C104,55.4675 101.532,52.9995 98.499,52.9995 C95.467,52.9995 93,55.4665 93,58.4985 L93,66.9995 C93,67.5525 93.448,67.9995 94,67.9995 L94,67.9995 Z" id="Fill-14" fill="#222222" mask="url(#mask-2)"></path>
                        <path d="M112,58.4985 C112,56.5695 113.569,54.9995 115.499,54.9995 C117.429,54.9995 119,56.5705 119,58.5015 L119,65.9995 L112,65.9995 L112,58.4985 Z M111,67.9995 L120,67.9995 C120.552,67.9995 121,67.5525 121,66.9995 L121,58.5015 C121,55.4675 118.532,52.9995 115.499,52.9995 C112.467,52.9995 110,55.4665 110,58.4985 L110,66.9995 C110,67.5525 110.448,67.9995 111,67.9995 L111,67.9995 Z" id="Fill-15" fill="#222222" mask="url(#mask-2)"></path>
                        <path d="M51,97.5 C47.14,97.5 44,94.36 44,90.5 C44,88.721 44.672,87.101 45.769,85.864 C46.216,85.36 46.733,84.923 47.308,84.564 C46.81,84.112 46.396,83.572 46.091,82.967 C45.716,82.224 45.5,81.387 45.5,80.5 C45.5,79.792 45.639,79.117 45.884,78.495 C46.156,77.803 46.562,77.178 47.074,76.655 C46.722,76.016 46.504,75.293 46.501,74.513 C46.501,74.509 46.5,74.504 46.5,74.5 C46.5,72.019 48.519,70 51,70 C53.481,70 55.5,72.019 55.5,74.5 C55.5,74.504 55.499,74.509 55.499,74.513 C55.496,75.293 55.278,76.016 54.926,76.655 C55.438,77.178 55.844,77.803 56.116,78.495 C56.361,79.117 56.5,79.792 56.5,80.5 C56.5,81.387 56.284,82.224 55.909,82.967 C55.604,83.572 55.19,84.112 54.692,84.564 C55.267,84.923 55.784,85.36 56.231,85.864 C57.328,87.101 58,88.721 58,90.5 C58,94.36 54.86,97.5 51,97.5 M60,90.5 C60,88.08 59.035,85.885 57.476,84.266 C58.123,83.157 58.5,81.873 58.5,80.5 C58.5,78.959 58.032,77.526 57.232,76.334 C57.404,75.751 57.5,75.137 57.5,74.5 C57.5,70.916 54.584,68 51,68 C47.416,68 44.5,70.916 44.5,74.5 C44.5,75.137 44.596,75.751 44.768,76.334 C43.968,77.526 43.5,78.959 43.5,80.5 C43.5,81.873 43.877,83.157 44.524,84.266 C42.965,85.885 42,88.08 42,90.5 C42,95.124 45.507,98.941 50,99.441 L50,107 L52,107 L52,99.441 C56.493,98.941 60,95.124 60,90.5" id="Fill-16" fill="#222222" mask="url(#mask-2)"></path>
                        <path d="M146,97.5 C142.14,97.5 139,94.36 139,90.5 C139,88.721 139.672,87.101 140.769,85.864 C141.216,85.36 141.733,84.923 142.308,84.564 C141.81,84.112 141.396,83.572 141.091,82.967 C140.716,82.224 140.5,81.387 140.5,80.5 C140.5,79.792 140.639,79.117 140.884,78.495 C141.156,77.803 141.562,77.178 142.074,76.655 C141.722,76.016 141.504,75.293 141.501,74.513 C141.501,74.509 141.5,74.504 141.5,74.5 C141.5,72.019 143.519,70 146,70 C148.481,70 150.5,72.019 150.5,74.5 C150.5,74.504 150.499,74.509 150.499,74.513 C150.496,75.293 150.278,76.016 149.926,76.655 C150.438,77.178 150.844,77.803 151.116,78.495 C151.361,79.117 151.5,79.792 151.5,80.5 C151.5,81.387 151.284,82.224 150.909,82.967 C150.604,83.572 150.19,84.112 149.692,84.564 C150.267,84.923 150.784,85.36 151.231,85.864 C152.328,87.101 153,88.721 153,90.5 C153,94.36 149.86,97.5 146,97.5 M155,90.5 C155,88.08 154.035,85.885 152.476,84.266 C153.123,83.157 153.5,81.873 153.5,80.5 C153.5,78.959 153.032,77.526 152.232,76.334 C152.404,75.751 152.5,75.137 152.5,74.5 C152.5,70.916 149.584,68 146,68 C142.416,68 139.5,70.916 139.5,74.5 C139.5,75.137 139.596,75.751 139.768,76.334 C138.968,77.526 138.5,78.959 138.5,80.5 C138.5,81.873 138.877,83.157 139.524,84.266 C137.965,85.885 137,88.08 137,90.5 C137,95.124 140.507,98.941 145,99.441 L145,107 L147,107 L147,99.441 C151.493,98.941 155,95.124 155,90.5" id="Fill-17" fill="#222222" mask="url(#mask-2)"></path>
                    </g>
                </g>
            </g>
        </g>
    </g>
</svg>