<svg xmlns="http://www.w3.org/2000/svg" width="36" height="36" viewBox="0 0 36 36" fill="none">
    <path fill-rule="evenodd" clip-rule="evenodd" d="M2.97831 0.566888C1.80462 0.797359 0.806915 1.81557 0.579452 3.0151C0.482915 3.52404 0.482915 32.4666 0.579452 32.9755C0.812316 34.2034 1.80394 35.195 3.03184 35.4279C3.53859 35.524 24.1445 35.524 24.6513 35.4279C25.8792 35.195 26.8708 34.2034 27.1037 32.9755C27.1469 32.7478 27.1735 30.8331 27.1735 27.9531V23.2987L31.0923 19.3651C34.7175 15.7261 35.0252 15.3992 35.1998 15.0006C35.5973 14.0933 35.5906 13.2268 35.1794 12.3479C34.6346 11.1837 33.2417 10.446 31.9924 10.66C31.0393 10.8233 30.8034 10.9931 28.902 12.8852L27.1735 14.6051V10.4298C27.1735 7.92152 27.146 6.10749 27.1047 5.88625C26.9456 5.03355 26.7484 4.77088 24.822 2.84439C22.8955 0.917962 22.6328 0.720786 21.7801 0.561624C21.3221 0.476163 3.41484 0.481154 2.97831 0.566888ZM18.9692 5.21815C18.9692 7.8619 18.9709 7.8954 19.1225 8.16505C19.421 8.69614 19.4273 8.69716 22.4533 8.69716H25.1224V12.6801V16.6629L22.7972 18.9871L20.472 21.3112L19.6864 23.6755C19.2543 24.9758 18.9013 26.1295 18.9019 26.2393C18.9047 26.7131 19.419 27.2251 19.8923 27.2251C20.2216 27.2251 24.7763 25.6804 24.9623 25.5057L25.1224 25.3553V28.9935C25.1224 32.5049 25.1176 32.6411 24.9848 32.9015C24.8962 33.0752 24.7509 33.2204 24.5772 33.309C24.3103 33.4452 24.1958 33.4466 13.8416 33.4466C3.70042 33.4466 3.3678 33.4426 3.12147 33.3169C2.97229 33.2409 2.80397 33.0746 2.71399 32.9145L2.56071 32.6418L2.56105 17.986L2.56139 3.33022L2.72309 3.0631C3.05884 2.50842 2.37817 2.55006 11.1581 2.54685L18.9692 2.54398V5.21815ZM21.5457 2.61563C21.8017 2.71086 24.9045 5.79867 25.0267 6.07987C25.0793 6.20088 25.1224 6.37775 25.1224 6.47299V6.6461H23.0713H21.0203V4.59504V2.54398H21.1867C21.2783 2.54398 21.4398 2.57618 21.5457 2.61563ZM5.16693 10.8771C4.8808 11.0296 4.61259 11.4586 4.61211 11.7645C4.61164 12.0951 4.87253 12.5166 5.17253 12.6696C5.4175 12.7946 5.69569 12.7993 12.816 12.7993C20.0868 12.7993 20.2096 12.7971 20.4751 12.6617C20.7785 12.5069 21.0203 12.113 21.0203 11.7738C21.0203 11.4345 20.7785 11.0406 20.4751 10.8859C20.2095 10.7503 20.0898 10.7483 12.8017 10.7511C5.80515 10.7538 5.3853 10.7607 5.16693 10.8771ZM32.9182 12.8002C33.2133 12.9507 33.4634 13.3469 33.4634 13.6637C33.4634 13.9884 33.21 14.3898 32.6607 14.9356L32.1275 15.4653L31.3937 14.7292L30.6599 13.9931L31.2241 13.4339C31.5344 13.1263 31.8806 12.8271 31.9935 12.769C32.2733 12.6249 32.596 12.6358 32.9182 12.8002ZM5.16693 14.9792C4.8808 15.1317 4.61259 15.5607 4.61211 15.8666C4.61164 16.1972 4.87253 16.6187 5.17253 16.7717C5.41572 16.8958 5.6585 16.9014 10.765 16.9014C15.9801 16.9014 16.1094 16.8983 16.373 16.7638C16.6763 16.609 16.9181 16.2151 16.9181 15.8759C16.9181 15.5366 16.6763 15.1428 16.373 14.988C16.1092 14.8534 15.9831 14.8504 10.7506 14.8532C5.7296 14.8559 5.38372 14.8637 5.16693 14.9792ZM28.1997 19.396L25.738 21.8576L25.0033 21.1229L24.2685 20.3881L26.7287 17.9273L29.1888 15.4664L29.9251 16.2004L30.6613 16.9343L28.1997 19.396ZM5.16693 19.0813C4.8808 19.2338 4.61259 19.6628 4.61211 19.9687C4.61164 20.2993 4.87253 20.7208 5.17253 20.8738C5.41572 20.9979 5.6585 21.0035 10.765 21.0035C15.9801 21.0035 16.1094 21.0004 16.373 20.8659C16.6763 20.7111 16.9181 20.3172 16.9181 19.978C16.9181 19.6388 16.6763 19.2449 16.373 19.0901C16.1092 18.9555 15.9831 18.9525 10.7506 18.9553C5.7296 18.958 5.38372 18.9658 5.16693 19.0813ZM23.5501 22.6103L24.2655 23.3283L23.9932 23.5938C23.7602 23.8209 23.5682 23.9098 22.6658 24.208C22.0855 24.3998 21.6014 24.5474 21.59 24.5359C21.5786 24.5245 21.7265 24.0404 21.9186 23.4602C22.2043 22.5968 22.3123 22.3585 22.5126 22.1487C22.6471 22.0077 22.7746 21.8923 22.7959 21.8923C22.8171 21.8923 23.1565 22.2154 23.5501 22.6103ZM5.16693 23.1835C4.8808 23.3359 4.61259 23.7649 4.61211 24.0708C4.61164 24.4015 4.87253 24.823 5.17253 24.976C5.41572 25.1001 5.6585 25.1057 10.765 25.1057C15.9801 25.1057 16.1094 25.1025 16.373 24.968C16.6763 24.8132 16.9181 24.4194 16.9181 24.0801C16.9181 23.7409 16.6763 23.347 16.373 23.1922C16.1092 23.0577 15.9831 23.0547 10.7506 23.0575C5.7296 23.0601 5.38372 23.0679 5.16693 23.1835ZM13.3712 29.4734C13.0851 29.6259 12.8168 30.0549 12.8164 30.3608C12.8159 30.6914 13.0768 31.1129 13.3768 31.2659C13.6159 31.3879 13.8256 31.3956 16.9181 31.3956C20.0777 31.3956 20.2158 31.3902 20.4751 31.258C20.7785 31.1032 21.0203 30.7093 21.0203 30.3701C21.0203 30.0308 20.7785 29.6369 20.4751 29.4821C20.2155 29.3497 20.0807 29.3447 16.9038 29.3474C13.8583 29.3501 13.5843 29.3598 13.3712 29.4734Z" fill="#fff"/>
</svg>