<svg xmlns="http://www.w3.org/2000/svg" width="64" height="64" viewBox="0 0 64 64" fill="000">
    <path fill-rule="evenodd" clip-rule="evenodd" d="M10.7595 0.179776C8.04958 0.836573 5.96236 3.44863 5.96236 6.18283V6.72574L4.55503 6.77574C3.46195 6.8145 3.01598 6.88538 2.55763 7.09289C1.73488 7.46542 0.775141 8.40436 0.365827 9.23729C0.0708514 9.83771 0.0203127 10.0957 0.0203127 11.003C0.0203127 12.2791 0.372082 13.1672 1.20872 14.0033C2.08089 14.8748 2.89939 15.1753 4.55503 15.2321L5.96236 15.2803V21.5038V27.7272L4.55503 27.7725C3.32572 27.8121 3.05876 27.8614 2.44404 28.1625C1.61378 28.5694 0.674313 29.5262 0.294147 30.3523C-0.119795 31.2517 -0.0933994 32.8246 0.351566 33.7732C0.77439 34.6743 1.54348 35.4417 2.44117 35.8578C3.03975 36.1353 3.36262 36.1927 4.55503 36.2336L5.96236 36.2818V42.5053V48.7287L4.55503 48.774C3.32572 48.8136 3.05876 48.8629 2.44404 49.164C1.61378 49.5709 0.674313 50.5277 0.294147 51.3538C-0.119795 52.2532 -0.0933994 53.8261 0.351566 54.7746C0.77439 55.6758 1.54348 56.4431 2.44117 56.8593C3.03975 57.1368 3.36262 57.1942 4.55503 57.2351L5.96236 57.2833L5.96962 57.9261C6.00064 60.6913 8.17681 63.2926 10.941 63.8687C11.4122 63.9668 18.3998 64.0047 35.0845 63.9995C56.8635 63.9929 58.6248 63.9768 59.3884 63.7777C61.5585 63.2115 63.4043 61.2562 63.8686 59.0316C63.9671 58.5594 64.0047 50.7681 63.9995 31.9047C63.9929 7.30478 63.9773 5.38214 63.7775 4.61747C63.2109 2.44881 61.2543 0.604306 59.0281 0.140398C58.0158 -0.0704916 11.6361 -0.032739 10.7595 0.179776ZM52.6459 2.91372C53.4511 3.30887 54.0387 3.91454 54.4237 4.74623C54.6835 5.30714 54.688 5.46553 54.7497 16.0659C54.7841 21.9788 54.8613 26.9172 54.9212 27.0401C55.0508 27.3058 55.6368 27.6292 55.9885 27.6292C56.1264 27.6292 56.3867 27.562 56.5671 27.4798C57.275 27.1576 57.2516 27.5446 57.2516 16.128C57.2516 4.44733 57.2588 4.55996 56.432 3.18786L56.0023 2.47481L57.3462 2.52569C59.36 2.60182 60.3898 3.17324 61.0933 4.60484L61.4423 5.31514V32.0045V58.6939L61.1789 59.2628C60.7936 60.0951 60.2059 60.7006 59.401 61.0942C58.7858 61.3951 58.5077 61.4482 57.3343 61.4885L55.9783 61.535L56.3035 61.0438C56.4825 60.7737 56.7549 60.2188 56.909 59.8108L57.1891 59.069L57.2237 48.2584C57.2476 40.7937 57.217 37.348 57.1247 37.1253C56.9743 36.7626 56.4062 36.3798 56.0186 36.3798C55.8776 36.3798 55.6299 36.4401 55.4681 36.5137C54.7869 36.824 54.8173 36.3405 54.7497 47.9432C54.688 58.5435 54.6835 58.7019 54.4237 59.2628C54.0387 60.0945 53.4511 60.7002 52.6459 61.0953L51.9351 61.4441H31.607H11.2789L10.5681 61.0953C9.35721 60.5011 8.62465 59.4074 8.4973 58.0033L8.43213 57.2843L9.85547 57.2356C11.0649 57.1942 11.3853 57.1376 11.9855 56.8593C12.8832 56.4431 13.6522 55.6758 14.0751 54.7746C14.353 54.1824 14.406 53.8975 14.4038 53.006C14.4006 51.6446 14.0863 50.8967 13.1426 50.0048C12.1381 49.0554 11.5598 48.8386 9.8716 48.7787L8.46428 48.7287V42.5053V36.2818L9.8716 36.2336C11.064 36.1927 11.3869 36.1353 11.9855 35.8578C12.8832 35.4417 13.6522 34.6743 14.0751 33.7732C14.353 33.1809 14.406 32.896 14.4038 32.0045C14.4006 30.6431 14.0863 29.8953 13.1426 29.0033C12.1381 28.0539 11.5598 27.8371 9.8716 27.7772L8.46428 27.7272V21.5038V15.2803L9.8716 15.2321C11.064 15.1912 11.3869 15.1338 11.9855 14.8563C12.8832 14.4402 13.6522 13.6729 14.0751 12.7717C14.353 12.1794 14.406 11.8945 14.4038 11.003C14.4006 9.64157 14.0863 8.89377 13.1426 8.00183C12.1381 7.05239 11.5598 6.83562 9.8716 6.77574L8.46428 6.72574V6.26196C8.46428 5.16276 9.12316 3.85191 9.98294 3.23999C10.2112 3.07761 10.6807 2.84659 11.0261 2.72683C11.6144 2.52282 12.9278 2.51082 31.7946 2.53694L51.9351 2.56495L52.6459 2.91372ZM11.0611 9.50231C11.5879 9.82321 11.9661 10.4504 11.9661 11.003C11.9661 11.5557 11.5879 12.1829 11.0611 12.5038C10.6805 12.7358 10.4259 12.7523 7.21332 12.7523C4.00073 12.7523 3.74616 12.7358 3.3655 12.5038C2.83872 12.1829 2.46056 11.5557 2.46056 11.003C2.46056 10.4504 2.83872 9.82321 3.3655 9.50231C3.74616 9.2703 4.00073 9.25379 7.21332 9.25379C10.4259 9.25379 10.6805 9.2703 11.0611 9.50231ZM29.9939 18.2014C27.9268 18.7568 26.117 20.5686 25.5815 22.6187C25.4296 23.2002 25.3651 23.9547 25.3612 25.1916C25.3537 27.6779 25.6258 28.6971 26.6586 30.0491C26.9034 30.3695 27.1035 30.6549 27.1035 30.6833C27.1035 30.7118 26.8925 30.8036 26.6344 30.8872C25.7005 31.1901 23.7412 32.2546 22.7657 32.9892C19.302 35.5974 17.1694 39.5266 16.886 43.8222C16.8017 45.1015 16.9846 45.6719 17.5479 45.8859C17.7416 45.9595 23.1881 46.0044 31.7089 46.0028C44.6391 46.0001 45.5728 45.9856 45.822 45.784C46.3912 45.3232 46.4926 44.6014 46.2388 42.8178C45.4917 37.5666 41.9707 33.032 37.1519 31.1151C36.6135 30.901 36.1526 30.7071 36.1277 30.6844C36.1028 30.6617 36.2789 30.4009 36.5193 30.105C37.5479 28.8374 37.8604 27.6864 37.8528 25.1916C37.8464 23.1427 37.64 22.1653 36.9829 21.0744C36.466 20.2162 35.4021 19.1975 34.5309 18.7265C33.235 18.0259 31.4259 17.8165 29.9939 18.2014ZM33.3491 20.9482C34.1802 21.4003 34.7823 22.0961 35.1192 22.994C35.3487 23.6054 35.3758 23.9071 35.3391 25.4416C35.3004 27.0591 35.2709 27.2456 34.9483 27.902C34.5694 28.6729 34.0251 29.2193 33.1985 29.6584C32.7704 29.8858 32.4689 29.9389 31.607 29.9386C30.6948 29.9384 30.4524 29.8905 29.9009 29.6014C29.1005 29.1816 28.4328 28.4154 28.1053 27.5407C27.7862 26.6884 27.7487 24.1542 28.0405 23.172C28.382 22.0231 29.2509 21.1208 30.444 20.6765C31.2152 20.3892 32.551 20.5142 33.3491 20.9482ZM11.0611 30.5038C12.2413 31.2229 12.2413 32.7862 11.0611 33.5053C10.6805 33.7373 10.4259 33.7538 7.21332 33.7538C4.00073 33.7538 3.74616 33.7373 3.3655 33.5053C2.18534 32.7862 2.18534 31.2229 3.3655 30.5038C3.74616 30.2718 4.00073 30.2553 7.21332 30.2553C10.4259 30.2553 10.6805 30.2718 11.0611 30.5038ZM55.4277 30.8976C55.1091 31.052 54.7497 31.6358 54.7497 31.9988C54.7497 32.6432 55.3587 33.2546 56.0007 33.2546C56.6345 33.2546 57.2516 32.644 57.2516 32.0167C57.2516 31.1218 56.2424 30.5026 55.4277 30.8976ZM30.356 35.0653V37.5009L30.7186 37.9063C31.0185 38.2418 31.1717 38.3119 31.607 38.3119C32.0423 38.3119 32.1954 38.2418 32.4954 37.9063L32.858 37.5009V35.0653C32.858 32.2666 32.7167 32.4982 34.2296 32.8162C38.3634 33.6852 41.8687 36.8459 43.2221 40.9249C43.4352 41.567 43.647 42.4101 43.6926 42.7988L43.7757 43.5053H31.607H19.4383L19.5222 42.7865C19.6393 41.7834 20.3329 39.8262 20.9578 38.7353C22.1516 36.6515 24.066 34.8462 26.1653 33.8249C27.5483 33.152 29.0415 32.6946 30.012 32.6466L30.356 32.6296V35.0653ZM22.6501 50.9309C22.1822 51.3985 22.1126 51.8014 22.4031 52.3629C22.5012 52.5524 22.7289 52.7745 22.9093 52.8566C23.1531 52.9678 25.3844 53.006 31.607 53.006C37.8296 53.006 40.0608 52.9678 40.3047 52.8566C40.485 52.7745 40.7128 52.5524 40.8109 52.3629C41.1014 51.8014 41.0318 51.3985 40.5639 50.9309L40.1385 50.5058H31.607H23.0755L22.6501 50.9309ZM11.0611 51.5053C11.5879 51.8262 11.9661 52.4534 11.9661 53.006C11.9661 53.5587 11.5879 54.1859 11.0611 54.5068C10.6805 54.7388 10.4259 54.7553 7.21332 54.7553C4.00073 54.7553 3.74616 54.7388 3.3655 54.5068C2.83872 54.1859 2.46056 53.5587 2.46056 53.006C2.46056 52.4534 2.83872 51.8262 3.3655 51.5053C3.74616 51.2733 4.00073 51.2568 7.21332 51.2568C10.4259 51.2568 10.6805 51.2733 11.0611 51.5053Z" fill="#0758B1"/>
</svg>