<svg xmlns="http://www.w3.org/2000/svg" width="54" height="64" viewBox="0 0 54 64" fill="none">
    <path fill-rule="evenodd" clip-rule="evenodd" d="M22.91 0.157752C21.2985 0.434373 19.8522 0.926214 18.3041 1.72419C13.8309 4.02983 10.635 8.40162 9.68715 13.512C9.58223 14.0779 9.46607 15.3005 9.4291 16.2291C9.36761 17.7706 9.3377 17.9444 9.08384 18.2299C8.4938 18.8935 8.43422 19.266 8.43422 22.2942C8.43422 25.3234 8.47657 25.5884 9.09592 26.4372C9.38232 26.8297 9.3913 26.9046 9.3913 28.8967C9.3913 30.0267 9.44537 31.2545 9.51153 31.6251C9.80092 33.2458 10.9008 34.7701 12.2888 35.474C12.7597 35.7127 14.3131 36.1854 16.4497 36.7403C18.325 37.2273 20.0612 37.6813 20.3079 37.7495C20.7097 37.8603 20.7566 37.9156 20.7566 38.2782C20.7566 38.5009 20.6716 38.8101 20.5678 38.965C20.4136 39.1951 20.3067 39.2326 19.985 39.1696C19.4094 39.0567 8.36782 42.6466 6.69952 43.4891C4.18948 44.7567 2.39867 46.6556 1.13258 49.3925C0.602 50.5395 0.537158 51.1181 0.897258 51.4945C1.19778 51.8087 1.86773 51.8258 2.12351 51.5258C2.22628 51.4054 2.44413 50.9603 2.60791 50.5366C3.50218 48.2222 5.61253 45.9611 7.78855 44.9862C8.68294 44.5854 14.4132 42.7217 14.6192 42.7646C14.7215 42.7858 15.9162 44.1257 17.274 45.742C20.0433 49.0386 20.4173 49.3488 21.7572 49.4613C22.419 49.5168 22.7137 49.4462 24.751 48.7446L27.0107 47.9663L29.0045 48.6675C31.2041 49.441 31.9921 49.539 33.0349 49.169C34.0166 48.8206 34.4583 48.4007 36.8538 45.5388C38.1421 43.9999 39.2756 42.7407 39.3727 42.7407C39.6072 42.7407 45.1628 44.5466 45.9852 44.8901C47.0022 45.3149 48.3788 46.3195 49.2893 47.3012C50.3213 48.4139 51.1297 49.8087 51.6471 51.3695L52.0409 52.5575L52.0774 57.3408L52.1138 62.1242H49.6548H47.1957V57.6791V53.2339L46.9021 52.927C46.5433 52.5519 46.1346 52.5354 45.7165 52.8792L45.4012 53.1384V57.6313V62.1242H26.9775H8.55386V57.644V53.1639L8.27702 52.8919C7.90962 52.5312 7.41817 52.5454 7.05304 52.927L6.75934 53.2339V57.6791V62.1242H4.31198H1.86474L1.82957 58.5008C1.79535 54.9614 1.78841 54.8712 1.53204 54.6034C1.18797 54.244 0.606427 54.244 0.262478 54.6036C0.00358906 54.8742 0 54.9314 0 58.7199C0 62.5599 0.000119483 62.5621 0.28772 63.0456C0.464899 63.3437 0.763267 63.6186 1.06534 63.7619C1.53802 63.9862 2.45202 63.9946 26.9887 63.9972L52.422 64L52.94 63.7136C53.278 63.5269 53.5444 63.2552 53.7066 62.932C53.9387 62.4695 53.9576 62.1975 53.9923 58.8102C54.0351 54.6513 53.9045 52.7374 53.4712 51.1746C52.5603 47.8889 50.4092 45.163 47.4861 43.5897C45.9573 42.7668 34.614 39.0598 33.9959 39.181C33.6139 39.2559 33.5584 39.2288 33.3871 38.8824C33.2834 38.6728 33.1989 38.3436 33.1992 38.1512L33.2001 37.801L36.3995 36.9419C40.2585 35.9057 40.866 35.7028 41.522 35.231C42.5926 34.461 43.1977 33.6303 43.6023 32.3749C43.8105 31.729 43.8466 31.2944 43.8498 29.3951L43.8535 27.1714L44.3693 26.8446C44.7373 26.6114 44.9761 26.3267 45.203 25.8508C45.5192 25.1875 45.5209 25.1687 45.5209 22.3282C45.5209 20.0293 45.4846 19.3818 45.3351 19.0075C45.1201 18.4695 44.6417 17.9077 44.1871 17.6593C43.8728 17.4876 43.8698 17.4732 43.8282 15.8606C43.7901 14.3856 43.7619 14.2094 43.5237 13.9606C43.1866 13.6084 42.5982 13.6011 42.269 13.9452C42.0365 14.1882 42.0226 14.3316 42.0424 16.2796C42.0539 17.4211 42.037 18.355 42.0047 18.355C41.9725 18.355 41.5526 18.2088 41.0717 18.03C39.0486 17.2781 37.4119 15.7954 36.5497 13.9334C36.0881 12.9364 35.7758 12.6025 35.3051 12.6025C35.2198 12.6025 34.655 12.9725 34.0501 13.4248C30.7385 15.9013 26.664 18.0196 23.2091 19.0613C20.9552 19.7408 19.3059 19.9971 17.1675 19.9998C15.0988 20.0026 13.8332 19.8124 12.2492 19.2608L11.2456 18.9112L11.2589 16.9136C11.2792 13.8788 11.6989 12.0308 12.907 9.65692C14.3274 6.86569 16.4443 4.74927 19.2062 3.35916C20.646 2.63446 22.1288 2.16101 23.5358 1.97655C24.9988 1.78484 28.7504 1.81748 30.1243 2.03395C33.0546 2.49565 35.8596 3.98806 37.9884 6.21791C39.0787 7.35991 39.7968 8.39687 40.5915 9.97631C41.0974 10.982 41.2471 11.1817 41.5664 11.278C42.07 11.4297 42.5737 11.0595 42.6272 10.4982C42.7158 9.568 41.0264 6.77465 39.2433 4.90296C37.0112 2.55993 34.5102 1.12017 31.2844 0.321198C29.9381 -0.0123228 24.5165 -0.118119 22.91 0.157752ZM35.4716 15.8155C36.0585 16.8089 37.428 18.2023 38.3901 18.7849L39.2032 19.2774L39.1501 22.474C39.1033 25.2894 39.0653 25.79 38.8307 26.6711C38.331 28.5477 36.905 31.301 36.3688 31.4248C36.2372 31.4552 35.7867 31.5413 35.3676 31.6162L34.6057 31.7522L34.2154 31.3069C33.7554 30.7819 32.9445 30.3669 32.3714 30.363C31.4653 30.3569 28.4767 31.0017 27.9619 31.3143C27.1935 31.7807 26.8138 32.4655 26.7587 33.4836C26.7055 34.4696 26.9469 35.0888 27.6285 35.7143C27.8626 35.9293 28.0543 36.1437 28.0543 36.1908C28.0543 36.2378 27.3948 36.2415 26.5887 36.1987C21.8884 35.9491 18.0307 33.3373 16.0261 29.0472C15.1101 27.0864 14.8795 26.0854 14.8056 23.7455L14.7448 21.8203L15.9861 21.9057C21.2407 22.2672 28.1771 19.872 34.2154 15.6109C34.6102 15.3323 34.9601 15.1049 34.993 15.1056C35.0259 15.1062 35.2413 15.4257 35.4716 15.8155ZM42.53 20.3602C42.9051 20.4288 43.1681 20.4079 43.3974 20.2917L43.7264 20.1249V22.5448V24.9648L43.4057 25.2284C43.1242 25.4599 42.953 25.4876 42 25.4562C41.4033 25.4366 40.9285 25.3783 40.9449 25.3268C40.9612 25.2753 40.9748 24.0721 40.9748 22.6534V20.0737L41.4832 20.1678C41.7628 20.2196 42.2339 20.3061 42.53 20.3602ZM12.9803 23.4286C13.0132 24.5018 13.0178 25.4031 12.9903 25.4315C12.9629 25.4599 12.4721 25.4831 11.8998 25.4831C11.0281 25.4831 10.808 25.441 10.544 25.2239L10.2287 24.9648V22.7405V20.5164L11.5746 20.9969L12.9205 21.4775L12.9803 23.4286ZM13.7565 28.3281C14.5998 30.8146 16.329 33.3806 18.1278 34.8145C18.4522 35.0731 18.6986 35.3044 18.6755 35.3286C18.5817 35.4265 13.2544 33.9524 12.9211 33.7362C12.3501 33.3659 11.8186 32.7248 11.522 32.0485C11.2794 31.4951 11.2431 31.1895 11.2065 29.3911L11.1652 27.3589H12.2965H13.4279L13.7565 28.3281ZM40.5606 28.6838C40.4754 29.278 39.9122 30.2766 39.5472 30.4808C39.2341 30.656 39.2372 30.6067 39.5851 29.8872C39.7419 29.5628 40.0246 28.8471 40.2132 28.2968C40.5302 27.3718 40.559 27.3292 40.5955 27.7308C40.6173 27.9697 40.6015 28.3985 40.5606 28.6838ZM42.0256 30.9543C41.9913 31.455 41.8665 32.0053 41.7191 32.3071C41.466 32.8255 40.7422 33.5903 40.2379 33.8724C39.9893 34.0115 35.6801 35.2349 35.4325 35.2366C35.3782 35.237 35.5127 35.0869 35.7315 34.9031C35.9505 34.7193 36.4526 34.2497 36.8474 33.8595C37.5155 33.1994 37.6384 33.1321 38.6242 32.8856C40.1602 32.5018 41.2581 31.6842 41.7831 30.5333C41.8892 30.3006 42.0004 30.1101 42.0299 30.1101C42.0595 30.1101 42.0576 30.4899 42.0256 30.9543ZM32.8021 32.5079C32.963 32.666 33.0789 32.9258 33.0789 33.1283C33.0789 33.7436 32.7333 33.9262 31.0114 34.2209C30.1416 34.3699 29.312 34.4906 29.1677 34.4893C28.8474 34.4866 28.5328 34.0474 28.5328 33.6032C28.5328 33.0362 28.9101 32.8296 30.4847 32.5342C32.3532 32.1837 32.4703 32.1823 32.8021 32.5079ZM24.9438 37.9309C25.5688 38.0306 26.4841 38.1121 26.9775 38.1121C28.0092 38.1121 29.8726 37.8382 30.746 37.5579C31.075 37.4524 31.3577 37.3654 31.3741 37.3647C31.3905 37.3639 31.4052 37.7151 31.4066 38.1449C31.4093 38.927 31.6874 39.8069 32.0728 40.252C32.2328 40.4369 32.0028 40.7003 29.6662 43.0054C28.2452 44.4074 27.0335 45.5544 26.9736 45.5544C26.9137 45.5544 25.7033 44.4078 24.2841 43.0064C21.9449 40.6969 21.7202 40.4393 21.8815 40.253C22.2479 39.8298 22.5458 38.9254 22.5484 38.2283C22.5499 37.8443 22.5809 37.499 22.6172 37.4609C22.6536 37.4228 22.9362 37.4724 23.2453 37.5708C23.5543 37.6692 24.3187 37.8313 24.9438 37.9309ZM23.0734 44.3664C24.2209 45.5013 25.1651 46.4646 25.1714 46.5072C25.1914 46.6403 22.4255 47.6178 22.0297 47.6176C21.3279 47.6173 20.8655 47.1989 18.713 44.6165L16.5761 42.0529L18.098 41.5439L19.62 41.0349L20.3034 41.669C20.6793 42.0177 21.9257 43.2315 23.0734 44.3664ZM37.3537 42.0435C37.369 42.0578 36.4651 43.163 35.3452 44.4997C33.1788 47.0852 32.7007 47.4928 31.8341 47.4928C31.3164 47.4928 28.7347 46.6538 28.796 46.5055C28.8157 46.4576 30.0587 45.2039 31.5582 43.7194L34.2845 41.0203L35.8052 41.519C36.6416 41.7934 37.3385 42.0294 37.3537 42.0435ZM11.5886 52.3596C10.8633 52.822 10.8268 52.9629 10.8277 55.3053C10.8283 57.1994 10.8541 57.4751 11.0597 57.8014C11.4896 58.4828 11.5272 58.4885 15.7319 58.4927C19.3534 58.4963 19.6458 58.4802 19.9951 58.2576C20.6326 57.8512 20.7863 57.1971 20.7381 55.0971C20.6923 53.1052 20.6045 52.8245 19.8827 52.3644C19.5252 52.1365 19.2567 52.1207 15.7319 52.1207C12.2327 52.1207 11.9366 52.1378 11.5886 52.3596ZM18.8424 55.3087V56.6218H15.7319H12.6214V55.3087V53.9956H15.7319H18.8424V55.3087Z" fill="#0758B1"/>
</svg>