<svg xmlns="http://www.w3.org/2000/svg" fill="none" viewBox="0 0 40 40" width="24" height="24" class="size-8 shrink-0 tablet:size-10"><path fill="#757575" d="M25.773 4.358A16.6 16.6 0 0 0 19.302 3a16.6 16.6 0 0 0-6.49 1.272C5.044 7.518 1.372 15.224 3.684 23.449a.75.75 0 0 0 .275.397.78.78 0 0 0 1.134-.224.74.74 0 0 0 .073-.57c-2.13-7.586 1.107-14.42 8.25-17.402a15.25 15.25 0 0 1 5.875-1.133c2.017.013 4.01.426 5.859 1.212a14.6 14.6 0 0 1 4.838 3.397 14.2 14.2 0 0 1 3.05 5 26.7 26.7 0 0 1 1.425 6.99c.016.198.11.381.263.512a.782.782 0 0 0 1.083-.066.75.75 0 0 0 .19-.545 28.2 28.2 0 0 0-1.509-7.38 15.7 15.7 0 0 0-3.37-5.525 16.2 16.2 0 0 0-5.347-3.754"></path><path fill="#757575" d="M25.092 8.115A11.7 11.7 0 0 0 20.281 7a11.65 11.65 0 0 0-4.837.984.74.74 0 0 0-.39.413.8.8 0 0 0 .001.584.74.74 0 0 0 .39.412.68.68 0 0 0 .552 0 10.2 10.2 0 0 1 4.29-.873c1.473.023 2.924.366 4.266 1.008a10.8 10.8 0 0 1 3.533 2.722 11.5 11.5 0 0 1 2.217 3.986 26.9 26.9 0 0 1 1.257 8.224 27.5 27.5 0 0 1-.82 6.584.8.8 0 0 0 .076.578.8.8 0 0 0 .186.223.7.7 0 0 0 .436.154c.16 0 .314-.056.44-.159a.77.77 0 0 0 .256-.41c.569-2.275.86-4.617.866-6.97a28.5 28.5 0 0 0-1.334-8.714 13.1 13.1 0 0 0-2.536-4.54 12.3 12.3 0 0 0-4.038-3.092M8.347 22.637c-1.05-4.837.106-8.743 3.344-11.298a.8.8 0 0 0 .21-.23.7.7 0 0 0 .061-.584.7.7 0 0 0-.159-.263.8.8 0 0 0-.257-.184.87.87 0 0 0-.918.121c-3.714 2.93-5.057 7.328-3.882 12.734.4 1.848-.34 3.298-2.4 4.703a.8.8 0 0 0-.222.216.691.691 0 0 0-.1.576.7.7 0 0 0 .137.268q.098.121.24.2a.87.87 0 0 0 .629.078.9.9 0 0 0 .29-.133c2.562-1.752 3.553-3.78 3.027-6.204"></path><path fill="#757575" d="M23.374 10.833a10.24 10.24 0 0 0-5.53-.725 10.1 10.1 0 0 0-5.064 2.274 9.64 9.64 0 0 0-3.01 4.56 9.4 9.4 0 0 0-.013 5.416c.162.574.243 1.166.24 1.762 0 2.314-2.329 4.605-3.717 5.766a.75.75 0 0 0-.277.512.73.73 0 0 0 .183.55.77.77 0 0 0 .534.259.8.8 0 0 0 .564-.19c1.587-1.328 4.252-3.988 4.252-6.897a7.8 7.8 0 0 0-.298-2.166 7.96 7.96 0 0 1 .648-6.142c1.035-1.886 2.79-3.304 4.89-3.948a8.65 8.65 0 0 1 6.34.5c1.965.965 3.462 2.638 4.17 4.662a21.4 21.4 0 0 1 1.175 7.094 23.5 23.5 0 0 1-2.257 9.83.73.73 0 0 0-.015.571c.073.185.22.334.406.415s.398.085.589.014a.76.76 0 0 0 .427-.394A25 25 0 0 0 30 24.12a22.9 22.9 0 0 0-1.257-7.574 9.7 9.7 0 0 0-2.073-3.397 10 10 0 0 0-3.296-2.316"></path><path fill="#22C55E" d="M25.887 17.188a7 7 0 0 0-1.455-2.446 7 7 0 0 0-2.315-1.667.787.787 0 0 0-1.049.385.773.773 0 0 0 .41 1.034 5.5 5.5 0 0 1 1.798 1.295c.504.55.888 1.196 1.13 1.9a19.6 19.6 0 0 1 1.03 6.38 23.65 23.65 0 0 1-3.453 11.744.775.775 0 0 0 .564 1.18.79.79 0 0 0 .787-.396A25.2 25.2 0 0 0 27 24.069a21.2 21.2 0 0 0-1.113-6.881"></path><path fill="#757575" d="M14.324 20.743a4.95 4.95 0 0 1 .322-3.705c.586-1.158 1.604-2.08 2.864-2.594a.78.78 0 0 0 .432-.413.7.7 0 0 0-.008-.576.79.79 0 0 0-.444-.402.87.87 0 0 0-.62.008c-1.62.66-2.927 1.844-3.681 3.331a6.37 6.37 0 0 0-.42 4.76 8.8 8.8 0 0 1 .37 2.585c0 3.274-2.646 6.128-4.865 7.946a.73.73 0 0 0-.272.517.72.72 0 0 0 .2.545c.142.15.343.241.557.254a.85.85 0 0 0 .586-.187c2.468-2.023 5.413-5.24 5.413-9.074a10.2 10.2 0 0 0-.434-2.995"></path><path fill="#22C55E" d="M23.126 18.512a3.7 3.7 0 0 0-1.294-1.818 3.46 3.46 0 0 0-2.07-.694 3.4 3.4 0 0 0-1.4.3 3.7 3.7 0 0 0-1.81 1.844 3.9 3.9 0 0 0-.2 2.626c.296 1.11.444 2.256.441 3.407 0 4.13-2.883 7.914-4.596 9.8a.75.75 0 0 0-.197.537.78.78 0 0 0 .225.524.72.72 0 0 0 .516.205.7.7 0 0 0 .503-.234c1.864-2.05 4.99-6.183 4.99-10.832a14.6 14.6 0 0 0-.496-3.81 2.34 2.34 0 0 1 .114-1.577c.219-.494.602-.889 1.08-1.112.262-.118.544-.179.83-.179.442.001.872.146 1.23.414.36.268.628.646.77 1.081.537 1.67.806 3.422.796 5.183-.107 4.198-1.457 8.26-3.865 11.63a.77.77 0 0 0-.13.563.77.77 0 0 0 .293.491.7.7 0 0 0 .542.128.733.733 0 0 0 .468-.312c2.584-3.624 4.027-7.99 4.134-12.5a18.2 18.2 0 0 0-.874-5.665"></path><path fill="#22C55E" d="M20.306 19.406a.67.67 0 0 0-.359-.368.53.53 0 0 0-.473.039.71.71 0 0 0-.313.423.87.87 0 0 0 .03.562c.417 1.31.606 2.707.555 4.106 0 5.556-3.548 10.549-3.586 10.599a.8.8 0 0 0-.125.252.87.87 0 0 0 .03.573.7.7 0 0 0 .153.23.6.6 0 0 0 .215.143.53.53 0 0 0 .482-.052.7.7 0 0 0 .19-.186c.16-.219 3.886-5.448 3.886-11.56.06-1.626-.173-3.25-.685-4.76"></path></svg>