<svg xmlns="http://www.w3.org/2000/svg" width="40" height="36" viewBox="0 0 40 36" fill="none">
    <path fill-rule="evenodd" clip-rule="evenodd" d="M7.61308 0.551153C7.14751 0.669243 5.66659 1.56072 4.93712 2.16194C2.97393 3.77993 1.55897 6.1396 1.01421 8.70392C0.698601 10.1895 0.717252 12.5282 1.05813 14.2009C1.40578 15.9068 1.89934 17.326 2.71121 18.9543C3.34719 20.2298 7.6737 27.6633 8.33078 28.6095C11.1857 32.7204 15.0889 35.2205 19.0434 35.4716C21.5421 35.6301 23.7359 35.1269 25.7269 33.9386C26.4655 33.4978 26.6586 33.3377 26.8714 32.9904C27.1169 32.5895 27.1271 32.5343 27.1212 31.634C27.1159 30.8226 27.083 30.6094 26.8774 30.0597C26.5336 29.14 26.0957 28.3011 25.3065 27.0502C24.1299 25.185 23.466 24.4128 22.5049 23.7916C21.7685 23.3157 21.2088 23.1642 20.3531 23.2094C19.5625 23.2511 19.1599 23.4105 17.7598 24.2363C16.9146 24.7349 16.8419 24.7613 16.3187 24.7611C15.6329 24.7608 14.9886 24.4611 14.4307 23.8829C14.1784 23.6215 13.3696 22.3109 12.0168 19.9716C10.8979 18.0367 9.91333 16.32 9.8289 16.1568C9.60314 15.7204 9.55533 14.4896 9.74489 13.9933C9.93274 13.5014 10.1788 13.2789 11.1944 12.6826L12.0332 12.1901L12.1703 12.4144C12.393 12.7787 21.2662 19.7131 21.9491 20.0564C22.4911 20.3289 22.5985 20.3526 23.265 20.3472C23.8529 20.3423 24.0792 20.3006 24.4569 20.1273C24.7504 19.9926 27.2003 18.1247 31.0693 15.0856C34.4496 12.4304 37.2631 10.2287 37.3213 10.1929C37.4059 10.1411 37.4273 11.7367 37.4273 18.063V25.9983L37.2192 26.2063L37.0112 26.4144L32.6202 26.4149C29.7998 26.4152 28.1141 26.4474 27.9071 26.5049C27.2689 26.682 27.0529 27.4577 27.5018 27.9602L27.7493 28.2371H32.5247C37.2399 28.2371 37.3052 28.2348 37.6966 28.0539C38.2545 27.796 38.8178 27.2467 39.03 26.7535L39.2106 26.3335L39.1879 17.3668L39.1652 8.40001L38.9331 8.00539C38.6512 7.52565 38.159 7.12222 37.5935 6.9074C37.1865 6.75269 36.7415 6.74692 25.2794 6.74692H13.3877L12.6413 5.28458C11.7262 3.49204 11.1301 2.58106 10.311 1.72366C9.3974 0.767241 8.42572 0.344983 7.61308 0.551153ZM8.57264 2.57987C9.23879 3.0624 9.96818 4.09605 10.915 5.89919C11.6651 7.32745 12.0076 8.31396 12.0189 9.0782C12.0334 10.0684 11.955 10.153 9.97123 11.2878C8.69615 12.0173 8.16793 12.6828 7.87359 13.9307C7.70464 14.6472 7.76025 15.8306 7.99414 16.4959C8.14411 16.9223 12.1194 23.8693 12.6831 24.6902C13.2145 25.4637 14.2938 26.2018 15.2626 26.4542C15.9129 26.6236 16.8846 26.62 17.3966 26.4464C17.6197 26.3707 18.2981 26.0217 18.9043 25.671C20.2023 24.9198 20.6145 24.826 21.2328 25.1414C22.0301 25.5482 22.8945 26.5668 24.0147 28.4199C24.7909 29.7041 25.2031 30.636 25.3347 31.4041C25.4431 32.0371 25.4457 32.0336 24.4234 32.5981C22.0024 33.9344 18.7084 34.058 16.0574 32.9117C13.668 31.8788 11.4131 29.9195 9.71318 27.3992C9.15978 26.5789 4.81962 19.0994 4.34548 18.149C2.3349 14.1193 2.04616 9.93017 3.56251 6.78931C4.05301 5.7733 4.53012 5.12715 5.50307 4.16132C6.1994 3.47017 6.63997 3.11378 7.20549 2.78435C7.62512 2.53986 8.02949 2.33954 8.10409 2.33928C8.17869 2.33895 8.38952 2.4472 8.57264 2.57987ZM36.3634 8.60245C36.2526 8.70596 24.7775 17.7119 24.2204 18.1326C23.686 18.5361 23.1296 18.6375 22.6921 18.4113C22.5453 18.3354 20.4397 16.7137 18.0129 14.8076C15.5863 12.9015 13.5262 11.2904 13.4351 11.2274C13.2731 11.1153 13.2753 11.1011 13.5329 10.5866C13.751 10.1508 13.8039 9.92856 13.84 9.29378L13.8837 8.52717H25.1639C31.7358 8.52717 36.4103 8.55854 36.3634 8.60245Z" fill="#000"/>
</svg>