<svg xmlns="http://www.w3.org/2000/svg" fill="none" viewBox="0 0 40 40" width="24" height="24" class="size-8 shrink-0 tablet:size-10"><path fill="#757575" d="M13.904 33.65c.623 0 1.247-.237 1.722-.712l6.056-6.056a.586.586 0 0 0 0-.828l-1.367-1.367-.01-.01-2.697-2.697a.586.586 0 0 0-.828 0L10.77 27.99 10.76 28l-1.343 1.344a.586.586 0 0 0 0 .828l2.766 2.767a2.43 2.43 0 0 0 1.722.712m3.29-10.427 1.641 1.641-5.307 2.025zM11.5 28.917l8.243-3.145.696.696-5.642 5.642a1.264 1.264 0 0 1-1.786 0l-2.352-2.352z"></path><path fill="#757575" d="M39.414 8.945A.586.586 0 0 0 40 8.36V4.207a.586.586 0 0 0-.586-.586h-6.68c-.712 0-1.38.277-1.883.78l-4.675 4.674-.078-.078a2.1 2.1 0 0 0-1.494-.619c-.564 0-1.094.22-1.493.619a2.1 2.1 0 0 0-.516.846 2.68 2.68 0 0 0-3.52.233l-3.742 3.742a2.68 2.68 0 0 0-.368 3.325L7.75 24.358a.586.586 0 1 0 .828.829l7.17-7.17 8.45 8.45-7.522 7.522a3.925 3.925 0 0 1-5.544 0l-5.678-5.677 1.467-1.468a.586.586 0 1 0-.828-.829l-1.526 1.526a2.164 2.164 0 0 0-2.583.356 2.163 2.163 0 0 0 0 3.055l.133.133L.172 33.03a.586.586 0 0 0 0 .829l2.349 2.349a.584.584 0 0 0 .828 0l1.946-1.945.132.132c.421.421.974.632 1.528.632a2.15 2.15 0 0 0 2.056-1.5l1.292 1.291a5.08 5.08 0 0 0 3.6 1.49 5.08 5.08 0 0 0 3.602-1.49l7.566-7.566c.443.288.96.442 1.502.442.74 0 1.436-.288 1.96-.812.525-.524.813-1.22.813-1.961v-3.818a.586.586 0 1 0-1.172 0v3.818c0 .428-.166.83-.468 1.132-.304.303-.706.47-1.133.47a1.6 1.6 0 0 1-1.132-.47l-9.279-9.278a1.5 1.5 0 0 1-.44-1.065c0-.402.156-.78.44-1.064l3.741-3.742a1.51 1.51 0 0 1 2.13 0l5.672 5.674c.303.302.47.704.47 1.132v1.05a.586.586 0 0 0 1.171 0v-1.05c0-.442-.103-.868-.297-1.252.364-.092.698-.28.97-.553.4-.399.619-.93.619-1.493s-.22-1.095-.619-1.494l-.078-.078 3.895-3.894zM2.935 34.965l-1.52-1.52 1.53-1.531 1.521 1.52zm5.008-2.097a.98.98 0 0 1-.29.699.98.98 0 0 1-.698.29.98.98 0 0 1-.7-.29l-3.442-3.443a.98.98 0 0 1-.29-.7c0-.263.103-.511.29-.698a.98.98 0 0 1 .699-.29c.264 0 .512.103.699.29l3.443 3.443c.186.187.29.435.29.699m21.248-17.792a.94.94 0 0 1-1.33 0l-1.313-1.313-2.611-2.612a.94.94 0 0 1 1.332-1.326l3.922 3.922a.93.93 0 0 1 .275.665.93.93 0 0 1-.275.664m3.988-7.13-4.066 4.066-2.108-2.108 4.675-4.675a1.48 1.48 0 0 1 1.053-.437h6.095v2.981h-5.235a.59.59 0 0 0-.414.172"></path><path fill="#1E2F2C" d="M37.003 12c-3.331 3.375-3.342 9-.006 9s3.336-5.625.006-9"></path><path fill="#1E2F2C" fill-rule="evenodd" d="M37.003 11.5a.5.5 0 0 1 .356.149C39.114 13.428 40 15.803 40 17.766c0 .981-.223 1.903-.72 2.594-.511.71-1.288 1.14-2.283 1.14s-1.77-.43-2.28-1.14c-.497-.692-.718-1.614-.717-2.595.002-1.963.892-4.338 2.647-6.116a.5.5 0 0 1 .356-.149m-1.474 8.277c.322.45.795.723 1.468.723s1.148-.274 1.471-.724c.337-.468.532-1.164.532-2.01 0-1.561-.66-3.488-1.997-5.03-1.338 1.542-2.001 3.47-2.003 5.03 0 .847.193 1.542.529 2.01" clip-rule="evenodd"></path></svg>