<svg xmlns="http://www.w3.org/2000/svg" width="2051.063" height="371.082" viewBox="0 0 2051.063 371.082"><defs><style>.a{fill:none;stroke:#8b66ff;stroke-width:4px;stroke-dasharray:5 17;}.b{fill:#8b66ff;}</style></defs><g transform="translate(77.426 -4927.746)"><path class="a" d="M-2972.727,15081.817s333.333,124.242,545.454,15.151,303.03-339.394,472.727-321.212,472.727,400,739.394,233.333,290.909-233.333,290.909-233.333" transform="translate(2896 -9845)"/><path class="b" d="M46.526,147.907h0a.037.037,0,0,1-.026-.009c-.286-.256-3.438-5.3-7.725-12.635-3.87-6.617-9.775-16.98-15.933-28.776-6.629-12.7-11.921-23.939-15.729-33.412A142.44,142.44,0,0,1,1.953,58.225,45.953,45.953,0,0,1,0,46.531a46.9,46.9,0,0,1,.945-9.378,46.292,46.292,0,0,1,7-16.638A46.64,46.64,0,0,1,28.4,3.657,46.245,46.245,0,0,1,37.129.945a46.922,46.922,0,0,1,18.743,0,46.228,46.228,0,0,1,16.627,7A46.663,46.663,0,0,1,89.346,28.419a46.32,46.32,0,0,1,2.709,8.734A46.9,46.9,0,0,1,93,46.531c0,5.853-2.366,14.806-7.031,26.612-2,5.061-4.437,10.674-7.242,16.684-2.5,5.356-5.309,11.064-8.35,16.965-6.816,13.227-12.887,23.761-15.9,28.863C50.22,142.867,46.95,147.9,46.526,147.907ZM45.217,31.128A15.082,15.082,0,1,0,60.29,46.21,15.095,15.095,0,0,0,45.217,31.128Z" transform="translate(278 5147)"/></g><script xmlns=""/></svg>