<?xml version="1.0" encoding="UTF-8"?> <svg xmlns="http://www.w3.org/2000/svg" width="80" height="43" viewBox="0 0 80 43" fill="none"><path d="M10.0228 4.13062C10.2865 3.42732 10.7261 2.72403 11.2536 2.19655C13.5393 -0.00124961 17.3195 0.526223 18.814 3.33941C19.9569 5.4493 21.1876 7.55919 22.4184 9.58117L28.3964 20.0427C30.0668 22.9438 28.2206 26.6361 24.9679 27.1636C22.9459 27.4273 21.0118 26.5482 20.0448 24.702L14.7701 15.5592C14.7701 15.4713 14.6822 15.4713 14.6822 15.3834C14.5063 15.2075 14.4184 15.0317 14.3305 14.8559L10.4624 8.08666C10.0228 7.29545 9.75908 6.41633 9.84699 5.53721C9.75908 5.00974 9.84699 4.57018 10.0228 4.13062Z" fill="#7C7C7C"></path><path d="M10.0236 4.12988C9.93565 4.56944 9.84774 5.009 9.75983 5.44856C9.75983 6.4156 9.93565 7.29472 10.4631 8.17384L14.3313 14.7672C14.4192 14.9431 14.5071 15.1189 14.6829 15.3826L12.573 18.987L9.67192 24.0859C9.58401 24.0859 9.58401 24.0859 9.58401 23.998C9.58401 23.9101 9.58401 23.8222 9.67192 23.7343C10.1115 21.976 9.75983 20.4815 8.52906 19.1628C7.82576 18.3716 6.85873 17.9321 5.80379 17.7563C4.39719 17.5804 3.16642 17.9321 2.11148 18.8112C1.93565 18.987 1.75983 19.1628 1.58401 19.3387C1.49609 19.3387 1.49609 19.3387 1.49609 19.2508L3.16642 16.3497L10.1115 4.39362C10.0236 4.2178 10.0236 4.12988 10.0236 4.12988Z" fill="#E5E5E5"></path><path d="M1.5858 19.1628L2.28909 18.5474C5.10228 16.3496 9.32206 17.9321 9.93745 21.4485C10.1133 22.3277 10.0254 23.1189 9.76162 23.9101C9.76162 23.998 9.76162 23.998 9.67371 24.0859C9.5858 24.2617 9.49788 24.4375 9.32206 24.6134C8.26711 26.2837 6.77261 27.1628 4.75063 27.0749C2.46492 26.8991 0.618763 25.2288 0.355027 22.943C0.179203 21.8002 0.442939 20.8331 0.970412 19.8661C1.05832 19.6903 1.23415 19.5145 1.32206 19.2507C1.49788 19.2507 1.49788 19.1628 1.5858 19.1628Z" fill="#7C7C7C"></path><path d="M6.06585 42.8348C9.22176 42.8348 11.7801 40.2764 11.7801 37.1205C11.7801 33.9646 9.22176 31.4062 6.06585 31.4062C2.90994 31.4062 0.351562 33.9646 0.351562 37.1205C0.351562 40.2764 2.90994 42.8348 6.06585 42.8348Z" fill="#7C7C7C"></path><path d="M39.0347 5.71229V7.38262H42.9907C42.9028 8.26174 42.5511 8.96504 42.1116 9.4046C41.5841 9.93207 40.6171 10.6354 39.1226 10.6354C36.7489 10.6354 34.9028 8.7013 34.9028 6.23976C34.9028 3.86614 36.8369 1.84416 39.1226 1.84416C40.4413 1.84416 41.3204 2.37163 42.0237 2.98702L43.1665 1.84416C42.1995 0.965037 40.9687 0.173828 39.1226 0.173828C35.8698 0.173828 33.0566 2.8991 33.0566 6.06394C33.0566 9.22877 35.8698 11.954 39.1226 11.954C40.8808 11.954 42.2874 11.4266 43.2544 10.2837C44.3973 9.14086 44.749 7.73427 44.749 6.5035C44.749 6.15185 44.7489 5.71229 44.661 5.53647H39.2105L39.0347 5.71229ZM48.9687 4.39361C46.8588 4.39361 45.1885 5.97603 45.1885 8.17383C45.1885 10.3716 46.8588 11.954 48.9687 11.954C51.0786 11.954 52.7489 10.2837 52.7489 8.26174V8.17383C52.7489 5.97603 51.0786 4.39361 48.9687 4.39361ZM48.9687 10.5475C47.8259 10.5475 46.8588 9.58042 46.8588 8.17383C46.8588 6.76724 47.8259 5.8002 48.9687 5.8002C50.1116 5.8002 51.0786 6.67932 51.0786 8.17383C51.0786 9.66833 50.0237 10.5475 48.9687 10.5475ZM67.2544 5.18482C66.8149 4.74526 66.1116 4.3057 65.1446 4.3057C63.2105 4.3057 61.5402 5.97603 61.5402 8.08592C61.5402 10.1958 63.2105 11.8661 65.1446 11.8661C66.0237 11.8661 66.8149 11.4266 67.1665 10.987H67.2544V11.5145C67.2544 13.009 66.4632 13.7123 65.2325 13.7123C64.2654 13.7123 63.5621 12.9211 63.2984 12.3936L61.8039 12.9211C62.2435 13.8881 63.3863 15.1189 65.1446 15.1189C67.1665 15.1189 68.8369 13.976 68.8369 11.0749V4.3057H67.2544V5.18482ZM65.4083 10.5475C64.2654 10.5475 63.3863 9.58042 63.3863 8.17383C63.3863 6.76724 64.2654 5.8002 65.4083 5.8002C66.5511 5.8002 67.4303 6.76724 67.4303 8.17383C67.4303 9.58042 66.4632 10.5475 65.4083 10.5475ZM57.2325 4.39361C55.1226 4.39361 53.4522 5.97603 53.4522 8.17383C53.4522 10.3716 55.1226 11.954 57.2325 11.954C59.3424 11.954 61.0127 10.2837 61.0127 8.26174V8.17383C61.1006 5.97603 59.3424 4.39361 57.2325 4.39361ZM57.2325 10.5475C56.0896 10.5475 55.1226 9.58042 55.1226 8.17383C55.1226 6.76724 56.0896 5.8002 57.2325 5.8002C58.3753 5.8002 59.3424 6.67932 59.3424 8.17383C59.3424 9.66833 58.2874 10.5475 57.2325 10.5475ZM70.1555 0.349652H71.8259V11.954H70.1555V0.349652ZM76.4852 10.5475C75.6061 10.5475 74.9907 10.1079 74.5512 9.4046L79.738 7.29471L79.4742 6.85515C79.1226 5.97603 78.1555 4.39361 76.2215 4.39361C74.1995 4.39361 72.6171 5.97603 72.6171 8.17383C72.6171 10.2837 74.2874 11.954 76.3094 11.954H76.3973C78.1555 11.954 79.2105 10.8112 79.65 10.2837L78.3314 9.4046C77.8918 10.1079 77.3643 10.5475 76.4852 10.5475ZM76.3094 5.88811C77.0127 5.88811 77.5402 6.23976 77.8039 6.76723L74.3753 8.26174C74.2874 6.5035 75.4303 5.88811 76.3094 5.88811Z" fill="white"></path><path d="M6.77091 39.6671C6.59508 39.6671 6.41926 39.5792 6.24343 39.4913L3.25442 36.6781C2.90277 36.4143 2.90277 35.8869 3.16651 35.5352C3.43025 35.1836 3.95772 35.1836 4.30937 35.4473L6.68299 37.5572L11.0786 31.5792C11.3423 31.2275 11.8698 31.1396 12.2215 31.4033C12.5731 31.6671 12.661 32.1946 12.3973 32.5462L7.4742 39.3154C7.29838 39.4913 7.12255 39.6671 6.77091 39.6671C6.85882 39.6671 6.85882 39.6671 6.77091 39.6671Z" fill="white"></path><path d="M18.9012 34.5166C20.4836 34.5166 21.7144 35.4836 21.9781 36.9781H20.8352C20.6594 36.099 19.8682 35.5715 18.9012 35.5715C17.6704 35.5715 16.8792 36.4507 16.8792 37.8573C16.8792 39.2639 17.6704 40.143 18.9012 40.143C19.8682 40.143 20.5715 39.6155 20.8352 38.7364H21.9781C21.7144 40.2309 20.4836 41.1979 18.9012 41.1979C17.055 41.1979 15.7363 39.8792 15.7363 37.8573C15.7363 35.8353 17.055 34.5166 18.9012 34.5166Z" fill="white"></path><path d="M23.7366 38.9987C23.8245 39.702 24.2641 40.2295 25.0553 40.2295C25.5827 40.2295 25.9344 39.9658 26.1102 39.5262H27.1652C26.9014 40.4932 26.0223 41.1086 24.9674 41.1086C23.5608 41.1086 22.6816 40.0537 22.6816 38.6471C22.6816 37.3284 23.6487 36.1855 24.9674 36.1855C26.286 36.1855 27.2531 37.2405 27.2531 38.5592C27.2531 38.735 27.2531 38.9108 27.2531 38.9108H23.7366V38.9987ZM23.7366 38.2075H26.1981C26.1102 37.5921 25.6707 37.1526 24.9674 37.1526C24.2641 37.1526 23.8245 37.5921 23.7366 38.2075Z" fill="white"></path><path d="M30.7702 37.3293C30.7702 37.3293 30.6822 37.3293 30.5064 37.3293C29.7152 37.3293 29.2756 37.681 29.2756 38.648V41.1096H28.2207V36.4502H29.1877V37.0656C29.3636 36.8019 29.7152 36.3623 30.5943 36.3623C30.6822 36.3623 30.7702 36.3623 30.7702 36.3623V37.3293Z" fill="white"></path><path d="M32.7914 41.021H31.7365V37.2407H31.0332V36.3616H31.7365V35.1309H32.7914V36.3616H33.5827V37.2407H32.7914V41.021Z" fill="white"></path><path d="M34.1094 34.9552C34.1094 34.6036 34.3731 34.252 34.8127 34.252C35.1643 34.252 35.516 34.5157 35.516 34.9552C35.516 35.3069 35.2522 35.5706 34.8127 35.5706C34.3731 35.5706 34.1094 35.3069 34.1094 34.9552ZM34.2852 36.3618H35.3401V41.0212H34.2852V36.3618Z" fill="white"></path><path d="M36.8361 35.8344C36.8361 34.7794 37.4515 34.252 38.3306 34.252C38.5064 34.252 38.6823 34.252 38.6823 34.252V35.219C38.6823 35.219 38.5943 35.219 38.5064 35.219C38.0669 35.219 37.8911 35.3948 37.8911 35.9223V36.3618H38.6823V37.241H37.8911V41.0212H36.8361V37.241H36.1328V36.3618H36.8361V35.8344ZM39.3856 34.9552C39.3856 34.6036 39.6493 34.252 40.0889 34.252C40.4405 34.252 40.7922 34.5157 40.7922 34.9552C40.7922 35.3069 40.5284 35.5706 40.0889 35.5706C39.6493 35.5706 39.3856 35.3069 39.3856 34.9552ZM39.4735 36.3618H40.5284V41.0212H39.4735V36.3618Z" fill="white"></path><path d="M42.7249 38.9987C42.8128 39.702 43.2523 40.2295 44.0435 40.2295C44.571 40.2295 44.9227 39.9658 45.0985 39.5262H46.1534C45.8897 40.4932 45.0106 41.1086 43.9556 41.1086C42.549 41.1086 41.6699 40.0537 41.6699 38.6471C41.6699 37.3284 42.637 36.1855 43.9556 36.1855C45.2743 36.1855 46.2413 37.2405 46.2413 38.5592C46.2413 38.735 46.2413 38.9108 46.2413 38.9108H42.7249V38.9987ZM42.7249 38.2075H45.1864C45.0985 37.5921 44.6589 37.1526 43.9556 37.1526C43.2523 37.1526 42.9007 37.5921 42.7249 38.2075Z" fill="white"></path><path d="M50.6376 34.3398H51.6926V41.1091H50.7255V40.4058C50.4618 40.9333 49.8464 41.197 49.1431 41.197C47.7365 41.197 46.9453 40.0541 46.9453 38.7354C46.9453 37.4168 47.7365 36.2739 49.1431 36.2739C49.8464 36.2739 50.3739 36.6256 50.6376 36.9772V34.3398ZM49.3189 37.2409C48.5277 37.2409 48.0003 37.8563 48.0003 38.7354C48.0003 39.5267 48.5277 40.23 49.3189 40.23C50.1101 40.23 50.6376 39.6146 50.6376 38.7354C50.6376 37.8563 50.1981 37.2409 49.3189 37.2409Z" fill="white"></path><path d="M32.9688 27.1637L36.8369 16.878H38.3314L42.1995 27.1637H40.705L39.738 24.3505H35.4303L34.4633 27.1637H32.9688ZM35.8698 23.1197H39.2984L37.6281 18.4604H37.5402L35.8698 23.1197ZM43.6061 26.2845C42.9907 25.5812 42.6391 24.7021 42.6391 23.6472C42.6391 22.5922 42.9907 21.7131 43.6061 21.0098C44.3094 20.3065 45.0127 19.9549 45.9797 19.9549C46.5072 19.9549 46.9468 20.0428 47.3863 20.3065C47.8259 20.5703 48.1775 20.834 48.3534 21.1856H48.4413L48.3534 20.0428V16.79H49.672V27.0758H48.4413V26.1087H48.3534C48.0896 26.4604 47.8259 26.7241 47.3863 26.9878C46.9468 27.2516 46.5072 27.3395 45.9797 27.3395C45.0127 27.3395 44.2215 26.9878 43.6061 26.2845ZM47.738 25.4054C48.1775 24.9659 48.3534 24.3505 48.3534 23.5593C48.3534 22.856 48.1775 22.2406 47.738 21.7131C47.2984 21.2736 46.7709 21.0098 46.1556 21.0098C45.5402 21.0098 45.0127 21.2736 44.5731 21.7131C44.1336 22.2406 43.9578 22.856 43.9578 23.5593C43.9578 24.2626 44.1336 24.878 44.5731 25.4054C45.0127 25.845 45.5402 26.1087 46.1556 26.1087C46.7709 26.1966 47.2984 25.9329 47.738 25.4054ZM55.8259 26.7241C55.2984 27.1637 54.5951 27.3395 53.8039 27.3395C53.1006 27.3395 52.4852 27.1637 51.9578 26.812C51.4303 26.4604 51.0786 25.9329 50.8149 25.3175L51.9578 24.79C52.1336 25.2296 52.3973 25.5812 52.749 25.7571C53.1006 26.0208 53.4523 26.1087 53.8039 26.1087C54.2435 26.1087 54.5951 26.0208 54.8589 25.845C55.1226 25.6692 55.2984 25.4054 55.2984 25.2296C55.2984 24.79 54.9468 24.4384 54.2435 24.2626L53.0127 23.9988C51.6061 23.6472 50.9907 22.9439 50.9907 21.9769C50.9907 21.3615 51.2545 20.834 51.7819 20.3944C52.3094 20.0428 53.0127 19.779 53.8039 19.779C54.4193 19.779 54.9468 19.9549 55.4742 20.2186C56.0017 20.4823 56.3534 20.9219 56.5292 21.4494L55.2984 21.9769C55.1226 21.7131 54.9468 21.4494 54.683 21.2736C54.4193 21.0977 54.0677 21.0098 53.6281 21.0098C53.2764 21.0098 53.0127 21.0977 52.6611 21.2736C52.3973 21.4494 52.2215 21.6252 52.2215 21.8889C52.2215 22.3285 52.5731 22.5922 53.3644 22.7681L54.4193 23.0318C55.8259 23.3834 56.5292 24.0867 56.5292 25.1417C56.6171 25.7571 56.3534 26.2845 55.8259 26.7241Z" fill="white"></path></svg> 