<?xml version="1.0" encoding="UTF-8"?> <svg xmlns="http://www.w3.org/2000/svg" width="80" height="44" viewBox="0 0 80 44" fill="none"><path d="M5.99242 43.3286C9.06031 43.3286 11.5473 40.8416 11.5473 37.7737C11.5473 34.7058 9.06031 32.2188 5.99242 32.2188C2.92452 32.2188 0.4375 34.7058 0.4375 37.7737C0.4375 40.8416 2.92452 43.3286 5.99242 43.3286Z" fill="#7C7C7C"></path><path d="M30.5177 17.9465L32.2269 22.4759H28.8939L30.5177 17.9465ZM29.834 16.4082L25.9883 26.4071H27.4411L28.3812 23.6723H32.6542L33.5942 26.4071H35.0471L31.2014 16.4082H29.834ZM50.4299 26.4071H51.7118V16.4082H50.4299V26.4071ZM37.0127 20.5103C37.44 19.8266 38.2946 19.3139 39.1492 19.3139C40.8584 19.3139 41.7984 20.5103 41.7984 22.2195V26.4925H40.5165V22.4759C40.5165 21.0231 39.7474 20.5103 38.8073 20.5103C37.6963 20.5103 36.9272 21.6213 36.9272 22.5613V26.4071H35.6453V19.4848H36.9272L37.0127 20.5103ZM42.9094 24.356C42.9094 22.8177 44.3622 21.9631 45.986 21.9631C46.926 21.9631 47.6097 22.2195 47.8661 22.3904V22.134C47.8661 21.0231 47.0115 20.5103 46.1569 20.5103C45.3878 20.5103 44.7041 20.8521 44.5332 21.4504L43.3367 20.9376C43.5931 20.2539 44.4477 19.3139 46.1569 19.3139C47.7807 19.3139 49.2335 20.2539 49.2335 22.2195V26.3216H48.037V25.3815H47.9516C47.6097 25.8943 46.8406 26.578 45.6441 26.578C44.1059 26.578 42.9094 25.7234 42.9094 24.356ZM47.7807 23.5014C47.7807 23.5014 47.2679 23.0741 46.1569 23.0741C44.875 23.0741 44.2768 23.8432 44.2768 24.356C44.2768 25.1252 45.0459 25.467 45.7296 25.467C46.6697 25.3815 47.7807 24.5269 47.7807 23.5014Z" fill="white"></path><path fill-rule="evenodd" clip-rule="evenodd" d="M53.5929 29.3978L55.1312 25.8085L52.3965 19.4844H53.6784L55.7294 24.2702L57.7805 19.4844H59.0624L54.7894 29.3978H53.5929ZM72.6506 21.7918C72.3087 20.9372 71.5396 20.339 70.7704 20.339C69.6595 20.339 68.7194 21.2791 68.7194 22.7319C68.7194 24.1847 69.6595 25.1248 70.7704 25.1248C71.5396 25.1248 72.3087 24.612 72.6506 23.8429L73.7616 24.5266C73.2488 25.723 72.1378 26.4922 70.8559 26.4922C68.9758 26.4922 67.523 24.8684 67.523 22.8174C67.523 20.6809 69.0612 19.1426 70.8559 19.1426C72.1378 19.1426 73.2488 19.9117 73.7616 21.1082L72.6506 21.7918Z" fill="white"></path><path d="M77.3507 26.5781C79.0599 26.5781 80 25.638 80 24.4416C80 21.7923 76.1543 22.8178 76.1543 21.2796C76.1543 20.7668 76.5816 20.425 77.3507 20.425C78.1199 20.425 78.889 20.7668 79.2308 21.2796L80 20.5104C79.5727 19.9977 78.3762 19.2285 77.2653 19.2285C75.6415 19.2285 74.7869 20.1686 74.7869 21.365C74.7869 23.8434 78.7181 22.9888 78.7181 24.2707C78.7181 24.9544 78.2908 25.3817 77.4362 25.3817C76.5816 25.3817 76.1543 24.8689 75.727 24.2707L74.7869 25.0398C75.2997 25.7235 76.3252 26.6636 77.3507 26.5781ZM64.959 26.4072H66.2409V19.4849H64.959V26.4072Z" fill="white"></path><path fill-rule="evenodd" clip-rule="evenodd" d="M65.5564 16.0664C66.0692 16.0664 66.411 16.4937 66.411 16.921C66.411 17.4338 65.9837 17.7756 65.5564 17.7756C65.1291 17.7756 64.7018 17.3483 64.7018 16.921C64.7018 16.4937 65.0437 16.0664 65.5564 16.0664ZM63.6763 25.2961L63.8472 26.3216H62.5653C61.3689 26.3216 60.8561 25.467 60.8561 24.1851V20.7667H59.5742V19.4848H60.8561V17.4338H62.138V19.4848H63.6763V20.7667H62.138V24.3561C62.138 25.2961 62.9072 25.2961 63.6763 25.2961Z" fill="white"></path><path d="M31.8855 5.384V7.00774H35.7312C35.6458 7.86234 35.3039 8.54603 34.8766 8.97333C34.3639 9.48609 33.4238 10.1698 31.971 10.1698C29.6636 10.1698 27.8689 8.28965 27.8689 5.89676C27.8689 3.58933 29.749 1.62374 31.971 1.62374C33.2529 1.62374 34.1075 2.13651 34.7912 2.73473L35.9022 1.62374C34.9621 0.769142 33.7656 0 31.971 0C28.8089 0 26.0742 2.64927 26.0742 5.72584C26.0742 8.80241 28.8089 11.4517 31.971 11.4517C33.6802 11.4517 35.0475 10.9389 35.9876 9.82793C37.0986 8.71695 37.4404 7.34958 37.4404 6.15314C37.4404 5.8113 37.4404 5.384 37.355 5.21308H32.0564L31.8855 5.384ZM41.5425 4.01663C39.4915 4.01663 37.8677 5.55492 37.8677 7.69142C37.8677 9.82793 39.4915 11.3662 41.5425 11.3662C43.5936 11.3662 45.2173 9.74247 45.2173 7.77689V7.69142C45.3028 5.55492 43.679 4.01663 41.5425 4.01663ZM41.5425 9.99885C40.4315 9.99885 39.4915 9.05879 39.4915 7.69142C39.4915 6.32406 40.4315 5.384 41.5425 5.384C42.6535 5.384 43.5936 6.2386 43.5936 7.69142C43.5936 9.14425 42.6535 9.99885 41.5425 9.99885ZM59.4037 4.78578C58.9764 4.35847 58.2927 3.93117 57.3527 3.93117C55.4726 3.93117 53.8488 5.55492 53.8488 7.60596C53.8488 9.65701 55.4726 11.2808 57.3527 11.2808C58.2073 11.2808 58.9764 10.8535 59.3183 10.4262H59.4037V10.9389C59.4037 12.3917 58.6346 13.0754 57.4381 13.0754C56.4981 13.0754 55.8144 12.3063 55.558 11.7935L54.1052 12.3063C54.5325 13.2463 55.6435 14.4428 57.3527 14.4428C59.3183 14.4428 60.942 13.3318 60.942 10.5116V3.93117H59.4037V4.78578ZM57.5236 9.99885C56.4126 9.99885 55.558 9.05879 55.558 7.69142C55.558 6.32406 56.4126 5.384 57.5236 5.384C58.6346 5.384 59.4892 6.32406 59.4892 7.69142C59.4892 9.05879 58.6346 9.99885 57.5236 9.99885ZM49.5758 4.01663C47.5247 4.01663 45.901 5.55492 45.901 7.69142C45.901 9.82793 47.5247 11.3662 49.5758 11.3662C51.6268 11.3662 53.2506 9.74247 53.2506 7.77689V7.69142C53.4215 5.55492 51.7123 4.01663 49.5758 4.01663ZM49.5758 9.99885C48.4648 9.99885 47.5247 9.05879 47.5247 7.69142C47.5247 6.32406 48.4648 5.384 49.5758 5.384C50.6868 5.384 51.6268 6.2386 51.6268 7.69142C51.6268 9.14425 50.6868 9.99885 49.5758 9.99885ZM62.2239 0.0854603H63.8477V11.3662H62.2239V0.0854603ZM68.2916 9.99885C67.437 9.99885 66.8388 9.57155 66.4115 8.88787L71.4536 6.83682L71.1972 6.40952C70.8554 5.55492 69.9153 4.01663 68.0352 4.01663C66.0696 4.01663 64.5313 5.55492 64.5313 7.69142C64.5313 9.74247 66.1551 11.3662 68.1207 11.3662H68.2061C69.9153 11.3662 70.9409 10.2552 71.3682 9.74247L70.0863 8.88787C69.7444 9.57155 69.1462 9.99885 68.2916 9.99885ZM68.2061 5.46946C68.8898 5.46946 69.4026 5.8113 69.659 6.32406L66.326 7.77689C66.2405 6.06768 67.3515 5.46946 68.2061 5.46946Z" fill="white"></path><path d="M16.2773 3.16284V22.6827C16.2773 24.8723 17.788 26.0774 19.3836 26.0774C20.8603 26.0774 22.4898 25.042 22.4898 22.6827V3.31561C22.4898 1.3127 21.0131 0.0566406 19.3836 0.0566406C17.7541 0.0566406 16.2773 1.44849 16.2773 3.16284Z" fill="white"></path><path d="M8.14648 13.075V22.6821C8.14648 24.8717 9.65716 26.0769 11.2527 26.0769C12.7294 26.0769 14.3589 25.0415 14.3589 22.6821V13.2277C14.3589 11.2248 12.8822 9.96875 11.2527 9.96875C9.62321 9.96875 8.14648 11.3606 8.14648 13.075Z" fill="#7C7C7C"></path><path d="M3.10622 26.0933C4.82173 26.0933 6.21243 24.7026 6.21243 22.9871C6.21243 21.2716 4.82173 19.8809 3.10622 19.8809C1.3907 19.8809 0 21.2716 0 22.9871C0 24.7026 1.3907 26.0933 3.10622 26.0933Z" fill="#7C7C7C"></path><path d="M20.6896 39.9973L21.9715 41.7065H20.7751L19.9205 40.5101C19.4932 40.681 19.0659 40.7665 18.6386 40.7665C16.7585 40.7665 15.4766 39.3991 15.4766 37.519C15.4766 35.7243 16.7585 34.2715 18.6386 34.2715C20.5187 34.2715 21.8006 35.6388 21.8006 37.519C21.8006 38.5445 21.3733 39.3991 20.6896 39.9973ZM18.5531 35.3825C17.3567 35.3825 16.5021 36.2371 16.5021 37.6044C16.5021 38.8863 17.3567 39.8264 18.5531 39.8264C19.7496 39.8264 20.6042 38.9718 20.6042 37.6044C20.6896 36.2371 19.7496 35.3825 18.5531 35.3825Z" fill="white"></path><path d="M25.6459 38.7997V36.1504H26.6714V38.7142C26.6714 39.9106 26.1586 40.7652 24.7058 40.7652C23.253 40.7652 22.7402 39.9106 22.7402 38.7142V36.1504H23.7658V38.7997C23.7658 39.4833 24.1076 39.8252 24.7058 39.8252C25.3895 39.8252 25.6459 39.4833 25.6459 38.7997Z" fill="white"></path><path d="M32.1407 36.1514V40.6808H31.2007V39.9971C30.9443 40.4244 30.3461 40.7662 29.6624 40.7662C28.295 40.7662 27.6113 39.7407 27.6113 38.3734C27.6113 37.0915 28.3805 35.9805 29.6624 35.9805C30.3461 35.9805 30.8588 36.2368 31.2007 36.7496V36.0659H32.1407V36.1514ZM29.9188 39.8262C30.6879 39.8262 31.2007 39.228 31.2007 38.3734C31.2007 37.6042 30.6879 36.9205 29.9188 36.9205C29.1496 36.9205 28.6369 37.5188 28.6369 38.3734C28.6369 39.228 29.1496 39.8262 29.9188 39.8262Z" fill="white"></path><path d="M33.4238 40.5946V34.0996H34.4494V40.5946H33.4238Z" fill="white"></path><path d="M35.5605 34.6974C35.5605 34.3555 35.8169 34.0137 36.2442 34.0137C36.5861 34.0137 36.9279 34.2701 36.9279 34.6974C36.9279 35.0392 36.6715 35.2956 36.2442 35.2956C35.8169 35.381 35.5605 35.1247 35.5605 34.6974ZM35.7315 36.1502H36.757V40.6796H35.7315V36.1502Z" fill="white"></path><path d="M38.2091 35.6374C38.2091 34.6119 38.8073 34.0991 39.6619 34.0991C39.8328 34.0991 40.0037 34.0991 40.0037 34.0991V35.0392C40.0037 35.0392 39.9183 35.0392 39.8328 35.0392C39.4055 35.0392 39.2346 35.2101 39.2346 35.7229V36.1502H40.0037V37.0048H39.2346V40.6796H38.2091V37.0048H37.5254V36.1502H38.2091V35.6374ZM40.6874 34.6974C40.6874 34.3555 40.9438 34.0137 41.3711 34.0137C41.7129 34.0137 42.0548 34.2701 42.0548 34.6974C42.0548 35.0392 41.7984 35.2956 41.3711 35.2956C40.9438 35.381 40.6874 35.1247 40.6874 34.6974ZM40.7729 36.1502H41.7984V40.6796H40.7729V36.1502Z" fill="white"></path><path d="M43.9357 38.7152C44.0211 39.3989 44.4484 39.9116 45.2176 39.9116C45.7303 39.9116 46.0722 39.6553 46.2431 39.228H47.2686C47.0122 40.0826 46.2431 40.7662 45.1321 40.7662C43.7648 40.7662 42.9102 39.7407 42.9102 38.3734C42.9102 37.0915 43.8502 35.9805 45.1321 35.9805C46.4995 35.9805 47.3541 37.006 47.3541 38.2879C47.3541 38.4588 47.3541 38.6297 47.3541 38.6297H43.9357V38.7152ZM43.9357 37.9461H46.3286C46.2431 37.3478 45.8158 36.9205 45.1321 36.9205C44.4484 36.8351 44.0211 37.2624 43.9357 37.9461Z" fill="white"></path><path d="M51.541 34.0996H52.5665V40.5946H51.6264V39.9964C51.3701 40.4237 50.7718 40.7655 50.0882 40.7655C48.7208 40.7655 48.0371 39.74 48.0371 38.3726C48.0371 37.0907 48.8063 35.9797 50.0882 35.9797C50.7718 35.9797 51.2846 36.3216 51.541 36.6634V34.0996ZM50.3445 36.9198C49.5754 36.9198 49.0626 37.518 49.0626 38.3726C49.0626 39.1418 49.5754 39.8254 50.3445 39.8254C51.1137 39.8254 51.6264 39.2272 51.6264 38.3726C51.541 37.518 51.1137 36.9198 50.3445 36.9198Z" fill="white"></path><path d="M6.76036 40.2512C6.58944 40.2512 6.41852 40.1657 6.2476 40.0803L3.25649 37.431C2.91465 37.1746 2.91465 36.6618 3.17103 36.32C3.42741 35.9782 3.94018 35.9782 4.28202 36.2345L6.58944 38.2856L10.8625 32.4743C11.1188 32.1324 11.6316 32.047 11.9734 32.3034C12.3153 32.5597 12.4007 33.0725 12.1444 33.4144L7.35859 39.9948C7.27313 40.1657 7.01674 40.2512 6.76036 40.2512Z" fill="white"></path></svg> 