<svg xmlns="http://www.w3.org/2000/svg" width="20" height="28" viewBox="0 0 20 28" fill="none">
    <path d="M2.75 0C1.2375 0 0 1.2375 0 2.75V23.375C0 24.1043 0.289731 24.8038 0.805456 25.3195C1.32118 25.8353 2.02065 26.125 2.75 26.125V27.5H5.5V26.125H13.75V27.5H16.5V26.125C18.0263 26.125 19.25 24.9013 19.25 23.375V2.75C19.25 2.02065 18.9603 1.32118 18.4445 0.805456C17.9288 0.289731 17.2293 0 16.5 0H2.75ZM2.75 2.75H16.5V6.875H2.75V2.75ZM2.75 9.625H16.5V13.75H2.75V9.625ZM2.75 16.5H8.25V23.375H2.75V16.5ZM11 16.5H16.5V23.375H11V16.5ZM4.125 17.875V22H6.875V17.875H4.125ZM12.375 17.875V22H15.125V17.875H12.375Z" fill="#80A1C9"/>
</svg>