<svg xmlns="http://www.w3.org/2000/svg" width="44" height="36" viewBox="0 0 44 36" fill="none">
    <path fill-rule="evenodd" clip-rule="evenodd" d="M29.6565 2.51612C27.3756 4.79686 27.3836 4.78365 27.9238 5.38152L28.2072 5.69532L27.4046 5.97781C25.2382 6.7403 22.9745 7.9926 22.0798 8.92345C21.9223 9.08733 21.7541 9.22097 21.7061 9.22064C21.6579 9.22022 21.3109 8.99953 20.9349 8.73017C19.8893 7.98113 17.8203 6.97353 16.3207 6.48306L15.7573 6.29884L16.0507 5.97407C16.5978 5.36856 16.6042 5.37944 14.413 3.17553C13.3509 2.10721 12.396 1.19928 12.291 1.15784C12.1615 1.10667 12.0148 1.11954 11.8342 1.1977C11.6835 1.26291 9.86693 3.01963 7.64366 5.25004C3.59299 9.31375 3.59814 9.30777 3.77065 9.75745C3.84615 9.95422 4.27773 10.1527 4.49153 10.0891C4.59203 10.0591 6.33804 8.37534 8.37151 6.34726L12.0688 2.65981L13.4376 4.03055L14.8063 5.40121L9.90671 10.3014L5.00708 15.2015L3.64091 13.8355L2.27474 12.4693L2.71122 12.0078C3.09604 11.6009 3.14463 11.5105 3.12187 11.2435C3.08848 10.8502 2.7633 10.5849 2.4181 10.6692C2.2784 10.7033 1.8866 11.0256 1.45569 11.4609C0.396256 12.5311 0.320754 12.3245 2.61853 14.643C3.65786 15.6916 4.61869 16.5975 4.75375 16.6561C5.04853 16.7839 5.31715 16.7029 5.64939 16.386C5.77447 16.2666 5.88968 16.1849 5.90538 16.2044C5.92108 16.2239 6.021 16.4828 6.1274 16.7798C6.76845 18.5681 7.6062 20.2655 8.37774 21.3396L8.87876 22.0372L8.62825 22.5072C7.68319 24.2803 8.75151 26.3824 10.6869 26.5579L11.1736 26.602L11.2692 27.1811C11.3738 27.8139 11.5061 28.1227 11.8729 28.5896C12.2949 29.1266 13.1998 29.571 13.8712 29.571C14.1614 29.571 14.1614 29.571 14.2079 30.0216C14.3436 31.3366 15.3687 32.3783 16.6723 32.5258L17.1535 32.5802L17.1997 33.0278C17.2993 33.9927 17.9365 34.8785 18.823 35.2844C19.6452 35.6608 20.922 35.5291 21.4972 35.0084C21.6158 34.9011 21.6991 34.9221 22.2272 35.1931C22.7628 35.4679 22.8884 35.4988 23.4674 35.4988C23.9837 35.4988 24.2046 35.4563 24.5801 35.2844C25.4677 34.878 26.0842 34.0242 26.1947 33.0484L26.2476 32.5804L26.7156 32.5275C27.5891 32.4287 28.4853 31.8439 28.8533 31.1328C29.0256 30.7995 29.2162 30.1076 29.2175 29.8097C29.2184 29.6067 29.2487 29.589 29.6546 29.5554C30.5413 29.4818 31.4805 28.8516 31.8854 28.0586C31.9959 27.8421 32.0829 27.4862 32.1069 27.1521L32.1464 26.6019L32.667 26.5602C33.6595 26.4804 34.6049 25.7768 34.9506 24.8606C35.2239 24.1357 35.1612 23.2089 34.7948 22.5597L34.5258 22.0829L35.0007 21.5286C36.0031 20.359 37.0816 18.3878 37.7355 16.5306C37.9043 16.0509 38.0555 15.6442 38.0714 15.6266C38.0873 15.6091 38.2337 15.7119 38.3967 15.8551C38.6122 16.0443 38.7753 16.1153 38.9941 16.1153C39.2751 16.1153 39.4181 15.9931 41.1575 14.2672C43.0156 12.4237 43.2556 12.1392 43.2556 11.781C43.2556 11.6411 41.8378 10.1718 37.836 6.16469C34.8552 3.18001 32.3154 0.684393 32.192 0.619025C32.0686 0.553574 31.9013 0.5 31.8201 0.5C31.7381 0.5 30.7764 1.39613 29.6565 2.51612ZM36.8182 6.97835L41.7178 11.8786L40.3485 13.2497L38.9792 14.6209L34.0577 9.69981L29.1361 4.77875L30.4846 3.42845C31.2262 2.68581 31.8522 2.07814 31.8758 2.07814C31.8993 2.07814 34.1234 4.28322 36.8182 6.97835ZM33.1575 10.6269L37.0541 14.5243L36.8618 15.1745C36.2512 17.2374 35.036 19.6014 33.9945 20.752L33.5943 21.1942L30.472 18.0809L27.3496 14.9676L26.6852 14.8166C25.7029 14.5935 24.147 14.6098 23.2971 14.8523C22.4009 15.1078 21.6262 15.517 20.8733 16.1322C19.9973 16.848 19.9644 16.8692 19.6075 16.9507C18.9777 17.0944 18.2955 16.7562 18.0051 16.1563C17.7995 15.7314 17.7968 15.3426 17.9968 14.9109C18.2222 14.4248 23.0821 9.63095 23.9185 9.06997C24.6399 8.58606 25.6946 8.02765 26.6329 7.63286C27.3045 7.35029 29.0368 6.73723 29.1773 6.73241C29.2231 6.73083 31.0143 8.48331 33.1575 10.6269ZM16.1758 7.77988C16.7481 7.9852 17.6815 8.37625 18.25 8.64885C19.2154 9.11175 20.5889 9.94725 20.7122 10.1468C20.7421 10.1952 19.9069 11.1 18.8563 12.1576C17.1292 13.8959 16.9291 14.1264 16.7697 14.5611C16.2734 15.914 16.8434 17.3154 18.152 17.9596C18.6344 18.1972 18.7855 18.2313 19.3329 18.2268C20.1271 18.2201 20.6411 17.9913 21.4524 17.2831C22.1066 16.7121 22.9354 16.268 23.7365 16.0595C24.3893 15.8894 25.6701 15.872 26.3114 16.0243C26.7626 16.1316 26.8103 16.1747 30.1586 19.5088C32.0232 21.3655 33.6211 23.0234 33.7094 23.1928C34.3176 24.3606 33.1313 25.7093 31.9026 25.247C31.774 25.1986 31.1054 24.6005 30.4168 23.918C29.2643 22.7755 29.1409 22.677 28.8627 22.677C28.4926 22.677 28.2218 22.9346 28.2218 23.2867C28.2218 23.4927 28.4302 23.7438 29.5016 24.8289C30.8822 26.227 30.955 26.3491 30.8544 27.0981C30.744 27.9217 29.8417 28.4867 29.0236 28.2445C28.7522 28.1641 28.4218 27.8882 27.4742 26.9507C26.8118 26.2953 26.1766 25.7248 26.0626 25.6831C25.6079 25.5161 25.1337 25.9658 25.2756 26.4293C25.3082 26.5355 25.8678 27.1643 26.5192 27.8267C27.1707 28.4891 27.7455 29.1128 27.7966 29.2125C27.9283 29.4698 27.9118 30.2007 27.7679 30.4789C27.4899 31.0167 26.7669 31.3771 26.1851 31.2679C26.0258 31.238 25.7377 31.0994 25.5451 30.9599C25.1348 30.6627 24.7943 30.6358 24.5487 30.8815C24.3108 31.1193 24.326 31.492 24.5876 31.8349C25.0495 32.4405 25.053 33.1808 24.5966 33.7232C24.3085 34.0656 23.9562 34.2366 23.5253 34.243C23.2019 34.2479 22.6568 34.0933 22.6568 33.9966C22.6568 33.9749 22.8102 33.7832 22.9976 33.5706C23.1851 33.358 23.4371 32.9972 23.5575 32.7688C23.7472 32.4092 23.7766 32.2533 23.7766 31.606C23.7766 30.9496 23.7484 30.8049 23.5461 30.4195C23.0783 29.5288 22.317 29.0102 21.3575 28.9286L20.8475 28.8853L20.8147 28.3768C20.7331 27.1059 19.6612 26.0399 18.36 25.9354L17.8393 25.8936V25.4928C17.8393 24.2382 16.6946 23.0519 15.3789 22.9427L14.9534 22.9074L14.8578 22.3282C14.7414 21.6237 14.5343 21.1994 14.0896 20.7547C13.5525 20.2175 12.9472 19.9766 12.1497 19.9825C11.328 19.9886 10.795 20.2012 10.2761 20.7299C10.0769 20.9328 9.87506 21.0981 9.82747 21.0971C9.66202 21.0937 8.92021 19.9497 8.35664 18.8288C7.97972 18.0792 7.3174 16.4145 7.08475 15.6321L6.92876 15.1074L10.8266 11.2065C14.3028 7.7278 14.7468 7.31117 14.9299 7.35611C15.0429 7.38377 15.6035 7.57447 16.1758 7.77988ZM12.6703 21.3105C13.0338 21.4624 13.325 21.7188 13.4865 22.0292C13.6243 22.294 13.6391 22.9023 13.5159 23.2323C13.3912 23.5663 11.9631 24.9913 11.5682 25.176C10.9962 25.4434 10.4522 25.3597 10.0035 24.9351C9.66617 24.616 9.53327 24.3184 9.53327 23.8822C9.53327 23.3399 9.74906 22.9878 10.5927 22.153C11.5421 21.2136 11.997 21.0292 12.6703 21.3105ZM16.0066 24.4874C16.5803 24.9455 16.7553 25.6914 16.4349 26.3142C16.1962 26.7784 14.7881 28.1145 14.4068 28.2386C13.7452 28.454 12.974 28.1249 12.6438 27.4863C12.4896 27.1883 12.4887 26.472 12.6421 26.1822C12.8242 25.838 14.2723 24.4449 14.5999 24.2986C15.0261 24.1084 15.634 24.19 16.0066 24.4874ZM18.6437 27.2506C19.1809 27.4536 19.5835 28.0439 19.5835 28.6284C19.5835 29.1359 19.29 29.5974 18.467 30.3842C17.5809 31.2314 17.2071 31.3975 16.5718 31.2264C15.8985 31.0451 15.3375 30.2071 15.4795 29.5948C15.5091 29.4675 15.6192 29.2124 15.7243 29.0278C15.9621 28.6103 17.1778 27.4384 17.5337 27.2836C17.853 27.1447 18.3263 27.1307 18.6437 27.2506ZM21.6897 30.2667C22.0202 30.4048 22.4641 30.9224 22.5371 31.2547C22.5664 31.3879 22.5647 31.667 22.5335 31.8752C22.4828 32.2132 22.3866 32.3462 21.6323 33.1218C20.6803 34.1007 20.4644 34.2416 19.9158 34.2416C19.2893 34.2416 18.8065 33.9052 18.5493 33.2894C18.2679 32.6162 18.4251 32.2225 19.3617 31.2544C19.7803 30.8217 20.2537 30.3984 20.4138 30.3137C20.7618 30.1297 21.313 30.1093 21.6897 30.2667Z" fill="#fff"/>
</svg>