<svg xmlns="http://www.w3.org/2000/svg" width="146" height="48" viewBox="0 0 146 48" fill="none"><g clip-path="url(#clip0_802_19969)"><path d="M91.582 31.003H94.2911V38.1408C94.6481 37.5429 95.1762 37.0649 95.8075 36.7682C96.5167 36.4444 97.2903 36.2851 98.0702 36.3025C98.8 36.2795 99.5259 36.4179 100.196 36.7078C100.734 36.9518 101.201 37.33 101.55 37.8059C101.833 38.225 102.032 38.6954 102.133 39.1904C102.252 39.82 102.306 40.4599 102.295 41.1003V47.7129H99.5857V41.9597C99.5885 41.5111 99.5467 41.0633 99.4609 40.6229C99.3925 40.2462 99.2535 39.8858 99.0513 39.5604C98.8584 39.2641 98.5932 39.0216 98.2805 38.8557C97.9068 38.6692 97.4922 38.5789 97.0746 38.5932C96.1305 38.5932 95.4305 38.9154 94.9746 39.5599C94.5186 40.2043 94.2907 41.004 94.2908 41.9591V47.7124H91.582V31.003Z" fill="black"></path><path d="M74.6787 36.589V38.093C74.3154 37.5244 73.7987 37.0693 73.1877 36.78C72.5857 36.4719 71.9198 36.3084 71.2432 36.3025C70.4477 36.2929 69.6593 36.4516 68.9299 36.768C68.2476 37.0657 67.6343 37.5005 67.1283 38.0453C66.6244 38.5914 66.2282 39.2273 65.9602 39.9195C65.4039 41.3599 65.4039 42.9549 65.9602 44.3953C66.2299 45.083 66.6261 45.7145 67.1283 46.2572C67.6341 46.8022 68.2475 47.2371 68.9299 47.5345C69.6592 47.8512 70.4477 48.0098 71.2432 47.9999C71.9198 47.994 72.5858 47.8306 73.1877 47.5224C73.7988 47.2335 74.3156 46.7784 74.6787 46.2096V47.7136H77.2773V36.589H74.6787ZM71.4108 45.3997C70.7661 45.3997 70.1358 45.2092 69.5997 44.8523C69.0637 44.4953 68.646 43.988 68.3993 43.3944C68.1526 42.8008 68.0881 42.1476 68.2139 41.5174C68.3396 40.8873 68.6501 40.3085 69.106 39.8542C69.5619 39.3999 70.1427 39.0904 70.775 38.9651C71.4073 38.8398 72.0626 38.9042 72.6582 39.1501C73.2538 39.396 73.763 39.8123 74.1211 40.3466C74.4793 40.8808 74.6703 41.5089 74.6703 42.1514C74.6703 42.578 74.586 43.0004 74.4222 43.3945C74.2584 43.7887 74.0183 44.1468 73.7156 44.4484C73.4129 44.75 73.0535 44.9893 72.6581 45.1525C72.2626 45.3157 71.8388 45.3998 71.4108 45.3997Z" fill="black"></path><path d="M63.9345 39.9194C63.6639 39.223 63.2589 38.5862 62.7423 38.0452C62.2159 37.4976 61.5827 37.063 60.8817 36.768C60.1153 36.4494 59.2915 36.291 58.4612 36.3025C57.6344 36.2901 56.8138 36.4486 56.0514 36.768C55.3577 37.0634 54.7326 37.4982 54.215 38.0452C53.7044 38.5886 53.3036 39.225 53.0344 39.9194C52.4781 41.3599 52.4781 42.9548 53.0344 44.3953C53.3054 45.0852 53.7061 45.7172 54.215 46.2572C54.7324 46.8044 55.3576 47.2393 56.0514 47.5344C56.8137 47.8541 57.6343 48.0125 58.4612 47.9998C59.2915 48.0116 60.1153 47.8533 60.8817 47.5344C61.5828 47.2397 62.216 46.805 62.7423 46.2572C63.2572 45.7196 63.6621 45.0871 63.9345 44.3953C64.491 42.9549 64.491 41.3599 63.9345 39.9194ZM58.4767 45.3997C57.8321 45.3997 57.2018 45.2091 56.6658 44.8522C56.1298 44.4952 55.712 43.9877 55.4654 43.3941C55.2187 42.8006 55.1542 42.1474 55.28 41.5173C55.4058 40.8872 55.7162 40.3083 56.1721 39.854C56.628 39.3998 57.2088 39.0904 57.8411 38.9651C58.4734 38.8398 59.1288 38.9041 59.7243 39.15C60.3199 39.3959 60.8291 39.8123 61.1872 40.3465C61.5454 40.8808 61.7364 41.5089 61.7364 42.1514C61.7364 43.0129 61.3931 43.839 60.7819 44.4482C60.1707 45.0574 59.3417 45.3996 58.4773 45.3997H58.4767Z" fill="black"></path><path d="M48.8908 43.1596C48.65 43.8945 48.1542 44.5197 47.4924 44.9229C46.8305 45.3261 46.0461 45.4808 45.2801 45.3593C44.514 45.2378 43.8165 44.848 43.313 44.26C42.8094 43.6719 42.5328 42.9243 42.5328 42.1512C42.5328 41.3781 42.8094 40.6304 43.313 40.0423C43.8165 39.4543 44.514 39.0646 45.2801 38.9431C46.0461 38.8216 46.8305 38.9763 47.4924 39.3795C48.1542 39.7827 48.65 40.4079 48.8908 41.1428H51.5825C51.5159 40.7244 51.4047 40.3143 51.2511 39.9194C50.9804 39.223 50.5753 38.5862 50.0587 38.0452C49.5323 37.4977 48.8992 37.063 48.1982 36.768C47.4318 36.4494 46.608 36.291 45.7776 36.3025C44.9508 36.2901 44.1302 36.4486 43.3679 36.768C42.6741 37.0634 42.049 37.4982 41.5314 38.0452C41.0209 38.5887 40.6201 39.225 40.351 39.9194C39.7945 41.3598 39.7945 42.9549 40.351 44.3953C40.6219 45.0851 41.0225 45.7171 41.5314 46.2572C42.0488 46.8044 42.674 47.2393 43.3679 47.5344C44.1301 47.854 44.9507 48.0125 45.7776 47.9998C46.608 48.0116 47.4319 47.8533 48.1982 47.5344C48.8993 47.2396 49.5325 46.8049 50.0587 46.2572C50.5736 45.7195 50.9786 45.0871 51.2511 44.3953C51.4073 43.9968 51.5192 43.5825 51.5847 43.1596H48.8908Z" fill="black"></path><path d="M87.3266 43.1596C87.0858 43.8945 86.5897 44.5197 85.9279 44.9229C85.2661 45.3261 84.4817 45.4808 83.7156 45.3593C82.9496 45.2378 82.2522 44.848 81.7487 44.26C81.2451 43.6719 80.9684 42.9243 80.9684 42.1512C80.9684 41.3781 81.2451 40.6304 81.7487 40.0423C82.2522 39.4543 82.9496 39.0646 83.7156 38.9431C84.4817 38.8216 85.2661 38.9763 85.9279 39.3795C86.5897 39.7827 87.0858 40.4079 87.3266 41.1428H90.0181C89.9514 40.7244 89.8403 40.3143 89.6864 39.9194C89.4159 39.223 89.0108 38.5862 88.4942 38.0452C87.9678 37.4976 87.3346 37.063 86.6336 36.768C85.8672 36.4494 85.0435 36.291 84.2132 36.3025C83.3863 36.2901 82.5659 36.4486 81.8036 36.768C81.1098 37.0634 80.4845 37.4982 79.967 38.0452C79.4563 38.5886 79.0556 39.2249 78.7865 39.9194C78.23 41.3598 78.23 42.9549 78.7865 44.3953C79.0574 45.0852 79.458 45.7172 79.967 46.2572C80.4843 46.8044 81.1097 47.2393 81.8036 47.5344C82.5658 47.854 83.3863 48.0125 84.2132 47.9998C85.0435 48.0116 85.8673 47.8533 86.6336 47.5344C87.3348 47.2397 87.968 46.805 88.4942 46.2572C89.0091 45.7196 89.4141 45.0871 89.6864 44.3953C89.8428 43.9968 89.9547 43.5825 90.0203 43.1596H87.3266Z" fill="black"></path><path d="M90.3099 6.91145C90.9947 6.91145 91.6642 6.70908 92.2336 6.32993C92.8029 5.95079 93.2467 5.41185 93.5088 4.78135C93.7709 4.15085 93.8393 3.4571 93.7058 2.78776C93.5722 2.11842 93.2426 1.5036 92.7584 1.02102C92.2742 0.538443 91.6572 0.209734 90.9856 0.0765736C90.314 -0.0565872 89.6178 0.0117399 88.9852 0.272878C88.3525 0.534017 87.8118 0.976277 87.4313 1.5437C87.0509 2.11112 86.8477 2.77818 86.8477 3.46063C86.8476 3.91378 86.9373 4.36251 87.1113 4.78118C87.2853 5.19984 87.5402 5.58025 87.8617 5.90068C88.1832 6.22111 88.5649 6.47532 88.985 6.64874C89.4051 6.82215 89.8553 6.91145 90.3099 6.91145Z" fill="black"></path><path d="M59.196 8.6894V13.3705C57.7263 10.3204 55.0691 8.28346 52.0348 8.28346C48.264 8.28346 45.0761 11.4294 44.0256 15.7558C42.6165 11.4064 38.3126 8.28329 33.1662 8.28329C33.1446 8.28329 33.1236 8.28492 33.102 8.28492C32.8292 8.28774 32.5659 8.30248 32.3029 8.31692C27.6546 8.64179 23.7864 11.5649 22.3514 15.5359C22.0224 12.4352 20.5605 8.26307 15.5368 8.26307C9.61078 8.26307 8.2262 13.3705 8.2262 13.3705V0.508179H0.273438V28.9291H8.18028V19.5104C8.17989 19.2071 8.19541 18.9041 8.22689 18.6024V18.4476C8.2266 17.6902 8.50425 16.9588 9.00753 16.3912C9.3915 15.9078 9.93153 15.5717 10.5358 15.4399C10.8033 15.3663 11.0794 15.3286 11.3569 15.3277C11.38 15.3277 11.4028 15.3307 11.4257 15.3312C11.4542 15.3312 11.4807 15.3277 11.5095 15.3277C13.363 15.3277 14.2234 16.3216 14.4575 18.0432C14.4624 18.0811 14.4685 18.1183 14.4722 18.1565C14.5101 18.4844 14.5288 18.8142 14.5281 19.1443V28.9286H22.4343V22.5765C23.7875 26.0658 27.0325 28.7073 31.0151 29.4171C31.8157 29.5345 32.6238 29.5934 33.4331 29.5933C33.6433 29.5933 33.8433 29.581 34.048 29.5741C39.2952 29.5741 43.5449 26.2165 44.1892 22.5669C45.3789 26.5793 48.4425 29.4364 52.0356 29.4364C55.07 29.4364 57.7277 27.3994 59.1969 24.3491V28.868H67.1488V8.6894H59.196ZM33.2296 13.2676C35.1341 13.2676 36.678 14.6302 36.678 16.8047H29.7811C29.7811 14.691 31.325 13.2676 33.2292 13.2676H33.2296ZM36.4743 22.3262C36.1914 22.9216 35.7462 23.4257 35.1896 23.7811C34.6331 24.1365 33.9875 24.3288 33.3266 24.3362C30.8413 24.3362 29.7811 22.6726 29.7811 20.6207H36.8723H43.7761C43.8522 21.1962 43.9674 21.7659 44.1209 22.3259L36.4743 22.3262ZM55.7337 22.2297C55.0489 22.2297 54.3795 22.0274 53.8101 21.6483C53.2407 21.2691 52.7968 20.7301 52.5347 20.0996C52.2726 19.469 52.204 18.7752 52.3376 18.1058C52.4712 17.4364 52.8009 16.8216 53.2852 16.339C53.7694 15.8564 54.3864 15.5277 55.0581 15.3946C55.7297 15.2614 56.4258 15.3297 57.0585 15.5909C57.6912 15.852 58.2321 16.2943 58.6125 16.8618C58.993 17.4292 59.196 18.0965 59.196 18.779C59.1961 19.2321 59.1066 19.6808 58.9326 20.0995C58.7586 20.5182 58.5035 20.8986 58.182 21.219C57.8605 21.5394 57.4789 21.7936 57.0589 21.9671C56.6388 22.1405 56.1884 22.2297 55.7337 22.2297Z" fill="black"></path><path d="M94.2854 8.75012H86.334V28.9291H94.2854V8.75012Z" fill="black"></path><path d="M76.6588 13.2077V8.75054H68.707V28.9294H76.6584V21.3157C76.6549 21.0597 76.6667 20.8037 76.6938 20.5491C76.7948 19.5537 77.1568 18.6024 77.7434 17.7905C78.33 16.9787 79.1207 16.3349 80.0359 15.9238C81.5245 15.2448 83.2134 15.1426 84.7735 15.6372V8.79028C84.0782 8.46041 83.3185 8.28731 82.5484 8.28326C79.8828 8.28291 77.6043 10.3208 76.6588 13.2077Z" fill="black"></path><path d="M141.01 1.88599H142.514C143.143 1.88599 143.577 2.24401 143.577 2.72144C143.577 3.16188 143.307 3.41503 142.896 3.4966C143.307 3.53395 143.479 3.72034 143.562 4.19777L143.674 4.92871H142.742L142.675 4.2499C142.638 3.88434 142.548 3.73531 142.256 3.73531H141.868V4.92871H141.01V1.88599ZM142.178 3.17298C142.479 3.17298 142.644 3.05495 142.644 2.80919C142.644 2.58174 142.488 2.46372 142.178 2.46372H141.868V3.17298H142.178Z" fill="black"></path><path d="M142.256 4.48389e-09C141.569 3.48483e-05 140.898 0.203111 140.326 0.583408C139.755 0.963706 139.31 1.50418 139.047 2.13655C138.785 2.76893 138.716 3.46476 138.85 4.13608C138.984 4.80739 139.315 5.42408 139.8 5.90806C140.286 6.39205 140.905 6.72157 141.578 6.85509C142.252 6.98861 142.95 6.92013 143.585 6.65819C144.219 6.39624 144.761 5.95261 145.143 5.3835C145.525 4.81438 145.728 4.14527 145.728 3.46079C145.728 3.0063 145.638 2.55628 145.464 2.13638C145.289 1.71649 145.034 1.33498 144.711 1.01361C144.389 0.692244 144.006 0.437313 143.585 0.263403C143.163 0.0894922 142.712 -2.31319e-05 142.256 4.48389e-09ZM142.256 6.17551C141.717 6.17551 141.19 6.01627 140.742 5.71795C140.294 5.41963 139.945 4.99561 139.739 4.49952C139.533 4.00344 139.479 3.45761 139.584 2.93098C139.689 2.40434 139.948 1.9206 140.329 1.54093C140.71 1.16126 141.196 0.902684 141.724 0.79795C142.253 0.693216 142.8 0.747025 143.298 0.952533C143.796 1.15804 144.221 1.50599 144.521 1.95247C144.82 2.39895 144.98 2.92384 144.98 3.46079C144.98 3.81731 144.909 4.17032 144.772 4.49969C144.636 4.82907 144.435 5.1284 144.182 5.38048C143.929 5.63257 143.629 5.83247 143.298 5.96888C142.968 6.1053 142.613 6.17553 142.256 6.17551Z" fill="black"></path><path d="M103.741 19.4384C103.741 19.1352 103.756 18.8322 103.788 18.5307V18.3758C103.787 17.6187 104.065 16.8875 104.568 16.3202C104.952 15.8368 105.492 15.5007 106.096 15.3689C106.363 15.2953 106.639 15.2576 106.917 15.2568C106.94 15.2568 106.962 15.2596 106.985 15.2603C107.014 15.2603 107.04 15.2568 107.069 15.2568C108.922 15.2568 109.782 16.2505 110.016 17.9715C110.021 18.0092 110.027 18.0466 110.031 18.0846C110.069 18.4124 110.088 18.7421 110.087 19.0721V28.8535H117.99V17.0013C117.99 13.9981 117.02 8.19379 111.096 8.19379C105.172 8.19379 103.788 13.2997 103.788 13.2997V8.74941H95.8379V28.8535H103.741L103.741 19.4384Z" fill="black"></path><path d="M140.946 8.70889H132.996V13.3952C131.527 10.3414 128.87 8.30157 125.837 8.30157C121.212 8.30157 117.463 13.0429 117.463 18.8914C117.463 24.5905 121.023 29.2358 125.485 29.4696H126.205C129.084 29.3121 131.587 27.3171 132.996 24.3875V31.0487C132.995 31.0571 132.994 31.0654 132.993 31.0737C132.98 31.9845 132.606 32.8532 131.953 33.4901C131.299 34.127 130.42 34.4803 129.506 34.473C128.592 34.4656 127.718 34.0982 127.075 33.4508C126.432 32.8035 126.072 31.9289 126.074 31.018H118.029C118.031 31.0607 118.037 31.1024 118.04 31.1448L118.029 31.1403C118.029 35.0803 121.731 38.3867 126.73 39.3025C127.509 39.4721 128.303 39.5596 129.1 39.5636C129.239 39.5636 129.379 39.5602 129.52 39.555H129.535C135.868 39.555 141.039 35.8746 141.039 29.9948L140.946 8.70889ZM129.535 22.2656C128.849 22.2667 128.178 22.065 127.607 21.686C127.037 21.307 126.591 20.7678 126.328 20.1365C126.065 19.5053 125.996 18.8104 126.129 18.1399C126.262 17.4693 126.592 16.8532 127.076 16.3695C127.561 15.8858 128.179 15.5561 128.851 15.4224C129.524 15.2887 130.221 15.3568 130.855 15.6182C131.489 15.8795 132.031 16.3224 132.412 16.8907C132.793 17.459 132.996 18.1273 132.996 18.8108C132.997 19.7263 132.632 20.6044 131.983 21.2523C131.334 21.9001 130.454 22.2646 129.535 22.2656Z" fill="black"></path></g><defs><clipPath id="clip0_802_19969"><rect width="145.455" height="48" fill="white" transform="translate(0.273438)"></rect></clipPath></defs></svg>