<svg version="1.1" class="face" xmlns="http://www.w3.org/2000/svg" xmlns:xlink="http://www.w3.org/1999/xlink" x="0px" y="0px" width="40.424px" height="42.694px" viewBox="0 0 40.424 42.694" enable-background="new 0 0 40.424 42.694" xml:space="preserve">
			<path fill="#FFFFFF" d="M14.446,42.694c0,0-1.04-2.17-0.94-3.301c0,0,0.31-2.279-2.51-1.66c0,0-9.08,0.83-7.51-4.029
				c0,0-0.11-2.07-0.52-2.58c0,0-1.26-1.24,0-1.86c0,0-1.47-1.04,0-1.86c0,0,0.52-1.859-0.84-2.279c0,0-4.17-1.439-0.83-4.75
				c0,0,2.29-3.82,2.82-4.131c0,0,0.73-1.039,0.2-2.379c0,0-1.77-0.831,2.61-7.65c4.39-6.82,18.061-8.58,26.83-2.48
				s7.619,15.919,3.76,18.81c0,0-3.13,7.13-3.13,8.891c0,0-0.31,10.439-0.11,11.26H14.446z"></path>
		</svg>