<?xml version="1.0" encoding="UTF-8"?> <svg xmlns="http://www.w3.org/2000/svg" width="80" height="42" viewBox="0 0 80 42" fill="none"><path d="M5.55222 41.6347C8.48271 41.6347 10.8583 39.2591 10.8583 36.3286C10.8583 33.3981 8.48271 31.0225 5.55222 31.0225C2.62173 31.0225 0.246094 33.3981 0.246094 36.3286C0.246094 39.2591 2.62173 41.6347 5.55222 41.6347Z" fill="#7C7C7C"></path><path d="M6.28673 38.6938C6.12347 38.6938 5.9602 38.6122 5.79694 38.5305L2.93979 35.9183C2.61326 35.6734 2.61326 35.1836 2.85816 34.8571C3.10306 34.5305 3.59285 34.5305 3.91938 34.7754L6.12347 36.7346L10.2051 31.1836C10.45 30.8571 10.9398 30.7754 11.2663 31.0203C11.5929 31.2652 11.6745 31.755 11.4296 32.0815L6.85816 38.3673C6.69489 38.5305 6.53163 38.6938 6.28673 38.6938Z" fill="white"></path><path d="M15.837 39.0221H14.8574V33.1445H17.3064C18.6942 33.1445 19.2656 33.9609 19.2656 34.9404C19.2656 35.92 18.6942 36.7364 17.3064 36.7364H15.837V39.0221ZM17.3064 35.7568C17.9595 35.7568 18.286 35.4302 18.286 34.9404C18.286 34.4507 17.9595 34.0425 17.3064 34.0425H15.837V35.7568H17.3064Z" fill="white"></path><path d="M23.8379 34.6945V39.021H22.9399V38.368C22.695 38.8578 22.1236 39.1027 21.4705 39.1027C20.1644 39.1027 19.4297 38.0415 19.4297 36.817C19.4297 35.5925 20.1644 34.5312 21.4705 34.5312C22.1236 34.5312 22.695 34.7761 22.9399 35.2659V34.6129H23.8379V34.6945ZM21.7154 38.2864C22.4501 38.2864 22.9399 37.7149 22.9399 36.8986C22.9399 36.0823 22.4501 35.5108 21.7154 35.5108C20.9807 35.5108 20.4909 36.0823 20.4909 36.8986C20.4909 37.7149 20.8991 38.2864 21.7154 38.2864Z" fill="white"></path><path d="M27.3478 35.5933C27.3478 35.5933 27.2662 35.5933 27.1029 35.5933C26.3682 35.5933 25.9601 35.9198 25.9601 36.8178V39.1035H24.9805V34.7769H25.8784V35.3484C26.0417 35.1035 26.3682 34.6953 27.1846 34.6953C27.2662 34.6953 27.3478 34.6953 27.3478 34.6953V35.5933Z" fill="white"></path><path d="M29.2244 39.0231H28.2449V35.5129H27.5918V34.6966H28.2449V33.5537H29.2244V34.6966H29.9591V35.5129H29.2244V39.0231Z" fill="white"></path><path d="M31.5913 35.2673C31.7546 34.9408 32.2444 34.6143 32.8974 34.6143C33.9587 34.6143 34.5301 35.349 34.5301 36.3285V39.0224H33.5505V36.4102C33.5505 35.8387 33.3056 35.4306 32.6525 35.4306C31.9995 35.4306 31.673 35.8387 31.673 36.4918V39.0224H30.6934V34.6959H31.5913V35.2673Z" fill="white"></path><path d="M36.3272 37.1435C36.4089 37.7966 36.817 38.2864 37.5517 38.2864C38.0415 38.2864 38.3681 38.0415 38.5313 37.6333H39.5109C39.266 38.5312 38.4497 39.1027 37.4701 39.1027C36.164 39.1027 35.3477 38.1231 35.3477 36.817C35.3477 35.5925 36.2456 34.5312 37.4701 34.5312C38.6946 34.5312 39.5926 35.5108 39.5926 36.7353C39.5926 36.8986 39.5926 37.0619 39.5926 37.0619H36.3272V37.1435ZM36.4089 36.4088H38.6946C38.613 35.8374 38.2048 35.4292 37.5517 35.4292C36.8987 35.4292 36.4905 35.8374 36.4089 36.4088Z" fill="white"></path><path d="M42.9396 35.5933C42.9396 35.5933 42.858 35.5933 42.6947 35.5933C41.96 35.5933 41.5519 35.9198 41.5519 36.8178V39.1035H40.5723V34.7769H41.4702V35.3484C41.6335 35.1035 41.96 34.6953 42.7763 34.6953C42.858 34.6953 42.9396 34.6953 42.9396 34.6953V35.5933Z" fill="white"></path><path d="M0.164062 4.4082H2.93957V10.5307H8.81712V4.4082H11.5926V19.5102H8.81712V13.2245H2.93957V19.5102H0.164062V4.4082ZM20.409 14.5307C20.409 15.7551 19.3477 16.8164 18.1232 16.8164C16.8988 16.8164 15.8375 15.7551 15.8375 14.5307V8.00004H13.2253V14.5307C13.2253 17.2245 15.4294 19.4286 18.1232 19.4286C20.8171 19.4286 23.0212 17.2245 23.0212 14.5307V8.00004H20.409V14.5307ZM30.3681 8.16331C29.2253 8.08167 28.0824 8.57147 27.2661 9.38779V4.4082H24.6539V13.6327C24.6539 17.0613 27.1845 19.5102 29.96 19.5102C33.062 19.5102 35.8375 17.0613 35.8375 13.796C35.8375 10.6123 33.3069 8.16331 30.3681 8.16331ZM30.3681 17.0613C28.5722 17.0613 27.1845 15.5919 27.1845 13.796C27.1845 12 28.5722 10.5307 30.3681 10.5307C31.9192 10.5307 33.2253 12 33.2253 13.796C33.2253 15.5919 31.9192 17.0613 30.3681 17.0613ZM40.2457 8.81637C40.2457 7.51024 41.1437 7.10208 42.1232 7.10208C42.9396 7.10208 43.9192 7.67351 44.5722 8.4082L46.2865 6.36739C45.3885 5.22453 43.6743 4.4082 42.2865 4.4082C39.4294 4.4082 37.3885 6.04086 37.3885 8.81637C37.3885 13.9592 43.6743 12.3266 43.6743 15.1837C43.6743 16.0817 42.7763 16.8164 41.7967 16.8164C40.2457 16.8164 39.7559 16.0817 39.0212 15.2653L37.1437 17.2245C38.3681 18.6939 39.8375 19.5102 41.7151 19.5102C44.409 19.5102 46.613 17.796 46.613 15.1837C46.5314 9.55106 40.2457 11.2653 40.2457 8.81637ZM53.4702 8.00004C50.613 8.00004 48.1641 10.449 48.1641 13.8776V23.1837H50.7763V18.1225C51.6743 19.0204 52.5722 19.347 53.8783 19.347C56.8171 19.347 59.3477 16.898 59.3477 13.6327C59.3477 10.449 56.6539 8.00004 53.4702 8.00004ZM53.96 16.9796C52.1641 16.9796 50.7763 15.5102 50.7763 13.7143C50.7763 11.9184 52.1641 10.449 53.96 10.449C55.511 10.449 56.8171 11.9184 56.8171 13.7143C56.8171 15.5102 55.4294 16.9796 53.96 16.9796ZM78.6947 17.1429C77.1437 17.1429 76.7355 16.4898 76.7355 15.4286V10.7755H79.1845V8.48984H76.7355V5.38779L74.0416 6.61229V15.9184C74.0416 18.3674 75.6743 19.5102 77.96 19.5102C78.2865 19.5102 78.6947 19.5102 79.0212 19.4286L79.6743 17.0613L78.6947 17.1429Z" fill="white"></path><path d="M71.7567 10.9396C71.2669 10.0416 70.5322 9.38855 69.6342 8.81712C68.9811 8.40896 68.2465 8.16406 67.5118 8.08243V5.30692C68.2465 4.98039 68.8179 4.24569 68.7362 3.42937C68.7362 2.28651 67.8383 1.38855 66.6138 1.38855C65.4709 1.38855 64.4914 2.28651 64.4914 3.511C64.4914 4.32733 64.9811 5.06202 65.7158 5.38855V8.16406C65.0628 8.2457 64.4913 8.40896 63.8383 8.73549L56.4097 3.10284C56.4914 2.93957 56.4913 2.69467 56.4913 2.44978C56.4913 1.14365 55.4301 0.164062 54.2056 0.164062C52.8995 0.164062 51.9199 1.22529 51.9199 2.44978C51.9199 3.67427 52.9811 4.73549 54.2056 4.73549C54.6138 4.73549 55.022 4.65386 55.4301 4.40896L55.9199 4.81712L62.6138 9.63345C62.2873 9.95998 61.9607 10.2865 61.6342 10.7763C61.0628 11.5926 60.8179 12.5722 60.7363 13.5518V13.7967C60.7363 14.5314 60.8995 15.1845 61.0628 15.8375C61.3077 16.409 61.5526 16.8988 61.9607 17.3069L59.7567 19.511C58.8587 19.1845 57.7975 19.6743 57.4709 20.5722C57.3893 20.7355 57.3893 20.9804 57.3893 21.2253C57.3893 22.2049 58.2056 23.0212 59.1852 23.0212C60.1648 23.0212 60.9811 22.2049 60.9811 21.2253C60.9811 21.062 60.9811 20.8171 60.8995 20.6539L63.1852 18.3681C63.5118 18.613 63.8383 18.7763 64.1648 18.9396C64.8995 19.2661 65.7158 19.4294 66.5322 19.4294H66.6954C67.675 19.4294 68.573 19.1845 69.3893 18.7763C70.2873 18.2865 71.022 17.6334 71.5118 16.7355C72.0832 15.9192 72.3281 14.9396 72.3281 13.8783V13.7967C72.4914 12.7355 72.2465 11.8375 71.7567 10.9396ZM68.9811 15.7559C68.3281 16.409 67.675 16.8988 66.8587 16.8988H66.6954C66.2056 16.8988 65.7975 16.7355 65.3077 16.5722C64.8179 16.3273 64.4097 15.9192 64.0832 15.511C63.7567 15.0212 63.5934 14.5314 63.5934 14.0416V13.8783C63.5934 13.3886 63.675 12.8988 63.9199 12.409C64.1648 11.9192 64.573 11.511 65.0628 11.1845C65.5526 10.8579 66.0424 10.6947 66.6138 10.6947H66.6954C67.1852 10.6947 67.675 10.7763 68.1648 11.0212C68.6546 11.2661 68.9811 11.5926 69.3077 12.0824C69.5526 12.4906 69.7975 12.9804 69.7975 13.5518V13.8783C69.7975 14.5314 69.4709 15.1845 68.9811 15.7559Z" fill="#7C7C7C"></path></svg> 