<svg xmlns="http://www.w3.org/2000/svg" width="30" height="30" viewBox="0 0 30 30" fill="none">
  <mask id="path-1-outside-1_479_62377" maskUnits="userSpaceOnUse" x="0" y="0" width="30" height="30" fill="black">
    <rect fill="white" width="30" height="30"/>
    <path fill-rule="evenodd" clip-rule="evenodd" d="M3.26565 1.07488C2.22494 1.32721 1.33588 2.21502 1.09347 3.24412C0.968926 3.77264 0.968817 20.3735 1.0933 20.902C1.3157 21.8459 2.03288 22.655 2.95222 22.9989C3.24515 23.1086 3.39839 23.1228 4.46721 23.1395L5.65631 23.158V25.809C5.65631 28.7188 5.65986 28.7535 5.97733 28.9177C6.17234 29.0186 6.32892 29.0263 6.49365 28.943C6.55931 28.9098 7.90465 27.5931 9.48327 26.0171L12.3535 23.1516L19.5427 23.1373L26.732 23.123L27.0579 23C27.7281 22.747 28.3209 22.2296 28.6431 21.616C29.0199 20.8985 28.9991 21.4543 29 12.0897C29.0006 6.15905 28.9829 3.5406 28.9408 3.33744C28.7749 2.53524 28.1371 1.68901 27.4289 1.33132C26.7253 0.975976 27.5392 0.997529 14.9777 1.00174C5.95355 1.00475 3.49139 1.02012 3.26565 1.07488ZM26.7618 2.31463C27.1945 2.51768 27.4418 2.75793 27.6466 3.17415L27.8254 3.53759V12.0448C27.8254 20.1546 27.8207 20.5655 27.7251 20.8399C27.5917 21.2227 27.1761 21.6746 26.8014 21.844L26.5133 21.9743L19.1739 22.0016L11.8346 22.029L9.34681 24.5177L6.85907 27.0064V24.7758C6.85907 22.3764 6.84627 22.2555 6.57669 22.1017C6.48277 22.0482 6.05868 22.0218 4.97292 22.0016C3.56563 21.9755 3.48335 21.9682 3.20869 21.844C2.83403 21.6746 2.41836 21.2227 2.28497 20.8399C2.1894 20.5655 2.1847 20.1547 2.1847 12.046V3.53989L2.3263 3.23903C2.58221 2.69535 2.96239 2.3707 3.52026 2.21945C3.71576 2.1665 6.24035 2.15397 15.1144 2.16207L26.4586 2.17235L26.7618 2.31463ZM9.50082 9.23502C9.15142 9.40744 9.15525 9.36947 9.15525 12.644C9.15525 15.8243 9.15864 15.8657 9.435 16.0594C9.59825 16.1738 9.91501 16.1738 10.0783 16.0594C10.3546 15.8657 10.358 15.8243 10.358 12.644C10.358 9.35695 10.3628 9.4035 10.0038 9.23305C9.77964 9.1266 9.72005 9.12687 9.50082 9.23502ZM11.8513 9.22473C11.6689 9.30635 11.5061 9.55327 11.5061 9.7485C11.5061 9.95018 11.671 10.1921 11.8633 10.2725C12.0057 10.332 12.3435 10.3502 13.3059 10.3502C14.093 10.3502 14.6112 10.3724 14.6928 10.4096C14.9166 10.5116 15.005 10.7343 15.005 11.1956C15.005 11.6521 14.9212 11.8873 14.7175 12.0026C14.6389 12.0471 14.2624 12.0827 13.6656 12.102C12.8414 12.1287 12.7096 12.1461 12.5014 12.2555C12.1418 12.4445 11.853 12.7351 11.6854 13.0765C11.5362 13.3806 11.5331 13.4069 11.5152 14.5349C11.4953 15.7907 11.5273 15.9565 11.8145 16.0874C11.9053 16.1288 12.5762 16.1486 13.8911 16.1486H15.8335L15.9933 15.9887C16.1695 15.8124 16.2047 15.5558 16.0878 15.2992C15.9592 15.0167 15.8523 14.9998 14.1877 14.9998H12.6542V14.3964C12.6542 13.7327 12.725 13.4702 12.9366 13.3495C13.0222 13.3007 13.3614 13.2677 13.9663 13.2494C14.8135 13.2237 14.8872 13.2128 15.1779 13.07C15.5177 12.903 15.8072 12.6157 16.0004 12.2536C16.1146 12.0396 16.1258 11.9477 16.1258 11.2254C16.1258 10.4967 16.115 10.4104 15.9933 10.163C15.8165 9.80348 15.4987 9.49545 15.1225 9.31898C14.8168 9.17556 14.7998 9.17403 13.4196 9.16046C12.3084 9.14957 11.9902 9.16259 11.8513 9.22473ZM17.7046 9.2232C17.6107 9.26527 17.4939 9.35695 17.4449 9.42686C17.3307 9.59009 17.3307 9.90703 17.4451 10.0703C17.62 10.3202 17.8054 10.3502 19.1734 10.3502C20.5884 10.3502 20.6319 10.36 20.7786 10.7112C20.8655 10.9194 20.8799 11.4805 20.8035 11.6816C20.7753 11.7559 20.6968 11.8682 20.6292 11.9313C20.5117 12.0408 20.4497 12.046 19.2454 12.0463C17.9492 12.0466 17.6581 12.0818 17.4991 12.2575C17.2578 12.5243 17.3035 12.9669 17.5903 13.1418C17.7517 13.2403 17.8716 13.249 19.0671 13.2492C20.5248 13.2494 20.6377 13.273 20.7771 13.6068C20.8198 13.7092 20.8548 13.9422 20.8548 14.1246C20.8548 14.307 20.8198 14.5401 20.7771 14.6424C20.6378 14.9759 20.524 14.9998 19.0755 14.9998C17.9675 14.9998 17.7608 15.0129 17.6287 15.0909C17.3105 15.279 17.2556 15.7285 17.5188 15.9918L17.6818 16.1548L19.2273 16.138C20.7175 16.1218 20.7812 16.1167 21.0076 15.9958C21.3697 15.8024 21.6568 15.5127 21.8234 15.1728C21.9559 14.9024 21.9776 14.7859 21.9947 14.254C22.0165 13.5781 21.9388 13.1975 21.7118 12.8681L21.5809 12.6781L21.7783 12.3211L21.9756 11.9639V11.2254C21.9756 10.5646 21.9619 10.4566 21.8454 10.1987C21.6845 9.84259 21.2302 9.41406 20.8705 9.279C20.6498 9.19623 20.3946 9.17813 19.242 9.1638C18.1604 9.15029 17.8397 9.1627 17.7046 9.2232Z"/>
  </mask>
  <path fill-rule="evenodd" clip-rule="evenodd" d="M3.26565 1.07488C2.22494 1.32721 1.33588 2.21502 1.09347 3.24412C0.968926 3.77264 0.968817 20.3735 1.0933 20.902C1.3157 21.8459 2.03288 22.655 2.95222 22.9989C3.24515 23.1086 3.39839 23.1228 4.46721 23.1395L5.65631 23.158V25.809C5.65631 28.7188 5.65986 28.7535 5.97733 28.9177C6.17234 29.0186 6.32892 29.0263 6.49365 28.943C6.55931 28.9098 7.90465 27.5931 9.48327 26.0171L12.3535 23.1516L19.5427 23.1373L26.732 23.123L27.0579 23C27.7281 22.747 28.3209 22.2296 28.6431 21.616C29.0199 20.8985 28.9991 21.4543 29 12.0897C29.0006 6.15905 28.9829 3.5406 28.9408 3.33744C28.7749 2.53524 28.1371 1.68901 27.4289 1.33132C26.7253 0.975976 27.5392 0.997529 14.9777 1.00174C5.95355 1.00475 3.49139 1.02012 3.26565 1.07488ZM26.7618 2.31463C27.1945 2.51768 27.4418 2.75793 27.6466 3.17415L27.8254 3.53759V12.0448C27.8254 20.1546 27.8207 20.5655 27.7251 20.8399C27.5917 21.2227 27.1761 21.6746 26.8014 21.844L26.5133 21.9743L19.1739 22.0016L11.8346 22.029L9.34681 24.5177L6.85907 27.0064V24.7758C6.85907 22.3764 6.84627 22.2555 6.57669 22.1017C6.48277 22.0482 6.05868 22.0218 4.97292 22.0016C3.56563 21.9755 3.48335 21.9682 3.20869 21.844C2.83403 21.6746 2.41836 21.2227 2.28497 20.8399C2.1894 20.5655 2.1847 20.1547 2.1847 12.046V3.53989L2.3263 3.23903C2.58221 2.69535 2.96239 2.3707 3.52026 2.21945C3.71576 2.1665 6.24035 2.15397 15.1144 2.16207L26.4586 2.17235L26.7618 2.31463ZM9.50082 9.23502C9.15142 9.40744 9.15525 9.36947 9.15525 12.644C9.15525 15.8243 9.15864 15.8657 9.435 16.0594C9.59825 16.1738 9.91501 16.1738 10.0783 16.0594C10.3546 15.8657 10.358 15.8243 10.358 12.644C10.358 9.35695 10.3628 9.4035 10.0038 9.23305C9.77964 9.1266 9.72005 9.12687 9.50082 9.23502ZM11.8513 9.22473C11.6689 9.30635 11.5061 9.55327 11.5061 9.7485C11.5061 9.95018 11.671 10.1921 11.8633 10.2725C12.0057 10.332 12.3435 10.3502 13.3059 10.3502C14.093 10.3502 14.6112 10.3724 14.6928 10.4096C14.9166 10.5116 15.005 10.7343 15.005 11.1956C15.005 11.6521 14.9212 11.8873 14.7175 12.0026C14.6389 12.0471 14.2624 12.0827 13.6656 12.102C12.8414 12.1287 12.7096 12.1461 12.5014 12.2555C12.1418 12.4445 11.853 12.7351 11.6854 13.0765C11.5362 13.3806 11.5331 13.4069 11.5152 14.5349C11.4953 15.7907 11.5273 15.9565 11.8145 16.0874C11.9053 16.1288 12.5762 16.1486 13.8911 16.1486H15.8335L15.9933 15.9887C16.1695 15.8124 16.2047 15.5558 16.0878 15.2992C15.9592 15.0167 15.8523 14.9998 14.1877 14.9998H12.6542V14.3964C12.6542 13.7327 12.725 13.4702 12.9366 13.3495C13.0222 13.3007 13.3614 13.2677 13.9663 13.2494C14.8135 13.2237 14.8872 13.2128 15.1779 13.07C15.5177 12.903 15.8072 12.6157 16.0004 12.2536C16.1146 12.0396 16.1258 11.9477 16.1258 11.2254C16.1258 10.4967 16.115 10.4104 15.9933 10.163C15.8165 9.80348 15.4987 9.49545 15.1225 9.31898C14.8168 9.17556 14.7998 9.17403 13.4196 9.16046C12.3084 9.14957 11.9902 9.16259 11.8513 9.22473ZM17.7046 9.2232C17.6107 9.26527 17.4939 9.35695 17.4449 9.42686C17.3307 9.59009 17.3307 9.90703 17.4451 10.0703C17.62 10.3202 17.8054 10.3502 19.1734 10.3502C20.5884 10.3502 20.6319 10.36 20.7786 10.7112C20.8655 10.9194 20.8799 11.4805 20.8035 11.6816C20.7753 11.7559 20.6968 11.8682 20.6292 11.9313C20.5117 12.0408 20.4497 12.046 19.2454 12.0463C17.9492 12.0466 17.6581 12.0818 17.4991 12.2575C17.2578 12.5243 17.3035 12.9669 17.5903 13.1418C17.7517 13.2403 17.8716 13.249 19.0671 13.2492C20.5248 13.2494 20.6377 13.273 20.7771 13.6068C20.8198 13.7092 20.8548 13.9422 20.8548 14.1246C20.8548 14.307 20.8198 14.5401 20.7771 14.6424C20.6378 14.9759 20.524 14.9998 19.0755 14.9998C17.9675 14.9998 17.7608 15.0129 17.6287 15.0909C17.3105 15.279 17.2556 15.7285 17.5188 15.9918L17.6818 16.1548L19.2273 16.138C20.7175 16.1218 20.7812 16.1167 21.0076 15.9958C21.3697 15.8024 21.6568 15.5127 21.8234 15.1728C21.9559 14.9024 21.9776 14.7859 21.9947 14.254C22.0165 13.5781 21.9388 13.1975 21.7118 12.8681L21.5809 12.6781L21.7783 12.3211L21.9756 11.9639V11.2254C21.9756 10.5646 21.9619 10.4566 21.8454 10.1987C21.6845 9.84259 21.2302 9.41406 20.8705 9.279C20.6498 9.19623 20.3946 9.17813 19.242 9.1638C18.1604 9.15029 17.8397 9.1627 17.7046 9.2232Z" fill="#80A1C9"/>
  <path fill-rule="evenodd" clip-rule="evenodd" d="M3.26565 1.07488C2.22494 1.32721 1.33588 2.21502 1.09347 3.24412C0.968926 3.77264 0.968817 20.3735 1.0933 20.902C1.3157 21.8459 2.03288 22.655 2.95222 22.9989C3.24515 23.1086 3.39839 23.1228 4.46721 23.1395L5.65631 23.158V25.809C5.65631 28.7188 5.65986 28.7535 5.97733 28.9177C6.17234 29.0186 6.32892 29.0263 6.49365 28.943C6.55931 28.9098 7.90465 27.5931 9.48327 26.0171L12.3535 23.1516L19.5427 23.1373L26.732 23.123L27.0579 23C27.7281 22.747 28.3209 22.2296 28.6431 21.616C29.0199 20.8985 28.9991 21.4543 29 12.0897C29.0006 6.15905 28.9829 3.5406 28.9408 3.33744C28.7749 2.53524 28.1371 1.68901 27.4289 1.33132C26.7253 0.975976 27.5392 0.997529 14.9777 1.00174C5.95355 1.00475 3.49139 1.02012 3.26565 1.07488ZM26.7618 2.31463C27.1945 2.51768 27.4418 2.75793 27.6466 3.17415L27.8254 3.53759V12.0448C27.8254 20.1546 27.8207 20.5655 27.7251 20.8399C27.5917 21.2227 27.1761 21.6746 26.8014 21.844L26.5133 21.9743L19.1739 22.0016L11.8346 22.029L9.34681 24.5177L6.85907 27.0064V24.7758C6.85907 22.3764 6.84627 22.2555 6.57669 22.1017C6.48277 22.0482 6.05868 22.0218 4.97292 22.0016C3.56563 21.9755 3.48335 21.9682 3.20869 21.844C2.83403 21.6746 2.41836 21.2227 2.28497 20.8399C2.1894 20.5655 2.1847 20.1547 2.1847 12.046V3.53989L2.3263 3.23903C2.58221 2.69535 2.96239 2.3707 3.52026 2.21945C3.71576 2.1665 6.24035 2.15397 15.1144 2.16207L26.4586 2.17235L26.7618 2.31463ZM9.50082 9.23502C9.15142 9.40744 9.15525 9.36947 9.15525 12.644C9.15525 15.8243 9.15864 15.8657 9.435 16.0594C9.59825 16.1738 9.91501 16.1738 10.0783 16.0594C10.3546 15.8657 10.358 15.8243 10.358 12.644C10.358 9.35695 10.3628 9.4035 10.0038 9.23305C9.77964 9.1266 9.72005 9.12687 9.50082 9.23502ZM11.8513 9.22473C11.6689 9.30635 11.5061 9.55327 11.5061 9.7485C11.5061 9.95018 11.671 10.1921 11.8633 10.2725C12.0057 10.332 12.3435 10.3502 13.3059 10.3502C14.093 10.3502 14.6112 10.3724 14.6928 10.4096C14.9166 10.5116 15.005 10.7343 15.005 11.1956C15.005 11.6521 14.9212 11.8873 14.7175 12.0026C14.6389 12.0471 14.2624 12.0827 13.6656 12.102C12.8414 12.1287 12.7096 12.1461 12.5014 12.2555C12.1418 12.4445 11.853 12.7351 11.6854 13.0765C11.5362 13.3806 11.5331 13.4069 11.5152 14.5349C11.4953 15.7907 11.5273 15.9565 11.8145 16.0874C11.9053 16.1288 12.5762 16.1486 13.8911 16.1486H15.8335L15.9933 15.9887C16.1695 15.8124 16.2047 15.5558 16.0878 15.2992C15.9592 15.0167 15.8523 14.9998 14.1877 14.9998H12.6542V14.3964C12.6542 13.7327 12.725 13.4702 12.9366 13.3495C13.0222 13.3007 13.3614 13.2677 13.9663 13.2494C14.8135 13.2237 14.8872 13.2128 15.1779 13.07C15.5177 12.903 15.8072 12.6157 16.0004 12.2536C16.1146 12.0396 16.1258 11.9477 16.1258 11.2254C16.1258 10.4967 16.115 10.4104 15.9933 10.163C15.8165 9.80348 15.4987 9.49545 15.1225 9.31898C14.8168 9.17556 14.7998 9.17403 13.4196 9.16046C12.3084 9.14957 11.9902 9.16259 11.8513 9.22473ZM17.7046 9.2232C17.6107 9.26527 17.4939 9.35695 17.4449 9.42686C17.3307 9.59009 17.3307 9.90703 17.4451 10.0703C17.62 10.3202 17.8054 10.3502 19.1734 10.3502C20.5884 10.3502 20.6319 10.36 20.7786 10.7112C20.8655 10.9194 20.8799 11.4805 20.8035 11.6816C20.7753 11.7559 20.6968 11.8682 20.6292 11.9313C20.5117 12.0408 20.4497 12.046 19.2454 12.0463C17.9492 12.0466 17.6581 12.0818 17.4991 12.2575C17.2578 12.5243 17.3035 12.9669 17.5903 13.1418C17.7517 13.2403 17.8716 13.249 19.0671 13.2492C20.5248 13.2494 20.6377 13.273 20.7771 13.6068C20.8198 13.7092 20.8548 13.9422 20.8548 14.1246C20.8548 14.307 20.8198 14.5401 20.7771 14.6424C20.6378 14.9759 20.524 14.9998 19.0755 14.9998C17.9675 14.9998 17.7608 15.0129 17.6287 15.0909C17.3105 15.279 17.2556 15.7285 17.5188 15.9918L17.6818 16.1548L19.2273 16.138C20.7175 16.1218 20.7812 16.1167 21.0076 15.9958C21.3697 15.8024 21.6568 15.5127 21.8234 15.1728C21.9559 14.9024 21.9776 14.7859 21.9947 14.254C22.0165 13.5781 21.9388 13.1975 21.7118 12.8681L21.5809 12.6781L21.7783 12.3211L21.9756 11.9639V11.2254C21.9756 10.5646 21.9619 10.4566 21.8454 10.1987C21.6845 9.84259 21.2302 9.41406 20.8705 9.279C20.6498 9.19623 20.3946 9.17813 19.242 9.1638C18.1604 9.15029 17.8397 9.1627 17.7046 9.2232Z" stroke="#80A1C9" stroke-width="0.4" mask="url(#path-1-outside-1_479_62377)"/>
</svg>