<svg xmlns="http://www.w3.org/2000/svg" width="18" height="22" viewBox="0 0 18 22" fill="none">
  <path d="M1.87261 21.6016C1.87261 21.6016 0.127441 21.6016 0.127441 19.8516C0.127441 18.1016 1.87261 12.8516 8.85327 12.8516C15.8339 12.8516 17.5791 18.1016 17.5791 19.8516C17.5791 21.6016 15.8339 21.6016 15.8339 21.6016H1.87261ZM8.85327 11.1016C10.2418 11.1016 11.5735 10.5484 12.5553 9.56387C13.5372 8.57931 14.0888 7.24395 14.0888 5.85156C14.0888 4.45918 13.5372 3.12382 12.5553 2.13925C11.5735 1.15469 10.2418 0.601563 8.85327 0.601562C7.46473 0.601563 6.13306 1.15469 5.15121 2.13925C4.16937 3.12382 3.61777 4.45918 3.61777 5.85156C3.61777 7.24395 4.16937 8.57931 5.15121 9.56387C6.13306 10.5484 7.46473 11.1016 8.85327 11.1016Z" fill="#80A1C9"/>
</svg>