<svg xmlns="http://www.w3.org/2000/svg" width="64" height="64" viewBox="0 0 64 64" fill="none">
    <path fill-rule="evenodd" clip-rule="evenodd" d="M29.9036 0.0592585C22.1855 0.622413 14.7791 4.12881 9.20859 9.85697C4.21125 14.9956 1.1652 21.2184 0.192603 28.2753C-0.0155218 29.7855 -0.0455488 33.938 0.140619 35.4508C0.744537 40.3579 2.14473 44.8032 4.25713 48.5201L4.51499 48.9738L2.23191 55.8223C0.375111 61.3924 -0.0409509 62.733 0.0030574 63.0042C0.070712 63.421 0.466599 63.8435 0.915315 63.978C1.23717 64.0744 1.67997 63.9402 8.15239 61.7851L15.0467 59.4896L15.8832 59.9557C19.4947 61.9681 24.2144 63.3968 28.8714 63.8872C30.4134 64.0496 33.9034 64.0245 35.4015 63.8402C40.84 63.1712 45.7515 61.2656 50.2414 58.0828C55.8942 54.0757 60.2746 48.2181 62.4051 41.8171C63.5209 38.4651 64.0026 35.4794 64 31.9334C63.997 27.9394 63.2995 24.3302 61.8047 20.5738C57.6137 10.0424 47.8276 2.14117 36.7987 0.38417C34.6568 0.0429379 31.9044 -0.0867828 29.9036 0.0592585ZM36.0526 2.79315C40.8232 3.53198 45.0123 5.22754 48.8925 7.98985C51.5962 9.91484 54.2101 12.5426 56.1483 15.2845C57.4219 17.0862 58.95 19.9673 59.6804 21.9441C62.0199 28.275 62.1229 34.903 59.9801 41.2193C56.7241 50.8168 48.5354 58.3279 38.724 60.7167C31.6061 62.4496 23.1574 61.239 16.7459 57.5672C16.125 57.2117 15.5062 56.9001 15.3708 56.8748C15.207 56.8442 13.151 57.4878 9.21919 58.8006C5.97111 59.8851 3.29599 60.7546 3.27441 60.7331C3.25273 60.7115 4.10512 58.0847 5.16845 54.8959C6.33247 51.4054 7.10182 48.9558 7.10182 48.7402C7.10182 48.4789 6.97439 48.1668 6.62927 47.5827C3.15927 41.7102 1.74406 34.0176 2.88753 27.2436C3.69525 22.4584 5.81516 17.7709 8.97466 13.7838C10.0176 12.4676 12.7112 9.80678 14.0352 8.78487C18.5215 5.3219 23.655 3.23155 29.1529 2.629C30.5316 2.47799 34.6501 2.57591 36.0526 2.79315ZM31.1234 13.3215C30.2471 13.4735 29.1448 14.0664 28.4744 14.7465C26.5374 16.7115 26.5062 19.6687 28.4012 21.6935C30.2159 23.6328 33.3048 23.7688 35.3123 21.9978C36.9978 20.5108 37.4719 18.0148 36.4522 15.9956C36.1026 15.3035 35.1312 14.2761 34.5033 13.9346C33.4462 13.3594 32.2045 13.1342 31.1234 13.3215ZM32.6536 15.8528C33.5846 16.0878 34.3691 17.031 34.4733 18.0408C34.6186 19.4475 33.4681 20.7213 32.0501 20.7238C31.0023 20.7256 30.2598 20.2823 29.8126 19.3876C28.8347 17.4315 30.5336 15.3177 32.6536 15.8528ZM52.1328 15.9657C51.462 16.4123 51.327 17.2214 51.8245 17.8126C52.5152 18.633 53.8783 18.212 53.9885 17.1441C54.0954 16.1089 52.9808 15.4011 52.1328 15.9657ZM54.7039 20.252C54.3473 20.4692 54.1128 20.8827 54.1128 21.2939C54.1128 21.4573 54.2812 21.9647 54.4869 22.4214C56.3477 26.5523 56.9532 31.4295 56.1721 35.9963C55.9622 37.2234 56.0024 37.4994 56.4537 37.9316C57.0105 38.4648 58.0148 38.2897 58.3514 37.6007C58.8997 36.4786 59.1729 31.7872 58.8504 29.0311C58.5194 26.2036 57.6349 23.0487 56.6018 21.0107C56.1485 20.1165 55.4103 19.8214 54.7039 20.252ZM25.0564 25.9826C24.5074 26.3341 24.4612 26.6128 24.4614 29.5669C24.4615 31.9024 24.4808 32.2527 24.6256 32.5364C24.9115 33.097 25.211 33.2423 26.157 33.2793L26.9947 33.3121V38.2625V43.2129L26.1497 43.2533C25.1986 43.2987 24.9104 43.4384 24.6228 43.9929C24.472 44.2838 24.4585 44.5837 24.482 47.1284C24.5059 49.7123 24.5226 49.9638 24.6862 50.2051C25.0621 50.7594 24.7888 50.7396 32.0681 50.7396H38.7461L39.1104 50.3755L39.4747 50.0113V47.0802C39.4747 44.3035 39.4647 44.1329 39.2852 43.8427C39.0331 43.4349 38.5105 43.2359 37.6919 43.2359H37.0389L37.0135 34.9114C36.9854 25.726 37.0294 26.3748 36.4068 25.9645C36.1583 25.8007 35.8408 25.791 30.7481 25.7919C25.4935 25.7928 25.3449 25.7979 25.0564 25.9826ZM34.5015 36.5075C34.5015 44.3568 34.5104 44.8034 34.6736 45.1133C34.9294 45.5989 35.3402 45.7681 36.2636 45.7682L37.0404 45.7684L37.0142 47.0112L36.9881 48.254L31.9914 48.2783L26.9947 48.3026V47.0445V45.7865L27.8787 45.754C28.6672 45.725 28.7902 45.6962 29.0168 45.487C29.5405 45.0037 29.5282 45.1778 29.528 38.2442C29.528 31.1037 29.5565 31.4249 28.881 30.9739C28.6131 30.7949 28.437 30.7609 27.7784 30.7609H26.9947V29.4947V28.2284H30.7481H34.5015V36.5075Z" fill="#0758B1"/>
</svg>