<svg xmlns="http://www.w3.org/2000/svg" width="17" height="21" viewBox="0 0 17 21" fill="none">
    <path d="M14.5833 0.0104167L2.08333 0C1.5308 0 1.00089 0.219493 0.610194 0.610194C0.219493 1.0009 0 1.5308 0 2.08333V18.75C0 19.8958 0.9375 20.8333 2.08333 20.8333H14.5833C15.7292 20.8333 16.6667 19.8958 16.6667 18.75V2.08333C16.6667 0.927083 15.7292 0.0104167 14.5833 0.0104167ZM14.5833 18.75H2.08333V9.35417H14.5833V18.75ZM14.5833 7.29167H2.08333V2.08333H14.5833V7.29167ZM4.16667 3.125H6.25V6.25H4.16667V3.125ZM4.16667 10.4167H6.25V15.625H4.16667V10.4167Z" fill="#80A1C9"/>
</svg>