<svg xmlns="http://www.w3.org/2000/svg" id="Layer_2" viewBox="0 0 742.42 497.46"><defs><style>.cls-1{fill:#e92432;}.cls-2,.cls-3{fill:#231f20;}.cls-4{font-family:AgencyFB-Reg, 'Agency FB';font-size:41.12px;letter-spacing:.53em;}.cls-3{font-family:Arial-BlackItalic, 'Arial Black';font-size:90.47px;font-style:italic;font-weight:800;letter-spacing:.7em;}.cls-5{fill:none;stroke:#231f20;stroke-miterlimit:10;stroke-width:3px;}</style></defs><g id="Layer_1-2"><path d="M180.57,217.84L218.56,14.04c1.52-8.14,8.62-14.04,16.9-14.04h92.95c13.25,0,19.3,16.52,9.18,25.08l-97.44,82.4c-4.79,4.05-5.5,11.17-1.61,16.09l61.32,77.53c9.09,11.49.9,28.39-13.74,28.39h-95.87c-6.16,0-10.81-5.6-9.68-11.66Z"/><path class="cls-1" d="M478.78,271.97h-85.79c-5.65,0-11.01-2.55-14.57-6.94l-110.49-136.03c-5.26-6.48-4.39-15.98,1.96-21.39L390.31,5c2.86-2.44,6.5-3.78,10.27-3.78h80.15c20.53,0,29.98,25.54,14.39,38.91l-80.32,68.84c-5.04,4.32-5.74,11.87-1.56,17.04l84.98,105.29c13.18,16.34,1.56,40.66-19.44,40.66h0Z"/><text class="cls-3" transform="translate(0 417.7) scale(1.4 1)"><tspan x="0" y="0">KHAN</tspan></text><circle class="cls-5" cx="727.76" cy="352.94" r="13.16"/><path class="cls-2" d="M722.92,360.86v-15.71h5.71c1.19,0,2.07.15,2.64.44s1.03.78,1.4,1.46.55,1.47.55,2.37c0,1.19-.31,2.15-.93,2.88-.62.74-1.52,1.2-2.7,1.4.48.29.84.58,1.09.87.51.6.95,1.27,1.34,2l2.25,4.28h-2.14l-1.72-3.27c-.67-1.28-1.17-2.14-1.51-2.58-.34-.44-.67-.74-.98-.9-.32-.15-.76-.23-1.33-.23h-1.97v6.98h-1.7ZM724.63,352.08h3.67c.8,0,1.41-.1,1.82-.29.41-.19.74-.5.99-.91.24-.41.36-.9.36-1.45,0-.79-.23-1.42-.7-1.87s-1.15-.68-2.07-.68h-4.07v5.2Z"/><text class="cls-4" transform="translate(15.25 489.23)"><tspan x="0" y="0">PREMIUM AUTOMOTIVE</tspan></text></g><script xmlns=""/></svg>