<svg
  xmlns="http://www.w3.org/2000/svg"
  width="60"
  height="60"
  viewBox="0 0 60 60"
  className="stroke-current"
>
  <g fill="none" stroke="#FFF" strokeWidth="2" strokeLinejoin="round">
    <g transform="translate(-720 -402) translate(720 403)">
      <path d="M12.8 29L11.3 29C10 29 9 28 9 26.8L9 19.3C9 18 10 17 11.3 17L12.8 17C14 17 15 18 15 19.3L15 26.8C15 28 14 29 12.8 29Z" />
      <polygon points="34 53 26 53 30 44" />
      <polygon points="25 58 26 53 34 53 35 58" />
      <path d="M19.3 38.1L19 38 18 42 26 53 30 44C25.8 44 22 41.6 19.3 38.1Z" />
      <path d="M40.7 38.1C38 41.6 34.2 44 30 44L34 53 42 42 41 38 40.7 38.1Z" />
      <path d="M56.6 49.7C51.1 46.8 45.8 44.6 41 44L40.5 44 34 53 35 58 34.6 58H59V53.7C59 52 58.1 50.5 56.6 49.7Z" />
      <path d="M19.5 44L19 44C14.2 44.6 8.9 46.8 3.4 49.7 1.9 50.5 1 52 1 53.7V58H25L26 53 19.5 44Z" />
      <polygon points="25 58 25.4 58 25.4 58" />
      <path d="M47.3 29H48.8C50 29 51 28 51 26.8V19.3C51 18 50 17 48.8 17H47.3C46 17 45 18 45 19.3V26.8C45 28 46 29 47.3 29Z" />
      <path d="M48 17C48 3.9 38.7 0 30 0 21.3 0 12 3.9 12 17" />
      <path d="M15 19C15 10.7 21.7 4 30 4 38.3 4 45 10.7 45 19V26C45 34.8 38.3 44 30 44 21.7 44 15 34.8 15 26V19Z" />
      <path d="M48 29C48 33.4 45.3 37 31 37" />
    </g>
  </g>
</svg>
