<svg xmlns="http://www.w3.org/2000/svg" fill="none" viewBox="0 0 40 40" width="5" height="5" class="size-8 shrink-0 tablet:size-10"><g clip-path="url(#mileage_svg__a)"><path fill="#757575" d="M20 0C8.954 0 0 8.954 0 20s8.954 20 20 20 20-8.954 20-20C39.987 8.96 31.04.012 20 0m0 1.333a18.655 18.655 0 0 1 16.525 27.334h-7.052a3.34 3.34 0 0 0-2.056.712A12.1 12.1 0 0 1 19.9 32a11.93 11.93 0 0 1-7.538-2.641 3.26 3.26 0 0 0-2.029-.692H3.475A18.655 18.655 0 0 1 20 1.333m0 37.334A18.67 18.67 0 0 1 4.25 30h6.083c.434-.006.857.135 1.2.4a13.25 13.25 0 0 0 8.367 2.933c3.03 0 5.972-1.025 8.345-2.909.35-.274.783-.424 1.228-.424h6.277A18.67 18.67 0 0 1 20 38.667"></path><path fill="#1E2F2C" d="m26.862 11.862-5.243 5.243A3.3 3.3 0 0 0 20 16.667 3.333 3.333 0 1 0 23.333 20a3.3 3.3 0 0 0-.702-2.022l5.174-5.173a.667.667 0 0 0-.943-.943M20 22a2 2 0 1 1 0-4 2 2 0 0 1 0 4"></path><path fill="#757575" d="M4.88 26.949a.667.667 0 1 0 1.209-.564 15 15 0 0 1-1.404-5.718H6a.667.667 0 1 0 0-1.334H4.683c.09-2.24.677-4.431 1.717-6.417l1.145.661a.667.667 0 1 0 .667-1.154l-1.145-.66a15.4 15.4 0 0 1 4.698-4.696l.658 1.14a.667.667 0 1 0 1.154-.668L12.92 6.4a15.3 15.3 0 0 1 6.414-1.717V6a.667.667 0 0 0 1.334 0V4.683c2.238.095 4.428.681 6.414 1.717l-.658 1.14a.667.667 0 1 0 1.154.667l.658-1.139a15.4 15.4 0 0 1 4.698 4.694l-1.143.66a.667.667 0 1 0 .667 1.155l1.145-.66a15.15 15.15 0 0 1 1.715 6.416H34a.667.667 0 0 0 0 1.334h1.315a15 15 0 0 1-1.404 5.718.667.667 0 0 0 1.209.564 16.4 16.4 0 0 0 1.547-6.99c0-9.204-7.462-16.666-16.667-16.666S3.333 10.755 3.333 19.959a16.4 16.4 0 0 0 1.547 6.99"></path><path fill="#1E2F2C" d="M22 20a2 2 0 1 1-4 0 2 2 0 0 1 4 0"></path></g><defs><clipPath id="mileage_svg__a"><path fill="#fff" d="M0 0h40v40H0z"></path></clipPath></defs></svg>