<svg xmlns="http://www.w3.org/2000/svg" xmlns:xlink="http://www.w3.org/1999/xlink" id="Layer_1" x="0px" y="0px" viewBox="0 0 2000 2000" style="enable-background:new 0 0 2000 2000;" xml:space="preserve">
<style type="text/css">
	.st0{fill:#A8A8A8;stroke:#4C4C4C;stroke-width:42.5;stroke-miterlimit:10;}
	.st1{fill:#A8A8A8;stroke:#4C4C4C;stroke-width:40;stroke-miterlimit:10;}
	.st2{fill:#A8A8A8;stroke:#4C4C4C;stroke-width:37.5;stroke-miterlimit:10;}
	.st3{fill:#A8A8A8;stroke:#4C4C4C;stroke-width:35;stroke-miterlimit:10;}
	.st4{fill:#A8A8A8;stroke:#4C4C4C;stroke-width:32.5;stroke-miterlimit:10;}
	.st5{fill:#A8A8A8;stroke:#4C4C4C;stroke-width:30;stroke-miterlimit:10;}
	.st6{fill:#A8A8A8;stroke:#4C4C4C;stroke-width:27.5;stroke-miterlimit:10;}
	.st7{fill:#A8A8A8;stroke:#4C4C4C;stroke-width:25;stroke-miterlimit:10;}
	.st8{fill:#A8A8A8;stroke:#4C4C4C;stroke-width:22.5;stroke-miterlimit:10;}
	.st9{fill:#A8A8A8;stroke:#4C4C4C;stroke-width:20;stroke-miterlimit:10;}
	.st10{fill:#A8A8A8;stroke:#4C4C4C;stroke-width:17.5;stroke-miterlimit:10;}
	.st11{fill:#A8A8A8;stroke:#4C4C4C;stroke-width:15;stroke-miterlimit:10;}
	.st12{fill:#A8A8A8;stroke:#4C4C4C;stroke-width:12.5;stroke-miterlimit:10;}
	.st13{fill:#A8A8A8;stroke:#4C4C4C;stroke-width:10;stroke-miterlimit:10;}
	.st14{fill:#A8A8A8;stroke:#4C4C4C;stroke-width:7.5;stroke-miterlimit:10;}
	.st15{fill:#A8A8A8;stroke:#4C4C4C;stroke-width:5;stroke-miterlimit:10;}
	.st16{fill:#A8A8A8;stroke:#4C4C4C;stroke-width:2.5;stroke-miterlimit:10;}
</style>
<g>
	<g>
		<line class="st0" x1="-20" y1="-20" x2="2020" y2="2020"/>
		<line class="st0" x1="-20" y1="1980" x2="2020" y2="4020"/>
		<line class="st0" x1="-20" y1="-2020" x2="2020" y2="20"/>
	</g>
	<g>
		<line class="st1" x1="-20" y1="1917.5" x2="2020" y2="3957.5"/>
		<line class="st1" x1="-20" y1="42.5" x2="2020" y2="2082.5"/>
		<line class="st1" x1="-20" y1="-82.5" x2="2020" y2="1957.5"/>
		<line class="st1" x1="-20" y1="-1957.5" x2="2020" y2="82.5"/>
	</g>
	<g>
		<line class="st2" x1="-20" y1="1855" x2="2020" y2="3895"/>
		<line class="st2" x1="-20" y1="105" x2="2020" y2="2145"/>
		<line class="st2" x1="-20" y1="-145" x2="2020" y2="1895"/>
		<line class="st2" x1="-20" y1="-1895" x2="2020" y2="145"/>
	</g>
	<g>
		<line class="st3" x1="-20" y1="167.5" x2="2020" y2="2207.5"/>
		<line class="st3" x1="-20" y1="1792.5" x2="2020" y2="3832.5"/>
		<line class="st3" x1="-20" y1="-1832.5" x2="2020" y2="207.5"/>
		<line class="st3" x1="-20" y1="-207.5" x2="2020" y2="1832.5"/>
	</g>
	<g>
		<line class="st4" x1="-20" y1="230" x2="2020" y2="2270"/>
		<line class="st4" x1="-20" y1="1730" x2="2020" y2="3770"/>
		<line class="st4" x1="-20" y1="-270" x2="2020" y2="1770"/>
		<line class="st4" x1="-20" y1="-1770" x2="2020" y2="270"/>
	</g>
	<g>
		<line class="st5" x1="-20" y1="1667.5" x2="2020" y2="3707.5"/>
		<line class="st5" x1="-20" y1="292.5" x2="2020" y2="2332.5"/>
		<line class="st5" x1="-20" y1="-332.5" x2="2020" y2="1707.5"/>
		<line class="st5" x1="-20" y1="-1707.5" x2="2020" y2="332.5"/>
	</g>
	<g>
		<line class="st6" x1="-20" y1="1605" x2="2020" y2="3645"/>
		<line class="st6" x1="-20" y1="355" x2="2020" y2="2395"/>
		<line class="st6" x1="-20" y1="-395" x2="2020" y2="1645"/>
		<line class="st6" x1="-20" y1="-1645" x2="2020" y2="395"/>
	</g>
	<g>
		<line class="st7" x1="-20" y1="417.5" x2="2020" y2="2457.5"/>
		<line class="st7" x1="-20" y1="1542.5" x2="2020" y2="3582.5"/>
		<line class="st7" x1="-20" y1="-1582.5" x2="2020" y2="457.5"/>
		<line class="st7" x1="-20" y1="-457.5" x2="2020" y2="1582.5"/>
	</g>
	<g>
		<line class="st8" x1="-20" y1="1480" x2="2020" y2="3520"/>
		<line class="st8" x1="-20" y1="480" x2="2020" y2="2520"/>
		<line class="st8" x1="-20" y1="-1520" x2="2020" y2="520"/>
		<line class="st8" x1="-20" y1="-520" x2="2020" y2="1520"/>
	</g>
	<g>
		<line class="st9" x1="-20" y1="1417.5" x2="2020" y2="3457.5"/>
		<line class="st9" x1="-20" y1="542.5" x2="2020" y2="2582.5"/>
		<line class="st9" x1="-20" y1="-582.5" x2="2020" y2="1457.5"/>
		<line class="st9" x1="-20" y1="-1457.5" x2="2020" y2="582.5"/>
	</g>
	<g>
		<line class="st10" x1="-20" y1="605" x2="2020" y2="2645"/>
		<line class="st10" x1="-20" y1="1355" x2="2020" y2="3395"/>
		<line class="st10" x1="-20" y1="-1395" x2="2020" y2="645"/>
		<line class="st10" x1="-20" y1="-645" x2="2020" y2="1395"/>
	</g>
	<g>
		<line class="st11" x1="-20" y1="667.5" x2="2020" y2="2707.5"/>
		<line class="st11" x1="-20" y1="1292.5" x2="2020" y2="3332.5"/>
		<line class="st11" x1="-20" y1="-1332.5" x2="2020" y2="707.5"/>
		<line class="st11" x1="-20" y1="-707.5" x2="2020" y2="1332.5"/>
	</g>
	<g>
		<line class="st12" x1="-20" y1="730" x2="2020" y2="2770"/>
		<line class="st12" x1="-20" y1="1230" x2="2020" y2="3270"/>
		<line class="st12" x1="-20" y1="-770" x2="2020" y2="1270"/>
		<line class="st12" x1="-20" y1="-1270" x2="2020" y2="770"/>
	</g>
	<g>
		<line class="st13" x1="-20" y1="1167.5" x2="2020" y2="3207.5"/>
		<line class="st13" x1="-20" y1="792.5" x2="2020" y2="2832.5"/>
		<line class="st13" x1="-20" y1="-832.5" x2="2020" y2="1207.5"/>
		<line class="st13" x1="-20" y1="-1207.5" x2="2020" y2="832.5"/>
	</g>
	<g>
		<line class="st14" x1="-20" y1="855" x2="2020" y2="2895"/>
		<line class="st14" x1="-20" y1="1105" x2="2020" y2="3145"/>
		<line class="st14" x1="-20" y1="-1145" x2="2020" y2="895"/>
		<line class="st14" x1="-20" y1="-895" x2="2020" y2="1145"/>
	</g>
	<g>
		<line class="st15" x1="-20" y1="917.5" x2="2020" y2="2957.5"/>
		<line class="st15" x1="-20" y1="1042.5" x2="2020" y2="3082.5"/>
		<line class="st15" x1="-20" y1="-1082.5" x2="2020" y2="957.5"/>
		<line class="st15" x1="-20" y1="-957.5" x2="2020" y2="1082.5"/>
	</g>
	<g>
		<line class="st16" x1="-20" y1="980" x2="2020" y2="3020"/>
		<line class="st16" x1="-20" y1="-1020" x2="2020" y2="1020"/>
	</g>
</g>
</svg>