<svg aria-label="Location" role="img" width="48" height="48" viewBox="0 0 48 48" fill="#000" xmlns="http://www.w3.org/2000/svg" style="stroke: #000;">
  <path fill-rule="evenodd" clip-rule="evenodd" d="M23.613 10l.01.5.01-.5a9.806 9.806 0 0 1 9.61 9.986c-.001 3.166-1.832 5.9-3.772 8.638l-.377.532c-1.859 2.614-3.771 5.303-4.61 8.566a.886.886 0 0 1-1.722 0c-.847-3.274-2.76-5.965-4.617-8.577l-.377-.53c-1.938-2.735-3.764-5.463-3.766-8.63A9.806 9.806 0 0 1 23.613 10zm-6.153 3.699A8.806 8.806 0 0 1 23.623 11a8.806 8.806 0 0 1 8.62 8.971v.01c0 2.802-1.617 5.284-3.588 8.065-.13.185-.263.371-.396.558-1.77 2.486-3.701 5.201-4.637 8.472-.941-3.282-2.874-5.998-4.642-8.482l-.001-.002-.395-.555c-1.968-2.778-3.582-5.254-3.582-8.056v-.01A8.806 8.806 0 0 1 17.46 13.7zm6.161 2.288a3.854 3.854 0 1 1 0 7.708 3.854 3.854 0 0 1 0-7.708zm0-1v.5-.5a4.856 4.856 0 1 1-4.855 4.855 4.86 4.86 0 0 1 4.855-4.855z" fill="#000"></path>
</svg>
