<?xml version="1.0" encoding="utf-8"?>
<!-- Generator: Adobe Illustrator 27.5.0, SVG Export Plug-In . SVG Version: 6.00 Build 0)  -->
<svg version="1.1" id="Laag_1" xmlns="http://www.w3.org/2000/svg" xmlns:xlink="http://www.w3.org/1999/xlink" x="0px" y="0px"
     viewBox="0 0 125 125" style="enable-background:new 0 0 125 125;" xml:space="preserve">
<path fill="#FFFFFF" d="M125,125H0V0h125V125z M6.3,118.7h112.4V6.3H6.3V118.7z M21.4,12.5h-8.9v31.2h8.9C41.7,43.6,41.7,12.5,21.4,12.5z
     M17.6,19.8h3.8c9.9,0,9.9,16.7,0,16.7h-3.8V19.8z M46.4,43.7v-9.1h4.2l5.4,9.1h8.8v-1.2l-6.1-9.9c7.9-5.2,5.7-20-6.6-20.1H38.4
     v31.2H46.4z M46.4,19.7c1.8,0,3.8-0.1,5.7,0c4.5,0.1,4.3,7.8,0,7.8h-5.7V19.7z M77.4,44.2c6.4,0,12.4-4,12.4-10.9V12.5h-7.6v20.7
     c0,2.5-2.5,3.8-4.7,3.8c-2.3,0-4.8-1.3-4.8-3.8V12.5h-7.6v20.9C65,40.3,71.1,44.2,77.4,44.2z M100.4,43.7V31.8c1,0,2.1,0,3.1-0.2
     l6.9,12.1h2.1V31.6l-1.8-2.8c0.6-0.4,1.2-0.8,1.8-1.3V12.5h-4c0,5.9,0.4,11.8-7.6,11.8h-0.6V12.5h-8.1v31.2L100.4,43.7L100.4,43.7z
     M56.8,97.5c6.2-4,6-9.8,6-16.2h-8.2c0,5.9,0.4,11.8-7.6,11.8h-0.6V81.3h-8.2v31.2l8.1,0v-11.9c1,0,2.1,0,3.1-0.2l6.9,12.1h8.9v-1.3
     L56.8,97.5z M74.6,105.4v-5.5H84v-7.1h-9.4v-4.4H87v-7.1H66.7v31.2h20.7v-7.1L74.6,105.4L74.6,105.4z M103.1,81.3H89.4v31.2h8v-9.2
     h4.2l5.4,9.2h5.7v-6.4l-3-4.7c1.1-0.8,2.1-1.8,2.9-3V86.1C110.8,83.4,107.6,81.3,103.1,81.3z M103.1,96.3h-5.7v-7.8
     c1.9,0,3.8-0.1,5.7,0C107.6,88.5,107.4,96.3,103.1,96.3z M23,81.3h-3.4l-7.1,15.4v15.8h0.9l1.8-3.8h12.2l1.8,3.8H37v-1.1L23,81.3z
     M17.8,101.9l3.5-8.1l3.6,8.1H17.8z M16.1,46.9h-3.7v14.4C16.4,57.5,16.2,52.4,16.1,46.9z M18.6,76.9l-6.2-10v11.2h6.2V76.9z
     M56.7,65.5h12v-7.1h-12v-4.4h13.6v-7.2H48.7v31.2h21.9v-7.1l-13.9-0.1V65.5z M88,60.4L75.7,46.9h-2.9v31.2H81V64.3l6.6,6.9h0.9
     l6.6-6.9v13.9h8.1V46.9h-2.8L88,60.4z M105,76.9v1.1h7.5V60.7L105,76.9z M18.3,54.1h10.2v24.1h7.9V54.1h10.2v-7.2H18.3V54.1z"/>
</svg>
