<svg style="    width: 22px; bottom: -2px; left: 1px; position: relative;" version="1.1" id="Laag_1" xmlns="http://www.w3.org/2000/svg" xmlns:xlink="http://www.w3.org/1999/xlink" x="0px" y="0px" viewBox="0 0 512 512" xml:space="preserve">
<style type="text/css">
	.st0{stroke:#000000;stroke-width:6;stroke-miterlimit:10;}
</style>
<g>
	<path class="st0" d="M367.7,480H80.3C50.9,480,27,456.1,27,426.7c0-2.2,0.1-4.5,0.4-6.7l32-256c3.4-26.7,26.1-46.6,52.9-46.7h223.4
		c26.9,0,49.6,20,52.9,46.7l14.2,113.8c0.7,5.8-3.4,11.2-9.3,11.9c-5.8,0.7-11.2-3.4-11.9-9.3l0,0l-14.2-113.8
		c-2-16-15.6-28-31.8-28H112.3c-16.1,0-29.7,12-31.8,28l-32,256c-2.2,17.6,10.3,33.6,27.9,35.8c1.3,0.2,2.6,0.2,3.9,0.2h287.4
		c5.7-1.1,11.3,2.7,12.3,8.4c0,0,0,0,0,0c1.1,5.8-2.7,11.4-8.5,12.6C370.2,479.9,369,480,367.7,480L367.7,480z"></path>
	<path class="st0" d="M298.7,213.3c-5.9,0-10.7-4.8-10.7-10.7v-85.3c0-35.3-28.7-64-64-64s-64,28.7-64,64v85.3
		c0,5.9-4.8,10.7-10.7,10.7c-5.9,0-10.7-4.8-10.7-10.7v-85.3c0-47.1,38.2-85.3,85.3-85.3s85.3,38.2,85.3,85.3v85.3
		C309.3,208.6,304.6,213.3,298.7,213.3z M373.3,480c-58.9,0-106.7-47.8-106.7-106.7s47.8-106.7,106.7-106.7S480,314.4,480,373.3
		C479.9,432.2,432.2,479.9,373.3,480z M373.3,288c-47.1,0-85.3,38.2-85.3,85.3s38.2,85.3,85.3,85.3s85.3-38.2,85.3-85.3
		C458.6,326.2,420.4,288.1,373.3,288z"></path>
	<path class="st0" d="M373.3,416c-5.9,0-10.7-4.8-10.7-10.7v-64c0-5.9,4.8-10.7,10.7-10.7s10.7,4.8,10.7,10.7v64
		C384,411.2,379.2,416,373.3,416z"></path>
	<path class="st0" d="M405.3,384h-64c-5.9,0-10.7-4.8-10.7-10.7s4.8-10.7,10.7-10.7h64c5.9,0,10.7,4.8,10.7,10.7
		S411.2,384,405.3,384z"></path>
</g>
</svg>