<svg xmlns="http://www.w3.org/2000/svg" width="18" height="21" viewBox="0 0 18 21" fill="none">
    <path d="M6.76629 0.0119604L16.6234 1.94053C16.7697 1.96915 16.9015 2.04773 16.9963 2.16281C17.091 2.27789 17.1428 2.42232 17.1429 2.57139V18C17.1428 18.149 17.091 18.2935 16.9963 18.4085C16.9015 18.5236 16.7697 18.6022 16.6234 18.6308L6.76629 20.5594C6.67317 20.5776 6.57718 20.575 6.48519 20.5517C6.39321 20.5284 6.30752 20.4851 6.23427 20.4248C6.16101 20.3645 6.10202 20.2887 6.06152 20.2029C6.02101 20.1171 6.00001 20.0234 6 19.9285V0.642818C6.00001 0.547936 6.02101 0.454233 6.06152 0.368431C6.10202 0.28263 6.16101 0.206857 6.23427 0.146552C6.30752 0.0862471 6.39321 0.0429042 6.48519 0.019634C6.57718 -0.00363617 6.67317 -0.00625683 6.76629 0.0119604ZM9.42857 9.42853C9.20124 9.42853 8.98322 9.51884 8.82248 9.67958C8.66173 9.84033 8.57143 10.0583 8.57143 10.2857C8.57143 10.513 8.66173 10.731 8.82248 10.8918C8.98322 11.0525 9.20124 11.1428 9.42857 11.1428C9.6559 11.1428 9.87392 11.0525 10.0347 10.8918C10.1954 10.731 10.2857 10.513 10.2857 10.2857C10.2857 10.0583 10.1954 9.84033 10.0347 9.67958C9.87392 9.51884 9.6559 9.42853 9.42857 9.42853ZM5.14286 2.14282V18.4285H0.642857C0.487511 18.4285 0.337421 18.3723 0.220345 18.2702C0.103269 18.1681 0.0271271 18.027 0.00599997 17.8731L0 17.7857V2.78567C6.55105e-06 2.63033 0.0562653 2.48024 0.158372 2.36316C0.260479 2.24609 0.401525 2.16994 0.555428 2.14882L0.642857 2.14282H5.14286Z" fill="#80A1C9"/>
</svg>