<svg xmlns="http://www.w3.org/2000/svg" width="11" height="16" viewBox="0 0 11 16" fill="none">
    <path fill-rule="evenodd" clip-rule="evenodd" d="M5.06551 0.00727084C3.69787 0.137987 2.55056 0.655818 1.61047 1.56667C0.302987 2.83353 -0.258124 4.64364 0.111657 6.4018C0.19225 6.78495 0.335392 7.2074 0.502418 7.55498C0.572198 7.70024 1.66376 9.6335 2.92809 11.8511C5.33485 16.0726 5.28976 15.9999 5.50123 15.9999C5.71267 15.9999 5.66762 16.0725 8.07541 11.849C9.34032 9.63012 10.4319 7.69686 10.5011 7.55283C11.1014 6.30352 11.1636 4.79149 10.6679 3.50028C10.379 2.74791 9.9676 2.12438 9.392 1.56667C8.55528 0.756013 7.58275 0.269423 6.38881 0.0641231C6.12954 0.0195607 5.30681 -0.0158078 5.06551 0.00727084ZM5.77558 2.67889C6.46812 2.7536 7.02952 3.02507 7.50829 3.51682C8.031 4.05369 8.2709 4.68992 8.23491 5.44382C8.21355 5.89095 8.16062 6.09784 7.96883 6.48317C7.62836 7.1674 7.02448 7.66394 6.25971 7.88853C6.00083 7.96455 5.91833 7.97384 5.50123 7.97384C5.08414 7.97384 5.00164 7.96455 4.74276 7.88853C4.18975 7.72614 3.71801 7.42117 3.36698 6.99916C3.15861 6.74867 2.92102 6.30358 2.83824 6.00878C2.75716 5.71998 2.73863 5.11863 2.80157 4.81782C3.03889 3.68287 4.00829 2.81186 5.17848 2.68202C5.31161 2.66726 5.43507 2.65346 5.45282 2.65137C5.47057 2.64927 5.61581 2.66166 5.77558 2.67889Z" fill="#80A1C9"/>
</svg>