<svg xmlns="http://www.w3.org/2000/svg" width="29" height="18" viewBox="0 0 29 18" fill="none">
  <path fill-rule="evenodd" clip-rule="evenodd" d="M1.95742 0.0786536C1.48063 0.193547 1.12372 0.389743 0.764202 0.734641C0.393926 1.0899 0.170085 1.48109 0.0669693 1.95326C-0.023009 2.36518 -0.0219897 15.6386 0.0680452 16.0438C0.276258 16.9806 1.05815 17.7335 2.03098 17.934C2.45482 18.0214 26.5385 18.0223 26.969 17.935C27.93 17.7401 28.7325 16.9675 28.9333 16.0438C29.0231 15.6312 29.0218 2.35727 28.932 1.95326C28.7233 1.01405 27.939 0.258382 26.969 0.0619676C26.5112 -0.0307868 2.34462 -0.0146461 1.95742 0.0786536ZM26.8459 1.74682C26.9898 1.81749 27.11 1.93331 27.1834 2.07186C27.2958 2.28409 27.2974 2.37974 27.2974 8.99851C27.2974 15.6173 27.2958 15.7129 27.1834 15.9252C27.11 16.0637 26.9898 16.1795 26.8459 16.2502C26.624 16.3592 26.5377 16.36 14.4958 16.36H2.3692L2.14332 16.2377C2.01076 16.166 1.87305 16.0317 1.81002 15.9127C1.70623 15.7168 1.70266 15.4829 1.70498 8.98706C1.70764 1.43005 1.6718 2.03511 2.13256 1.76655L2.3538 1.63759L14.4881 1.63732C26.538 1.63705 26.624 1.63781 26.8459 1.74682ZM6.72876 5.56654C6.48968 5.68809 6.28928 6.00981 6.28928 6.27204C6.28928 6.54261 6.48957 6.85676 6.74082 6.98021C6.96149 7.08862 7.05922 7.08998 14.5 7.08998C21.9408 7.08998 22.0385 7.08862 22.2592 6.98021C22.5105 6.85676 22.7107 6.54261 22.7107 6.27204C22.7107 6.00147 22.5105 5.68732 22.2592 5.56387C22.0385 5.45546 21.9433 5.45416 14.4881 5.4565C7.08533 5.4589 6.9364 5.46097 6.72876 5.56654ZM6.72876 11.0195C6.48968 11.141 6.28928 11.4627 6.28928 11.725C6.28928 11.9955 6.48957 12.3097 6.74082 12.4331C6.93108 12.5266 7.0744 12.5429 7.70493 12.5429C8.33545 12.5429 8.47878 12.5266 8.66904 12.4331C8.92029 12.3097 9.12057 11.9955 9.12057 11.725C9.12057 11.4544 8.92029 11.1403 8.66904 11.0168C8.4773 10.9226 8.33868 10.9074 7.69304 10.9094C7.05617 10.9115 6.90792 10.9284 6.72876 11.0195ZM11.2588 11.0195C11.0197 11.141 10.8193 11.4627 10.8193 11.725C10.8193 11.9955 11.0196 12.3097 11.2709 12.4331C11.4611 12.5266 11.6045 12.5429 12.235 12.5429C12.8655 12.5429 13.0088 12.5266 13.1991 12.4331C13.4503 12.3097 13.6506 11.9955 13.6506 11.725C13.6506 11.4544 13.4503 11.1403 13.1991 11.0168C13.0074 10.9226 12.8687 10.9074 12.2231 10.9094C11.5862 10.9115 11.438 10.9284 11.2588 11.0195ZM15.7889 11.0195C15.5498 11.141 15.3494 11.4627 15.3494 11.725C15.3494 11.9955 15.5497 12.3097 15.8009 12.4331C15.9912 12.5266 16.1345 12.5429 16.765 12.5429C17.3956 12.5429 17.5389 12.5266 17.7291 12.4331C17.9804 12.3097 18.1807 11.9955 18.1807 11.725C18.1807 11.4544 17.9804 11.1403 17.7291 11.0168C17.5374 10.9226 17.3988 10.9074 16.7531 10.9094C16.1163 10.9115 15.968 10.9284 15.7889 11.0195ZM20.3189 11.0195C20.0799 11.141 19.8795 11.4627 19.8795 11.725C19.8795 11.9955 20.0797 12.3097 20.331 12.4331C20.5212 12.5266 20.6646 12.5429 21.2951 12.5429C21.9256 12.5429 22.0689 12.5266 22.2592 12.4331C22.5105 12.3097 22.7107 11.9955 22.7107 11.725C22.7107 11.4544 22.5105 11.1403 22.2592 11.0168C22.0675 10.9226 21.9289 10.9074 21.2832 10.9094C20.6463 10.9115 20.4981 10.9284 20.3189 11.0195Z" fill="#80A1C9"/>
</svg>