<svg xmlns="http://www.w3.org/2000/svg" width="50" height="50" viewBox="0 0 50 50" fill="none">
    <g clip-path="url(#clip0_437_54142)">
        <path fill-rule="evenodd" clip-rule="evenodd" d="M13.1923 0.120743C12.6302 0.428063 12.524 0.919014 12.9125 1.41296C13.2248 1.81008 13.7347 1.81884 14.1197 1.43371C14.2753 1.27809 14.4027 1.07313 14.4027 0.978149C14.4027 0.65423 14.1472 0.243856 13.8659 0.115556C13.5255 -0.0394868 13.4846 -0.0392565 13.1923 0.120743ZM34.1416 1.25734C33.8888 1.36132 33.6534 1.78345 33.6534 2.13296C33.6534 2.40869 34.1942 2.86944 34.5179 2.86944C34.8946 2.86944 35.3825 2.39186 35.3825 2.02287C35.3825 1.4412 34.7074 1.0246 34.1416 1.25734ZM12.6736 10.8251C6.30183 15.5714 0.923162 19.6445 0.720973 19.8763C-0.955106 21.7983 0.485007 24.8951 3.04823 24.8805C3.42863 24.8784 3.93042 24.8086 4.16339 24.7253C4.39636 24.6421 6.49722 23.1531 8.83197 21.4164C11.1667 19.6796 13.6178 17.8566 14.2788 17.3652L15.4805 16.4717H24.4588H33.4372L38.8767 20.5928C41.8685 22.8593 44.5455 24.8306 44.8256 24.9732C45.8196 25.4792 47.2211 25.2741 48.1547 24.486C49.1515 23.6448 49.4656 21.9713 48.8478 20.7945C48.4762 20.0867 48.3028 19.9261 46.2521 18.3908L44.6144 17.1648L44.5806 12.6396C44.5473 8.19601 44.542 8.10563 44.2867 7.62771C43.6059 6.35359 42.5567 5.6978 41.208 5.70345C40.2123 5.7076 39.5248 5.98932 38.8407 6.67347C38.0099 7.50425 37.8741 7.95347 37.8054 10.0968L37.7456 11.9638L33.7574 8.94402C31.5638 7.28315 28.6565 5.08131 27.2966 4.051C25.5925 2.76005 24.7362 2.18057 24.5413 2.18656C24.3548 2.19233 20.3143 5.13342 12.6736 10.8251ZM30.0321 7.54736C32.9431 9.75185 35.9646 12.0392 36.7465 12.6304C38.209 13.7361 38.6127 13.9006 38.8367 13.4822C38.9077 13.3494 38.956 12.3079 38.956 10.9067C38.956 8.66644 38.9688 8.52984 39.2242 8.04604C39.3716 7.76661 39.712 7.38333 39.9804 7.19428C40.3967 6.90114 40.5759 6.8503 41.2003 6.84846C41.8288 6.84673 42.0031 6.89549 42.4326 7.1937C42.7255 7.39716 43.0405 7.7537 43.1923 8.05387C43.4481 8.5597 43.4516 8.62851 43.4516 13.0736C43.4516 16.5077 43.486 17.6225 43.5957 17.7575C43.675 17.8549 44.6089 18.5935 45.6711 19.3989C47.7391 20.9667 48.0644 21.3483 48.0607 22.202C48.0583 22.7582 47.652 23.479 47.1504 23.817C46.712 24.1124 45.7011 24.181 45.2596 23.9454C45.0521 23.8346 36.7669 17.5838 26.8284 10.0397C25.113 8.73756 24.7358 8.49825 24.4653 8.54079C24.269 8.57168 20.2278 11.5077 14.1145 16.0611C8.59866 20.1694 3.96558 23.5765 3.81884 23.6324C2.99013 23.9478 1.99936 23.6378 1.44501 22.8898C1.12385 22.4564 1.10576 21.2799 1.41296 20.8111C1.59694 20.5303 3.85007 18.8215 13.5186 11.6297C14.8393 10.6473 17.848 8.40523 20.2045 6.64742C22.5611 4.88961 24.5454 3.47117 24.6142 3.49538C24.683 3.51947 27.1211 5.34298 30.0321 7.54736ZM4.63152 8.63485C4.37872 8.73883 4.14333 9.16096 4.14333 9.51047C4.14333 9.78621 4.6842 10.247 5.00788 10.247C5.3846 10.247 5.87244 9.76938 5.87244 9.40039C5.87244 8.81872 5.19739 8.40212 4.63152 8.63485ZM48.1676 9.88626C47.9775 10.0403 47.9012 10.2222 47.9012 10.5219C47.9012 11.0159 48.1007 11.2517 48.604 11.3523C48.8999 11.4116 49.0258 11.3691 49.2653 11.1296C49.6387 10.7562 49.6434 10.3188 49.2781 9.95358C48.9405 9.61583 48.5321 9.59105 48.1676 9.88626ZM28.2197 12.5236L31.8449 15.2614L28.1381 15.2918C26.0995 15.3085 22.7825 15.3085 20.7669 15.2918L17.1024 15.2614L20.7884 12.5236C22.8156 11.0179 24.5013 9.78586 24.5344 9.78586C24.5676 9.78586 26.226 11.0179 28.2197 12.5236ZM18.5128 18.4117C18.2634 18.6872 18.2721 18.8426 18.5525 19.123C18.777 19.3475 18.9367 19.3536 24.6044 19.3536C30.2721 19.3536 30.4318 19.3475 30.6563 19.123C30.9338 18.8454 30.9383 18.7868 30.7073 18.4571L30.528 18.2008H24.6157C19.0345 18.2008 18.6928 18.2126 18.5128 18.4117ZM32.5438 21.6656C32.2005 21.7926 32.0012 22.0955 32.0012 22.4901C32.0012 23.1977 32.9088 23.5319 33.4028 23.0061C34.01 22.3596 33.3697 21.3601 32.5438 21.6656ZM18.5015 24.1055C18.3673 24.297 18.322 24.6607 18.322 25.5464V26.7311L16.0453 26.7336C13.5486 26.7364 13.1325 26.8258 12.4036 27.516C10.7566 29.0758 11.6999 32.0354 13.9387 32.3323L14.4708 32.4029L15.6595 39.7976C16.3132 43.8646 16.9227 47.3737 17.014 47.5956C17.5163 48.8173 18.6003 49.6758 19.9214 49.8987C20.4537 49.9885 22.1246 50.018 25.0775 49.9896C30.2132 49.9404 30.164 49.9496 31.3005 48.8151C31.8073 48.309 32.0548 47.9541 32.1908 47.538C32.3391 47.0844 34.6908 32.9283 34.6908 32.4892C34.6908 32.4288 34.814 32.3795 34.9645 32.3795C35.3759 32.3795 36.1449 32.0793 36.5761 31.7504C37.014 31.4165 37.5103 30.5575 37.6187 29.946C37.8039 28.9005 37.1683 27.6295 36.184 27.0769L35.6707 26.7887L29.8493 26.7311L24.028 26.6734L23.9967 25.4054C23.9713 24.3805 23.9284 24.1098 23.7729 23.9933C23.6331 23.8887 22.9111 23.8492 21.1307 23.8492C18.7298 23.8492 18.6773 23.8543 18.5015 24.1055ZM22.9054 29.8147L22.8753 34.6273L21.175 34.6593L19.4747 34.6911V29.8466V25.002H21.2051H22.9355L22.9054 29.8147ZM18.322 29.5553V31.2268H16.1857C13.8036 31.2268 13.4584 31.1516 13.0212 30.5377C12.4618 29.7521 12.6616 28.6847 13.4687 28.1455C13.8422 27.8959 13.9638 27.8838 16.0912 27.8838H18.322V29.5553ZM35.6097 28.055C36.4165 28.4722 36.7148 29.4662 36.2824 30.296C35.7824 31.2555 35.9887 31.2268 29.5918 31.2268H23.9704V29.5553V27.8838H29.6246C34.3994 27.8838 35.3302 27.9104 35.6097 28.055ZM1.56754 29.2474C1.10622 29.7571 1.49849 30.6504 2.18368 30.6504C2.86483 30.6504 3.22149 29.8786 2.81111 29.2928C2.58022 28.9631 1.84892 28.9364 1.56754 29.2474ZM45.2582 30.2329C44.5054 30.4438 43.8161 30.9477 43.3668 31.6157C42.8893 32.3255 42.7195 32.9639 42.7925 33.7758C42.9553 35.5897 44.3508 36.8729 46.1606 36.8729C49.0829 36.8729 50.6071 33.4902 48.6927 31.2535C47.9131 30.3427 46.4345 29.9033 45.2582 30.2329ZM47.4279 31.6585C48.3591 32.305 48.6694 33.5781 48.14 34.5804C47.321 36.1313 45.0001 36.1313 44.1811 34.5804C43.5301 33.3479 44.1714 31.7596 45.4903 31.3375C46.0431 31.1607 46.92 31.306 47.4279 31.6585ZM18.322 33.856C18.322 34.9484 18.3645 35.3908 18.4854 35.5563C18.6363 35.763 18.8282 35.7827 20.9971 35.8152C22.4203 35.8365 23.4686 35.8037 23.6579 35.7316L23.9704 35.6129V33.9962V32.3795H28.7543C32.0213 32.3795 33.5381 32.4179 33.5381 32.5006C33.5381 32.9586 31.2009 46.9873 31.074 47.2911C30.9862 47.5011 30.7182 47.8636 30.4783 48.0965C29.7272 48.826 29.4391 48.8636 24.6017 48.8636C20.0468 48.8636 19.6524 48.8241 18.9071 48.2935C18.0905 47.712 18.0778 47.661 16.8263 39.9018C16.1907 35.9612 15.6707 32.6566 15.6707 32.5583C15.6707 32.4072 15.8754 32.3795 16.9963 32.3795H18.322V33.856ZM5.78321 36.4299C3.64788 36.7753 2.15624 38.8813 2.54449 41.0023C3.11232 44.1043 6.96823 45.367 9.15981 43.1686C9.97906 42.347 10.2856 41.6588 10.3436 40.511C10.3814 39.7631 10.3426 39.4572 10.1425 38.9268C9.8405 38.126 9.08453 37.2589 8.3333 36.8516C7.83969 36.5841 7.57791 36.5098 6.62171 36.3661C6.49491 36.3471 6.11762 36.3758 5.78321 36.4299ZM37.8787 36.6249C37.6163 36.9149 37.6367 37.5155 37.9185 37.7974C38.4342 38.3131 39.3018 37.9267 39.3018 37.1812C39.3018 36.954 39.2152 36.7172 39.091 36.6048C38.8061 36.347 38.1199 36.3584 37.8787 36.6249ZM7.24166 37.6309C8.44396 37.988 9.21537 39.0374 9.21537 40.3159C9.21537 41.1477 9.04246 41.627 8.53307 42.2071C7.51428 43.3675 5.62621 43.4456 4.50783 42.3736C3.8918 41.7832 3.64074 41.1926 3.64028 40.3334C3.63993 39.4967 3.83405 39.0108 4.41561 38.3927C5.20431 37.5544 6.13722 37.3029 7.24166 37.6309ZM45.3692 45.068C44.7614 45.5462 45.1178 46.5582 45.8942 46.5582C46.6452 46.5582 46.9745 45.539 46.3756 45.068C46.2085 44.9366 45.9821 44.829 45.8724 44.829C45.7626 44.829 45.5362 44.9366 45.3692 45.068ZM10.794 47.2626C10.0745 47.6811 10.4914 48.8636 11.3587 48.8636C11.6361 48.8636 12.0972 48.3239 12.0972 47.9991C12.0972 47.3872 11.3275 46.9522 10.794 47.2626Z" fill="white"/>
    </g>
    <defs>
        <clipPath id="clip0_437_54142">
            <rect width="50" height="50" fill="white"/>
        </clipPath>
    </defs>
</svg>