<svg xmlns="http://www.w3.org/2000/svg" viewBox="0 0 30 14"><title>Capital Code X Privacy Act (CCPA) Opt-Out Icon</title><path d="m7.4,12.8h6.8l3.1-11.6H7.4c-3.2,0-5.8,2.6-5.8,5.8s2.6,5.8,5.8,5.8Z" style="fill:#fff;fill-rule:evenodd;stroke-width:0px"></path><path d="m22.6,0H7.4C3.5,0,.4,3.1.4,7s3.1,7,7,7h15.2c3.9,0,7-3.1,7-7S26.4,0,22.6,0ZM1.6,7C1.6,3.8,4.2,1.2,7.4,1.2h9.9l-3.1,11.6h-6.8c-3.2,0-5.8-2.6-5.8-5.8Z" style="fill:#06f;fill-rule:evenodd;stroke-width:0px"></path><path d="m24.6,4c.2.2.2.6,0,.8h0l-2.1,2.2,2.2,2.2c.2.2.2.6,0,.8s-.6.2-.8,0h0l-2.2-2.2-2.2,2.2c-.2.2-.6.2-.8,0-.2-.2-.2-.6,0-.8h0l2.1-2.2-2.2-2.2c-.2-.2-.2-.6,0-.8.2-.2.6-.2.8,0h0l2.2,2.2,2.2-2.2c.2-.2.6-.2.8,0Z" style="fill:#fff;stroke-width:0px"></path><path d="m12.7,4.1c.2.2.3.6.1.8h0l-4.2,4.9c-.1.1-.2.2-.3.2-.2.1-.5.1-.7-.1h0l-2.2-2.2c-.2-.2-.2-.6,0-.8.2-.2.6-.2.8,0h0l1.8,1.7,3.8-4.5c.2-.2.6-.2.9,0Z" style="fill:#06f;stroke-width:0px"></path></svg>