<svg xmlns="http://www.w3.org/2000/svg" xmlns:xlink="http://www.w3.org/1999/xlink" version="1.1" id="Laag_1" x="0px" y="0px" viewBox="0 0 225 190" style="enable-background:new 0 0 225 190;" xml:space="preserve"> <style type="text/css"> .st0{fill:#000000;} .st1{display:none;} .st2{display:inline;fill:#1D1D1B;} </style> <g> <path class="st0" d="M184.78,128.93c-1.38-0.54-2.94,0.14-3.48,1.52c-1.02,2.6-2.51,5.77-3.99,8.49 c-2.68,4.93-6.71,10.6-10.78,15.17c-2.59,2.91-5.42,5.54-8.9,8.28c-1.74,1.37-3.62,2.67-5.07,3.64c-1.86,1.26-3.82,2.42-6,3.58 c-3.61,1.91-7.52,3.57-11.63,4.93c-11.45,3.79-23.84,4.71-35.81,2.66c-4.38-0.75-9.28-2.09-13.45-3.68 c-4.04-1.53-9.49-4.19-12.15-5.92c-1.24-0.81-2.9-0.45-3.71,0.79c-0.81,1.24-0.45,2.9,0.79,3.71c3.32,2.16,9.31,4.96,13.17,6.43 c4.55,1.73,9.68,3.13,14.45,3.95c4.46,0.77,8.98,1.15,13.49,1.15c8.46,0,16.9-1.34,24.92-4c4.39-1.46,8.58-3.23,12.45-5.28 c2.34-1.24,4.46-2.51,6.48-3.87c1.53-1.03,3.52-2.4,5.4-3.88c3.73-2.94,6.78-5.78,9.58-8.92c4.33-4.85,8.62-10.9,11.49-16.17 c1.58-2.91,3.18-6.31,4.27-9.1C186.84,131.03,186.16,129.47,184.78,128.93L184.78,128.93z"></path> <path class="st0" d="M172.97,60.44c1.3,1.87,1.7,2.5,2.28,3.45l0.14,0.23c0.24,0.38,0.5,0.81,0.82,1.36 c0.58,1.02,0.9,1.57,1.12,1.93c0.31,0.52,0.33,0.56,0.64,1.21c0.46,0.97,1.42,1.54,2.43,1.54c0.38,0,0.77-0.08,1.14-0.26 c1.34-0.63,1.91-2.23,1.28-3.57c-0.4-0.84-0.51-1.03-0.87-1.65c-0.21-0.35-0.52-0.87-1.07-1.85c-0.37-0.64-0.68-1.14-0.93-1.54 l-0.14-0.22c-0.68-1.09-1.14-1.81-2.44-3.69c-4.4-6.34-9.8-11.54-10.84-12.52c-3.72-3.51-7.93-6.76-12.87-9.94 c-3.97-2.55-8.52-4.77-13.93-6.77c-5.41-2-10.45-3.33-15.43-4.05c-4.34-0.63-8.26-0.95-11.99-0.97 c-5.49-0.03-11.02,0.52-16.89,1.68c-3.05,0.6-6.23,1.48-9.73,2.69c-5.92,2.05-11.45,4.72-16.89,8.16 c-2.87,1.81-10.16,6.75-16.01,13.47c-2.73,3.14-5.56,6.5-7.71,9.86l-0.16,0.25c-1.8,2.81-2.89,4.5-3.97,6.7 c-0.65,1.33-0.11,2.94,1.22,3.59c1.33,0.65,2.94,0.11,3.59-1.22c0.95-1.93,1.92-3.43,3.67-6.17l0.16-0.26 c1.97-3.07,4.65-6.25,7.24-9.23C62.38,46.3,69.6,41.51,71.68,40.2c5.09-3.22,10.25-5.72,15.78-7.63c3.26-1.13,6.21-1.95,9.02-2.5 c5.52-1.09,10.71-1.61,15.82-1.58c3.47,0.02,7.15,0.32,11.24,0.91c4.59,0.67,9.28,1.9,14.33,3.77c5.04,1.87,9.26,3.91,12.89,6.25 c4.65,3,8.61,6.05,12.09,9.33C165.54,51.29,169.79,55.87,172.97,60.44L172.97,60.44z"></path> <path class="st0" d="M57.58,101.16c0.45,0.75,0.84,0.97,1.13,0.99c-0.22-0.63-0.42-1.37-0.58-2.23c-0.4-2.09-0.57-4.2-0.5-6.22 c0.21-6.1,2.59-11.28,7.07-13.09c0.24-0.1,0.51-0.18,0.79-0.26c-0.03-0.94-0.08-1.85-0.18-2.74c-0.83,0.14-1.68,0.33-2.36,0.61 c-4.48,1.81-6.85,6.99-7.07,13.09c-0.07,2.03,0.1,4.14,0.5,6.22C56.7,99.16,57.13,100.4,57.58,101.16L57.58,101.16z"></path> <path class="st0" d="M51.81,141.79l-1.15-11.3l2.64-1.08c1.75-0.72,3.29-1.13,4.47-1.09c0.01,0,0.01,0,0.02,0 c0.56,0.04,1.06,0.14,1.5,0.37c-0.71-2.08-1.75-2.66-3.24-2.76l-0.02,0c-1.18-0.04-2.72,0.37-4.47,1.09l-2.64,1.08l1.46,14.29 L51.81,141.79L51.81,141.79z"></path> <polygon class="st0" points="26.06,119.32 26.72,125.39 10.07,132.2 10.39,135.17 28.46,127.79 27.49,118.73 26.06,119.32 "></polygon> <polygon class="st0" points="4.49,89.57 4.81,92.54 7.63,91.39 7.31,88.42 4.49,89.57 "></polygon> <path class="st0" d="M54.23,91.25c0.22-6.43,2.74-12.36,8.1-14.57c1.16-0.47,2.48-0.69,3.6-0.84l0.82-0.11l0.11,0.82 c0.1,0.73,0.17,1.48,0.22,2.24c0.01,0.14,0.02,0.28,0.03,0.42c0.04,0.77,0.07,1.56,0.07,2.35c0,0.49-0.01,0.99-0.02,1.48 c-0.16,4.53-0.98,9.19-2.24,12.94c-1.28,3.74-2.85,6.64-5.1,7.63l-0.01,0c-0.11,0.05-0.23,0.07-0.34,0.1v0 c-0.11,0.03-0.21,0.05-0.32,0.07c-0.14,0.02-0.29,0.04-0.43,0.03c-1.09-0.04-1.94-0.8-2.54-1.81c-0.61-1.03-1.06-2.42-1.4-4.17 C54.33,95.64,54.15,93.41,54.23,91.25L54.23,91.25z M55.29,111.94c1.09,0.04,2.29-0.2,3.56-0.72c4.99-2.03,9.01-8.06,9.81-19.21 l0.04-0.52l1.94-0.79l-0.07,1.3c-0.01,0.14-0.01,0.29-0.02,0.44c-0.15,4.2,0.09,8.71,0.46,13.05l10.09-4.13l-0.61-5.62l-1.04,0.43 v0l-3.01,1.23l-2.61-22.98c-0.09-0.83-0.16-1.7-0.22-2.57c-0.06-0.87-0.1-1.75-0.12-2.64l0,0c-0.01-0.43-0.04-0.86-0.04-1.3 l-2.25,0.92l-0.13,0.01c-2.8,0.19-5.85,0.78-9.18,2.14c-8.34,3.41-14.46,11.75-14.86,23.06c-0.04,1.21-0.01,2.45,0.08,3.72v0 c0,0,0,0,0,0c0.05,0.7,0.12,1.41,0.22,2.13c0,0.02,0,0.04,0.01,0.06c0.1,0.74,0.22,1.48,0.36,2.24 C49.08,109.13,51.94,111.81,55.29,111.94L55.29,111.94z"></path> <path class="st0" d="M104.43,55.87l-0.11-0.9c-2.51,0.18-5.23,0.81-8.2,2.02c-7.62,3.13-13.48,10.12-13.85,20.36 c-0.08,2.21,0.1,4.58,0.59,7.1c1.61,8.07,5.2,11.25,10.08,11.46c2.06,0.07,4.41-0.43,6.94-1.46c3.08-1.26,5.96-3.12,8.27-5.67 l-0.37-4.45l0,0l-0.14-1.64c-2.03,2-4.16,3.52-6.41,4.44c-1.45,0.59-2.84,0.89-4.15,0.84c-0.39-0.01-0.77-0.06-1.14-0.14 c-0.16-0.03-0.31-0.07-0.46-0.11c-0.1-0.03-0.2-0.05-0.3-0.09c-0.1-0.03-0.19-0.08-0.29-0.11c-0.1-0.04-0.2-0.08-0.29-0.12 c-0.09-0.04-0.18-0.09-0.27-0.14c-0.09-0.05-0.19-0.1-0.28-0.15c-0.09-0.05-0.17-0.11-0.26-0.17c-0.09-0.06-0.18-0.12-0.26-0.18 c-0.08-0.06-0.17-0.13-0.25-0.2c-0.08-0.07-0.17-0.14-0.25-0.21c-0.08-0.07-0.16-0.15-0.23-0.22c-0.08-0.08-0.16-0.16-0.24-0.24 c-0.07-0.08-0.14-0.16-0.22-0.24c-0.08-0.09-0.15-0.18-0.23-0.28c-0.07-0.09-0.13-0.18-0.2-0.27c-0.07-0.1-0.14-0.2-0.21-0.31 c-0.06-0.09-0.12-0.19-0.18-0.29c-0.07-0.11-0.13-0.23-0.2-0.34c-0.06-0.1-0.11-0.2-0.17-0.31c-0.06-0.12-0.12-0.25-0.18-0.38 c-0.05-0.11-0.1-0.22-0.15-0.33c-0.06-0.14-0.11-0.28-0.17-0.42c-0.04-0.11-0.09-0.22-0.13-0.34c-0.05-0.15-0.1-0.31-0.16-0.47 c-0.04-0.11-0.07-0.22-0.11-0.34c-0.05-0.18-0.1-0.37-0.15-0.56c-0.03-0.1-0.05-0.2-0.08-0.3c-0.07-0.29-0.13-0.6-0.19-0.91 c-0.37-1.92-0.5-3.67-0.45-5.27c0.22-6.55,3.68-10.45,7-11.8c0.58-0.23,1.18-0.4,1.78-0.39c0.19,0.01,0.38,0.04,0.59,0.11 l0.42,0.17l0.84,4.33l5.43-2.22L104.43,55.87L104.43,55.87L104.43,55.87z"></path> <path class="st0" d="M56.98,115.99c1.37,0.05,2.8-0.25,4.24-0.84c3.41-1.4,6.26-4.32,8.21-8.79c-0.18-2.01-0.34-4.06-0.44-6.11 c-1.83,6.62-5.23,10.75-9.51,12.51c-1.44,0.59-2.86,0.89-4.24,0.84c-2-0.07-3.79-0.88-5.28-2.41 C51.68,114.27,54.12,115.89,56.98,115.99L56.98,115.99z"></path> <path class="st0" d="M94.64,99.96c2.37,0.08,4.94-0.49,7.63-1.59c3.38-1.38,6.58-3.46,9.12-6.38l0.23-0.27l-0.03-0.35l-0.82-9.73 c-0.06-0.1-0.12-0.2-0.18-0.3l-1.14,1.27c-0.04,0.05-0.09,0.09-0.13,0.14l0.52,6.23l0.03,0.35l-0.23,0.26 c-2.54,2.91-5.74,4.99-9.12,6.38c-2.69,1.1-5.26,1.67-7.63,1.58l-0.08,0c-2.86-0.1-5.36-1.2-7.34-3.33 c2.16,3.69,5.31,5.59,9.1,5.73C94.59,99.96,94.62,99.96,94.64,99.96L94.64,99.96z"></path> <path class="st0" d="M98.34,66.88l-0.55-2.83c-0.22,0.04-0.5,0.12-0.75,0.23c-2.68,1.1-5.75,4.34-5.97,10.32 c-0.05,1.46,0.07,3.09,0.42,4.9c0.59,2.9,1.55,4.73,2.8,5.75c-0.42-0.91-0.78-2.02-1.05-3.36c-0.35-1.8-0.47-3.43-0.42-4.9 C93.03,71.34,95.78,68.15,98.34,66.88L98.34,66.88z"></path> <path class="st0" d="M71.21,109.16l0.01,0.15l10.57-4.32l0.11,0.95l2.73-1.12l-0.98-9.05l-1.43,0.58l0.66,6.08l-11.84,4.84 C71.11,107.9,71.15,108.54,71.21,109.16L71.21,109.16z"></path> <path class="st0" d="M22.49,85.32c1.69-0.69,3.12-1.03,4.23-0.98c0.57,0.04,1.06,0.16,1.49,0.36c-0.62-2.01-1.61-2.65-3.23-2.76 c-1.1-0.04-2.54,0.29-4.23,0.98l-2.96,1.21l1.42,13.4l1.43-0.59l-1.1-10.42L22.49,85.32L22.49,85.32z"></path> <polygon class="st0" points="69.41,122.61 73.09,121.11 72.76,118.14 69.09,119.63 69.41,122.61 "></polygon> <path class="st0" d="M76.91,67.82l-1.17,0.48l-0.61,0.25c0.03,1.93,0.17,3.87,0.37,5.69l2.36,20.8l1.41-0.58l-2.03-17.83 c-0.26-2.41-0.42-5.02-0.36-7.55L76.91,67.82L76.91,67.82z"></path> <polygon class="st0" points="57.19,163.27 57.85,169.35 41.2,176.15 41.52,179.13 59.6,171.74 58.62,162.69 57.19,163.27 "></polygon> <path class="st0" d="M139.79,80.25l-0.02-0.37l-0.55-10.69l-1.32,1.32c-0.07,0.07-0.15,0.15-0.23,0.22l0.35,6.75l0.02,0.36 l-0.26,0.26c-2.81,2.85-6.29,5.19-10.44,6.89c-3,1.22-5.72,1.84-8.16,1.76c-0.03,0-0.05,0-0.08,0c-2.69-0.09-4.96-1.11-6.74-2.99 c1.93,3.41,4.82,5.25,8.49,5.38c0.03,0,0.05,0,0.08,0c2.44,0.08,5.16-0.53,8.16-1.75c4.15-1.7,7.63-4.04,10.44-6.89L139.79,80.25 L139.79,80.25z"></path> <path class="st0" d="M38.72,85.13c-0.17,5.22-2.68,9.96-7.67,13.44c1.12,0.16,2.16,0.62,3.1,1.36c4.09-3.36,6.16-7.69,6.31-12.41 c0.05-1.44-0.07-2.92-0.36-4.42c-0.5-2.72-1.58-4.89-3.11-6.43c0.62,1.17,1.09,2.51,1.36,4.04C38.64,82.21,38.77,83.69,38.72,85.13 L38.72,85.13z"></path> <path class="st0" d="M122.73,51.99c0.73-0.3,1.44-0.46,2.11-0.43c1.43,0,2.63,1.09,2.87,2.63c0.08,0.44,0.12,0.91,0.11,1.4 c-0.01,0.3-0.05,0.6-0.11,0.91c-0.5,2.79-2.82,5.84-8.1,9.2c-0.3,0.19-0.61,0.38-0.93,0.58c-0.35,0.21-0.71,0.43-1.09,0.65 l-1.09,0.62l-0.15-1.24c-0.13-1.08-0.18-2.16-0.14-3.23C116.36,58.35,118.28,53.82,122.73,51.99L122.73,51.99z M119.25,85.11 c2.11,0.08,4.62-0.47,7.48-1.63c3.83-1.57,7.02-3.69,9.63-6.26l-0.34-6.64c-2.54,2.37-5.46,4.57-8.71,5.9 c-1.46,0.59-2.96,0.98-4.4,0.94c-0.14,0-0.28-0.03-0.42-0.04c-0.28-0.03-0.56-0.07-0.83-0.14c-0.01,0-0.01,0-0.02-0.01 c-0.26-0.07-0.51-0.16-0.76-0.26c-0.03-0.01-0.05-0.02-0.07-0.04c-0.23-0.1-0.45-0.22-0.66-0.36c-0.05-0.03-0.09-0.07-0.14-0.1 c-0.19-0.13-0.37-0.27-0.55-0.44c-0.07-0.06-0.13-0.14-0.2-0.21c-0.15-0.15-0.29-0.3-0.42-0.47c-0.08-0.11-0.16-0.24-0.24-0.36 c-0.1-0.15-0.21-0.3-0.3-0.47c-0.1-0.18-0.18-0.38-0.26-0.58c-0.06-0.14-0.13-0.26-0.18-0.41c-0.13-0.36-0.24-0.74-0.33-1.15 l-0.15-0.64l0.59-0.29c11.81-5.87,16.76-13.22,16.96-19.27c0.03-0.88-0.04-1.73-0.19-2.56c-0.07-0.35-0.16-0.67-0.26-0.99 c-0.02-0.07-0.04-0.13-0.06-0.2c-0.1-0.3-0.21-0.58-0.34-0.85c-0.02-0.05-0.05-0.09-0.07-0.14c-0.12-0.23-0.25-0.46-0.39-0.66 c-0.03-0.04-0.05-0.09-0.08-0.13c-0.16-0.22-0.33-0.42-0.52-0.61c-0.05-0.05-0.1-0.09-0.14-0.14c-0.2-0.18-0.4-0.35-0.63-0.5 c-0.79-0.5-1.78-0.8-2.99-0.85l-0.01,0c-1.52-0.05-3.44,0.32-5.74,1.26c-8.7,3.57-13.66,11.33-14.02,21.19 c-0.06,1.8,0.03,3.68,0.29,5.6c0,0.01,0,0.03,0,0.04c0.09,0.69,0.21,1.39,0.34,2.09C111.53,81.92,114.56,84.91,119.25,85.11 L119.25,85.11z"></path> <path class="st0" d="M119.31,72.62c0.45,1.41,1.07,2.2,1.84,2.64c-0.03-0.09-0.07-0.16-0.09-0.25 c11.67-5.97,17.01-13.56,17.26-20.39c0.03-1-0.04-1.98-0.22-2.93c-0.34-1.89-1.17-3.52-2.46-4.67c0.32,0.7,0.57,1.46,0.71,2.27 c0.18,0.95,0.26,1.93,0.22,2.93C136.32,59.06,130.98,66.65,119.31,72.62L119.31,72.62z"></path> <polygon class="st0" points="35.62,133.53 35.94,136.5 38.77,135.35 38.44,132.37 35.62,133.53 "></polygon> <path class="st0" d="M71.57,128.81c-0.55-3.33-1.69-5.84-3.32-7.55c0.74,1.41,1.29,3.12,1.62,5.12c0.28,1.61,0.38,3.19,0.3,4.73 c-0.43,8.38-6.14,15.35-15.12,18.82l-3.95,1.54l1.03,10.65l1.42-0.55l-0.74-7.68l3.95-1.53c8.98-3.48,14.69-10.45,15.12-18.83 C71.95,132,71.86,130.42,71.57,128.81L71.57,128.81z"></path> <path class="st0" d="M16.07,83.69L16,83.07l4.11-1.68c1.81-0.74,3.44-1.15,4.91-1.11c2.58,0.03,4.51,1.86,5.04,5.02 c0.19,0.99,0.27,1.92,0.24,2.82c-0.17,4.96-3.71,8.21-8.42,10.11l-4.11,1.68L16.07,83.69L16.07,83.69z M24.46,119.97L24.46,119.97 l-0.14-1.26l-4.25,1.74l-1.63-14.94l1.99-0.81c0.81-0.33,1.56-0.56,2.36-0.53c1.55,0.06,2.79,1.07,4.32,3.04l7.48,9.63 c1.04,1.3,2.02,1.77,3.13,1.82c0.69,0.02,1.46-0.14,2.32-0.49l5.92-2.42l-0.47-4.36l0,0l-0.14-1.26l-1.43,0.59 c-0.24,0.1-0.5,0.17-0.78,0.21l0,0c-0.17,0.03-0.34,0.06-0.52,0.05c-1.22-0.07-2.16-0.87-3.43-2.43l-4.85-6.05 c-1.28-1.56-2.54-2.24-4.06-2.3c-0.72-0.03-1.51,0.1-2.4,0.4l-0.9,0.3l-0.18-0.93l-0.15-0.75l0.56-0.28 c6.61-3.37,9.6-8.25,9.81-13.83c0.05-1.31-0.07-2.66-0.33-4.04c-0.08-0.39-0.17-0.76-0.27-1.11c-0.03-0.1-0.06-0.2-0.09-0.3 c-0.08-0.27-0.16-0.53-0.25-0.77c-0.03-0.08-0.06-0.17-0.09-0.25c-0.25-0.65-0.54-1.24-0.86-1.76c-0.02-0.04-0.05-0.07-0.07-0.11 c-0.15-0.24-0.31-0.46-0.48-0.68c-0.02-0.02-0.04-0.05-0.05-0.07c-1.38-1.7-3.29-2.55-5.72-2.66c-1.98-0.07-4.32,0.41-6.95,1.49 L3.87,82.16L4,83.42l0,0l0.47,4.36l4.24-1.74l4.08,37.38l-0.17,0.07v0l-3.17,1.3l0.14,1.26h0l0.47,4.36l14.88-6.08L24.46,119.97 L24.46,119.97z"></path> <path class="st0" d="M24.5,108.2c0.74,0.02,1.59,0.5,3.07,2.4l7.48,9.64c1.14,1.47,2.54,2.28,4.03,2.42l10.34-4.23l-0.89-8.3 l-1.43,0.58l0.66,6.08l-7.08,2.89c-1.01,0.41-2.01,0.65-3.01,0.61c-1.62-0.05-3.14-0.87-4.38-2.45l-7.48-9.63 c-1.48-1.9-2.32-2.38-3.07-2.4c-0.43-0.02-0.96,0.11-1.68,0.41l-0.84,0.34l1.26,11.51l1.42-0.58l-0.93-8.54l0.84-0.34 C23.54,108.32,24.07,108.19,24.5,108.2L24.5,108.2z"></path> <polygon class="st0" points="88.08,147.54 83.54,107.38 82.13,107.96 86.67,148.12 88.08,147.54 "></polygon> <path class="st0" d="M100.55,71.66l7.23-2.96c-0.01-0.59-0.01-1.17,0.01-1.75c0.05-1.61,0.24-3.17,0.53-4.67l-0.79-6.64l-0.76,0.03 c-0.23,0.01-0.46,0.03-0.69,0.04l1.2,10.1l-7.28,2.97L100.55,71.66L100.55,71.66z"></path> <path class="st0" d="M119.8,63.58c0.54-3.52,2.22-6.41,5.3-7.67c0.4-0.16,0.74-0.24,1.04-0.27c0-0.04,0.01-0.08,0.01-0.12 c0.01-0.36-0.02-0.7-0.08-1.03c-0.25-1-0.56-1.21-1.3-1.28c-0.37-0.01-0.85,0.08-1.42,0.31c-3.64,1.48-5.33,5.23-5.5,9.61 c-0.02,0.56-0.01,1.12,0.02,1.69C118.58,64.4,119.21,63.99,119.8,63.58L119.8,63.58z"></path> <path class="st0" d="M104.45,151.06c-1.44,0.59-2.87,0.89-4.24,0.84c-2-0.07-3.79-0.88-5.28-2.41c1.73,3.09,4.16,4.71,7.02,4.8 c1.38,0.05,2.8-0.25,4.24-0.84c3.41-1.4,6.26-4.32,8.21-8.79c-0.18-2.01-0.34-4.06-0.44-6.11 C112.13,145.16,108.73,149.3,104.45,151.06L104.45,151.06z"></path> <path class="st0" d="M137.8,98.71c0.2,1.63,0.38,3.26,0.49,4.9c0.33-1.17,0.73-2.24,1.16-3.27c-0.05-0.38-0.09-0.76-0.15-1.13 l-0.15-1.05L137.8,98.71L137.8,98.71z"></path> <polygon class="st0" points="168.4,127.27 167.43,118.22 166,118.8 166.66,124.88 153.71,130.17 153.88,133.21 168.4,127.27 "></polygon> <path class="st0" d="M144.63,114.61c1.33-5.95,3.56-9.97,5.61-10.92c-0.01-0.04-0.01-0.09-0.02-0.12c-0.2-1.06-0.47-1.74-0.7-2.09 c-0.25-0.35-0.33-0.34-0.46-0.36c-0.08,0-0.2,0.01-0.37,0.09c-2.11,0.78-4.43,4.87-5.81,11.01c-0.86,3.68-1.25,7.09-1.37,10.42 c-0.14,3.91,0.11,7.72,0.43,11.72l0.05,0.61l-8.52,3.48c0.03,0.65,0.06,1.28,0.07,1.87l0.03,1.19l10.16-4.15l-0.05-0.6 c-0.32-4-0.57-7.81-0.43-11.72C143.38,121.7,143.77,118.29,144.63,114.61L144.63,114.61z"></path> <polygon class="st0" points="128.73,108.76 125.76,109.98 126.08,112.95 129.1,111.72 128.73,108.76 "></polygon> <path class="st0" d="M116.28,148.57l13.33-5.45l-0.98-9.05l-1.43,0.58l0.66,6.08l-11.84,4.84c0.05,0.63,0.1,1.26,0.16,1.89 L116.28,148.57L116.28,148.57z"></path> <path class="st0" d="M161.68,100.01c-0.59-3.21-1.68-5.41-3.11-6.72c0.58,1.16,1.05,2.6,1.36,4.33c0.48,2.47,0.86,5.2,1.05,8.01 l0.88,11.76l1.52-0.62l-0.65-8.75C162.54,105.21,162.15,102.48,161.68,100.01L161.68,100.01z"></path> <path class="st0" d="M194.04,82.07l0.03,0.24c-0.04-0.07-0.09-0.13-0.13-0.2l-0.71,0.29c0.02,0.1,0.05,0.2,0.07,0.3 c0.18,0.95,0.26,1.93,0.22,2.93c-0.25,6.82-5.59,14.42-17.26,20.39c0.45,1.41,1.07,2.2,1.84,2.64c-0.03-0.09-0.07-0.16-0.09-0.25 c11.67-5.97,17.01-13.56,17.26-20.39c0.04-1-0.04-1.98-0.22-2.93c-0.02-0.1-0.04-0.2-0.07-0.31l2.51-1.03l-0.35-2.96L194.04,82.07 L194.04,82.07z"></path> <path class="st0" d="M181.73,86.62L181.73,86.62c-0.38-0.01-0.86,0.08-1.42,0.31c-3.64,1.48-5.33,5.23-5.5,9.6 c-0.02,0.56-0.01,1.12,0.02,1.69c0.7-0.42,1.33-0.83,1.92-1.24c0.54-3.52,2.22-6.41,5.3-7.67c0.4-0.16,0.74-0.24,1.04-0.27 c0-0.04,0.01-0.08,0.01-0.12c0.01-0.35-0.02-0.7-0.08-1.03C182.77,86.9,182.46,86.7,181.73,86.62L181.73,86.62z"></path> <path class="st0" d="M121.88,106.12l-1.17,0.48l-0.61,0.25c0.03,1.93,0.17,3.87,0.37,5.69l2.36,20.8l1.41-0.58l-2.03-17.83 c-0.26-2.41-0.42-5.02-0.36-7.55L121.88,106.12L121.88,106.12z"></path> <polygon class="st0" points="207.7,67.03 207.03,61.16 205.64,61.85 206.29,67.61 207.7,67.03 "></polygon> <path class="st0" d="M196.17,102.61l-1.32,1.32c-0.07,0.07-0.15,0.15-0.23,0.22l0.35,6.76l0.02,0.37l-0.26,0.26 c-2.81,2.85-6.29,5.2-10.44,6.89c-3,1.22-5.72,1.84-8.16,1.76l-0.09,0c-2.69-0.09-4.96-1.11-6.74-2.98 c1.93,3.4,4.81,5.25,8.49,5.38c0.03,0,0.05,0,0.08,0c2.44,0.08,5.16-0.53,8.16-1.76c4.15-1.7,7.63-4.04,10.44-6.89l0.26-0.26 l-0.02-0.37L196.17,102.61L196.17,102.61z"></path> <path class="st0" d="M184.7,89.92c-0.5,2.79-2.82,5.84-8.1,9.2v0c-0.3,0.19-0.62,0.39-0.94,0.58c-0.35,0.21-0.71,0.43-1.09,0.64 l-1.08,0.62l-0.15-1.24c-0.13-1.08-0.18-2.17-0.14-3.23c0.15-4.72,2.07-9.25,6.53-11.08c0.73-0.3,1.43-0.46,2.11-0.43 c1.43,0,2.63,1.09,2.87,2.63c0.08,0.44,0.13,0.91,0.11,1.4C184.8,89.31,184.75,89.62,184.7,89.92L184.7,89.92z M186.2,77.99 c-1.52-0.05-3.44,0.32-5.74,1.26c-8.7,3.57-13.66,11.33-14.03,21.2c-0.09,2.46,0.12,5.06,0.64,7.74 c1.44,7.17,4.48,10.15,9.17,10.36c2.11,0.07,4.62-0.47,7.47-1.63c3.83-1.57,7.02-3.69,9.63-6.26l-0.25-4.98l0,0L193,104 c-2.54,2.37-5.46,4.57-8.71,5.9c-1.46,0.59-2.96,0.98-4.4,0.94c-0.14,0-0.28-0.03-0.42-0.04l0,0c-0.28-0.03-0.56-0.07-0.83-0.14 c-0.01,0-0.01,0-0.02-0.01c-0.26-0.07-0.52-0.16-0.76-0.26c-0.02-0.01-0.05-0.02-0.07-0.03c-0.23-0.1-0.45-0.23-0.67-0.37 c-0.05-0.03-0.09-0.07-0.13-0.1c-0.19-0.13-0.37-0.28-0.55-0.44c-0.07-0.06-0.13-0.14-0.19-0.2c-0.15-0.15-0.29-0.3-0.43-0.48 c-0.08-0.11-0.16-0.23-0.23-0.35c-0.1-0.16-0.21-0.31-0.3-0.48c-0.1-0.18-0.17-0.38-0.26-0.57c-0.06-0.14-0.13-0.27-0.18-0.42 c-0.13-0.36-0.24-0.74-0.33-1.15l-0.15-0.64l0.59-0.29c11.81-5.86,16.76-13.21,16.96-19.27c0.03-0.88-0.04-1.74-0.2-2.56 c-0.07-0.35-0.16-0.67-0.26-0.99c-0.02-0.07-0.04-0.14-0.06-0.2c-0.1-0.3-0.21-0.58-0.34-0.85c-0.02-0.05-0.05-0.09-0.07-0.14 c-0.12-0.23-0.25-0.45-0.39-0.66c-0.03-0.04-0.06-0.09-0.09-0.13c-0.16-0.22-0.33-0.42-0.52-0.61c-0.05-0.05-0.1-0.09-0.15-0.14 c-0.2-0.18-0.4-0.35-0.63-0.49l0,0c-0.79-0.5-1.78-0.8-2.99-0.85L186.2,77.99L186.2,77.99z"></path> <path class="st0" d="M207.21,76.69l1.18,10.88c0.29,2.59,0.59,5.94,0.89,7.45c0.4,1.8,0.89,2.12,1.51,2.16 c0.05,0,0.13-0.02,0.2-0.02c-0.28-1.6-0.57-4.74-0.84-7.2l-1.18-10.88l9.01-3.68l-0.98-9.05l-1.42,0.58l0.66,6.08L207.21,76.69 L207.21,76.69z"></path> <path class="st0" d="M220.16,93.9l-1.24,1.24c-0.05,0.05-0.1,0.09-0.14,0.14l0.61,6.31l-0.28,0.28c-2.4,2.37-4.97,4.05-7.71,5.17 c-1.82,0.74-3.47,1.11-4.97,1.06l-0.06,0c-1.59-0.06-2.93-0.62-4.01-1.61c1.21,2.45,3.15,3.91,5.76,4c0.02,0,0.04,0,0.06,0 c1.49,0.05,3.14-0.31,4.96-1.06c2.74-1.12,5.3-2.79,7.71-5.17l0.28-0.28L220.16,93.9L220.16,93.9z"></path> <polygon class="st0" points="93.45,157.91 92.47,148.85 91.05,149.44 91.7,155.51 79.04,160.69 79.37,163.66 93.45,157.91 "></polygon> <path class="st0" d="M107.92,116.52c-4.48,1.81-6.85,7-7.07,13.09c-0.07,2.03,0.1,4.13,0.5,6.22c0.31,1.63,0.74,2.87,1.2,3.63 c0.45,0.75,0.84,0.97,1.13,0.99c-0.22-0.63-0.42-1.37-0.58-2.23c-0.4-2.09-0.57-4.2-0.5-6.22c0.21-6.09,2.59-11.28,7.07-13.09 c0.24-0.1,0.51-0.18,0.79-0.26c-0.03-0.93-0.08-1.85-0.18-2.74C109.45,116.05,108.59,116.24,107.92,116.52L107.92,116.52z"></path> <path class="st0" d="M112.11,121.35c-0.16,4.53-0.98,9.19-2.24,12.94c-1.29,3.74-2.85,6.64-5.1,7.63l0,0 c-0.11,0.05-0.23,0.07-0.35,0.1c-0.1,0.03-0.21,0.05-0.32,0.07c-0.14,0.02-0.29,0.04-0.43,0.03c-1.09-0.04-1.94-0.8-2.54-1.81 c-0.61-1.03-1.06-2.42-1.4-4.17c-0.43-2.2-0.61-4.44-0.53-6.59c0.22-6.43,2.73-12.36,8.1-14.57c1.16-0.47,2.48-0.69,3.59-0.84 l0.82-0.11l0.11,0.82c0.1,0.73,0.17,1.49,0.22,2.25c0.01,0.14,0.02,0.27,0.03,0.41c0.04,0.78,0.07,1.57,0.07,2.37c0,0,0,0,0,0 C112.13,120.37,112.12,120.86,112.11,121.35L112.11,121.35z M115.52,130.74c-0.15,4.2,0.09,8.72,0.46,13.06l10.1-4.13l-0.47-4.36h0 l-0.14-1.26l-4.05,1.65l-2.61-22.98c-0.09-0.84-0.16-1.71-0.22-2.58c-0.06-0.87-0.1-1.75-0.12-2.64l0,0 c-0.01-0.43-0.04-0.86-0.04-1.3l-2.25,0.92l-0.13,0.01c-2.8,0.2-5.85,0.79-9.18,2.14c-8.34,3.41-14.46,11.75-14.87,23.06 c-0.07,1.88,0.03,3.85,0.3,5.89c0,0.01,0,0.02,0,0.03c0.1,0.74,0.22,1.48,0.36,2.24c1.38,6.93,4.24,9.61,7.59,9.74 c1.09,0.04,2.29-0.2,3.56-0.72c4.99-2.03,9-8.06,9.81-19.2l0.04-0.52l1.94-0.79l-0.06,1.3 C115.53,130.45,115.53,130.59,115.52,130.74L115.52,130.74z"></path> <path class="st0" d="M47.14,127.03l3.79-1.55c1.87-0.76,3.59-1.26,5.18-1.21c2.58,0.03,4.58,1.92,5.21,5.55 c0.19,0.99,0.27,1.97,0.24,2.93c-0.13,4.19-2.52,7.91-6.89,9.67l-4.7,1.92l-1.03,0.42L47.14,127.03L47.14,127.03z M55.46,162.67 l-4.24,1.73l-1.61-14.05l5.09-2.08c8.47-3.48,13.49-9.96,13.76-17.61c0.05-1.41-0.06-2.86-0.35-4.35c-0.1-0.48-0.21-0.92-0.32-1.35 c-0.03-0.12-0.07-0.24-0.1-0.35c-0.09-0.32-0.19-0.63-0.29-0.93c-0.03-0.1-0.06-0.2-0.1-0.29c-0.28-0.77-0.59-1.44-0.93-2.04 c-0.03-0.05-0.06-0.1-0.09-0.16c-0.16-0.26-0.32-0.51-0.49-0.74c-0.02-0.03-0.04-0.06-0.06-0.09c-0.4-0.52-0.85-0.96-1.33-1.33 c-0.02-0.01-0.04-0.03-0.05-0.04c-0.24-0.18-0.49-0.34-0.74-0.48c0,0,0,0,0,0l0,0c-1.06-0.58-2.28-0.88-3.67-0.94 c-2.54-0.09-5.71,0.69-9.36,2.18L35,126.12l0.14,1.26h0l0.47,4.36l4.25-1.74l4.08,37.37l-0.17,0.07l0,0l-3.17,1.3l0.14,1.26h0 l0.47,4.36l14.88-6.08L55.46,162.67L55.46,162.67z"></path> <polygon class="st0" points="74.16,115.77 79.03,158.9 89.92,154.45 89.45,150.09 89.31,148.83 88.27,149.26 88.27,149.26 85.26,150.49 80.4,107.35 68.47,112.23 69.08,117.85 73.14,116.19 74.16,115.77 "></polygon> <path class="st0" d="M150.91,100.56c0.42,0.65,0.71,1.51,0.95,2.69c0.36,1.87,0.7,4.75,0.87,8.17l0.14,2.48l0.8,14.5l11.21-4.58 l-0.6-5.62l-0.76,0.31l0,0l-3.14,1.28l-1.05-14.04c-0.18-2.74-0.56-5.4-1.03-7.81c-0.08-0.39-0.16-0.75-0.25-1.1 c-0.03-0.1-0.05-0.2-0.08-0.3c-0.07-0.24-0.13-0.48-0.2-0.7c-0.03-0.1-0.06-0.2-0.09-0.29c-0.08-0.23-0.16-0.45-0.24-0.66 c-0.02-0.06-0.05-0.12-0.07-0.18c-0.11-0.27-0.22-0.52-0.34-0.75c-0.01-0.01-0.01-0.03-0.02-0.04c-0.11-0.21-0.22-0.41-0.33-0.6 c-0.03-0.04-0.06-0.09-0.08-0.13c-0.1-0.16-0.2-0.3-0.31-0.44c-0.03-0.03-0.05-0.07-0.08-0.1c-0.27-0.33-0.55-0.6-0.84-0.82 c0,0,0,0,0,0h0c-0.7-0.51-1.47-0.73-2.29-0.77c-1.01-0.04-2.18,0.24-3.41,0.75c-4.63,1.9-7.97,5.85-9.79,12.35l0,0c0,0,0,0,0,0 c-0.13,0.48-0.26,0.97-0.38,1.48c0,0.01,0,0.01,0,0.02c-0.11,0.49-0.22,1-0.32,1.52c-0.03,0.13-0.05,0.27-0.07,0.4 c-0.07,0.41-0.15,0.82-0.21,1.25c-0.09,0.58-0.17,1.18-0.23,1.8l-0.05,0.49l-1.9,0.78l0.04-1.28c0.03-0.97,0.04-1.94,0.03-2.92 c-0.01-0.64-0.03-1.27-0.06-1.91c-0.01-0.31-0.02-0.61-0.03-0.92c-0.04-0.84-0.1-1.69-0.17-2.53c-0.01-0.07-0.01-0.15-0.02-0.22 c-0.12-1.34-0.25-2.68-0.43-4.01l-10.92,4.46l0.14,1.26l0,0l0.47,4.36l4.36-1.78l2.26,17.85c0.55,4.14,0.9,8.71,1.05,12.42 l6.84-2.79c-0.3-3.8-0.52-7.49-0.39-11.31c0.12-3.42,0.52-6.94,1.41-10.74c1.5-6.31,3.63-10.79,6.79-12.17 c0.33-0.14,0.69-0.22,1.06-0.21C149.83,99.47,150.5,99.92,150.91,100.56L150.91,100.56z"></path> <path class="st0" d="M206.49,106.44c1.18,0.04,2.61-0.25,4.28-0.93c2.43-1,4.71-2.45,6.89-4.54l-0.56-5.82 c-1.48,1.42-2.94,2.65-4.58,3.33c-0.36,0.14-0.71,0.25-1.06,0.31c-0.25,0.04-0.49,0.07-0.74,0.06c-1.65-0.04-2.74-1.47-3.08-3.5 c-0.32-1.69-0.61-5.01-0.9-7.59l-1.32-12.13l9.01-3.68l-0.6-5.62l-5.94,2.43l0,0l-3,1.23l-0.99-8.67l-6.78,3.38l0.86,8.11 l-0.17,0.07v0l-4.4,1.8l0.61,5.62l4.49-1.84l1.69,14.19c0.33,2.81,0.55,5.74,0.9,7.53C201.99,104.48,203.69,106.31,206.49,106.44 L206.49,106.44z"></path> <path class="st0" d="M46.39,41.85l0.17-0.19l0.09-0.1c0.34-0.29,0.64-0.24,1.37,0.41l0.17,0.15l0.32,0.29 c0.43,0.38,0.41,0.67-0.07,1.21l-0.4,0.44l-2-1.81L46.39,41.85L46.39,41.85z M44.5,40.19l-0.32,0.36l-1.85-1.67l0.29-0.32 l0.14-0.15l0.11-0.1c0.33-0.28,0.62-0.24,1.25,0.33C44.95,39.41,45.01,39.63,44.5,40.19L44.5,40.19z M51.56,44.23 c1.49-1.72,1.51-3.32,0.31-4.58c-1.95-2.07-3.44-2.18-5.09-0.6c-0.12,0.14-0.26,0.27-0.35,0.4c0.1-0.14,0.19-0.28,0.27-0.43 c1.01-1.82,0.87-2.72-0.63-3.95c-1.63-1.37-2.77-1.3-4.39,0.28c-0.2,0.2-0.4,0.41-0.59,0.62l-3.82,4.4l10.05,8.74L51.56,44.23 L51.56,44.23z"></path> <polygon class="st0" points="62.57,34.92 60.73,32.44 57.84,34.39 51.29,26.72 47.76,29.35 56.32,39.57 62.57,34.92 "></polygon> <polygon class="st0" points="72.66,28.69 70.99,26.05 67.15,28.18 66.08,26.5 68.94,24.68 67.38,22.23 64.54,24.03 63.56,22.49 67.11,19.93 65.53,17.45 58.12,22.15 65.25,33.4 72.66,28.69 "></polygon> <path class="st0" d="M91.05,22l-0.96-3.8l-0.02-0.09l-0.22-0.73L89.71,17l-0.04-1.27l0.07,1.14l0.24,0.43 c0.2,0.35,0.3,0.52,0.4,0.66l2.5,3.56l4.73-1.2l-5.07-6.12l1.35-6.67l-4.3,1.09l-0.5,4.23l-0.01,0.17l-0.03,0.56L89,14.05 l-0.02,0.29l-0.05-0.37l-0.05-0.37l-0.08-0.4l-0.04-0.24l-0.98-3.87l-4.27,1.08l3.26,12.91L91.05,22L91.05,22z"></path> <polygon class="st0" points="108.55,19.59 108.37,16.6 103.99,16.73 103.86,14.61 107.24,14.4 107.07,11.51 103.71,11.71 103.6,9.88 107.94,9.36 107.76,6.42 99,6.95 99.79,20.24 108.55,19.59 "></polygon> <path class="st0" d="M116.83,13.22l0.01-0.11l0.11-1.27l0.04-0.7l0.06-0.7c0.07,0.74,0.09,1.1,0.11,1.41l0.12,0.53l0.52,7.54 l2.95,0.16l1.31-6.58l0.22-1.38l0.13-0.7l0.13-0.7l-0.02,0.7l-0.04,0.7l-0.03,1.28l-0.01,0.11l0.09,6.65l4.28,0.24l-0.59-13.37 l-5.06-0.28l-1.12,4.86c-0.07,0.35-0.2,0.95-0.39,2.35c-0.03,0.2-0.06,0.4-0.09,0.62c-0.01-0.54-0.03-1.08-0.04-1.59 c-0.06-0.91-0.08-1.19-0.11-1.41l-0.56-4.96l-5.08-0.28l-2.07,13.22l4.28,0.24L116.83,13.22L116.83,13.22z"></path> <path class="st0" d="M134.19,17.57c0.04-0.31,0.12-0.69,0.22-1.18c0.05-0.2,0.09-0.42,0.14-0.61c0.05-0.22,0.12-0.41,0.18-0.62 c0.14-0.48,0.25-0.83,0.36-1.13c0.34-0.9,0.59-1.28,0.81-1.46c0.41-0.35,0.92-0.23,1.11,0.28c0.11,0.26,0.15,0.7,0.02,1.66 c-0.04,0.31-0.1,0.68-0.2,1.17c-0.1,0.41-0.21,0.82-0.31,1.24c-0.14,0.48-0.27,0.85-0.38,1.14c-0.34,0.89-0.59,1.26-0.81,1.46 c-0.41,0.33-0.91,0.21-1.11-0.28C134.11,18.96,134.07,18.51,134.19,17.57L134.19,17.57z M133.22,22.49c3.56,1.3,6.62-0.44,7.8-5.09 c1.03-4.07-0.26-6.8-3.01-7.82c-3.54-1.3-6.61,0.43-7.79,5.09C129.18,18.74,130.48,21.47,133.22,22.49L133.22,22.49z"></path> <polygon class="st0" points="160.65,31.1 157.05,28.8 158.07,26.83 160.99,28.53 162.45,26.02 159.54,24.33 160.47,22.75 164.37,24.72 165.85,22.18 158.26,17.76 151.56,29.26 159.15,33.68 160.65,31.1 "></polygon> <path class="st0" d="M164.24,37.28l4.1-4.59l0.07-0.11l0.79-1l0.43-0.54l0.41-0.55l-0.64,1.24l-0.65,1.23l-2.77,5.88l3.42,3.05 l8.86-9.93l-2.58-2.3l-4.16,4.66l-0.79,1.05l-0.43,0.56l-0.1-0.08l0.32-0.61c0.43-0.78,0.53-0.99,0.61-1.19l2.79-5.96l-3.42-3.05 l-8.86,9.93L164.24,37.28L164.24,37.28z"></path> <path class="st0" d="M177.62,42.61l0.3,1.02c0.14,0.47,0.17,0.69,0.16,0.85c-0.04,0.46-0.48,0.73-0.98,0.51 c-0.52-0.23-1.06-0.79-1.69-2.03c-0.19-0.35-0.35-0.73-0.5-1.14l-2.91,1.46l0.19,0.38l0.26,0.49c2.35,4.43,5.59,5.55,8.05,4.11 c2.03-1.2,2.46-2.63,1.58-5.75c-0.03-0.09-0.05-0.2-0.09-0.29l-0.26-0.81l-0.04-0.13l-0.07-0.21l-0.07-0.31 c-0.07-0.33-0.02-0.52,0.13-0.69c0.22-0.2,0.54-0.21,0.98,0.09c0.21,0.16,0.49,0.43,0.82,0.92c0.27,0.38,0.54,0.91,0.82,1.55 c0.06,0.15,0.12,0.27,0.16,0.4l2.82-1.36c-0.05-0.13-0.12-0.27-0.18-0.39c-2.27-4.62-5.2-5.84-7.57-4.64 C177.31,37.75,176.66,39.57,177.62,42.61L177.62,42.61z"></path> <polygon class="st0" points="83.63,23.99 82.32,21.15 78.24,22.75 77.4,20.94 80.47,19.52 79.25,16.89 76.2,18.3 75.43,16.64 79.28,14.57 78.05,11.91 70.08,15.59 75.66,27.67 83.63,23.99 "></polygon> <polygon class="st0" points="150.63,25.25 147.17,23.3 150.83,14 146.85,12.12 141.85,24.48 149.35,28.04 150.63,25.25 "></polygon> </g> <g class="st1"> <path class="st2" d="M184.78,128.93c-1.38-0.54-2.94,0.14-3.48,1.52c-1.02,2.6-2.51,5.77-3.99,8.49 c-2.68,4.93-6.71,10.6-10.78,15.17c-2.59,2.91-5.42,5.54-8.9,8.28c-1.74,1.37-3.62,2.67-5.07,3.64c-1.86,1.26-3.82,2.42-6,3.58 c-3.61,1.91-7.52,3.57-11.63,4.93c-11.45,3.79-23.84,4.71-35.81,2.66c-4.38-0.75-9.28-2.09-13.45-3.68 c-4.04-1.53-9.49-4.19-12.15-5.92c-1.24-0.81-2.9-0.45-3.71,0.79c-0.81,1.24-0.45,2.9,0.79,3.71c3.32,2.16,9.31,4.96,13.17,6.43 c4.55,1.73,9.68,3.13,14.45,3.95c4.46,0.77,8.98,1.15,13.49,1.15c8.46,0,16.9-1.34,24.92-4c4.39-1.46,8.58-3.23,12.45-5.28 c2.34-1.24,4.46-2.51,6.48-3.87c1.53-1.03,3.52-2.4,5.4-3.88c3.73-2.94,6.78-5.78,9.58-8.92c4.33-4.85,8.62-10.9,11.49-16.17 c1.58-2.91,3.18-6.31,4.27-9.1C186.84,131.03,186.16,129.47,184.78,128.93L184.78,128.93z"></path> <path class="st2" d="M172.97,60.44c1.3,1.87,1.7,2.5,2.28,3.45l0.14,0.23c0.24,0.38,0.5,0.81,0.82,1.36 c0.58,1.02,0.9,1.57,1.12,1.93c0.31,0.52,0.33,0.56,0.64,1.21c0.46,0.97,1.42,1.54,2.43,1.54c0.38,0,0.77-0.08,1.14-0.26 c1.34-0.63,1.91-2.23,1.28-3.57c-0.4-0.84-0.51-1.03-0.87-1.65c-0.21-0.35-0.52-0.87-1.07-1.85c-0.37-0.64-0.68-1.14-0.93-1.54 l-0.14-0.22c-0.68-1.09-1.14-1.81-2.44-3.69c-4.4-6.34-9.8-11.54-10.84-12.52c-3.72-3.51-7.93-6.76-12.87-9.94 c-3.97-2.55-8.52-4.77-13.93-6.77c-5.41-2-10.45-3.33-15.43-4.05c-4.34-0.63-8.26-0.95-11.99-0.97 c-5.49-0.03-11.02,0.52-16.89,1.68c-3.05,0.6-6.23,1.48-9.73,2.69c-5.92,2.05-11.45,4.72-16.89,8.16 c-2.87,1.81-10.16,6.75-16.01,13.47c-2.73,3.14-5.56,6.5-7.71,9.86l-0.16,0.25c-1.8,2.81-2.89,4.5-3.97,6.7 c-0.65,1.33-0.11,2.94,1.22,3.59c1.33,0.65,2.94,0.11,3.59-1.22c0.95-1.93,1.92-3.43,3.67-6.17l0.16-0.26 c1.97-3.07,4.65-6.25,7.24-9.23C62.38,46.3,69.6,41.51,71.68,40.2c5.09-3.22,10.25-5.72,15.78-7.63c3.26-1.13,6.21-1.95,9.02-2.5 c5.52-1.09,10.71-1.61,15.82-1.58c3.47,0.02,7.15,0.32,11.24,0.91c4.59,0.67,9.28,1.9,14.33,3.77c5.04,1.87,9.26,3.91,12.89,6.25 c4.65,3,8.61,6.05,12.09,9.33C165.54,51.29,169.79,55.87,172.97,60.44L172.97,60.44z"></path> <path class="st2" d="M57.58,101.16c0.45,0.75,0.84,0.97,1.13,0.99c-0.22-0.63-0.42-1.37-0.58-2.23c-0.4-2.09-0.57-4.2-0.5-6.22 c0.21-6.1,2.59-11.28,7.07-13.09c0.24-0.1,0.51-0.18,0.79-0.26c-0.03-0.94-0.08-1.85-0.18-2.74c-0.83,0.14-1.68,0.33-2.36,0.61 c-4.48,1.81-6.85,6.99-7.07,13.09c-0.07,2.03,0.1,4.14,0.5,6.22C56.7,99.16,57.13,100.4,57.58,101.16L57.58,101.16z"></path> <path class="st2" d="M51.81,141.79l-1.15-11.3l2.64-1.08c1.75-0.72,3.29-1.13,4.47-1.09c0.01,0,0.01,0,0.02,0 c0.56,0.04,1.06,0.14,1.5,0.37c-0.71-2.08-1.75-2.66-3.24-2.76l-0.02,0c-1.18-0.04-2.72,0.37-4.47,1.09l-2.64,1.08l1.46,14.29 L51.81,141.79L51.81,141.79z"></path> <polygon class="st2" points="26.06,119.32 26.72,125.39 10.07,132.2 10.39,135.17 28.46,127.79 27.49,118.73 26.06,119.32 "></polygon> <polygon class="st2" points="4.49,89.57 4.81,92.54 7.63,91.39 7.31,88.42 4.49,89.57 "></polygon> <path class="st2" d="M54.23,91.25c0.22-6.43,2.74-12.36,8.1-14.57c1.16-0.47,2.48-0.69,3.6-0.84l0.82-0.11l0.11,0.82 c0.1,0.73,0.17,1.48,0.22,2.24c0.01,0.14,0.02,0.28,0.03,0.42c0.04,0.77,0.07,1.56,0.07,2.35c0,0.49-0.01,0.99-0.02,1.48 c-0.16,4.53-0.98,9.19-2.24,12.94c-1.28,3.74-2.85,6.64-5.1,7.63l-0.01,0c-0.11,0.05-0.23,0.07-0.34,0.1v0 c-0.11,0.03-0.21,0.05-0.32,0.07c-0.14,0.02-0.29,0.04-0.43,0.03c-1.09-0.04-1.94-0.8-2.54-1.81c-0.61-1.03-1.06-2.42-1.4-4.17 C54.33,95.64,54.15,93.41,54.23,91.25L54.23,91.25z M55.29,111.94c1.09,0.04,2.29-0.2,3.56-0.72c4.99-2.03,9.01-8.06,9.81-19.21 l0.04-0.52l1.94-0.79l-0.07,1.3c-0.01,0.14-0.01,0.29-0.02,0.44c-0.15,4.2,0.09,8.71,0.46,13.05l10.09-4.13l-0.61-5.62l-1.04,0.43 v0l-3.01,1.23l-2.61-22.98c-0.09-0.83-0.16-1.7-0.22-2.57c-0.06-0.87-0.1-1.75-0.12-2.64l0,0c-0.01-0.43-0.04-0.86-0.04-1.3 l-2.25,0.92l-0.13,0.01c-2.8,0.19-5.85,0.78-9.18,2.14c-8.34,3.41-14.46,11.75-14.86,23.06c-0.04,1.21-0.01,2.45,0.08,3.72v0 c0,0,0,0,0,0c0.05,0.7,0.12,1.41,0.22,2.13c0,0.02,0,0.04,0.01,0.06c0.1,0.74,0.22,1.48,0.36,2.24 C49.08,109.13,51.94,111.81,55.29,111.94L55.29,111.94z"></path> <path class="st2" d="M104.43,55.87l-0.11-0.9c-2.51,0.18-5.23,0.81-8.2,2.02c-7.62,3.13-13.48,10.12-13.85,20.36 c-0.08,2.21,0.1,4.58,0.59,7.1c1.61,8.07,5.2,11.25,10.08,11.46c2.06,0.07,4.41-0.43,6.94-1.46c3.08-1.26,5.96-3.12,8.27-5.67 l-0.37-4.45l0,0l-0.14-1.64c-2.03,2-4.16,3.52-6.41,4.44c-1.45,0.59-2.84,0.89-4.15,0.84c-0.39-0.01-0.77-0.06-1.14-0.14 c-0.16-0.03-0.31-0.07-0.46-0.11c-0.1-0.03-0.2-0.05-0.3-0.09c-0.1-0.03-0.19-0.08-0.29-0.11c-0.1-0.04-0.2-0.08-0.29-0.12 c-0.09-0.04-0.18-0.09-0.27-0.14c-0.09-0.05-0.19-0.1-0.28-0.15c-0.09-0.05-0.17-0.11-0.26-0.17c-0.09-0.06-0.18-0.12-0.26-0.18 c-0.08-0.06-0.17-0.13-0.25-0.2c-0.08-0.07-0.17-0.14-0.25-0.21c-0.08-0.07-0.16-0.15-0.23-0.22c-0.08-0.08-0.16-0.16-0.24-0.24 c-0.07-0.08-0.14-0.16-0.22-0.24c-0.08-0.09-0.15-0.18-0.23-0.28c-0.07-0.09-0.13-0.18-0.2-0.27c-0.07-0.1-0.14-0.2-0.21-0.31 c-0.06-0.09-0.12-0.19-0.18-0.29c-0.07-0.11-0.13-0.23-0.2-0.34c-0.06-0.1-0.11-0.2-0.17-0.31c-0.06-0.12-0.12-0.25-0.18-0.38 c-0.05-0.11-0.1-0.22-0.15-0.33c-0.06-0.14-0.11-0.28-0.17-0.42c-0.04-0.11-0.09-0.22-0.13-0.34c-0.05-0.15-0.1-0.31-0.16-0.47 c-0.04-0.11-0.07-0.22-0.11-0.34c-0.05-0.18-0.1-0.37-0.15-0.56c-0.03-0.1-0.05-0.2-0.08-0.3c-0.07-0.29-0.13-0.6-0.19-0.91 c-0.37-1.92-0.5-3.67-0.45-5.27c0.22-6.55,3.68-10.45,7-11.8c0.58-0.23,1.18-0.4,1.78-0.39c0.19,0.01,0.38,0.04,0.59,0.11 l0.42,0.17l0.84,4.33l5.43-2.22L104.43,55.87L104.43,55.87L104.43,55.87z"></path> <path class="st2" d="M56.98,115.99c1.37,0.05,2.8-0.25,4.24-0.84c3.41-1.4,6.26-4.32,8.21-8.79c-0.18-2.01-0.34-4.06-0.44-6.11 c-1.83,6.62-5.23,10.75-9.51,12.51c-1.44,0.59-2.86,0.89-4.24,0.84c-2-0.07-3.79-0.88-5.28-2.41 C51.68,114.27,54.12,115.89,56.98,115.99L56.98,115.99z"></path> <path class="st2" d="M94.64,99.96c2.37,0.08,4.94-0.49,7.63-1.59c3.38-1.38,6.58-3.46,9.12-6.38l0.23-0.27l-0.03-0.35l-0.82-9.73 c-0.06-0.1-0.12-0.2-0.18-0.3l-1.14,1.27c-0.04,0.05-0.09,0.09-0.13,0.14l0.52,6.23l0.03,0.35l-0.23,0.26 c-2.54,2.91-5.74,4.99-9.12,6.38c-2.69,1.1-5.26,1.67-7.63,1.58l-0.08,0c-2.86-0.1-5.36-1.2-7.34-3.33 c2.16,3.69,5.31,5.59,9.1,5.73C94.59,99.96,94.62,99.96,94.64,99.96L94.64,99.96z"></path> <path class="st2" d="M98.34,66.88l-0.55-2.83c-0.22,0.04-0.5,0.12-0.75,0.23c-2.68,1.1-5.75,4.34-5.97,10.32 c-0.05,1.46,0.07,3.09,0.42,4.9c0.59,2.9,1.55,4.73,2.8,5.75c-0.42-0.91-0.78-2.02-1.05-3.36c-0.35-1.8-0.47-3.43-0.42-4.9 C93.03,71.34,95.78,68.15,98.34,66.88L98.34,66.88z"></path> <path class="st2" d="M71.21,109.16l0.01,0.15l10.57-4.32l0.11,0.95l2.73-1.12l-0.98-9.05l-1.43,0.58l0.66,6.08l-11.84,4.84 C71.11,107.9,71.15,108.54,71.21,109.16L71.21,109.16z"></path> <path class="st2" d="M22.49,85.32c1.69-0.69,3.12-1.03,4.23-0.98c0.57,0.04,1.06,0.16,1.49,0.36c-0.62-2.01-1.61-2.65-3.23-2.76 c-1.1-0.04-2.54,0.29-4.23,0.98l-2.96,1.21l1.42,13.4l1.43-0.59l-1.1-10.42L22.49,85.32L22.49,85.32z"></path> <polygon class="st2" points="69.41,122.61 73.09,121.11 72.76,118.14 69.09,119.63 69.41,122.61 "></polygon> <path class="st2" d="M76.91,67.82l-1.17,0.48l-0.61,0.25c0.03,1.93,0.17,3.87,0.37,5.69l2.36,20.8l1.41-0.58l-2.03-17.83 c-0.26-2.41-0.42-5.02-0.36-7.55L76.91,67.82L76.91,67.82z"></path> <polygon class="st2" points="57.19,163.27 57.85,169.35 41.2,176.15 41.52,179.13 59.6,171.74 58.62,162.69 57.19,163.27 "></polygon> <path class="st2" d="M139.79,80.25l-0.02-0.37l-0.55-10.69l-1.32,1.32c-0.07,0.07-0.15,0.15-0.23,0.22l0.35,6.75l0.02,0.36 l-0.26,0.26c-2.81,2.85-6.29,5.19-10.44,6.89c-3,1.22-5.72,1.84-8.16,1.76c-0.03,0-0.05,0-0.08,0c-2.69-0.09-4.96-1.11-6.74-2.99 c1.93,3.41,4.82,5.25,8.49,5.38c0.03,0,0.05,0,0.08,0c2.44,0.08,5.16-0.53,8.16-1.75c4.15-1.7,7.63-4.04,10.44-6.89L139.79,80.25 L139.79,80.25z"></path> <path class="st2" d="M38.72,85.13c-0.17,5.22-2.68,9.96-7.67,13.44c1.12,0.16,2.16,0.62,3.1,1.36c4.09-3.36,6.16-7.69,6.31-12.41 c0.05-1.44-0.07-2.92-0.36-4.42c-0.5-2.72-1.58-4.89-3.11-6.43c0.62,1.17,1.09,2.51,1.36,4.04C38.64,82.21,38.77,83.69,38.72,85.13 L38.72,85.13z"></path> <path class="st2" d="M122.73,51.99c0.73-0.3,1.44-0.46,2.11-0.43c1.43,0,2.63,1.09,2.87,2.63c0.08,0.44,0.12,0.91,0.11,1.4 c-0.01,0.3-0.05,0.6-0.11,0.91c-0.5,2.79-2.82,5.84-8.1,9.2c-0.3,0.19-0.61,0.38-0.93,0.58c-0.35,0.21-0.71,0.43-1.09,0.65 l-1.09,0.62l-0.15-1.24c-0.13-1.08-0.18-2.16-0.14-3.23C116.36,58.35,118.28,53.82,122.73,51.99L122.73,51.99z M119.25,85.11 c2.11,0.08,4.62-0.47,7.48-1.63c3.83-1.57,7.02-3.69,9.63-6.26l-0.34-6.64c-2.54,2.37-5.46,4.57-8.71,5.9 c-1.46,0.59-2.96,0.98-4.4,0.94c-0.14,0-0.28-0.03-0.42-0.04c-0.28-0.03-0.56-0.07-0.83-0.14c-0.01,0-0.01,0-0.02-0.01 c-0.26-0.07-0.51-0.16-0.76-0.26c-0.03-0.01-0.05-0.02-0.07-0.04c-0.23-0.1-0.45-0.22-0.66-0.36c-0.05-0.03-0.09-0.07-0.14-0.1 c-0.19-0.13-0.37-0.27-0.55-0.44c-0.07-0.06-0.13-0.14-0.2-0.21c-0.15-0.15-0.29-0.3-0.42-0.47c-0.08-0.11-0.16-0.24-0.24-0.36 c-0.1-0.15-0.21-0.3-0.3-0.47c-0.1-0.18-0.18-0.38-0.26-0.58c-0.06-0.14-0.13-0.26-0.18-0.41c-0.13-0.36-0.24-0.74-0.33-1.15 l-0.15-0.64l0.59-0.29c11.81-5.87,16.76-13.22,16.96-19.27c0.03-0.88-0.04-1.73-0.19-2.56c-0.07-0.35-0.16-0.67-0.26-0.99 c-0.02-0.07-0.04-0.13-0.06-0.2c-0.1-0.3-0.21-0.58-0.34-0.85c-0.02-0.05-0.05-0.09-0.07-0.14c-0.12-0.23-0.25-0.46-0.39-0.66 c-0.03-0.04-0.05-0.09-0.08-0.13c-0.16-0.22-0.33-0.42-0.52-0.61c-0.05-0.05-0.1-0.09-0.14-0.14c-0.2-0.18-0.4-0.35-0.63-0.5 c-0.79-0.5-1.78-0.8-2.99-0.85l-0.01,0c-1.52-0.05-3.44,0.32-5.74,1.26c-8.7,3.57-13.66,11.33-14.02,21.19 c-0.06,1.8,0.03,3.68,0.29,5.6c0,0.01,0,0.03,0,0.04c0.09,0.69,0.21,1.39,0.34,2.09C111.53,81.92,114.56,84.91,119.25,85.11 L119.25,85.11z"></path> <path class="st2" d="M119.31,72.62c0.45,1.41,1.07,2.2,1.84,2.64c-0.03-0.09-0.07-0.16-0.09-0.25 c11.67-5.97,17.01-13.56,17.26-20.39c0.03-1-0.04-1.98-0.22-2.93c-0.34-1.89-1.17-3.52-2.46-4.67c0.32,0.7,0.57,1.46,0.71,2.27 c0.18,0.95,0.26,1.93,0.22,2.93C136.32,59.06,130.98,66.65,119.31,72.62L119.31,72.62z"></path> <polygon class="st2" points="35.62,133.53 35.94,136.5 38.77,135.35 38.44,132.37 35.62,133.53 "></polygon> <path class="st2" d="M71.57,128.81c-0.55-3.33-1.69-5.84-3.32-7.55c0.74,1.41,1.29,3.12,1.62,5.12c0.28,1.61,0.38,3.19,0.3,4.73 c-0.43,8.38-6.14,15.35-15.12,18.82l-3.95,1.54l1.03,10.65l1.42-0.55l-0.74-7.68l3.95-1.53c8.98-3.48,14.69-10.45,15.12-18.83 C71.95,132,71.86,130.42,71.57,128.81L71.57,128.81z"></path> <path class="st2" d="M16.07,83.69L16,83.07l4.11-1.68c1.81-0.74,3.44-1.15,4.91-1.11c2.58,0.03,4.51,1.86,5.04,5.02 c0.19,0.99,0.27,1.92,0.24,2.82c-0.17,4.96-3.71,8.21-8.42,10.11l-4.11,1.68L16.07,83.69L16.07,83.69z M24.46,119.97L24.46,119.97 l-0.14-1.26l-4.25,1.74l-1.63-14.94l1.99-0.81c0.81-0.33,1.56-0.56,2.36-0.53c1.55,0.06,2.79,1.07,4.32,3.04l7.48,9.63 c1.04,1.3,2.02,1.77,3.13,1.82c0.69,0.02,1.46-0.14,2.32-0.49l5.92-2.42l-0.47-4.36l0,0l-0.14-1.26l-1.43,0.59 c-0.24,0.1-0.5,0.17-0.78,0.21l0,0c-0.17,0.03-0.34,0.06-0.52,0.05c-1.22-0.07-2.16-0.87-3.43-2.43l-4.85-6.05 c-1.28-1.56-2.54-2.24-4.06-2.3c-0.72-0.03-1.51,0.1-2.4,0.4l-0.9,0.3l-0.18-0.93l-0.15-0.75l0.56-0.28 c6.61-3.37,9.6-8.25,9.81-13.83c0.05-1.31-0.07-2.66-0.33-4.04c-0.08-0.39-0.17-0.76-0.27-1.11c-0.03-0.1-0.06-0.2-0.09-0.3 c-0.08-0.27-0.16-0.53-0.25-0.77c-0.03-0.08-0.06-0.17-0.09-0.25c-0.25-0.65-0.54-1.24-0.86-1.76c-0.02-0.04-0.05-0.07-0.07-0.11 c-0.15-0.24-0.31-0.46-0.48-0.68c-0.02-0.02-0.04-0.05-0.05-0.07c-1.38-1.7-3.29-2.55-5.72-2.66c-1.98-0.07-4.32,0.41-6.95,1.49 L3.87,82.16L4,83.42l0,0l0.47,4.36l4.24-1.74l4.08,37.38l-0.17,0.07v0l-3.17,1.3l0.14,1.26h0l0.47,4.36l14.88-6.08L24.46,119.97 L24.46,119.97z"></path> <path class="st2" d="M24.5,108.2c0.74,0.02,1.59,0.5,3.07,2.4l7.48,9.64c1.14,1.47,2.54,2.28,4.03,2.42l10.34-4.23l-0.89-8.3 l-1.43,0.58l0.66,6.08l-7.08,2.89c-1.01,0.41-2.01,0.65-3.01,0.61c-1.62-0.05-3.14-0.87-4.38-2.45l-7.48-9.63 c-1.48-1.9-2.32-2.38-3.07-2.4c-0.43-0.02-0.96,0.11-1.68,0.41l-0.84,0.34l1.26,11.51l1.42-0.58l-0.93-8.54l0.84-0.34 C23.54,108.32,24.07,108.19,24.5,108.2L24.5,108.2z"></path> <polygon class="st2" points="88.08,147.54 83.54,107.38 82.13,107.96 86.67,148.12 88.08,147.54 "></polygon> <path class="st2" d="M100.55,71.66l7.23-2.96c-0.01-0.59-0.01-1.17,0.01-1.75c0.05-1.61,0.24-3.17,0.53-4.67l-0.79-6.64l-0.76,0.03 c-0.23,0.01-0.46,0.03-0.69,0.04l1.2,10.1l-7.28,2.97L100.55,71.66L100.55,71.66z"></path> <path class="st2" d="M119.8,63.58c0.54-3.52,2.22-6.41,5.3-7.67c0.4-0.16,0.74-0.24,1.04-0.27c0-0.04,0.01-0.08,0.01-0.12 c0.01-0.36-0.02-0.7-0.08-1.03c-0.25-1-0.56-1.21-1.3-1.28c-0.37-0.01-0.85,0.08-1.42,0.31c-3.64,1.48-5.33,5.23-5.5,9.61 c-0.02,0.56-0.01,1.12,0.02,1.69C118.58,64.4,119.21,63.99,119.8,63.58L119.8,63.58z"></path> <path class="st2" d="M104.45,151.06c-1.44,0.59-2.87,0.89-4.24,0.84c-2-0.07-3.79-0.88-5.28-2.41c1.73,3.09,4.16,4.71,7.02,4.8 c1.38,0.05,2.8-0.25,4.24-0.84c3.41-1.4,6.26-4.32,8.21-8.79c-0.18-2.01-0.34-4.06-0.44-6.11 C112.13,145.16,108.73,149.3,104.45,151.06L104.45,151.06z"></path> <path class="st2" d="M137.8,98.71c0.2,1.63,0.38,3.26,0.49,4.9c0.33-1.17,0.73-2.24,1.16-3.27c-0.05-0.38-0.09-0.76-0.15-1.13 l-0.15-1.05L137.8,98.71L137.8,98.71z"></path> <polygon class="st2" points="168.4,127.27 167.43,118.22 166,118.8 166.66,124.88 153.71,130.17 153.88,133.21 168.4,127.27 "></polygon> <path class="st2" d="M144.63,114.61c1.33-5.95,3.56-9.97,5.61-10.92c-0.01-0.04-0.01-0.09-0.02-0.12c-0.2-1.06-0.47-1.74-0.7-2.09 c-0.25-0.35-0.33-0.34-0.46-0.36c-0.08,0-0.2,0.01-0.37,0.09c-2.11,0.78-4.43,4.87-5.81,11.01c-0.86,3.68-1.25,7.09-1.37,10.42 c-0.14,3.91,0.11,7.72,0.43,11.72l0.05,0.61l-8.52,3.48c0.03,0.65,0.06,1.28,0.07,1.87l0.03,1.19l10.16-4.15l-0.05-0.6 c-0.32-4-0.57-7.81-0.43-11.72C143.38,121.7,143.77,118.29,144.63,114.61L144.63,114.61z"></path> <polygon class="st2" points="128.73,108.76 125.76,109.98 126.08,112.95 129.1,111.72 128.73,108.76 "></polygon> <path class="st2" d="M116.28,148.57l13.33-5.45l-0.98-9.05l-1.43,0.58l0.66,6.08l-11.84,4.84c0.05,0.63,0.1,1.26,0.16,1.89 L116.28,148.57L116.28,148.57z"></path> <path class="st2" d="M161.68,100.01c-0.59-3.21-1.68-5.41-3.11-6.72c0.58,1.16,1.05,2.6,1.36,4.33c0.48,2.47,0.86,5.2,1.05,8.01 l0.88,11.76l1.52-0.62l-0.65-8.75C162.54,105.21,162.15,102.48,161.68,100.01L161.68,100.01z"></path> <path class="st2" d="M194.04,82.07l0.03,0.24c-0.04-0.07-0.09-0.13-0.13-0.2l-0.71,0.29c0.02,0.1,0.05,0.2,0.07,0.3 c0.18,0.95,0.26,1.93,0.22,2.93c-0.25,6.82-5.59,14.42-17.26,20.39c0.45,1.41,1.07,2.2,1.84,2.64c-0.03-0.09-0.07-0.16-0.09-0.25 c11.67-5.97,17.01-13.56,17.26-20.39c0.04-1-0.04-1.98-0.22-2.93c-0.02-0.1-0.04-0.2-0.07-0.31l2.51-1.03l-0.35-2.96L194.04,82.07 L194.04,82.07z"></path> <path class="st2" d="M181.73,86.62L181.73,86.62c-0.38-0.01-0.86,0.08-1.42,0.31c-3.64,1.48-5.33,5.23-5.5,9.6 c-0.02,0.56-0.01,1.12,0.02,1.69c0.7-0.42,1.33-0.83,1.92-1.24c0.54-3.52,2.22-6.41,5.3-7.67c0.4-0.16,0.74-0.24,1.04-0.27 c0-0.04,0.01-0.08,0.01-0.12c0.01-0.35-0.02-0.7-0.08-1.03C182.77,86.9,182.46,86.7,181.73,86.62L181.73,86.62z"></path> <path class="st2" d="M121.88,106.12l-1.17,0.48l-0.61,0.25c0.03,1.93,0.17,3.87,0.37,5.69l2.36,20.8l1.41-0.58l-2.03-17.83 c-0.26-2.41-0.42-5.02-0.36-7.55L121.88,106.12L121.88,106.12z"></path> <polygon class="st2" points="207.7,67.03 207.03,61.16 205.64,61.85 206.29,67.61 207.7,67.03 "></polygon> <path class="st2" d="M196.17,102.61l-1.32,1.32c-0.07,0.07-0.15,0.15-0.23,0.22l0.35,6.76l0.02,0.37l-0.26,0.26 c-2.81,2.85-6.29,5.2-10.44,6.89c-3,1.22-5.72,1.84-8.16,1.76l-0.09,0c-2.69-0.09-4.96-1.11-6.74-2.98 c1.93,3.4,4.81,5.25,8.49,5.38c0.03,0,0.05,0,0.08,0c2.44,0.08,5.16-0.53,8.16-1.76c4.15-1.7,7.63-4.04,10.44-6.89l0.26-0.26 l-0.02-0.37L196.17,102.61L196.17,102.61z"></path> <path class="st2" d="M184.7,89.92c-0.5,2.79-2.82,5.84-8.1,9.2v0c-0.3,0.19-0.62,0.39-0.94,0.58c-0.35,0.21-0.71,0.43-1.09,0.64 l-1.08,0.62l-0.15-1.24c-0.13-1.08-0.18-2.17-0.14-3.23c0.15-4.72,2.07-9.25,6.53-11.08c0.73-0.3,1.43-0.46,2.11-0.43 c1.43,0,2.63,1.09,2.87,2.63c0.08,0.44,0.13,0.91,0.11,1.4C184.8,89.31,184.75,89.62,184.7,89.92L184.7,89.92z M186.2,77.99 c-1.52-0.05-3.44,0.32-5.74,1.26c-8.7,3.57-13.66,11.33-14.03,21.2c-0.09,2.46,0.12,5.06,0.64,7.74 c1.44,7.17,4.48,10.15,9.17,10.36c2.11,0.07,4.62-0.47,7.47-1.63c3.83-1.57,7.02-3.69,9.63-6.26l-0.25-4.98l0,0L193,104 c-2.54,2.37-5.46,4.57-8.71,5.9c-1.46,0.59-2.96,0.98-4.4,0.94c-0.14,0-0.28-0.03-0.42-0.04l0,0c-0.28-0.03-0.56-0.07-0.83-0.14 c-0.01,0-0.01,0-0.02-0.01c-0.26-0.07-0.52-0.16-0.76-0.26c-0.02-0.01-0.05-0.02-0.07-0.03c-0.23-0.1-0.45-0.23-0.67-0.37 c-0.05-0.03-0.09-0.07-0.13-0.1c-0.19-0.13-0.37-0.28-0.55-0.44c-0.07-0.06-0.13-0.14-0.19-0.2c-0.15-0.15-0.29-0.3-0.43-0.48 c-0.08-0.11-0.16-0.23-0.23-0.35c-0.1-0.16-0.21-0.31-0.3-0.48c-0.1-0.18-0.17-0.38-0.26-0.57c-0.06-0.14-0.13-0.27-0.18-0.42 c-0.13-0.36-0.24-0.74-0.33-1.15l-0.15-0.64l0.59-0.29c11.81-5.86,16.76-13.21,16.96-19.27c0.03-0.88-0.04-1.74-0.2-2.56 c-0.07-0.35-0.16-0.67-0.26-0.99c-0.02-0.07-0.04-0.14-0.06-0.2c-0.1-0.3-0.21-0.58-0.34-0.85c-0.02-0.05-0.05-0.09-0.07-0.14 c-0.12-0.23-0.25-0.45-0.39-0.66c-0.03-0.04-0.06-0.09-0.09-0.13c-0.16-0.22-0.33-0.42-0.52-0.61c-0.05-0.05-0.1-0.09-0.15-0.14 c-0.2-0.18-0.4-0.35-0.63-0.49l0,0c-0.79-0.5-1.78-0.8-2.99-0.85L186.2,77.99L186.2,77.99z"></path> <path class="st2" d="M207.21,76.69l1.18,10.88c0.29,2.59,0.59,5.94,0.89,7.45c0.4,1.8,0.89,2.12,1.51,2.16 c0.05,0,0.13-0.02,0.2-0.02c-0.28-1.6-0.57-4.74-0.84-7.2l-1.18-10.88l9.01-3.68l-0.98-9.05l-1.42,0.58l0.66,6.08L207.21,76.69 L207.21,76.69z"></path> <path class="st2" d="M220.16,93.9l-1.24,1.24c-0.05,0.05-0.1,0.09-0.14,0.14l0.61,6.31l-0.28,0.28c-2.4,2.37-4.97,4.05-7.71,5.17 c-1.82,0.74-3.47,1.11-4.97,1.06l-0.06,0c-1.59-0.06-2.93-0.62-4.01-1.61c1.21,2.45,3.15,3.91,5.76,4c0.02,0,0.04,0,0.06,0 c1.49,0.05,3.14-0.31,4.96-1.06c2.74-1.12,5.3-2.79,7.71-5.17l0.28-0.28L220.16,93.9L220.16,93.9z"></path> <polygon class="st2" points="93.45,157.91 92.47,148.85 91.05,149.44 91.7,155.51 79.04,160.69 79.37,163.66 93.45,157.91 "></polygon> <path class="st2" d="M107.92,116.52c-4.48,1.81-6.85,7-7.07,13.09c-0.07,2.03,0.1,4.13,0.5,6.22c0.31,1.63,0.74,2.87,1.2,3.63 c0.45,0.75,0.84,0.97,1.13,0.99c-0.22-0.63-0.42-1.37-0.58-2.23c-0.4-2.09-0.57-4.2-0.5-6.22c0.21-6.09,2.59-11.28,7.07-13.09 c0.24-0.1,0.51-0.18,0.79-0.26c-0.03-0.93-0.08-1.85-0.18-2.74C109.45,116.05,108.59,116.24,107.92,116.52L107.92,116.52z"></path> <path class="st2" d="M112.11,121.35c-0.16,4.53-0.98,9.19-2.24,12.94c-1.29,3.74-2.85,6.64-5.1,7.63l0,0 c-0.11,0.05-0.23,0.07-0.35,0.1c-0.1,0.03-0.21,0.05-0.32,0.07c-0.14,0.02-0.29,0.04-0.43,0.03c-1.09-0.04-1.94-0.8-2.54-1.81 c-0.61-1.03-1.06-2.42-1.4-4.17c-0.43-2.2-0.61-4.44-0.53-6.59c0.22-6.43,2.73-12.36,8.1-14.57c1.16-0.47,2.48-0.69,3.59-0.84 l0.82-0.11l0.11,0.82c0.1,0.73,0.17,1.49,0.22,2.25c0.01,0.14,0.02,0.27,0.03,0.41c0.04,0.78,0.07,1.57,0.07,2.37c0,0,0,0,0,0 C112.13,120.37,112.12,120.86,112.11,121.35L112.11,121.35z M115.52,130.74c-0.15,4.2,0.09,8.72,0.46,13.06l10.1-4.13l-0.47-4.36h0 l-0.14-1.26l-4.05,1.65l-2.61-22.98c-0.09-0.84-0.16-1.71-0.22-2.58c-0.06-0.87-0.1-1.75-0.12-2.64l0,0 c-0.01-0.43-0.04-0.86-0.04-1.3l-2.25,0.92l-0.13,0.01c-2.8,0.2-5.85,0.79-9.18,2.14c-8.34,3.41-14.46,11.75-14.87,23.06 c-0.07,1.88,0.03,3.85,0.3,5.89c0,0.01,0,0.02,0,0.03c0.1,0.74,0.22,1.48,0.36,2.24c1.38,6.93,4.24,9.61,7.59,9.74 c1.09,0.04,2.29-0.2,3.56-0.72c4.99-2.03,9-8.06,9.81-19.2l0.04-0.52l1.94-0.79l-0.06,1.3 C115.53,130.45,115.53,130.59,115.52,130.74L115.52,130.74z"></path> <path class="st2" d="M47.14,127.03l3.79-1.55c1.87-0.76,3.59-1.26,5.18-1.21c2.58,0.03,4.58,1.92,5.21,5.55 c0.19,0.99,0.27,1.97,0.24,2.93c-0.13,4.19-2.52,7.91-6.89,9.67l-4.7,1.92l-1.03,0.42L47.14,127.03L47.14,127.03z M55.46,162.67 l-4.24,1.73l-1.61-14.05l5.09-2.08c8.47-3.48,13.49-9.96,13.76-17.61c0.05-1.41-0.06-2.86-0.35-4.35c-0.1-0.48-0.21-0.92-0.32-1.35 c-0.03-0.12-0.07-0.24-0.1-0.35c-0.09-0.32-0.19-0.63-0.29-0.93c-0.03-0.1-0.06-0.2-0.1-0.29c-0.28-0.77-0.59-1.44-0.93-2.04 c-0.03-0.05-0.06-0.1-0.09-0.16c-0.16-0.26-0.32-0.51-0.49-0.74c-0.02-0.03-0.04-0.06-0.06-0.09c-0.4-0.52-0.85-0.96-1.33-1.33 c-0.02-0.01-0.04-0.03-0.05-0.04c-0.24-0.18-0.49-0.34-0.74-0.48c0,0,0,0,0,0l0,0c-1.06-0.58-2.28-0.88-3.67-0.94 c-2.54-0.09-5.71,0.69-9.36,2.18L35,126.12l0.14,1.26h0l0.47,4.36l4.25-1.74l4.08,37.37l-0.17,0.07l0,0l-3.17,1.3l0.14,1.26h0 l0.47,4.36l14.88-6.08L55.46,162.67L55.46,162.67z"></path> <polygon class="st2" points="74.16,115.77 79.03,158.9 89.92,154.45 89.45,150.09 89.31,148.83 88.27,149.26 88.27,149.26 85.26,150.49 80.4,107.35 68.47,112.23 69.08,117.85 73.14,116.19 74.16,115.77 "></polygon> <path class="st2" d="M150.91,100.56c0.42,0.65,0.71,1.51,0.95,2.69c0.36,1.87,0.7,4.75,0.87,8.17l0.14,2.48l0.8,14.5l11.21-4.58 l-0.6-5.62l-0.76,0.31l0,0l-3.14,1.28l-1.05-14.04c-0.18-2.74-0.56-5.4-1.03-7.81c-0.08-0.39-0.16-0.75-0.25-1.1 c-0.03-0.1-0.05-0.2-0.08-0.3c-0.07-0.24-0.13-0.48-0.2-0.7c-0.03-0.1-0.06-0.2-0.09-0.29c-0.08-0.23-0.16-0.45-0.24-0.66 c-0.02-0.06-0.05-0.12-0.07-0.18c-0.11-0.27-0.22-0.52-0.34-0.75c-0.01-0.01-0.01-0.03-0.02-0.04c-0.11-0.21-0.22-0.41-0.33-0.6 c-0.03-0.04-0.06-0.09-0.08-0.13c-0.1-0.16-0.2-0.3-0.31-0.44c-0.03-0.03-0.05-0.07-0.08-0.1c-0.27-0.33-0.55-0.6-0.84-0.82 c0,0,0,0,0,0h0c-0.7-0.51-1.47-0.73-2.29-0.77c-1.01-0.04-2.18,0.24-3.41,0.75c-4.63,1.9-7.97,5.85-9.79,12.35l0,0c0,0,0,0,0,0 c-0.13,0.48-0.26,0.97-0.38,1.48c0,0.01,0,0.01,0,0.02c-0.11,0.49-0.22,1-0.32,1.52c-0.03,0.13-0.05,0.27-0.07,0.4 c-0.07,0.41-0.15,0.82-0.21,1.25c-0.09,0.58-0.17,1.18-0.23,1.8l-0.05,0.49l-1.9,0.78l0.04-1.28c0.03-0.97,0.04-1.94,0.03-2.92 c-0.01-0.64-0.03-1.27-0.06-1.91c-0.01-0.31-0.02-0.61-0.03-0.92c-0.04-0.84-0.1-1.69-0.17-2.53c-0.01-0.07-0.01-0.15-0.02-0.22 c-0.12-1.34-0.25-2.68-0.43-4.01l-10.92,4.46l0.14,1.26l0,0l0.47,4.36l4.36-1.78l2.26,17.85c0.55,4.14,0.9,8.71,1.05,12.42 l6.84-2.79c-0.3-3.8-0.52-7.49-0.39-11.31c0.12-3.42,0.52-6.94,1.41-10.74c1.5-6.31,3.63-10.79,6.79-12.17 c0.33-0.14,0.69-0.22,1.06-0.21C149.83,99.47,150.5,99.92,150.91,100.56L150.91,100.56z"></path> <path class="st2" d="M206.49,106.44c1.18,0.04,2.61-0.25,4.28-0.93c2.43-1,4.71-2.45,6.89-4.54l-0.56-5.82 c-1.48,1.42-2.94,2.65-4.58,3.33c-0.36,0.14-0.71,0.25-1.06,0.31c-0.25,0.04-0.49,0.07-0.74,0.06c-1.65-0.04-2.74-1.47-3.08-3.5 c-0.32-1.69-0.61-5.01-0.9-7.59l-1.32-12.13l9.01-3.68l-0.6-5.62l-5.94,2.43l0,0l-3,1.23l-0.99-8.67l-6.78,3.38l0.86,8.11 l-0.17,0.07v0l-4.4,1.8l0.61,5.62l4.49-1.84l1.69,14.19c0.33,2.81,0.55,5.74,0.9,7.53C201.99,104.48,203.69,106.31,206.49,106.44 L206.49,106.44z"></path> <path class="st2" d="M46.39,41.85l0.17-0.19l0.09-0.1c0.34-0.29,0.64-0.24,1.37,0.41l0.17,0.15l0.32,0.29 c0.43,0.38,0.41,0.67-0.07,1.21l-0.4,0.44l-2-1.81L46.39,41.85L46.39,41.85z M44.5,40.19l-0.32,0.36l-1.85-1.67l0.29-0.32 l0.14-0.15l0.11-0.1c0.33-0.28,0.62-0.24,1.25,0.33C44.95,39.41,45.01,39.63,44.5,40.19L44.5,40.19z M51.56,44.23 c1.49-1.72,1.51-3.32,0.31-4.58c-1.95-2.07-3.44-2.18-5.09-0.6c-0.12,0.14-0.26,0.27-0.35,0.4c0.1-0.14,0.19-0.28,0.27-0.43 c1.01-1.82,0.87-2.72-0.63-3.95c-1.63-1.37-2.77-1.3-4.39,0.28c-0.2,0.2-0.4,0.41-0.59,0.62l-3.82,4.4l10.05,8.74L51.56,44.23 L51.56,44.23z"></path> <polygon class="st2" points="62.57,34.92 60.73,32.44 57.84,34.39 51.29,26.72 47.76,29.35 56.32,39.57 62.57,34.92 "></polygon> <polygon class="st2" points="72.66,28.69 70.99,26.05 67.15,28.18 66.08,26.5 68.94,24.68 67.38,22.23 64.54,24.03 63.56,22.49 67.11,19.93 65.53,17.45 58.12,22.15 65.25,33.4 72.66,28.69 "></polygon> <path class="st2" d="M91.05,22l-0.96-3.8l-0.02-0.09l-0.22-0.73L89.71,17l-0.04-1.27l0.07,1.14l0.24,0.43 c0.2,0.35,0.3,0.52,0.4,0.66l2.5,3.56l4.73-1.2l-5.07-6.12l1.35-6.67l-4.3,1.09l-0.5,4.23l-0.01,0.17l-0.03,0.56L89,14.05 l-0.02,0.29l-0.05-0.37l-0.05-0.37l-0.08-0.4l-0.04-0.24l-0.98-3.87l-4.27,1.08l3.26,12.91L91.05,22L91.05,22z"></path> <polygon class="st2" points="108.55,19.59 108.37,16.6 103.99,16.73 103.86,14.61 107.24,14.4 107.07,11.51 103.71,11.71 103.6,9.88 107.94,9.36 107.76,6.42 99,6.95 99.79,20.24 108.55,19.59 "></polygon> <path class="st2" d="M116.83,13.22l0.01-0.11l0.11-1.27l0.04-0.7l0.06-0.7c0.07,0.74,0.09,1.1,0.11,1.41l0.12,0.53l0.52,7.54 l2.95,0.16l1.31-6.58l0.22-1.38l0.13-0.7l0.13-0.7l-0.02,0.7l-0.04,0.7l-0.03,1.28l-0.01,0.11l0.09,6.65l4.28,0.24l-0.59-13.37 l-5.06-0.28l-1.12,4.86c-0.07,0.35-0.2,0.95-0.39,2.35c-0.03,0.2-0.06,0.4-0.09,0.62c-0.01-0.54-0.03-1.08-0.04-1.59 c-0.06-0.91-0.08-1.19-0.11-1.41l-0.56-4.96l-5.08-0.28l-2.07,13.22l4.28,0.24L116.83,13.22L116.83,13.22z"></path> <path class="st2" d="M134.19,17.57c0.04-0.31,0.12-0.69,0.22-1.18c0.05-0.2,0.09-0.42,0.14-0.61c0.05-0.22,0.12-0.41,0.18-0.62 c0.14-0.48,0.25-0.83,0.36-1.13c0.34-0.9,0.59-1.28,0.81-1.46c0.41-0.35,0.92-0.23,1.11,0.28c0.11,0.26,0.15,0.7,0.02,1.66 c-0.04,0.31-0.1,0.68-0.2,1.17c-0.1,0.41-0.21,0.82-0.31,1.24c-0.14,0.48-0.27,0.85-0.38,1.14c-0.34,0.89-0.59,1.26-0.81,1.46 c-0.41,0.33-0.91,0.21-1.11-0.28C134.11,18.96,134.07,18.51,134.19,17.57L134.19,17.57z M133.22,22.49c3.56,1.3,6.62-0.44,7.8-5.09 c1.03-4.07-0.26-6.8-3.01-7.82c-3.54-1.3-6.61,0.43-7.79,5.09C129.18,18.74,130.48,21.47,133.22,22.49L133.22,22.49z"></path> <polygon class="st2" points="160.65,31.1 157.05,28.8 158.07,26.83 160.99,28.53 162.45,26.02 159.54,24.33 160.47,22.75 164.37,24.72 165.85,22.18 158.26,17.76 151.56,29.26 159.15,33.68 160.65,31.1 "></polygon> <path class="st2" d="M164.24,37.28l4.1-4.59l0.07-0.11l0.79-1l0.43-0.54l0.41-0.55l-0.64,1.24l-0.65,1.23l-2.77,5.88l3.42,3.05 l8.86-9.93l-2.58-2.3l-4.16,4.66l-0.79,1.05l-0.43,0.56l-0.1-0.08l0.32-0.61c0.43-0.78,0.53-0.99,0.61-1.19l2.79-5.96l-3.42-3.05 l-8.86,9.93L164.24,37.28L164.24,37.28z"></path> <path class="st2" d="M177.62,42.61l0.3,1.02c0.14,0.47,0.17,0.69,0.16,0.85c-0.04,0.46-0.48,0.73-0.98,0.51 c-0.52-0.23-1.06-0.79-1.69-2.03c-0.19-0.35-0.35-0.73-0.5-1.14l-2.91,1.46l0.19,0.38l0.26,0.49c2.35,4.43,5.59,5.55,8.05,4.11 c2.03-1.2,2.46-2.63,1.58-5.75c-0.03-0.09-0.05-0.2-0.09-0.29l-0.26-0.81l-0.04-0.13l-0.07-0.21l-0.07-0.31 c-0.07-0.33-0.02-0.52,0.13-0.69c0.22-0.2,0.54-0.21,0.98,0.09c0.21,0.16,0.49,0.43,0.82,0.92c0.27,0.38,0.54,0.91,0.82,1.55 c0.06,0.15,0.12,0.27,0.16,0.4l2.82-1.36c-0.05-0.13-0.12-0.27-0.18-0.39c-2.27-4.62-5.2-5.84-7.57-4.64 C177.31,37.75,176.66,39.57,177.62,42.61L177.62,42.61z"></path> <polygon class="st2" points="83.63,23.99 82.32,21.15 78.24,22.75 77.4,20.94 80.47,19.52 79.25,16.89 76.2,18.3 75.43,16.64 79.28,14.57 78.05,11.91 70.08,15.59 75.66,27.67 83.63,23.99 "></polygon> <polygon class="st2" points="150.63,25.25 147.17,23.3 150.83,14 146.85,12.12 141.85,24.48 149.35,28.04 150.63,25.25 "></polygon> </g> </svg>