<svg fill="currentColor" height="32" viewBox="0 0 24 24" width="32" xmlns="http://www.w3.org/2000/svg"><path d="M12.7478 4C16.9245 4 19 5.95896 19 9.0882C19 11.4288 17.5395 12.9552 15.5664 13.2096C17.232 13.5404 18.2056 14.4817 18.385 16.3389L18.411 16.6804L18.4336 16.9997L18.4532 17.2983L18.4668 17.5235L18.4814 17.7893L18.489 17.9409L18.4998 18.1818L18.5085 18.4093L18.5128 18.5401L18.5187 18.7497L18.5237 18.9893L18.5255 19.105L18.5288 19.4406L18.5299 19.7907L18.5299 20H14.2228L14.2231 19.9127L14.2246 19.7431L14.2272 19.578L14.2346 19.1779L14.2365 19.0437L14.238 18.8334L14.2378 18.6989L14.2365 18.5579L14.2348 18.4472L14.2312 18.2922L14.2261 18.1278L14.2193 17.9531L14.2105 17.7669L14.2053 17.6692L14.1965 17.5165L14.1864 17.3561L14.1706 17.1295L14.1571 16.9494C14.1532 16.8939 14.1487 16.8396 14.1436 16.7867L14.1326 16.6825C13.9904 15.4522 13.4952 14.9494 12.6471 14.7817L12.5756 14.7685C12.5274 14.7602 12.4781 14.7529 12.4277 14.7465L12.3513 14.7377C12.3385 14.7363 12.3255 14.735 12.3125 14.7338L12.2337 14.7269L12.1532 14.7213L12.0711 14.717L11.9883 14.7138L11.9038 14.7118L11.8178 14.7108L5 14.7107V11.3779H11.9792C12.0933 11.3779 12.2039 11.3758 12.3109 11.3714L12.4168 11.3663L12.5203 11.3597L12.6215 11.3516C12.6382 11.3502 12.6548 11.3486 12.6712 11.347L12.7689 11.3366C12.8332 11.3291 12.8959 11.3206 12.9571 11.311L13.0477 11.2959C14.1802 11.0935 14.7464 10.5011 14.7464 9.34498C14.7464 8.04753 13.8241 7.2612 11.9792 7.2612H5V4H12.7478ZM9.55417 17.5155C10.1193 17.5155 10.3557 17.8247 10.4399 18.1207L10.451 18.1632L10.4602 18.2054L10.4661 18.2387L10.4686 18.2551L10.4729 18.2876L10.4761 18.3195L10.4773 18.3351L10.4791 18.3657L10.4796 18.3807L10.48 18.4099V20H5V17.5155H9.55417Z"></path></svg>