<svg width="61" height="60" viewBox="0 0 61 60" xmlns="http://www.w3.org/2000/svg" fill="currentColor"><g fill-rule="evenodd"><path d="M30.01 12c-1.103 0-2 .897-2 2s.897 2 2 2 2-.897 2-2-.897-2-2-2m0 6c-2.206 0-4-1.794-4-4s1.794-4 4-4 4 1.794 4 4-1.794 4-4 4m0 6c-1.103 0-2 .897-2 2s.897 2 2 2 2-.897 2-2-.897-2-2-2m0 6c-2.206 0-4-1.794-4-4s1.794-4 4-4 4 1.794 4 4-1.794 4-4 4"></path><path d="M26.01 41h8v-.111c0-2.667.818-5.29 2.365-7.584 6.224-9.327 4.247-21.116-4.797-28.683l-.002-.001-1.566-1.315-1.566 1.315c-9.044 7.567-11.022 19.355-4.81 28.668 1.558 2.307 2.376 4.93 2.376 7.599V41zm9 2h-10a1 1 0 0 1-1-1v-1.112c0-2.302-.681-4.476-2.022-6.464-6.816-10.216-4.682-23.092 5.17-31.337l2.209-1.853a1 1 0 0 1 1.286 0l2.209 1.854c9.854 8.245 11.987 21.121 5.187 31.312-1.358 2.014-2.04 4.189-2.04 6.489V42a1 1 0 0 1-1 1zm20 3h-2c0-2.206-1.794-4-4-4s-4 1.794-4 4h-2c0-3.309 2.69-6 6-6 3.309 0 6 2.691 6 6m-37 0h-2c0-2.206-1.794-4-4-4s-4 1.794-4 4h-2c0-3.309 2.69-6 6-6 3.309 0 6 2.691 6 6"></path><path d="M2.01 58h56v-7c0-2.757-2.243-5-5-5s-5 2.243-5 5a1 1 0 1 1-2 0c0-3.545-1.603-4-3-4-1.654 0-3 1.346-3 3 0 2.757-2.467 5-5.5 5-1.858 0-3.504-.842-4.5-2.128-.996 1.286-2.642 2.128-4.5 2.128-3.033 0-5.5-2.243-5.5-5 0-1.654-1.346-3-3-3-2.368 0-3 2.514-3 4a1 1 0 0 1-2 0c0-2.757-2.243-5-5-5s-5 2.243-5 5v7zm57 2h-58a1 1 0 0 1-1-1v-8c0-3.86 3.14-7 7-7a7.002 7.002 0 0 1 5.95 3.316C13.766 45.963 15.098 45 17.01 45c2.757 0 5 2.243 5 5 0 1.654 1.57 3 3.5 3s3.5-1.346 3.5-3a1 1 0 0 1 2 0c0 1.654 1.57 3 3.5 3s3.5-1.346 3.5-3c0-2.757 2.243-5 5-5 1.255 0 3.082.353 4.145 2.168A6.998 6.998 0 0 1 53.01 44c3.859 0 7 3.14 7 7v8a1 1 0 0 1-1 1z"></path><path d="M26.01 49a1 1 0 0 1-1-1v-3a1 1 0 0 1 2 0v3a1 1 0 0 1-1 1m8 0a1 1 0 0 1-1-1v-3a1 1 0 0 1 2 0v3a1 1 0 0 1-1 1m-4-2a1 1 0 0 1-1-1v-1a1 1 0 0 1 2 0v1a1 1 0 0 1-1 1m14.97-9.001c-.408 0-.814-.124-1.163-.368l-6.3-4.41 1.146-1.639 6.301 4.411.045-4.048c0-7.178-4.348-10.036-4.534-10.154l1.064-1.694c.224.14 5.47 3.515 5.47 11.848v4.025c0 .759-.418 1.448-1.092 1.799-.296.154-.617.23-.937.23m-29.941 0c-.32 0-.641-.076-.937-.23a2.021 2.021 0 0 1-1.092-1.799v-4.025c0-8.333 5.246-11.708 5.47-11.848l1.064 1.694c-.186.118-4.534 2.976-4.534 10.154v4.025l6.346-4.388 1.147 1.639-6.301 4.41a2.027 2.027 0 0 1-1.163.368M36.038 37H23.981a1 1 0 0 1 0-2h12.057a1 1 0 0 1 0 2m9.972-23a.999.999 0 0 1-.707-1.707l4-4a.999.999 0 1 1 1.414 1.414l-4 4a.997.997 0 0 1-.707.293"></path><path d="M50.01 14a.997.997 0 0 1-.707-.293l-4-4a.999.999 0 1 1 1.414-1.414l4 4A.999.999 0 0 1 50.01 14m8 5a1 1 0 1 1-2 0 1 1 0 0 1 2 0m-49 13a1 1 0 1 1-2.001 0 1 1 0 0 1 2 0M4.007 5A5.07 5.07 0 0 1 5.01 6.003 5.043 5.043 0 0 1 6.013 5 5.043 5.043 0 0 1 5.01 3.997 5.07 5.07 0 0 1 4.007 5m1.003 5a1 1 0 0 1-1-1c0-1.654-1.346-3-3-3a1 1 0 0 1 0-2c1.654 0 3-1.346 3-3a1 1 0 0 1 2 0c0 1.654 1.346 3 3 3a1 1 0 0 1 0 2c-1.654 0-3 1.346-3 3a1 1 0 0 1-1 1"></path></g></svg>