<svg width="48" height="48" viewBox="0 0 48 48" fill="none" xmlns="http://www.w3.org/2000/svg" class="hm-product-carousel-product-items__image"><circle cx="24" cy="24" r="24" fill="#FFA800"></circle><mask id="sales_svg__mask0_4859_87250" style="mask-type:alpha" maskUnits="userSpaceOnUse" x="0" y="0" width="48" height="48"><circle cx="24" cy="24" r="24" fill="#FFB800"></circle></mask><g mask="url(#sales_svg__mask0_4859_87250)"><path d="M39.355 30.14 17.14 33.004a.555.555 0 0 1-.142 0l-21.908-2.866a1.008 1.008 0 0 1-1.019-.999l.565-13.602c0-.293.242-.53.542-.53h44.09c.3 0 .542.237.542.53l.565 13.602c0 .553-.456 1-1.019 1Z" fill="url(#sales_svg__paint0_linear_4859_87250)"></path><path d="M26.68 15.158h-1.665V11.35a.96.96 0 0 0-.958-.958H10.69a.959.959 0 0 0-.958.958v3.808H8.067V11.35a2.624 2.624 0 0 1 2.623-2.623h13.367a2.626 2.626 0 0 1 2.623 2.623v3.808Z" fill="url(#sales_svg__paint1_linear_4859_87250)"></path><path d="m39.355 30.14-22.133 2.855-.082.01a.548.548 0 0 1-.143 0L-4.911 30.14c-.209 0-.403-.062-.565-.168v15.757a3 3 0 0 0 3 3H36.92a3 3 0 0 0 3-3V29.97a1.027 1.027 0 0 1-.565.168Z" fill="url(#sales_svg__paint2_linear_4859_87250)"></path><path d="M13.807 29.65h7.648c.267 0 .483.218.483.486v4.093c0 .27-.218.487-.483.487h-7.648a.485.485 0 0 1-.483-.487v-4.093c0-.268.217-.487.483-.487Z" fill="url(#sales_svg__paint3_linear_4859_87250)"></path></g><defs><linearGradient id="sales_svg__paint0_linear_4859_87250" x1="17.222" y1="15.007" x2="21.684" y2="57.115" gradientUnits="userSpaceOnUse"><stop stop-color="#fff"></stop><stop offset="1" stop-color="#fff" stop-opacity="0.17"></stop></linearGradient><linearGradient id="sales_svg__paint1_linear_4859_87250" x1="17.377" y1="9.994" x2="17.373" y2="15.158" gradientUnits="userSpaceOnUse"><stop stop-color="#fff"></stop><stop offset="1" stop-color="#fff" stop-opacity="0.42"></stop></linearGradient><linearGradient id="sales_svg__paint2_linear_4859_87250" x1="14.674" y1="54.486" x2="17.09" y2="24.364" gradientUnits="userSpaceOnUse"><stop stop-color="#fff"></stop><stop offset="0.125" stop-color="#fff"></stop><stop offset="1" stop-color="#fff" stop-opacity="0.28"></stop></linearGradient><linearGradient id="sales_svg__paint3_linear_4859_87250" x1="18.343" y1="33.6" x2="18.343" y2="27.391" gradientUnits="userSpaceOnUse"><stop stop-color="#fff"></stop><stop offset="1" stop-color="#fff" stop-opacity="0"></stop></linearGradient></defs></svg>