<svg width="48" height="48" viewBox="0 0 48 48" fill="none" xmlns="http://www.w3.org/2000/svg" class="hm-product-carousel-product-items__image"><circle cx="24" cy="24" r="24" fill="#C343FF"></circle><mask id="shopper_svg__mask0_4859_87224" style="mask-type:alpha" maskUnits="userSpaceOnUse" x="0" y="0" width="48" height="48"><circle cx="24" cy="24" r="24" fill="#C343FF"></circle></mask><g mask="url(#shopper_svg__mask0_4859_87224)"><path d="M38.537 54.282H-3.199c-.444 0-.802-.314-.802-.699l1.022-38.535h41.298l1.022 38.535c-.002.387-.36.699-.804.699Z" fill="url(#shopper_svg__paint0_linear_4859_87224)"></path><path d="M25.982 21.303c.82 0 1.485-.637 1.485-1.422 0-.785-.665-1.421-1.485-1.421-.82 0-1.484.636-1.484 1.421s.665 1.422 1.484 1.422ZM9.357 21.303c.82 0 1.485-.637 1.485-1.422 0-.785-.665-1.421-1.485-1.421-.82 0-1.484.636-1.484 1.421s.665 1.422 1.484 1.422Z" fill="#C343FF"></path><path d="M17.626 37.317c-5.008 0-9.081-4.373-9.081-9.749v-6.582c0-.368.311-.667.696-.667.385 0 .696.299.696.667v6.582c0 4.641 3.449 8.416 7.69 8.416 4.238 0 7.689-3.775 7.689-8.416v-6.582c0-.368.311-.667.696-.667.384 0 .696.299.696.667v6.582c0 5.376-4.074 9.75-9.082 9.75Z" fill="url(#shopper_svg__paint1_linear_4859_87224)"></path><path d="m33.771 11.636 4.568 3.412h-41.32l4.55-3.412H33.77Z" fill="url(#shopper_svg__paint2_linear_4859_87224)"></path></g><defs><linearGradient id="shopper_svg__paint0_linear_4859_87224" x1="33.107" y1="15.617" x2="18.429" y2="61.895" gradientUnits="userSpaceOnUse"><stop stop-color="#fff"></stop><stop offset="1" stop-color="#fff" stop-opacity="0.16"></stop></linearGradient><linearGradient id="shopper_svg__paint1_linear_4859_87224" x1="17.966" y1="21.018" x2="18.238" y2="40.92" gradientUnits="userSpaceOnUse"><stop stop-color="#fff"></stop><stop offset="0.656" stop-color="#fff"></stop></linearGradient><linearGradient id="shopper_svg__paint2_linear_4859_87224" x1="-8.884" y1="6.375" x2="33.434" y2="27.468" gradientUnits="userSpaceOnUse"><stop stop-color="#fff"></stop><stop offset="1" stop-color="#fff" stop-opacity="0.15"></stop></linearGradient></defs></svg>