<svg xmlns="http://www.w3.org/2000/svg" width="23" height="14" viewBox="0 0 23 14" fill="none">
    <path d="M6.325 6.75C7.9102 6.75 9.2 5.48824 9.2 3.9375C9.2 2.38676 7.9102 1.125 6.325 1.125C4.7398 1.125 3.45 2.38676 3.45 3.9375C3.45 5.48824 4.7398 6.75 6.325 6.75ZM18.975 2.25H10.925C10.6073 2.25 10.35 2.50172 10.35 2.8125V7.875H2.3V0.5625C2.3 0.251719 2.04269 0 1.725 0H0.575C0.257312 0 0 0.251719 0 0.5625V12.9375C0 13.2483 0.257312 13.5 0.575 13.5H1.725C2.04269 13.5 2.3 13.2483 2.3 12.9375V11.25H20.7V12.9375C20.7 13.2483 20.9573 13.5 21.275 13.5H22.425C22.7427 13.5 23 13.2483 23 12.9375V6.1875C23 4.01273 21.1981 2.25 18.975 2.25Z" fill="#80A1C9"/>
</svg>