<svg viewBox="0 0 181 23" width="181" height="23" fill="none" xmlns="http://www.w3.org/2000/svg">
  <defs>
    <linearGradient id="similarweb-gradient" x1="0%" y1="0%" x2="100%" y2="0%">
      <stop offset="0%" stop-color="#2ad2a3"/>
      <stop offset="100%" stop-color="#1658ea"/>
    </linearGradient>
  </defs>
  <path d="M22.488 5.536c-1.305-1.996-3.195-3.663-5.363-4.51l-.641-.213a7.702 7.702 0 0 0-2.189-.33 4.267 4.267 0 0 0-3.365 6.862l-.266-.34c.127.184.266.368.425.552.674.802 1.632 1.632 2.873 2.575 3.05 2.316 5.03 4.369 5.192 6.915.04.344.064.695.064 1.05 0 1.294-.287 2.663-.777 3.627h.004s-.21.376-.078.486c.067.057.213.1.468-.053a12.207 12.207 0 0 0 3.462-3.323 11.923 11.923 0 0 0 2.124-6.62 11.898 11.898 0 0 0-1.933-6.678zM11.32 12.688l1.912 1.546a4.813 4.813 0 0 1 1.922 3.862 4.835 4.835 0 0 1-3.014 4.483h-.004s-3.621 1.602-7.842-1.444h.004a9.466 9.466 0 0 1-2.192-2.163 11.91 11.91 0 0 1 .784-14.54 12.132 12.132 0 0 1 3.529-2.819c.617-.287.333.295.333.295v.003c-.145.33-.273.667-.376 1.015-1.142 3.808.94 6.897 4.944 9.762z" fill="url(#similarweb-gradient)"/>
</svg>