<svg width="44" height="32" viewBox="0 0 44 32" fill="none" xmlns="http://www.w3.org/2000/svg">
                    <path d="M27.6362 6.9611e-06C24.3483 -0.00246871 21.1403 1.01382 18.4536 2.9091H2.90891C2.71603 2.9091 2.53104 2.98572 2.39465 3.12211C2.25826 3.2585 2.18164 3.44349 2.18164 3.63637C2.18164 3.82926 2.25826 4.01424 2.39465 4.15063C2.53104 4.28702 2.71603 4.36364 2.90891 4.36364H16.6718C15.9629 5.03105 15.3159 5.76131 14.7387 6.54546H7.27255C7.07966 6.54546 6.89468 6.62208 6.75829 6.75847C6.6219 6.89486 6.54528 7.07985 6.54528 7.27273C6.54528 7.46562 6.6219 7.6506 6.75829 7.78699C6.89468 7.92338 7.07966 8.00001 7.27255 8.00001H13.7889C12.7494 9.79053 12.07 11.767 11.7889 13.8182H4.36346C4.17057 13.8182 3.98559 13.8948 3.8492 14.0312C3.71281 14.1676 3.63619 14.3526 3.63619 14.5455C3.63619 14.7383 3.71281 14.9233 3.8492 15.0597C3.98559 15.1961 4.17057 15.2727 4.36346 15.2727H11.6544C11.6435 15.5142 11.6362 15.7564 11.6362 16C11.6363 17.731 11.9183 19.4505 12.4711 21.0909H5.818C5.62512 21.0909 5.44013 21.1675 5.30374 21.3039C5.16735 21.4403 5.09073 21.6253 5.09073 21.8182C5.09073 22.0111 5.16735 22.1961 5.30374 22.3324C5.44013 22.4688 5.62512 22.5455 5.818 22.5455H13.042C14.0584 24.8012 15.5813 26.7921 17.4922 28.3636H5.818C5.62512 28.3636 5.44013 28.4403 5.30374 28.5767C5.16735 28.713 5.09073 28.898 5.09073 29.0909C5.09073 29.2838 5.16735 29.4688 5.30374 29.6052C5.44013 29.7416 5.62512 29.8182 5.818 29.8182H19.5853C21.7081 31.0573 24.088 31.7907 26.5401 31.9614C28.9922 32.1321 31.4506 31.7355 33.7247 30.8024C35.9988 29.8693 38.0273 28.4249 39.6528 26.5811C41.2784 24.7373 42.4572 22.5437 43.098 20.1707C43.7387 17.7976 43.8241 15.3088 43.3474 12.8974C42.8708 10.486 41.8449 8.21687 40.3495 6.26604C38.8541 4.3152 36.9293 2.73515 34.7245 1.64847C32.5198 0.561791 30.0942 -0.00228574 27.6362 6.9611e-06ZM27.6362 30.5455C24.7594 30.5455 21.9472 29.6924 19.5552 28.0941C17.1632 26.4958 15.2988 24.2241 14.1979 21.5663C13.097 18.9085 12.809 15.9839 13.3702 13.1623C13.9315 10.3408 15.3168 7.74904 17.351 5.71482C19.3852 3.6806 21.977 2.29528 24.7985 1.73404C27.6201 1.1728 30.5447 1.46085 33.2025 2.56176C35.8603 3.66267 38.132 5.527 39.7303 7.91898C41.3286 10.311 42.1816 13.1232 42.1816 16C42.1772 19.8563 40.6433 23.5535 37.9165 26.2803C35.1896 29.0072 31.4925 30.541 27.6362 30.5455Z" fill="#FFF"></path>
                    <path d="M27.6358 2.90942C25.0467 2.90942 22.5157 3.67719 20.3629 5.11564C18.2101 6.55409 16.5322 8.59861 15.5414 10.9907C14.5506 13.3827 14.2914 16.0149 14.7965 18.5542C15.3016 21.0936 16.5484 23.4262 18.3792 25.257C20.21 27.0878 22.5425 28.3346 25.0819 28.8397C27.6213 29.3448 30.2535 29.0856 32.6455 28.0948C35.0376 27.1039 37.0821 25.426 38.5205 23.2732C39.959 21.1205 40.7267 18.5895 40.7267 16.0003C40.7227 12.5296 39.3422 9.20227 36.888 6.74813C34.4339 4.29398 31.1065 2.91347 27.6358 2.90942ZM34.0693 25.6883L33.3566 24.452C33.3092 24.3686 33.2457 24.2954 33.1699 24.2366C33.0941 24.1779 33.0074 24.1347 32.9149 24.1096C32.8223 24.0844 32.7257 24.0779 32.6306 24.0902C32.5355 24.1026 32.4438 24.1336 32.3607 24.1816C32.2776 24.2296 32.2049 24.2935 32.1466 24.3697C32.0883 24.4458 32.0457 24.5328 32.0212 24.6255C31.9967 24.7183 31.9908 24.8149 32.0038 24.9099C32.0168 25.005 32.0484 25.0965 32.0969 25.1792L32.806 26.4069C31.4201 27.0985 29.9091 27.5041 28.3631 27.5996V26.1821C28.3631 25.9893 28.2865 25.8043 28.1501 25.6679C28.0137 25.5315 27.8287 25.4549 27.6358 25.4549C27.443 25.4549 27.258 25.5315 27.1216 25.6679C26.9852 25.8043 26.9086 25.9893 26.9086 26.1821V27.5996C25.3628 27.505 23.8518 27.1004 22.4657 26.4098L23.1747 25.1821C23.2233 25.0994 23.2549 25.0079 23.2679 24.9129C23.2809 24.8178 23.275 24.7212 23.2505 24.6284C23.2259 24.5357 23.1833 24.4488 23.1251 24.3726C23.0668 24.2964 22.994 24.2325 22.911 24.1845C22.8279 24.1365 22.7362 24.1055 22.6411 24.0931C22.546 24.0808 22.4494 24.0873 22.3568 24.1125C22.2642 24.1376 22.1775 24.1808 22.1017 24.2396C22.0259 24.2983 21.9625 24.3715 21.9151 24.4549L21.2024 25.6912C19.9136 24.8315 18.8075 23.7255 17.9478 22.4367L19.1842 21.724C19.2676 21.6766 19.3408 21.6131 19.3995 21.5373C19.4583 21.4615 19.5015 21.3748 19.5266 21.2823C19.5517 21.1897 19.5583 21.0931 19.5459 20.998C19.5336 20.9029 19.5025 20.8112 19.4546 20.7281C19.4066 20.645 19.3427 20.5723 19.2665 20.514C19.1903 20.4558 19.1034 20.4131 19.0106 20.3886C18.9179 20.3641 18.8212 20.3582 18.7262 20.3712C18.6312 20.3842 18.5397 20.4158 18.4569 20.4643L17.2293 21.1734C16.5373 19.7866 16.1316 18.2746 16.0366 16.7276H17.454C17.6469 16.7276 17.8319 16.651 17.9683 16.5146C18.1047 16.3782 18.1813 16.1932 18.1813 16.0003C18.1813 15.8074 18.1047 15.6225 17.9683 15.4861C17.8319 15.3497 17.6469 15.2731 17.454 15.2731H16.0366C16.1311 13.7273 16.5358 12.2163 17.2264 10.8302L18.454 11.5392C18.5368 11.5877 18.6283 11.6194 18.7233 11.6324C18.8183 11.6454 18.915 11.6395 19.0077 11.6149C19.1005 11.5904 19.1874 11.5478 19.2636 11.4896C19.3398 11.4313 19.4037 11.3585 19.4517 11.2755C19.4996 11.1924 19.5307 11.1007 19.543 11.0056C19.5554 10.9105 19.5488 10.8138 19.5237 10.7213C19.4986 10.6287 19.4554 10.542 19.3966 10.4662C19.3378 10.3904 19.2647 10.327 19.1813 10.2796L17.9449 9.56688C18.8046 8.27809 19.9107 7.17203 21.1995 6.31233L21.9122 7.5487C21.9596 7.63207 22.023 7.70525 22.0988 7.76402C22.1746 7.82278 22.2613 7.86597 22.3539 7.8911C22.4464 7.91623 22.5431 7.92281 22.6382 7.91044C22.7333 7.89808 22.825 7.86703 22.9081 7.81907C22.9911 7.77111 23.0639 7.7072 23.1222 7.63101C23.1804 7.55482 23.223 7.46786 23.2475 7.37513C23.2721 7.2824 23.278 7.18574 23.265 7.09071C23.252 6.99569 23.2203 6.90417 23.1718 6.82142L22.4627 5.59379C23.8496 4.90178 25.3616 4.49614 26.9086 4.40106V5.81851C26.9086 6.0114 26.9852 6.19638 27.1216 6.33277C27.258 6.46916 27.443 6.54579 27.6358 6.54579C27.8287 6.54579 28.0137 6.46916 28.1501 6.33277C28.2865 6.19638 28.3631 6.0114 28.3631 5.81851V4.40106C29.9089 4.49561 31.4199 4.90025 32.806 5.59088L32.0969 6.81851C32.0484 6.90126 32.0168 6.99278 32.0038 7.08781C31.9908 7.18283 31.9967 7.27949 32.0212 7.37222C32.0457 7.46495 32.0883 7.55191 32.1466 7.6281C32.2049 7.70429 32.2776 7.7682 32.3607 7.81616C32.4438 7.86412 32.5355 7.89517 32.6306 7.90753C32.7257 7.9199 32.8223 7.91332 32.9149 7.88819C33.0074 7.86306 33.0941 7.81987 33.1699 7.76111C33.2457 7.70234 33.3092 7.62917 33.3566 7.54579L34.0693 6.30942C35.3581 7.16912 36.4641 8.27519 37.3238 9.56397L36.0875 10.2767C36.0041 10.3241 35.9309 10.3875 35.8722 10.4633C35.8134 10.5391 35.7702 10.6258 35.7451 10.7184C35.7199 10.8109 35.7134 10.9076 35.7257 11.0027C35.7381 11.0978 35.7691 11.1895 35.8171 11.2726C35.8651 11.3556 35.929 11.4284 36.0052 11.4866C36.0814 11.5449 36.1683 11.5875 36.261 11.612C36.3538 11.6366 36.4504 11.6425 36.5455 11.6295C36.6405 11.6165 36.732 11.5848 36.8147 11.5363L38.0424 10.8272C38.7344 12.2141 39.14 13.7261 39.2351 15.2731H37.8177C37.6248 15.2731 37.4398 15.3497 37.3034 15.4861C37.167 15.6225 37.0904 15.8074 37.0904 16.0003C37.0904 16.1932 37.167 16.3782 37.3034 16.5146C37.4398 16.651 37.6248 16.7276 37.8177 16.7276H39.2351C39.1406 18.2734 38.7359 19.7844 38.0453 21.1705L36.8177 20.4614C36.7349 20.4129 36.6434 20.3813 36.5484 20.3683C36.4533 20.3553 36.3567 20.3612 36.264 20.3857C36.1712 20.4102 36.0843 20.4528 36.0081 20.5111C35.9319 20.5694 35.868 20.6421 35.82 20.7252C35.7721 20.8082 35.741 20.9 35.7286 20.9951C35.7163 21.0902 35.7228 21.1868 35.748 21.2794C35.7731 21.3719 35.8163 21.4586 35.8751 21.5344C35.9338 21.6102 36.007 21.6737 36.0904 21.7211L37.3267 22.4338C36.4662 23.7228 35.3591 24.8289 34.0693 25.6883Z" fill="#FFF"></path>
                    <path d="M31.2738 15.2727H29.6854C29.5768 14.9686 29.4019 14.6923 29.1735 14.4639C28.9451 14.2355 28.6689 14.0607 28.3647 13.952V9.45457C28.3647 9.26168 28.2881 9.0767 28.1517 8.94031C28.0153 8.80392 27.8303 8.72729 27.6374 8.72729C27.4445 8.72729 27.2596 8.80392 27.1232 8.94031C26.9868 9.0767 26.9102 9.26168 26.9102 9.45457V13.952C26.5629 14.074 26.2523 14.2821 26.0073 14.5568C25.7623 14.8315 25.591 15.1638 25.5093 15.5227C25.4277 15.8816 25.4383 16.2553 25.5403 16.6089C25.6424 16.9626 25.8324 17.2846 26.0926 17.5448C26.3529 17.8051 26.6749 17.9951 27.0285 18.0971C27.3822 18.1991 27.7559 18.2098 28.1148 18.1281C28.4736 18.0465 28.806 17.8751 29.0806 17.6301C29.3553 17.3852 29.5634 17.0745 29.6854 16.7273H31.2738C31.4667 16.7273 31.6517 16.6507 31.788 16.5143C31.9244 16.3779 32.0011 16.1929 32.0011 16C32.0011 15.8071 31.9244 15.6222 31.788 15.4858C31.6517 15.3494 31.4667 15.2727 31.2738 15.2727ZM27.6374 16.7273C27.4936 16.7273 27.353 16.6846 27.2334 16.6047C27.1138 16.5248 27.0206 16.4112 26.9655 16.2783C26.9105 16.1454 26.8961 15.9992 26.9241 15.8581C26.9522 15.7171 27.0215 15.5875 27.1232 15.4858C27.2249 15.3841 27.3545 15.3148 27.4955 15.2867C27.6366 15.2587 27.7828 15.2731 27.9157 15.3281C28.0486 15.3832 28.1622 15.4764 28.2421 15.596C28.322 15.7156 28.3647 15.8562 28.3647 16C28.3647 16.1929 28.2881 16.3779 28.1517 16.5143C28.0153 16.6507 27.8303 16.7273 27.6374 16.7273Z" fill="#FFF"></path>
                    <path d="M8.72727 10.9096C8.72727 10.7168 8.65065 10.5318 8.51426 10.3954C8.37787 10.259 8.19289 10.1824 8 10.1824H0.727273C0.534388 10.1824 0.349403 10.259 0.213013 10.3954C0.0766232 10.5318 0 10.7168 0 10.9096C0 11.1025 0.0766232 11.2875 0.213013 11.4239C0.349403 11.5603 0.534388 11.6369 0.727273 11.6369H8C8.19289 11.6369 8.37787 11.5603 8.51426 11.4239C8.65065 11.2875 8.72727 11.1025 8.72727 10.9096Z" fill="#FFF"></path>
                    <path d="M1.45384 18.9091H7.27202C7.4649 18.9091 7.64989 18.8325 7.78628 18.6961C7.92267 18.5597 7.99929 18.3747 7.99929 18.1819C7.99929 17.989 7.92267 17.804 7.78628 17.6676C7.64989 17.5312 7.4649 17.4546 7.27202 17.4546H1.45384C1.26095 17.4546 1.07597 17.5312 0.939576 17.6676C0.803186 17.804 0.726563 17.989 0.726562 18.1819C0.726563 18.3747 0.803186 18.5597 0.939576 18.6961C1.07597 18.8325 1.26095 18.9091 1.45384 18.9091Z" fill="#FFF"></path>
                    <path d="M0.727273 26.1818H9.45455C9.64743 26.1818 9.83241 26.1052 9.9688 25.9688C10.1052 25.8324 10.1818 25.6475 10.1818 25.4546C10.1818 25.2617 10.1052 25.0767 9.9688 24.9403C9.83241 24.8039 9.64743 24.7273 9.45455 24.7273H0.727273C0.534388 24.7273 0.349403 24.8039 0.213013 24.9403C0.0766232 25.0767 0 25.2617 0 25.4546C0 25.6475 0.0766232 25.8324 0.213013 25.9688C0.349403 26.1052 0.534388 26.1818 0.727273 26.1818Z" fill="#FFF"></path>
                </svg>