<svg width="40" height="32" viewBox="0 0 40 32" fill="none" xmlns="http://www.w3.org/2000/svg">
                <path d="M20.8991 22.2036H31.3481C31.7399 22.2036 32.0011 21.9424 32.0011 21.5506V15.6731C32.0011 15.2812 31.7399 15.02 31.3481 15.02H20.8991C20.5073 15.02 20.2461 15.2812 20.2461 15.6731V21.5506C20.246 21.9424 20.5073 22.2036 20.8991 22.2036ZM21.5522 16.3261H30.6951V20.8975H21.5522V16.3261Z" fill="#FFF"></path>
                <path d="M3.26436 13.7145H8.48888C8.88072 13.7145 9.14192 13.4533 9.14192 13.0615C9.14192 12.6696 8.88072 12.4084 8.48888 12.4084H3.26436C2.87253 12.4084 2.61133 12.6696 2.61133 13.0615C2.61133 13.4533 2.87253 13.7145 3.26436 13.7145Z" fill="#FFF"></path>
                <path d="M11.1042 13.7145H16.3287C16.7206 13.7145 16.9818 13.4533 16.9818 13.0615C16.9818 12.6696 16.7206 12.4084 16.3287 12.4084H11.1042C10.7124 12.4084 10.4512 12.6696 10.4512 13.0615C10.4512 13.4533 10.7124 13.7145 11.1042 13.7145Z" fill="#FFF"></path>
                <path d="M3.26436 16.3261H11.7541C12.146 16.3261 12.4072 16.0649 12.4072 15.6731C12.4072 15.2812 12.146 15.02 11.7541 15.02H3.26436C2.87253 15.02 2.61133 15.2812 2.61133 15.6731C2.61133 16.0649 2.87253 16.3261 3.26436 16.3261Z" fill="#FFF"></path>
                <path d="M16.331 15.0198H14.3718C13.9799 15.0198 13.7188 15.281 13.7188 15.6728C13.7188 16.0646 13.9799 16.3258 14.3718 16.3258H16.331C16.7228 16.3258 16.984 16.0646 16.984 15.6728C16.984 15.281 16.7228 15.0198 16.331 15.0198Z" fill="#FFF"></path>
                <path d="M38.596 6.92243C38.1388 6.33467 37.5511 6.00812 36.8327 5.94284L35.2653 5.75289V3.91829V2.61222C35.2653 1.17551 34.0898 3.73664e-09 32.6531 3.73664e-09H2.61222C1.17551 -7.65269e-05 0 1.17543 0 2.61222V3.91837V9.14289V23.5102C0 24.6898 0.792628 25.6927 1.8714 26.0142C1.8385 27.3352 2.83806 28.4821 4.17965 28.6041L34.3511 32C34.4164 32 34.547 32 34.6123 32C35.9185 32 37.094 31.0204 37.2245 29.7796L39.1837 8.81633C39.249 8.16322 39.0531 7.44483 38.596 6.92243ZM1.30615 4.57141H33.9593V6.26939V8.48978H1.30615V4.57141ZM2.61222 1.30607H32.653C33.3714 1.30607 33.9592 1.89383 33.9592 2.61222V3.26526H1.30615V2.61222C1.30615 1.89383 1.8939 1.30607 2.61222 1.30607ZM1.30615 23.5101V9.79585H33.9593V23.5101C33.9593 24.2285 33.3715 24.8163 32.6531 24.8163H2.67758H2.6123C1.8939 24.8163 1.30615 24.2285 1.30615 23.5101ZM37.8776 8.55506L35.9184 29.5183C35.8531 30.2367 35.2 30.7591 34.4817 30.6938L4.37549 27.298C3.72245 27.2327 3.26526 26.7102 3.19998 26.1224H32.653C34.0898 26.1224 35.2653 24.9469 35.2653 23.5102V9.14281V6.98771L36.7673 7.11835C37.0939 7.11835 37.4204 7.31427 37.6163 7.57547C37.8123 7.83666 37.9429 8.2285 37.8776 8.55506Z" fill="#FFF"></path>
                </svg>