<svg xmlns="http://www.w3.org/2000/svg" viewBox="0 0 24 24">
  <defs>
    <linearGradient id="half-half" x1="0%" y1="0%" x2="100%" y2="0%">
      <stop offset="50%" style="stop-color:#FACC15; stop-opacity:1" />
      <stop offset="50%" style="stop-color:#e4e4e4; stop-opacity:1" />
    </linearGradient>
  </defs>
  <path fill="url(#half-half)" d="m23.144 8.541-7.081-1.029L12.9 1.1a1.041 1.041 0 0 0-1.794 0L7.937 7.512.856 8.541A1 1 0 0 0 .3 10.246l5.125 4.994-1.209 7.053a1 1 0 0 0 1.451 1.054L12 20.018l6.333 3.329a1 1 0 0 0 1.451-1.054l-1.209-7.053 5.125-4.994a1 1 0 0 0-.554-1.705Z"/>
</svg>
