<svg width="48" height="48" viewBox="0 0 48 48" fill="none" xmlns="http://www.w3.org/2000/svg" class="hm-product-carousel-product-items__image"><circle cx="24" cy="24" r="24" fill="#00CA9A"></circle><mask id="stock_svg__mask0_4859_87233" style="mask-type:alpha" maskUnits="userSpaceOnUse" x="0" y="0" width="48" height="48"><circle cx="24" cy="24" r="24" fill="#00CA9A"></circle></mask><g mask="url(#stock_svg__mask0_4859_87233)"><path d="M12.594 17.42h-1.649v-6.213c0-.195-.167-.352-.374-.352-.208 0-.375.157-.375.352v6.212H8.547c-.372 0-.674.284-.674.633v16.786c0 .349.302.633.674.633h1.649v4.571c0 .195.167.352.375.352.207 0 .374-.157.374-.352v-4.571h1.649c.372 0 .674-.284.674-.633V18.052c0-.349-.302-.633-.674-.633Z" fill="url(#stock_svg__paint0_linear_4859_87233)"></path><path d="M3.096 25.39H1.358v-1.992c0-.195-.168-.352-.375-.352s-.375.157-.375.352v1.992h-1.623c-.355 0-.642.27-.642.603v11.92c0 .333.287.603.642.603H.608v7.15c0 .195.168.352.375.352s.375-.157.375-.352v-7.148h1.738c.355 0 .642-.27.642-.602V25.993c0-.333-.287-.603-.642-.603Z" fill="url(#stock_svg__paint1_linear_4859_87233)"></path><path d="M40.363 12.72H38.62V9.555c0-.194-.168-.351-.375-.351s-.374.157-.374.351v3.165h-1.632c-.352 0-.636.267-.636.598v5.603c0 .33.284.598.636.598h1.632v5.978c0 .194.167.351.374.351s.375-.157.375-.351v-5.978h1.743c.352 0 .637-.268.637-.598v-5.603c0-.33-.285-.598-.637-.598Z" fill="url(#stock_svg__paint2_linear_4859_87233)"></path><path d="M22.127 26.654h-1.649v-4.22c0-.194-.167-.351-.374-.351s-.375.157-.375.352v4.22h-1.648c-.372 0-.675.283-.675.632v9.284c0 .349.303.633.675.633h1.648v8.674c0 .194.168.351.375.351s.374-.157.374-.351v-8.674h1.649c.372 0 .674-.284.674-.633v-9.284c0-.35-.302-.633-.674-.633Z" fill="url(#stock_svg__paint3_linear_4859_87233)"></path><path d="M31.7 21.405h-1.747v-9.026c0-.194-.167-.351-.374-.351-.208 0-.375.157-.375.351v9.026H27.57c-.35 0-.631.265-.631.593v12.877c0 .328.282.593.631.593h1.634v1.524c0 .195.167.352.375.352.207 0 .374-.157.374-.352v-1.521H31.7c.35 0 .632-.265.632-.593v-12.88c.002-.328-.282-.593-.632-.593Z" fill="url(#stock_svg__paint4_linear_4859_87233)"></path></g><defs><linearGradient id="stock_svg__paint0_linear_4859_87233" x1="10.545" y1="16.545" x2="10.545" y2="45.455" gradientUnits="userSpaceOnUse"><stop stop-color="#fff"></stop><stop offset="1" stop-color="#fff" stop-opacity="0"></stop></linearGradient><linearGradient id="stock_svg__paint1_linear_4859_87233" x1="1.04" y1="23.046" x2="1.04" y2="46.018" gradientUnits="userSpaceOnUse"><stop stop-color="#fff"></stop><stop offset="1" stop-color="#fff" stop-opacity="0"></stop></linearGradient><linearGradient id="stock_svg__paint2_linear_4859_87233" x1="38.301" y1="9.204" x2="38.182" y2="51.455" gradientUnits="userSpaceOnUse"><stop stop-color="#fff"></stop><stop offset="1" stop-color="#fff" stop-opacity="0"></stop></linearGradient><linearGradient id="stock_svg__paint3_linear_4859_87233" x1="20.104" y1="22.083" x2="20" y2="58.727" gradientUnits="userSpaceOnUse"><stop stop-color="#fff"></stop><stop offset="1" stop-color="#fff" stop-opacity="0"></stop></linearGradient><linearGradient id="stock_svg__paint4_linear_4859_87233" x1="29.456" y1="17.818" x2="29.456" y2="53.455" gradientUnits="userSpaceOnUse"><stop stop-color="#fff"></stop><stop offset="1" stop-color="#fff" stop-opacity="0"></stop></linearGradient></defs></svg>