<svg xmlns="http://www.w3.org/2000/svg" viewBox="0 0 24 24"><g id="App" fill="none" fill-rule="evenodd" stroke="none" stroke-width="1"><path id="Shape" fill="#AAB2BA" fill-rule="nonzero" d="M14 18a1 1 0 0 1 1 1v4a1 1 0 0 1-1 1h-4a1 1 0 0 1-1-1v-4a1 1 0 0 1 1-1zm8 0a1 1 0 0 1 1 1v4a1 1 0 0 1-1 1h-4a1 1 0 0 1-1-1v-4a1 1 0 0 1 1-1zM15 1a3 3 0 0 1 3 3v4H4v8h3v2H4v2a1 1 0 0 0 1 1h2v2H5a3 3 0 0 1-3-3V4a3 3 0 0 1 3-3zm6 19h-2v2h2zm-8 0h-2v2h2zm1-10a1 1 0 0 1 1 1v4a1 1 0 0 1-1 1h-4a1 1 0 0 1-1-1v-4a1 1 0 0 1 1-1zm8 0a1 1 0 0 1 1 1v4a1 1 0 0 1-1 1h-4a1 1 0 0 1-1-1v-4a1 1 0 0 1 1-1zm-9 2h-2v2h2zm8 0h-2v2h2zm-6-9H5a1 1 0 0 0-1 1v2h12V4a1 1 0 0 0-1-1"></path></g></svg>