<svg xmlns="http://www.w3.org/2000/svg" width="17" height="17" viewBox="0 0 17 17" fill="none">
    <path d="M1.00004 6.86078C2.91644 11.0347 6.32645 14.3532 10.566 16.1522L11.2456 16.455C12.8004 17.1477 14.6282 16.6214 15.5765 15.2079L16.4646 13.8842C16.7533 13.4538 16.6654 12.8742 16.262 12.5488L13.2502 10.119C12.8078 9.76208 12.1573 9.84521 11.8189 10.3019L10.8871 11.5591C8.49634 10.3798 6.55529 8.43873 5.37595 6.04792L6.6332 5.1162C7.08986 4.77778 7.17298 4.12727 6.81609 3.68489L4.38623 0.672942C4.06088 0.269661 3.48138 0.181693 3.05101 0.470262L1.71817 1.36396C0.295825 2.31767 -0.227556 4.16052 0.481176 5.71947L0.999264 6.85908L1.00004 6.86078Z" fill="#22C55E"/>
</svg>