<svg xmlns="http://www.w3.org/2000/svg" width="21" height="24" viewBox="0 0 21 24" fill="none">
    <path d="M21 9.625C21 9.39294 20.9078 9.17038 20.7437 9.00628C20.5796 8.84219 20.3571 8.75 20.125 8.75H0.875C0.642936 8.75 0.420376 8.84219 0.256282 9.00628C0.0921874 9.17038 0 9.39294 0 9.625C0.000622511 11.5688 0.540829 13.4744 1.56045 15.1293C2.58008 16.7843 4.03909 18.1237 5.775 18.9984L5.40313 21.6234C5.36519 21.8719 5.38155 22.1256 5.45109 22.3671C5.52062 22.6086 5.64169 22.8322 5.80593 23.0225C5.97018 23.2127 6.17371 23.3651 6.40251 23.4691C6.6313 23.5731 6.87992 23.6263 7.13125 23.625H13.8688C14.1201 23.6263 14.3687 23.5731 14.5975 23.4691C14.8263 23.3651 15.0298 23.2127 15.1941 23.0225C15.3583 22.8322 15.4794 22.6086 15.5489 22.3671C15.6185 22.1256 15.6348 21.8719 15.5969 21.6234L15.225 18.9984C16.9609 18.1237 18.4199 16.7843 19.4395 15.1293C20.4592 13.4744 20.9994 11.5688 21 9.625ZM7.13125 21.875L7.44844 19.6766C9.4389 20.2743 11.5611 20.2743 13.5516 19.6766L13.8688 21.875H7.13125ZM3.0625 7H17.9375C18.0535 7 18.1648 6.95391 18.2469 6.87186C18.3289 6.78981 18.375 6.67853 18.375 6.5625V1.75C18.375 1.28587 18.1906 0.840752 17.8624 0.512563C17.5342 0.184374 17.0891 0 16.625 0H4.375C3.91087 0 3.46575 0.184374 3.13756 0.512563C2.80937 0.840752 2.625 1.28587 2.625 1.75V6.5625C2.625 6.67853 2.67109 6.78981 2.75314 6.87186C2.83519 6.95391 2.94647 7 3.0625 7ZM6.125 2.625H7.875C8.10706 2.625 8.32962 2.71719 8.49372 2.88128C8.65781 3.04538 8.75 3.26794 8.75 3.5C8.75 3.73206 8.65781 3.95462 8.49372 4.11872C8.32962 4.28281 8.10706 4.375 7.875 4.375H6.125C5.89294 4.375 5.67038 4.28281 5.50628 4.11872C5.34219 3.95462 5.25 3.73206 5.25 3.5C5.25 3.26794 5.34219 3.04538 5.50628 2.88128C5.67038 2.71719 5.89294 2.625 6.125 2.625Z" fill="#80A1C9"/>
</svg>