<svg xmlns="http://www.w3.org/2000/svg" fill="none" viewBox="0 0 40 40" width="24" height="24" class="size-8 shrink-0 tablet:size-10"><g clip-path="url(#manual-transmission_svg__a)"><path fill="#757575" d="M31.267 25.386a5.43 5.43 0 0 0-3.587-1.63 4.17 4.17 0 0 0-1.925-.644 3.1 3.1 0 0 0-1.917-.659h-.368v-8.749a7.3 7.3 0 0 0 3.822-6.412c0-1.71-.604-3.373-1.702-4.682a.586.586 0 1 0-.898.753 6.13 6.13 0 0 1 1.428 3.93A6.127 6.127 0 0 1 20 13.411a6.127 6.127 0 0 1-6.12-6.12 6.122 6.122 0 0 1 9.18-5.302.586.586 0 1 0 .586-1.015A7.3 7.3 0 0 0 20 0c-4.02 0-7.292 3.271-7.292 7.292a7.3 7.3 0 0 0 3.823 6.412v8.75h-.37a3.1 3.1 0 0 0-1.916.658 4.17 4.17 0 0 0-1.925.643 5.43 5.43 0 0 0-3.587 1.63 5.43 5.43 0 0 0-1.559 3.821v5.333c0 3.011 2.45 5.461 5.461 5.461h14.73a5.467 5.467 0 0 0 5.46-5.46v-5.334a5.43 5.43 0 0 0-1.558-3.82M20 14.584a7.3 7.3 0 0 0 2.298-.372v11.555A2.3 2.3 0 0 1 20 28.065a2.3 2.3 0 0 1-2.298-2.298V14.212c.723.241 1.496.372 2.298.372m-3.838 9.041h.369v2.142a3.473 3.473 0 0 0 3.47 3.47 3.473 3.473 0 0 0 3.469-3.47v-2.142h.368c1.078 0 1.955.877 1.955 1.955v2.779a1.957 1.957 0 0 1-1.955 1.954h-7.676a1.957 1.957 0 0 1-1.955-1.954v-2.78c0-1.077.877-1.954 1.955-1.954m15.492 10.914a4.294 4.294 0 0 1-4.29 4.29H12.636a4.294 4.294 0 0 1-4.289-4.29v-5.333c0-1.128.435-2.194 1.224-3a4.3 4.3 0 0 1 1.335-.927c-.32.592-.5 1.27-.5 1.994V31.2a4.17 4.17 0 0 0 2.829 3.953.586.586 0 1 0 .377-1.109 3 3 0 0 1-2.034-2.844v-3.926c0-1.164.65-2.168 1.614-2.667-.1.307-.156.634-.156.974v2.779a3.13 3.13 0 0 0 3.127 3.126h7.676a3.13 3.13 0 0 0 3.127-3.126v-2.78c0-.34-.055-.666-.156-.973a2.99 2.99 0 0 1 1.614 2.667V31.2a3.006 3.006 0 0 1-3.002 3.003h-9.67a.586.586 0 1 0 0 1.171h9.67a4.18 4.18 0 0 0 4.175-4.174v-3.926c0-.723-.182-1.402-.501-1.994.494.218.947.53 1.335.927a4.27 4.27 0 0 1 1.224 3z"></path><path fill="#1E2F2C" d="M23.115 5.342v1.364H21.82V5.342a.586.586 0 1 0-1.172 0v1.364h-1.296V5.342a.586.586 0 0 0-1.172 0v1.364h-1.295V5.342a.586.586 0 1 0-1.172 0v1.95c0 .324.263.586.586.586h1.881v1.364a.586.586 0 1 0 1.172 0V7.878h1.296v1.364a.586.586 0 0 0 1.172 0V7.878h1.295v1.364a.586.586 0 1 0 1.172 0v-3.9a.586.586 0 1 0-1.172 0"></path></g><defs><clipPath id="manual-transmission_svg__a"><path fill="#fff" d="M0 0h40v40H0z"></path></clipPath></defs></svg>