<svg xmlns="http://www.w3.org/2000/svg" width="14" height="27" viewBox="0 0 14 27" fill="none">
    <path d="M0.875 0C1.10706 0 1.32962 0.0921872 1.49372 0.256282C1.65781 0.420376 1.75 0.642936 1.75 0.875V1.75H12.25V0.875C12.25 0.642936 12.3422 0.420376 12.5063 0.256282C12.6704 0.0921872 12.8929 0 13.125 0C13.3571 0 13.5796 0.0921872 13.7437 0.256282C13.9078 0.420376 14 0.642936 14 0.875V25.375C14 25.6071 13.9078 25.8296 13.7437 25.9937C13.5796 26.1578 13.3571 26.25 13.125 26.25C12.8929 26.25 12.6704 26.1578 12.5063 25.9937C12.3422 25.8296 12.25 25.6071 12.25 25.375V24.5H1.75V25.375C1.75 25.6071 1.65781 25.8296 1.49372 25.9937C1.32962 26.1578 1.10706 26.25 0.875 26.25C0.642936 26.25 0.420376 26.1578 0.256282 25.9937C0.0921874 25.8296 0 25.6071 0 25.375V0.875C0 0.642936 0.0921874 0.420376 0.256282 0.256282C0.420376 0.0921872 0.642936 0 0.875 0ZM1.75 22.75H12.25V19.25H1.75V22.75ZM1.75 17.5H12.25V14H1.75V17.5ZM1.75 12.25H12.25V8.75H1.75V12.25ZM1.75 7H12.25V3.5H1.75V7Z" fill="#80A1C9"/>
</svg>