<?xml version="1.0" encoding="UTF-8"?>
<svg width="185px" height="165px" viewBox="0 0 185 165" version="1.1" xmlns="http://www.w3.org/2000/svg" xmlns:xlink="http://www.w3.org/1999/xlink">
    <title>Tussenwoning</title>
    <defs>
        <polygon id="path-1" points="0 -0.0001 184.3355 -0.0001 184.3355 97.9609 0 97.9609"></polygon>
    </defs>
    <g id="Page-1" stroke="none" stroke-width="1" fill="none" fill-rule="evenodd">
        <g id="Homepage---woningkeuren.nl" transform="translate(-687.000000, -492.000000)">
            <g id="Group-3-Copy" transform="translate(239.000000, 397.000000)">
                <g id="Tussenwoning" transform="translate(368.000000, 36.000000)">
                    <g transform="translate(80.000000, 59.000000)">
                        <path d="M123.869081,40.7850262 C138.961405,43.5126385 159.71335,46.5944861 166.40523,56.6547704 C173.061514,66.7150546 165.622138,83.789199 158.574307,99.6589431 C151.526477,115.493264 144.870192,130.158608 133.550949,143.477857 C122.196112,156.797107 106.178315,168.841109 93.7912191,163.84639 C81.4041231,158.816248 72.6833228,136.747385 58.7656374,124.242877 C44.8123569,111.773792 25.6621914,108.833639 15.0192555,97.9940369 C4.3763196,87.1898584 2.2050183,68.4508079 8.54094668,53.5374992 C14.8768751,38.6241905 29.684438,27.5012002 44.7055716,24.7381644 C59.7267052,21.9751286 74.9258143,27.5720473 87.206125,31.5749068 C99.4864356,35.6131899 108.812353,38.0219904 123.869081,40.7850262 Z" id="Blob" fill="#0D3A97" fill-rule="nonzero" opacity="0.049999997"></path>
                        <mask id="mask-2" fill="white">
                            <use xlink:href="#path-1"></use>
                        </mask>
                        <g id="Clip-2"></g>
                        <path d="M26.336,56.4439 L39.336,56.4439 L39.336,54.4439 L26.336,54.4439 L26.336,56.4439 Z M27.699,52.4439 L37.972,52.4439 L37.972,41.4439 L27.699,41.4439 L27.699,52.4439 Z M40.336,52.4439 L39.973,52.4439 L39.973,40.4439 C39.973,39.8919 39.525,39.4439 38.973,39.4439 L26.699,39.4439 C26.146,39.4439 25.699,39.8919 25.699,40.4439 L25.699,52.4439 L25.336,52.4439 C24.783,52.4439 24.336,52.8919 24.336,53.4439 L24.336,57.4439 C24.336,57.9969 24.783,58.4439 25.336,58.4439 L40.336,58.4439 C40.889,58.4439 41.336,57.9969 41.336,57.4439 L41.336,53.4439 C41.336,52.8919 40.889,52.4439 40.336,52.4439 L40.336,52.4439 Z" id="Fill-1" fill="#222222" mask="url(#mask-2)"></path>
                        <path d="M65.336,56.4439 L78.336,56.4439 L78.336,54.4439 L65.336,54.4439 L65.336,56.4439 Z M66.699,52.4439 L76.972,52.4439 L76.972,41.4439 L66.699,41.4439 L66.699,52.4439 Z M79.336,52.4439 L78.973,52.4439 L78.973,40.4439 C78.973,39.8919 78.525,39.4439 77.973,39.4439 L65.699,39.4439 C65.146,39.4439 64.699,39.8919 64.699,40.4439 L64.699,52.4439 L64.336,52.4439 C63.783,52.4439 63.336,52.8919 63.336,53.4439 L63.336,57.4439 C63.336,57.9969 63.783,58.4439 64.336,58.4439 L79.336,58.4439 C79.889,58.4439 80.336,57.9969 80.336,57.4439 L80.336,53.4439 C80.336,52.8919 79.889,52.4439 79.336,52.4439 L79.336,52.4439 Z" id="Fill-3" fill="#222222" mask="url(#mask-2)"></path>
                        <path d="M104.336,56.4439 L117.336,56.4439 L117.336,54.4439 L104.336,54.4439 L104.336,56.4439 Z M105.699,52.4439 L115.972,52.4439 L115.972,41.4439 L105.699,41.4439 L105.699,52.4439 Z M118.336,52.4439 L117.973,52.4439 L117.973,40.4439 C117.973,39.8919 117.525,39.4439 116.973,39.4439 L104.699,39.4439 C104.146,39.4439 103.699,39.8919 103.699,40.4439 L103.699,52.4439 L103.336,52.4439 C102.783,52.4439 102.336,52.8919 102.336,53.4439 L102.336,57.4439 C102.336,57.9969 102.783,58.4439 103.336,58.4439 L118.336,58.4439 C118.889,58.4439 119.336,57.9969 119.336,57.4439 L119.336,53.4439 C119.336,52.8919 118.889,52.4439 118.336,52.4439 L118.336,52.4439 Z" id="Fill-4" fill="#222222" mask="url(#mask-2)"></path>
                        <path d="M142.336,56.4439 L155.336,56.4439 L155.336,54.4439 L142.336,54.4439 L142.336,56.4439 Z M143.699,52.4439 L153.972,52.4439 L153.972,41.4439 L143.699,41.4439 L143.699,52.4439 Z M156.336,52.4439 L155.973,52.4439 L155.973,40.4439 C155.973,39.8919 155.525,39.4439 154.973,39.4439 L142.699,39.4439 C142.146,39.4439 141.699,39.8919 141.699,40.4439 L141.699,52.4439 L141.336,52.4439 C140.783,52.4439 140.336,52.8919 140.336,53.4439 L140.336,57.4439 C140.336,57.9969 140.783,58.4439 141.336,58.4439 L156.336,58.4439 C156.889,58.4439 157.336,57.9969 157.336,57.4439 L157.336,53.4439 C157.336,52.8919 156.889,52.4439 156.336,52.4439 L156.336,52.4439 Z" id="Fill-5" fill="#222222" mask="url(#mask-2)"></path>
                        <path d="M33.7822,86.9384 C34.0712,86.2404 34.8712,85.9094 35.5682,86.1984 C36.2662,86.4874 36.5972,87.2874 36.3082,87.9854 C36.0192,88.6834 35.2192,89.0144 34.5212,88.7254 C33.8242,88.4364 33.4932,87.6364 33.7822,86.9384" id="Fill-6" fill="#222222" mask="url(#mask-2)"></path>
                        <path d="M71.7822,86.9384 C72.0712,86.2404 72.8712,85.9094 73.5682,86.1984 C74.2662,86.4874 74.5972,87.2874 74.3082,87.9854 C74.0192,88.6834 73.2192,89.0144 72.5212,88.7254 C71.8242,88.4364 71.4932,87.6364 71.7822,86.9384" id="Fill-7" fill="#222222" mask="url(#mask-2)"></path>
                        <path d="M110.7822,86.9384 C111.0712,86.2404 111.8712,85.9094 112.5682,86.1984 C113.2662,86.4874 113.5972,87.2874 113.3082,87.9854 C113.0192,88.6834 112.2192,89.0144 111.5212,88.7254 C110.8242,88.4364 110.4932,87.6364 110.7822,86.9384" id="Fill-8" fill="#222222" mask="url(#mask-2)"></path>
                        <path d="M148.7822,86.9384 C149.0712,86.2404 149.8712,85.9094 150.5682,86.1984 C151.2662,86.4874 151.5972,87.2874 151.3082,87.9854 C151.0192,88.6834 150.2192,89.0144 149.5212,88.7254 C148.8242,88.4364 148.4932,87.6364 148.7822,86.9384" id="Fill-9" fill="#222222" mask="url(#mask-2)"></path>
                        <path d="M169.3105,85.1899 C169.2455,84.8119 168.9795,84.5149 168.6155,84.4099 C167.8575,83.3959 167.4135,82.1709 167.4135,80.8549 C167.4135,79.3779 167.9565,77.9929 168.9825,76.8489 C169.4105,76.3709 169.4995,75.6829 169.2115,75.1119 C168.8645,74.4279 168.6895,73.7069 168.6895,72.9669 C168.6895,71.7499 169.1465,70.6099 170.0125,69.6719 C170.4495,69.1969 170.5465,68.5029 170.2585,67.9269 C169.9925,67.3959 169.8575,66.8359 169.8575,66.2629 C169.8575,64.0189 171.8805,62.1919 174.3705,62.1919 C176.7815,62.1919 178.7595,63.8939 178.8745,66.0569 L178.8805,66.2629 C178.8805,66.8359 178.7465,67.3959 178.4795,67.9289 C178.1935,68.5039 178.2895,69.1969 178.7265,69.6699 C179.5795,70.5979 180.0485,71.7689 180.0485,72.9669 C180.0485,73.7069 179.8735,74.4269 179.5265,75.1119 C179.2365,75.6839 179.3305,76.3759 179.7585,76.8519 C179.9115,77.0199 180.0525,77.1979 180.1875,77.3839 C180.9325,78.4149 181.3275,79.6149 181.3275,80.8549 C181.3275,84.3499 178.2065,87.1919 174.3725,87.1919 C172.3765,87.1919 170.5815,86.4189 169.3105,85.1899 L169.3105,85.1899 Z M169.3435,95.9609 L169.3435,87.9059 C170.4165,88.5309 171.6255,88.9689 172.9245,89.1549 L172.9395,95.9609 L169.3435,95.9609 Z M167.3435,95.9099 L162.3355,95.9099 L162.3355,73.4439 C162.3355,72.8919 161.8885,72.4439 161.3355,72.4439 L146.3355,72.4439 C145.7835,72.4439 145.3355,72.8919 145.3355,73.4439 L145.3355,95.9099 L130.7405,95.9099 L130.7405,26.4439 C130.7405,25.8919 130.2925,25.4439 129.7405,25.4439 C129.1875,25.4439 128.7405,25.8919 128.7405,26.4439 L128.7405,95.9609 L124.3355,95.9609 L124.3355,73.4439 C124.3355,72.8919 123.8885,72.4439 123.3355,72.4439 L108.3355,72.4439 C107.7835,72.4439 107.3355,72.8919 107.3355,73.4439 L107.3355,95.9609 L91.8335,95.9609 L91.8335,26.4439 C91.8335,25.8919 91.3865,25.4439 90.8335,25.4439 C90.2815,25.4439 89.8335,25.8919 89.8335,26.4439 L89.8335,95.9609 L85.3355,95.9609 L85.3355,73.4439 C85.3355,72.8919 84.8885,72.4439 84.3355,72.4439 L69.3355,72.4439 C68.7835,72.4439 68.3355,72.8919 68.3355,73.4439 L68.3355,95.9609 L52.9855,95.9609 L52.9855,26.4439 C52.9855,25.8919 52.5385,25.4439 51.9855,25.4439 C51.4325,25.4439 50.9855,25.8919 50.9855,26.4439 L50.9855,95.9609 L47.3355,95.9609 L47.3355,73.4439 C47.3355,72.8919 46.8885,72.4439 46.3355,72.4439 L31.3355,72.4439 C30.7835,72.4439 30.3355,72.8919 30.3355,73.4439 L30.3355,95.9609 L14.3815,95.9609 L14.3815,27.2929 C14.4005,27.2769 14.4235,27.2689 14.4415,27.2519 L33.0475,8.6459 L48.4365,24.0339 C48.8275,24.4249 49.4595,24.4249 49.8505,24.0339 L52.2345,21.6509 L54.6175,24.0339 C54.8045,24.2219 55.0585,24.3269 55.3245,24.3269 C55.5895,24.3269 55.8435,24.2219 56.0315,24.0339 L71.4705,8.5939 L87.0905,24.2139 C87.2865,24.4099 87.5415,24.5069 87.7975,24.5069 C88.0535,24.5069 88.3095,24.4099 88.5045,24.2139 L90.8885,21.8309 L93.2715,24.2139 C93.4585,24.4019 93.7125,24.5069 93.9785,24.5069 C94.2445,24.5069 94.4975,24.4019 94.6855,24.2139 L110.2545,8.6459 L125.6435,24.0339 C126.0185,24.4089 126.6825,24.4089 127.0575,24.0339 L129.4405,21.6509 L131.8245,24.0339 C132.2145,24.4249 132.8475,24.4249 133.2385,24.0339 L148.6775,8.5939 L167.2845,27.2009 C167.3325,27.2499 167.3955,27.2789 167.4535,27.3159 C167.3875,27.4489 167.3435,27.5939 167.3435,27.7519 L167.3435,64.4439 C167.3435,64.5149 167.3705,64.5759 167.3835,64.6419 C167.2215,65.2069 167.1275,65.7979 167.1275,66.4109 C167.1275,67.0909 167.2345,67.7579 167.4455,68.4039 C166.5185,69.6939 166.0175,71.2199 166.0175,72.7889 C166.0175,73.6359 166.1625,74.4639 166.4465,75.2629 C165.3815,76.7399 164.8045,78.4929 164.8045,80.2909 C164.8045,82.6329 165.7725,84.7599 167.3435,86.3569 L167.3435,95.9099 Z M147.3355,95.9099 L160.3355,95.9099 L160.3355,74.4439 L147.3355,74.4439 L147.3355,95.9099 Z M109.3355,95.9609 L122.3355,95.9609 L122.3355,74.4439 L109.3355,74.4439 L109.3355,95.9609 Z M70.3355,95.9609 L83.3355,95.9609 L83.3355,74.4439 L70.3355,74.4439 L70.3355,95.9609 Z M32.3355,95.9609 L45.3355,95.9609 L45.3355,74.4439 L32.3355,74.4439 L32.3355,95.9609 Z M33.0475,2.4649 L50.8205,20.2369 L49.1435,21.9129 L33.7545,6.5239 C33.3645,6.1339 32.7315,6.1339 32.3405,6.5239 L13.4145,25.4509 C13.4035,25.4509 13.3935,25.4439 13.3815,25.4439 C13.2085,25.4439 13.0535,25.4999 12.9125,25.5769 L9.8125,25.7009 L33.0475,2.4649 Z M71.4705,2.4139 L89.4745,20.4169 L87.7975,22.0929 L72.1775,6.4729 C71.9905,6.2859 71.7365,6.1799 71.4705,6.1799 C71.2055,6.1799 70.9515,6.2859 70.7635,6.4729 L55.3245,21.9129 L53.6485,20.2369 L71.4705,2.4139 Z M110.2545,2.4649 L128.0265,20.2369 L126.3505,21.9129 L110.9615,6.5239 C110.5715,6.1339 109.9385,6.1339 109.5475,6.5239 L93.9785,22.0929 L92.3025,20.4169 L110.2545,2.4649 Z M148.6775,2.4139 L171.9145,25.6499 L168.4215,25.5109 L149.3845,6.4729 C149.0095,6.0979 148.3455,6.0979 147.9705,6.4729 L132.5315,21.9129 L130.8545,20.2369 L148.6775,2.4139 Z M12.3815,94.1649 L8.8675,94.1649 C7.3575,94.1629 6.1335,92.9399 6.1315,91.4299 C6.1325,89.9359 7.3315,88.7189 8.8265,88.6949 L8.8295,88.6949 C8.8985,88.7049 8.9685,88.7129 9.0395,88.7169 C9.7935,88.7649 10.4435,88.1919 10.4915,87.4389 C10.5025,87.2509 10.4755,87.0629 10.4125,86.8859 C10.2985,86.5899 10.2385,86.2759 10.2345,85.9599 C10.2365,84.6519 11.1555,83.5629 12.3815,83.2929 L12.3815,94.1649 Z M183.3355,95.9609 L175.8885,95.9609 L175.8735,89.1469 C180.4355,88.4649 183.9355,84.7599 183.9355,80.2909 C183.9355,78.4869 183.3675,76.7489 182.2935,75.2629 L182.2915,75.2629 C182.5775,74.4639 182.7215,73.6359 182.7215,72.7889 C182.7215,71.2209 182.2195,69.6939 181.2935,68.4039 C181.5035,67.7579 181.6105,67.0909 181.6105,66.4109 C181.6105,66.2969 181.6075,66.1819 181.6015,66.0649 C181.4085,62.4349 178.2315,59.5889 174.3705,59.5889 C172.4175,59.5889 170.6475,60.3239 169.3435,61.5109 L169.3435,27.7519 C169.3435,27.6789 169.3175,27.6149 169.3025,27.5469 L174.3895,27.7509 C174.4035,27.7509 174.4165,27.7519 174.4295,27.7519 C174.8255,27.7519 175.1855,27.5179 175.3455,27.1519 C175.5105,26.7749 175.4275,26.3359 175.1365,26.0439 L149.3845,0.2929 C148.9945,-0.0981 148.3615,-0.0981 147.9705,0.2929 L129.4405,18.8229 L110.9615,0.3439 C110.5865,-0.0311 109.9225,-0.0311 109.5475,0.3439 L90.8885,19.0029 L72.1775,0.2929 C71.7875,-0.0981 71.1545,-0.0981 70.7635,0.2929 L52.2345,18.8229 L33.7545,0.3439 C33.3645,-0.0471 32.7315,-0.0471 32.3405,0.3439 L6.5895,26.0949 C6.2985,26.3859 6.2155,26.8259 6.3805,27.2029 C6.5405,27.5679 6.9005,27.8019 7.2965,27.8019 C7.3095,27.8019 7.3235,27.8019 7.3365,27.8009 L12.3815,27.5999 L12.3815,80.5229 C9.6385,80.8179 7.5015,83.1389 7.4985,85.9599 C7.4985,86.0169 7.4995,86.0739 7.5015,86.1319 C4.5765,86.8839 2.8145,89.8659 3.5665,92.7919 C3.9105,94.1309 4.7425,95.2319 5.8315,95.9609 L0.9995,95.9609 C0.4475,95.9609 -0.0005,96.4089 -0.0005,96.9609 C-0.0005,97.5129 0.4475,97.9609 0.9995,97.9609 L13.3815,97.9609 L51.9855,97.9609 L183.3355,97.9609 C183.8885,97.9609 184.3355,97.5129 184.3355,96.9609 C184.3355,96.4089 183.8885,95.9609 183.3355,95.9609 L183.3355,95.9609 Z" id="Fill-10" fill="#222222" mask="url(#mask-2)"></path>
                    </g>
                </g>
            </g>
        </g>
    </g>
</svg>