<?xml version="1.0" encoding="UTF-8"?>
<svg width="165px" height="149px" viewBox="0 0 165 149" version="1.1" xmlns="http://www.w3.org/2000/svg" xmlns:xlink="http://www.w3.org/1999/xlink">
    <title>villa</title>
    <g id="Page-1" stroke="none" stroke-width="1" fill="none" fill-rule="evenodd">
        <g id="Homepage---woningkeuren.nl" transform="translate(-1433.000000, -478.000000)">
            <g id="Group-3-Copy" transform="translate(239.000000, 397.000000)">
                <g id="villa" transform="translate(1104.000000, 36.000000)">
                    <g transform="translate(90.000000, 45.000000)">
                        <path d="M117.330177,10.7780192 C130.710729,18.4805479 143.810324,28.5288468 153.257485,43.1286399 C162.669527,57.7284329 168.464254,76.9147318 162.704646,91.6895823 C156.945039,106.464433 139.666216,116.792824 123.405861,127.96149 C107.145505,139.165168 91.9387367,151.209122 78.5933047,148.653283 C65.2478726,146.097444 53.7637771,128.976824 38.7326063,117.388019 C23.7014354,105.799214 5.12318917,99.7772375 0.943961762,88.6785938 C-3.20014609,77.5799501 7.01964531,61.4046398 17.5906323,50.4110306 C28.1616193,39.4174215 39.0135627,33.5705019 48.9172781,24.7476054 C58.856113,15.9247089 67.7764808,4.16084681 79.0849785,0.939789344 C90.3583566,-2.24625663 103.984745,3.07549049 117.330177,10.7780192 Z" id="Blob" fill="#0D3A97" fill-rule="nonzero" opacity="0.049999997"></path>
                        <polygon id="Stroke-1" stroke="#222222" stroke-width="2" stroke-linecap="round" stroke-linejoin="round" points="153.5508 50 118.1958 14.645 82.8398 50 91.6788 49.646 118.1958 23.13 144.7118 49.646"></polygon>
                        <polyline id="Stroke-2" stroke="#222222" stroke-width="2" stroke-linecap="round" stroke-linejoin="round" points="144.1953 50 144.1953 112 91.1953 112 91.1953 50"></polyline>
                        <polygon id="Stroke-4" stroke="#222222" stroke-width="2" stroke-linecap="round" stroke-linejoin="round" points="109.195 69 127.195 69 127.195 51 109.195 51"></polygon>
                        <polyline id="Stroke-5" stroke="#022222" stroke-width="2" stroke-linecap="round" stroke-linejoin="round" points="30.1953 101 30.1953 83 43.1953 83 43.1953 103"></polyline>
                        <polygon id="Stroke-6" stroke="#022222" stroke-width="2" stroke-linecap="round" stroke-linejoin="round" points="50.695 105 63.695 105 63.695 83 50.695 83"></polygon>
                        <polygon id="Stroke-7" stroke="#022222" stroke-width="2" stroke-linecap="round" stroke-linejoin="round" points="71.195 105 84.195 105 84.195 83 71.195 83"></polygon>
                        <polygon id="Stroke-8" stroke="#222222" stroke-width="2" stroke-linecap="round" stroke-linejoin="round" points="107.195 112 128.195 112 128.195 85 107.195 85"></polygon>
                        <polygon id="Stroke-10" stroke="#222222" stroke-width="1.773" stroke-linecap="round" stroke-linejoin="round" points="107.195 73 129.195 73 129.195 69 107.195 69"></polygon>
                        <g id="Group-34" transform="translate(15.000000, 10.000000)">
                            <polygon id="Stroke-11" stroke="#222222" stroke-width="2" stroke-linecap="round" stroke-linejoin="round" points="2.195 102 34.195 102 34.195 97 2.195 97"></polygon>
                            <path d="M94.6411,87.4941 C94.9301,86.7961 95.7301,86.4651 96.4281,86.7541 C97.1261,87.0431 97.4571,87.8431 97.1681,88.5411 C96.8791,89.2391 96.0791,89.5701 95.3811,89.2811 C94.6831,88.9921 94.3521,88.1921 94.6411,87.4941" id="Fill-13" fill="#222222"></path>
                            <polyline id="Stroke-14" stroke="#022222" stroke-width="2" stroke-linecap="round" stroke-linejoin="round" points="77 29.876 17 29.876 33.577 13.653 93.577 13.653"></polyline>
                            <polyline id="Stroke-15" stroke="#022222" stroke-width="2" stroke-linecap="round" stroke-linejoin="round" points="76 65.876 0 65.876 16.577 49.653 75.577 49.653"></polyline>
                            <line x1="24.1953" y1="30" x2="24.1953" y2="49" id="Stroke-16" stroke="#022222" stroke-width="2" stroke-linecap="round" stroke-linejoin="round"></line>
                            <polygon id="Stroke-17" stroke="#022222" stroke-width="2" stroke-linecap="round" stroke-linejoin="round" points="24.195 45 54.195 45 54.195 35 24.195 35"></polygon>
                            <line x1="43.1953" y1="35" x2="43.1953" y2="45" id="Stroke-18" stroke="#022222" stroke-width="2" stroke-linecap="round" stroke-linejoin="round"></line>
                            <line x1="8.1953" y1="66" x2="8.1953" y2="97" id="Stroke-19" stroke="#222222" stroke-width="2" stroke-linecap="round" stroke-linejoin="round"></line>
                            <line x1="141.1953" y1="102" x2="0.1953" y2="102" id="Stroke-20" stroke="#222222" stroke-width="2" stroke-linecap="round" stroke-linejoin="round"></line>
                            <path d="M9.1953,97 C9.1953,91 15.0963,90 16.7823,92 C18.4673,89 25.2123,86 27.7403,93 C27.7403,93 31.9553,94 30.2693,97 L9.1953,97 Z" id="Stroke-21" stroke="#222222" stroke-width="2" stroke-linecap="round" stroke-linejoin="round"></path>
                            <polygon id="Fill-22" fill="#F3F5FA" points="125.195 102 133.195 102 133.195 90 125.195 90"></polygon>
                            <polygon id="Stroke-23" stroke="#222222" stroke-width="2" stroke-linecap="round" stroke-linejoin="round" points="125.195 102 133.195 102 133.195 90 125.195 90"></polygon>
                            <polygon id="Fill-24" fill="#F3F5FA" points="42.82 17 54.82 17 54.82 5 42.82 5"></polygon>
                            <polygon id="Stroke-25" stroke="#022222" stroke-width="2" stroke-linecap="round" stroke-linejoin="round" points="42.82 17 54.82 17 54.82 5 42.82 5"></polygon>
                            <polygon id="Fill-26" fill="#FFFFFF" points="40.57 5 57.195 5 57.195 0 40.57 0"></polygon>
                            <polygon id="Stroke-27" stroke="#022222" stroke-width="2" stroke-linecap="round" stroke-linejoin="round" points="40.57 5 57.195 5 57.195 0 40.57 0"></polygon>
                            <polygon id="Fill-28" fill="#F3F5FA" points="139.9453 90 118.4453 90 123.4453 81 134.9453 81"></polygon>
                            <polygon id="Stroke-29" stroke="#222222" stroke-width="2" stroke-linecap="round" stroke-linejoin="round" points="139.9453 90 118.4453 90 123.4453 81 134.9453 81"></polygon>
                            <polygon id="Fill-30" fill="#F3F5FA" points="138.4453 81 119.9453 81 124.9453 72 133.4453 72"></polygon>
                            <polygon id="Stroke-31" stroke="#222222" stroke-width="2" stroke-linecap="round" stroke-linejoin="round" points="138.4453 81 119.9453 81 124.9453 72 133.4453 72"></polygon>
                            <polygon id="Fill-32" fill="#F3F5FA" points="137.1953 72 121.1953 72 129.1953 58"></polygon>
                            <polygon id="Stroke-33" stroke="#222222" stroke-width="2" stroke-linecap="round" stroke-linejoin="round" points="137.1953 72 121.1953 72 129.1953 58"></polygon>
                        </g>
                    </g>
                </g>
            </g>
        </g>
    </g>
</svg>