<svg xmlns="http://www.w3.org/2000/svg" version="1.1" viewBox="0 0 128.8 34.6"><g><g id="Layer_1"><g><path d="M2.2,3.6l4.4,8.1h5.1s4.4-8.1,4.4-8.1h2.2s0-1.5,0-1.5h-6.6v1.5h1.9l-3.2,5.9-3.2-5.9h2.3v-1.5H0v1.5h2.2Z"></path><path d="M58.7,3.6v-1.5h8.8v1.5h-2.2v6.6h2c1.9,0,3.1-1.2,3.1-2.9h1.4v4.4h-13.2v-1.5h2.2V3.6h-2.2Z"></path><path d="M37.3,1.9c-4.4,0-6.8,2.2-6.8,5s2.3,5,6.8,5,6.8-2.2,6.8-5-2.4-5-6.8-5ZM37.3,10.4c-1.6,0-2.3-1.8-2.3-3.6,0-1.8.9-3.4,2.4-3.4s2.3,1.7,2.3,3.5c0,1.7-.7,3.5-2.4,3.5h0Z"></path><path d="M86.8,3.6l4.4,8.1h5.1s4.4-8.1,4.4-8.1h2.2s0-1.5,0-1.5h-6.6v1.5h1.9l-3.2,5.9-3.2-5.9h2.3s0-1.5,0-1.5h-9.5v1.5s2.2,0,2.2,0Z"></path><path d="M122,1.9c-4.4,0-6.8,2.2-6.8,5s2.3,5,6.8,5,6.8-2.2,6.8-5-2.4-5-6.8-5ZM122,10.4c-1.6,0-2.3-1.8-2.3-3.6,0-1.8.9-3.4,2.4-3.4,1.5,0,2.3,1.7,2.3,3.5,0,1.7-.7,3.5-2.4,3.5h0Z"></path></g><path d="M0,19.1v-.9h128.8v.9H0Z"></path><g><path d="M32.7,25.9v3.3s0,0,0,0l-.5-.8-1.7-2.6H.8v1.3h4.1v7.2h4.4v-7.2h3.4c-.1.2-.2.3-.3.5,0,.2-.1.4-.2.7,0,.3,0,.6-.1.9,0,.3,0,.7,0,1.1s0,.8,0,1.1c0,.3,0,.6.1.9,0,.3.1.5.2.7,0,.2.2.4.3.5.1.2.3.3.4.4.1.1.3.2.6.3.2,0,.5.1.7.2.2,0,.5,0,.9,0s.7,0,1.1,0c.3,0,.8,0,1.3,0s.9,0,1.3,0c.3,0,.7,0,1.1,0,.4,0,.7,0,.9,0,.2,0,.5-.1.7-.2.2,0,.4-.2.6-.3.1-.1.3-.2.4-.4.1-.2.3-.3.3-.5,0-.2.1-.4.2-.7,0-.3,0-.6.1-.9,0-.3,0-.7,0-1.1s0-.8,0-1.1c0-.3,0-.6-.1-.9,0-.3-.1-.5-.2-.7,0-.2-.2-.4-.3-.5h3.6v7.2h4.1v-3.7s0,0,0,0l.4.8,1.8,2.9h4.2v-8.5h-4.1,0ZM18.6,27.8c.1.4.2,1.2.2,2.4s0,2.1-.2,2.4c-.1.4-.4.5-.9.5s-.8-.2-.9-.5c-.1-.4-.2-1.2-.2-2.4s0-2.1.2-2.4c.1-.4.4-.5.9-.5s.8.2.9.5Z"></path><path d="M71.5,25.9v3.3s0,0,0,0l-.5-.8-1.7-2.6h-22.2l-1.3,4.5v.6h-.2v-.6c-.1,0-1.3-4.5-1.3-4.5h-4.3l3.1,8.5h4.8l2.6-7.2h2.5l-2.3,7.2h12.2l-2.3-7.2h4.4v7.2h4.1v-3.7s0,0,0,0l.4.8,1.8,2.9h4.2v-8.5h-4.1ZM55.5,32.5l1.1-3.8.2-.8h0l.2.8,1.1,3.8h-2.6c0,0,0,0,0,0Z"></path><path d="M125.2,30l2.6-4h-4.5l-1.6,2.7-.8,1.3v-1.4c0,0,0-2.6,0-2.6h-9.4l-.8,1.7-.4,1.1h0l-.4-1.1-.8-1.7h-22.1l-1.6,2.7-.8,1.3v-1.4c0,0,0-2.6,0-2.6h-4.4v8.5h4.4v-4c0,0,.7,1.3.7,1.3l1.6,2.7h4.8l-2.9-4.5,1.8-2.7h2.5v4.2c0,.8.2,1.4.5,1.9.3.5.9.8,1.6,1,.8.2,1.8.3,3.1.3s2.4-.1,3.2-.3c.8-.2,1.3-.6,1.6-1,.3-.5.5-1.1.5-1.9v-4.2h1.3l2.5,3.6.5.6v3h4.3v-3l.5-.6,2.5-3.6h1.2v7.2h4.4v-4c0,0,.7,1.3.7,1.3l1.6,2.7h4.8l-2.9-4.5h0ZM99.2,32.3c-.2.2-.4.3-.6.3s-.5,0-.6-.3c-.1-.2,0-.5,0-1v-4.2h1.5v4.2c0,.5,0,.7,0,.9Z"></path></g></g></g></svg>