<svg xmlns="http://www.w3.org/2000/svg" width="180" height="77" viewBox="0 0 180 77">
    <g>
        <g>
            <g>
                <g>
                    <path fill="#fff" d="M109.506 4.138l-4.29 13.869c-.773 2.484-1.626 5.397-2.313 8.426-.772-2.809-1.527-5.261-2.468-8.3L95.997 4.137h-6.99L99.02 34.246h7.923l10.325-30.108h-7.763"/>
                </g>
                <g>
                    <path fill="#fff" d="M156.994 4.138h-7.425l-2.812 13.165a375.068 375.068 0 0 0-1.363 7.937 320.808 320.808 0 0 0-1.308-7.62l-2.515-13.482h-7.788l-2.76 13.229c-.002.005-.875 4.78-.875 4.78a331.748 331.748 0 0 1-.65 3.553c-.4-2.182-.932-4.967-1.57-8.199l-2.79-13.363h-6.919l7.314 30.108h7.678l2.926-13.044c.57-2.915.946-5.484 1.32-8.167.44 2.936.857 5.327 1.408 8.074l2.676 13.137h7.44l8.013-30.108"/>
                </g>
                <g>
                    <path fill="#fff" d="M160.207 4.138l.072 30.108h19.654l-.025-6.143H167.21l-.025-6.226h11.337l.01-6.14H167.16l-.01-5.46h12.048l.015-6.14h-19.005"/>
                </g>
                <g>
                    <path fill="#fff" d="M75.98 36.136l-35.108-35.1a3.374 3.374 0 0 0-4.777 0L25.84 11.287l4.888 4.889c8.3-2.874 17.873-1.026 24.504 5.605 9.246 9.25 9.246 24.24 0 33.49-9.25 9.253-24.244 9.253-33.494 0-8.175-8.177-9.11-20.836-2.83-30.055l-3.497-3.5L.987 36.137a3.391 3.391 0 0 0 0 4.782L36.095 76.02a3.378 3.378 0 0 0 4.78 0l35.104-35.1a3.392 3.392 0 0 0 0-4.784"/>
                </g>
                <g>
                    <path fill="#0fafa9" d="M55.23 21.782c-6.63-6.631-16.203-8.479-24.503-5.605l5.461 5.465c5.096-.693 10.443.903 14.36 4.82 6.664 6.666 6.664 17.466 0 24.129-6.665 6.664-17.466 6.664-24.129 0-5.579-5.578-6.467-14.05-2.709-20.572l14.773 14.772V34.373L8.214 4.103v10.425l10.694 10.69c-6.282 9.218-5.346 21.877 2.83 30.054 9.249 9.253 24.243 9.253 33.493 0 9.246-9.25 9.246-24.24 0-33.49"/>
                </g>
                <g>
                    <path fill="#fff" d="M98.57 53.667l-.932 3.427H95.58l3.5-12.122h2.537l3.543 12.122h-2.139l-.987-3.427zm3.134-1.673l-.86-2.988c-.208-.75-.388-1.575-.554-2.278h-.035c-.159.71-.325 1.55-.518 2.271l-.843 2.995z"/>
                </g>
                <g>
                    <path fill="#fff" d="M113.717 54.47c0 1.041.03 1.911.065 2.624h-1.74l-.096-1.324h-.047c-.332.614-1.11 1.522-2.523 1.522-1.436 0-2.743-.959-2.743-3.82v-5.134h1.994v4.764c0 1.454.413 2.386 1.469 2.386.797 0 1.315-.617 1.52-1.183.067-.19.108-.428.108-.684v-5.283h1.993v6.133"/>
                </g>
                <g>
                    <path fill="#fff" d="M118.395 46.088v2.25h1.895v1.65h-1.895v3.863c0 1.071.256 1.616 1.019 1.616.36 0 .548-.027.773-.096l.04 1.685c-.298.124-.822.227-1.45.227-.731 0-1.34-.277-1.71-.722-.428-.503-.624-1.309-.624-2.456v-4.118h-1.124v-1.649h1.124v-1.63l1.952-.62"/>
                </g>
                <g>
                    <path fill="#fff" d="M125.38 57.292c-2.222 0-3.942-1.705-3.942-4.512 0-2.872 1.702-4.64 4.076-4.64 2.344 0 3.913 1.835 3.913 4.49 0 3.22-2.032 4.662-4.031 4.662h-.016zm.048-1.61c1.142 0 1.936-1.223 1.936-2.986 0-1.376-.548-2.948-1.922-2.948-1.399 0-1.972 1.518-1.972 2.977 0 1.685.757 2.957 1.942 2.957z"/>
                </g>
                <g>
                    <path fill="#fff" d="M131.315 50.942c0-1.012-.028-1.846-.065-2.604h1.701l.091 1.285h.048c.38-.678 1.096-1.483 2.425-1.483 1.044 0 1.846.644 2.185 1.615h.032c.276-.48.607-.846.963-1.101.449-.335.945-.514 1.602-.514 1.301 0 2.628.991 2.628 3.8v5.154h-1.943V52.25c0-1.46-.454-2.317-1.404-2.317-.681 0-1.181.535-1.385 1.166a2.75 2.75 0 0 0-.101.738v5.256h-1.942V52.03c0-1.234-.445-2.097-1.36-2.097-.747 0-1.245.652-1.434 1.252a2.51 2.51 0 0 0-.098.732v5.176h-1.943v-6.152"/>
                </g>
                <g>
                    <path fill="#fff" d="M148.725 57.292c-2.223 0-3.942-1.705-3.942-4.512 0-2.872 1.702-4.64 4.076-4.64 2.345 0 3.913 1.835 3.913 4.49 0 3.22-2.032 4.662-4.031 4.662h-.016zm.048-1.61c1.143 0 1.935-1.223 1.935-2.986 0-1.376-.547-2.948-1.922-2.948-1.398 0-1.971 1.518-1.971 2.977 0 1.685.757 2.957 1.942 2.957z"/>
                </g>
                <g>
                    <path fill="#fff" d="M156.938 46.088v2.25h1.896v1.65h-1.896v3.863c0 1.071.257 1.616 1.019 1.616.361 0 .548-.027.773-.096l.04 1.685c-.298.124-.82.227-1.449.227-.731 0-1.341-.277-1.711-.722-.428-.503-.623-1.309-.623-2.456v-4.118h-1.124v-1.649h1.124v-1.63l1.951-.62"/>
                </g>
                <g>
                    <path fill="#fff" d="M161.572 46.985c.725 0 1.182-.562 1.18-1.264-.007-.714-.461-1.259-1.171-1.259-.704 0-1.178.551-1.176 1.259-.002.702.457 1.264 1.152 1.264zm1.003 10.109v-8.756h-1.993v8.756z"/>
                </g>
                <g>
                    <path fill="#fff" d="M166.224 48.338l1.276 4.446c.225.77.39 1.476.538 2.188h.048c.148-.724.323-1.412.535-2.188l1.248-4.446h2.094l-3.007 8.756h-1.962l-2.925-8.756h2.155"/>
                </g>
                <g>
                    <path fill="#fff" d="M174.66 53.312c.055 1.588 1.16 2.281 2.434 2.281.916 0 1.572-.16 2.174-.406l.295 1.524c-.675.318-1.61.555-2.753.555-2.558 0-4.055-1.755-4.055-4.439 0-2.417 1.319-4.703 3.852-4.703 2.56 0 3.394 2.34 3.394 4.258a5.5 5.5 0 0 1-.07.947l-5.27-.017zm3.466-1.543c.008-.811-.31-2.134-1.644-2.134-1.225 0-1.735 1.237-1.824 2.134z"/>
                </g>
            </g>
        </g>
    </g>
<script xmlns=""/></svg>