<svg width="49" height="48" viewBox="0 0 49 48" fill="none" xmlns="http://www.w3.org/2000/svg" class="hm-product-carousel-product-items__image"><circle cx="24.5" cy="24" r="24" fill="#C343FF"></circle><circle cx="24.5" cy="24" r="24" fill="url(#web_svg__paint0_linear_4859_87259)"></circle><mask id="web_svg__mask0_4859_87259" style="mask-type:alpha" maskUnits="userSpaceOnUse" x="0" y="0" width="49" height="48"><circle cx="24.5" cy="24" r="24" fill="#195AFE"></circle></mask><g mask="url(#web_svg__mask0_4859_87259)"><path fill="url(#web_svg__paint1_radial_4859_87259)" d="M-17.682 21.818h54.909v51.273h-54.909z"></path><path d="m-5.667 33.06-1.916-6.503h1.277l1.393 5.327-.179-.012 1.533-5.315h1.431l1.546 5.315h-.191l1.405-5.315H1.91L-.007 33.06h-1.316l-1.61-5.532h.192l-1.61 5.532h-1.316Zm9.929 0-1.917-6.503h1.278l1.393 5.327-.18-.012 1.534-5.315H7.8l1.547 5.315h-.192l1.405-5.315h1.278L9.922 33.06H8.606l-1.61-5.532h.192l-1.61 5.532H4.262Zm9.928 0-1.916-6.503h1.278l1.392 5.327-.179-.012 1.533-5.315h1.431l1.546 5.315h-.191l1.405-5.315h1.278L19.85 33.06h-1.316l-1.61-5.532h.192l-1.61 5.532H14.19Z" fill="url(#web_svg__paint2_linear_4859_87259)"></path><path opacity="0.9" d="M-17.682 15.636a4.364 4.364 0 0 1 4.364-4.363h47.273a3.273 3.273 0 0 1 3.272 3.272v7.273h-54.909v-6.182Z" fill="url(#web_svg__paint3_linear_4859_87259)"></path><g opacity="0.9"><rect x="-10.046" y="14.909" width="37.818" height="3.273" rx="1.636" fill="url(#web_svg__paint4_linear_4859_87259)"></rect><rect x="29.59" y="14.909" width="3.273" height="3.273" rx="1.636" fill="#fff"></rect></g></g><defs><linearGradient id="web_svg__paint0_linear_4859_87259" x1="14.682" y1="5.091" x2="33.482" y2="45.254" gradientUnits="userSpaceOnUse"><stop stop-color="#3971FF"></stop><stop offset="1" stop-color="#00BBE4"></stop></linearGradient><linearGradient id="web_svg__paint2_linear_4859_87259" x1="31.996" y1="30.034" x2="-15.604" y2="36.613" gradientUnits="userSpaceOnUse"><stop stop-color="#fff"></stop><stop offset="1" stop-color="#fff" stop-opacity="0"></stop></linearGradient><linearGradient id="web_svg__paint3_linear_4859_87259" x1="37.227" y1="7.272" x2="23.773" y2="29.273" gradientUnits="userSpaceOnUse"><stop stop-color="#fff" stop-opacity="0.88"></stop><stop offset="1" stop-color="#fff" stop-opacity="0.1"></stop><stop offset="1" stop-color="#fff" stop-opacity="0"></stop></linearGradient><linearGradient id="web_svg__paint4_linear_4859_87259" x1="27.038" y1="15.845" x2="-4.154" y2="15.749" gradientUnits="userSpaceOnUse"><stop stop-color="#fff"></stop><stop offset="1" stop-color="#5A9EFA"></stop></linearGradient><radialGradient id="web_svg__paint1_radial_4859_87259" cx="0" cy="0" r="1" gradientUnits="userSpaceOnUse" gradientTransform="rotate(-178.761 20.496 14.144) scale(40.5549 30.8611)"><stop stop-color="#fff" stop-opacity="0.88"></stop><stop offset="1" stop-color="#fff" stop-opacity="0.1"></stop></radialGradient></defs></svg>