<svg xmlns="http://www.w3.org/2000/svg" width="24" height="23" viewBox="0 0 24 23" fill="none">
    <path d="M20.25 9.28283V3H18.3333V4.91667H6.83333V3H4.91667V9.28379C3.77625 9.94792 3 11.1708 3 12.5833V16.4167C3 16.6708 3.10097 16.9146 3.28069 17.0943C3.46041 17.274 3.70417 17.375 3.95833 17.375H4.91667V21.2083H6.83333V17.375H18.3333V21.2083H20.25V17.375H21.2083C21.4625 17.375 21.7063 17.274 21.886 17.0943C22.0657 16.9146 22.1667 16.6708 22.1667 16.4167V12.5833C22.1667 11.1708 21.3895 9.94792 20.25 9.28283V9.28283ZM11.625 8.75H6.83333V6.83333H11.625V8.75ZM18.3333 8.75H13.5417V6.83333H18.3333V8.75Z" fill="#80A1C9"/>
</svg>