<svg width="100%" viewBox="0 0 156 52" fill="none" xmlns="http://www.w3.org/2000/svg">
<path d="M0 14.1662L11.9155 34.9293V52.0001H20.2131V34.9293V33.0832L9.08786 14.1662H0Z" fill="black"></path>
<path d="M51.7229 13.9939C41.1904 13.9939 32.6582 22.4985 32.6582 32.9969C32.6582 43.4954 41.1904 52 51.7229 52C62.2555 52 70.7877 43.4954 70.7877 32.9969C70.7877 22.4985 62.2555 13.9939 51.7229 13.9939ZM51.9452 43.9508C45.8949 43.9508 41.0052 39.0646 41.0052 33.0462C41.0052 27.0277 45.9072 22.1415 51.9452 22.1415C57.9832 22.1415 62.8852 27.0277 62.8852 33.0462C62.8852 39.0646 57.9832 43.9508 51.9452 43.9508Z" fill="black"></path>
<path d="M20.0765 30.4246L21.2495 29.0954C21.2495 29.0954 11.1244 8.52923 37.0792 0C36.8075 0.972308 35.2023 4.19692 35.1282 7.50769C35.2394 10.8185 35.5975 16.6892 34.8319 18.4492C34.8319 18.4492 33.3255 26.6462 23.7808 29.8708C23.7808 29.8708 23.9907 29.6862 26.0404 25.6615C26.4355 24.8246 27.2381 22.6708 27.695 19.8154C27.8431 17.2185 27.8678 15.6554 28.4852 13.4769C29.1026 11.2985 29.8928 9.14462 32.1278 6.38769C31.0288 7.37231 29.8435 8.28308 28.1889 11.6677C28.053 12 27.5221 12.8862 26.9665 15.2246C26.7072 17.1077 26.4849 18.6831 26.3985 19.52C26.312 20.3569 25.8058 22.9785 25.4107 24.2338C25.0155 25.4892 23.1757 30.4985 20.9532 31.8031C20.8667 31.5815 20.0765 30.4492 20.0765 30.4492" fill="#111"></path>
<path d="M70.8008 14.1662L82.7162 34.9293V52.0001H91.0139V34.9293V33.0832L79.8886 14.1662H70.8008Z" fill="black"></path>
<path d="M122.526 13.9939C111.993 13.9939 103.461 22.4985 103.461 32.9969C103.461 43.4954 111.993 52 122.526 52C133.058 52 141.59 43.4954 141.59 32.9969C141.59 22.4985 133.058 13.9939 122.526 13.9939ZM122.748 43.9508C116.698 43.9508 111.796 39.0646 111.796 33.0462C111.796 27.0277 116.698 22.1415 122.748 22.1415C128.798 22.1415 133.7 27.0277 133.7 33.0462C133.7 39.0646 128.798 43.9508 122.748 43.9508Z" fill="black"></path>
<path d="M91.7718 30.4246L92.9448 29.0954C92.9448 29.0954 82.8198 8.52923 108.774 0C108.515 0.972308 106.898 4.19692 106.824 7.50769C106.935 10.8185 107.293 16.6892 106.527 18.4492C106.527 18.4492 105.021 26.6462 95.4761 29.8708C95.4761 29.8708 95.686 29.6862 97.7357 25.6615C98.1308 24.8246 98.9334 22.6708 99.3903 19.8154C99.5385 17.2185 99.5631 15.6554 100.181 13.4769C100.798 11.2985 101.588 9.14462 103.823 6.38769C102.724 7.37231 101.539 8.28308 99.8842 11.6677C99.7484 12 99.2174 12.8862 98.6618 15.2246C98.4025 17.1077 98.1802 18.6831 98.0814 19.52C97.995 20.3569 97.4887 22.9785 97.0936 24.2338C96.6985 25.4892 94.8587 30.4985 92.6361 31.8031C92.5497 31.5815 91.7594 30.4492 91.7594 30.4492" fill="#111"></path>
<path d="M143.295 10.3386L156.001 4.71397L152.049 39.274H145.839L143.295 10.3386Z" fill="black"></path>
<path d="M153.469 47.6431C153.469 50.0554 151.506 52 149.086 52C146.666 52 144.715 50.0431 144.715 47.6431C144.715 45.2431 146.678 43.2739 149.086 43.2739C151.494 43.2739 153.469 45.2308 153.469 47.6431Z" fill="black"></path>
</svg>